<svg xmlns="http://www.w3.org/2000/svg" width="88" height="31" baseProfile="basic"><path d="M2.3.375l83.13.148c1.16 0 2.199-.171 2.199 2.332l-.102 27.555H.203V2.754C.203 1.52.324.375 2.301.375z" fill="#aab2ab"/><path d="M86.352 0H1.648C.738 0 0 .742 0 1.656v28.969c0 .207.168.375.371.375H87.63a.374.374 0 0 0 .371-.375V1.656A1.654 1.654 0 0 0 86.352 0zM1.648.75h84.704c.5 0 .902.406.902.906V21.79H26.516c-2.22 4.04-6.493 6.781-11.399 6.781-4.91 0-9.183-2.738-11.402-6.78H.746V1.655c0-.5.402-.906.902-.906z"/><path d="M25.121 14.473c.004 5.554-4.473 10.062-9.996 10.066-5.52.004-10-4.5-10.004-10.055v-.011c-.004-5.559 4.473-10.067 9.992-10.07 5.524-.005 10.004 4.5 10.008 10.058v.012z" fill="#fff"/><path d="M23.25 6.273c2.215 2.235 3.324 4.965 3.324 8.2 0 3.23-1.09 5.933-3.27 8.109-2.312 2.29-5.042 3.434-8.199 3.434-3.113 0-5.8-1.137-8.054-3.407-2.258-2.27-3.383-4.984-3.383-8.136 0-3.157 1.125-5.891 3.383-8.2 2.195-2.23 4.883-3.347 8.054-3.347 3.211 0 5.926 1.117 8.145 3.347zM8.543 7.777C6.668 9.68 5.73 11.914 5.73 14.473c0 2.562.93 4.773 2.782 6.64 1.855 1.867 4.066 2.801 6.629 2.801 2.562 0 4.789-.941 6.683-2.828 1.797-1.754 2.696-3.957 2.696-6.613 0-2.637-.915-4.871-2.739-6.711-1.828-1.84-4.039-2.758-6.64-2.758-2.602 0-4.801.926-6.598 2.773zm4.934 5.57c-.29-.628-.715-.94-1.29-.94-1.011 0-1.515.683-1.515 2.054 0 1.367.504 2.05 1.515 2.05.668 0 1.145-.331 1.43-1l1.403.75c-.668 1.196-1.668 1.794-3.004 1.794-1.032 0-1.86-.317-2.477-.953-.621-.637-.934-1.512-.934-2.63 0-1.1.32-1.972.961-2.617.641-.644 1.438-.968 2.391-.968 1.414 0 2.422.562 3.035 1.68zm6.59 0c-.286-.628-.708-.94-1.258-.94-1.032 0-1.551.683-1.551 2.054 0 1.367.52 2.05 1.55 2.05.669 0 1.137-.331 1.403-1l1.434.75c-.668 1.196-1.668 1.794-3.004 1.794-1.028 0-1.852-.317-2.47-.953-.62-.637-.929-1.512-.929-2.63 0-1.1.313-1.972.942-2.617.628-.644 1.43-.968 2.402-.968 1.41 0 2.418.562 3.027 1.68z"/></svg>