<svg xmlns="http://www.w3.org/2000/svg" width="120" height="42" version="1"><path d="M3.408.44l113.354.2c1.584 0 3-.234 3 3.16l-.14 37.33H.547V3.663C.547 1.988.71.44 3.407.44z" fill="#aab2ab"/><path d="M34.522 19.538c.005 7.53-6.096 13.637-13.626 13.642-7.53.004-13.64-6.096-13.644-13.625v-.017C7.248 12.008 13.35 5.901 20.88 5.896c7.531-.004 13.639 6.096 13.643 13.626v.016z" fill="#fff"/><path d="M31.971 8.433c3.024 3.024 4.536 6.726 4.536 11.105 0 4.38-1.486 8.043-4.458 10.988-3.153 3.102-6.88 4.653-11.181 4.653-4.249 0-7.912-1.538-10.987-4.614-3.076-3.075-4.614-6.751-4.614-11.027 0-4.275 1.538-7.977 4.614-11.105 2.997-3.024 6.66-4.536 10.987-4.536 4.38 0 8.08 1.512 11.103 4.536zm-20.054 2.034c-2.557 2.582-3.834 5.606-3.834 9.075 0 3.468 1.265 6.467 3.794 8.996 2.53 2.53 5.542 3.794 9.037 3.794 3.495 0 6.532-1.277 9.114-3.833 2.452-2.373 3.678-5.358 3.678-8.957 0-3.572-1.246-6.604-3.737-9.094-2.49-2.49-5.508-3.736-9.055-3.736-3.547 0-6.546 1.252-8.997 3.755zm6.727 7.55c-.391-.853-.976-1.278-1.756-1.278-1.378 0-2.067.928-2.067 2.783 0 1.856.689 2.784 2.067 2.784.91 0 1.561-.452 1.951-1.357l1.911 1.017c-.91 1.618-2.277 2.428-4.1 2.428-1.405 0-2.53-.431-3.376-1.293-.846-.861-1.269-2.05-1.269-3.563 0-1.488.436-2.669 1.308-3.543.872-.875 1.958-1.312 3.26-1.312 1.926 0 3.305.758 4.139 2.274l-2.068 1.06zm8.99 0c-.391-.853-.965-1.278-1.72-1.278-1.406 0-2.11.928-2.11 2.783 0 1.856.704 2.784 2.11 2.784.912 0 1.55-.452 1.915-1.357l1.953 1.017c-.909 1.618-2.274 2.428-4.092 2.428-1.404 0-2.527-.431-3.372-1.293-.843-.861-1.266-2.05-1.266-3.563 0-1.488.43-2.669 1.287-3.543.857-.875 1.947-1.312 3.273-1.312 1.923 0 3.3.758 4.13 2.274l-2.108 1.06z"/><path d="M117.753 0H2.247A2.25 2.25 0 0 0 0 2.246v39.247c0 .28.228.507.508.507h118.984c.28 0 .508-.227.508-.507V2.246A2.249 2.249 0 0 0 117.753 0zM2.247 1.014h115.506c.68 0 1.232.553 1.232 1.232v27.209H36.428c-3.026 5.47-8.856 9.185-15.546 9.185-6.694 0-12.522-3.711-15.547-9.185h-4.32V2.246c0-.68.553-1.232 1.232-1.232z"/><path d="M59.997 32.747c.315 0 .603.028.863.084.26.055.484.146.67.273.185.126.33.295.432.505.102.21.153.47.153.78 0 .333-.076.61-.228.833-.151.223-.376.404-.673.547.41.117.715.323.917.617.202.294.302.648.302 1.063 0 .334-.065.623-.195.867s-.305.444-.525.598c-.22.155-.471.27-.753.344a3.381 3.381 0 0 1-.87.111h-3.215v-6.622h3.122zm-.186 2.679c.26 0 .473-.063.64-.186.168-.123.251-.323.251-.6a.768.768 0 0 0-.083-.38.625.625 0 0 0-.224-.232.938.938 0 0 0-.32-.115 2.157 2.157 0 0 0-.376-.032h-1.365v1.545h1.477zm.085 2.81c.142 0 .278-.014.409-.042.13-.028.245-.075.344-.139a.704.704 0 0 0 .237-.265.901.901 0 0 0 .088-.426c0-.34-.096-.582-.288-.727-.193-.145-.446-.218-.762-.218h-1.59v1.817h1.562zm2.794-5.489h1.634l1.55 2.615 1.542-2.615h1.624l-2.459 4.08v2.542h-1.46v-2.578l-2.43-4.044zm23.744 0L89.2 37.19h.015v-4.443h1.367v6.622h-1.457l-2.756-4.434h-.019v4.434h-1.366v-6.622h1.449zm9.677 1.764a1.492 1.492 0 0 0-.766-.612 1.504 1.504 0 0 0-.514-.088c-.328 0-.606.063-.835.19a1.56 1.56 0 0 0-.556.51 2.232 2.232 0 0 0-.312.727 3.613 3.613 0 0 0 0 1.655c.065.263.169.5.312.71.141.21.327.378.556.505.229.127.507.19.835.19.445 0 .793-.136 1.044-.409.25-.271.403-.63.459-1.076h1.41a3.37 3.37 0 0 1-.288 1.123 2.596 2.596 0 0 1-1.503 1.394 3.23 3.23 0 0 1-1.122.187c-.507 0-.963-.089-1.369-.265a2.94 2.94 0 0 1-1.026-.728 3.216 3.216 0 0 1-.641-1.09 4.005 4.005 0 0 1-.224-1.352c0-.494.075-.953.224-1.377.148-.425.362-.794.641-1.11a2.938 2.938 0 0 1 1.026-.742c.406-.18.862-.269 1.37-.269.364 0 .709.053 1.034.158.324.105.615.259.871.46.258.201.47.45.636.748.167.296.272.637.315 1.02h-1.41a1.182 1.182 0 0 0-.167-.459zm5.607-19.531c.004 5.501-4.452 9.963-9.953 9.967-5.501.004-9.963-4.452-9.967-9.952v-.014c-.004-5.502 4.451-9.963 9.952-9.967 5.502-.004 9.964 4.452 9.968 9.952v.015z" fill="#fff"/><path d="M91.743 3.385c3.25 0 5.999 1.121 8.244 3.362 2.244 2.242 3.367 4.987 3.367 8.234 0 3.246-1.103 5.961-3.31 8.146-2.341 2.3-5.108 3.448-8.3 3.448-3.156 0-5.874-1.14-8.158-3.42-2.283-2.28-3.425-5.005-3.425-8.174 0-3.17 1.142-5.915 3.425-8.234 2.226-2.241 4.945-3.362 8.157-3.362zm-8.973 8.48a9.29 9.29 0 0 0-.518 3.116c0 2.57.937 4.791 2.814 6.667 1.877 1.874 4.112 2.811 6.706 2.811 2.593 0 4.847-.946 6.763-2.84a8.919 8.919 0 0 0 1.585-2.029l-4.373-1.946c-.296 1.47-1.606 2.464-3.19 2.58v1.788h-1.332v-1.788c-1.301-.014-2.56-.547-3.52-1.388l1.596-1.61c.77.724 1.54 1.049 2.59 1.049.68 0 1.434-.267 1.434-1.153a.866.866 0 0 0-.313-.696l-1.106-.493-1.377-.613c-.68-.304-1.257-.56-1.836-.817l-5.923-2.638zm9.002-6.393c-2.632 0-4.857.927-6.676 2.783a10.73 10.73 0 0 0-1.292 1.566l4.434 1.974c.4-1.23 1.568-1.976 2.987-2.058V7.949h1.331v1.788c.918.044 1.923.295 2.914 1.063l-1.524 1.566c-.562-.399-1.271-.68-1.982-.68-.576 0-1.39.177-1.39.9 0 .112.037.209.105.295l1.482.66 1.004.447c.641.287 1.255.559 1.862.83l5.942 2.644a10.08 10.08 0 0 0 .295-2.481c0-2.65-.93-4.89-2.787-6.726-1.839-1.856-4.074-2.783-6.705-2.783z"/><g transform="matrix(.99378 0 0 .9937 -177.694 -148.877)"><circle cx="242.562" cy="165.136" r="10.806" fill="#fff"/><path d="M245.69 162.01a.754.754 0 0 0-.754-.755h-4.772a.754.754 0 0 0-.754.754v4.773h1.33v5.652h3.618v-5.652h1.332v-4.773z"/><circle cx="242.55" cy="158.995" r="1.632"/><path clip-rule="evenodd" d="M242.535 153.23c-3.232 0-5.969 1.127-8.208 3.383-2.298 2.334-3.446 5.096-3.446 8.285s1.148 5.932 3.446 8.227c2.298 2.294 5.034 3.441 8.208 3.441 3.213 0 5.998-1.156 8.353-3.47 2.22-2.198 3.33-4.93 3.33-8.198 0-3.268-1.129-6.029-3.387-8.285-2.26-2.256-5.025-3.384-8.296-3.384zm.029 2.1c2.648 0 4.897.933 6.747 2.8 1.87 1.848 2.805 4.103 2.805 6.768 0 2.684-.915 4.91-2.746 6.68-1.928 1.906-4.197 2.859-6.806 2.859-2.61 0-4.858-.943-6.747-2.83-1.89-1.886-2.833-4.123-2.833-6.709 0-2.587.954-4.843 2.862-6.768 1.83-1.867 4.07-2.8 6.718-2.8z" fill-rule="evenodd"/></g></svg>