<svg xmlns="http://www.w3.org/2000/svg" width="120" height="42" baseProfile="basic"><path d="M3.406.477L116.762.68c1.586 0 3-.239 3 3.16l-.14 37.328H.546V3.699C.547 2.027.71.477 3.407.477z" fill="#aab2ab"/><path d="M34.523 19.574c.004 7.531-6.097 13.637-13.628 13.645-7.528.004-13.637-6.098-13.641-13.625v-.02c-.004-7.527 6.094-13.637 13.625-13.64 7.531-.004 13.64 6.097 13.644 13.625v.015z" fill="#fff"/><path d="M31.973 8.469c3.023 3.027 4.535 6.726 4.535 11.105 0 4.383-1.488 8.043-4.457 10.988-3.156 3.102-6.883 4.653-11.184 4.653-4.25 0-7.91-1.535-10.984-4.613-3.078-3.075-4.617-6.75-4.617-11.028 0-4.273 1.539-7.976 4.617-11.105 2.996-3.024 6.656-4.535 10.984-4.535 4.38 0 8.082 1.511 11.106 4.535zm-20.055 2.035c-2.559 2.582-3.836 5.605-3.836 9.074 0 3.469 1.266 6.469 3.797 8.996 2.527 2.531 5.539 3.797 9.035 3.797 3.496 0 6.531-1.277 9.113-3.836 2.453-2.37 3.68-5.355 3.68-8.957 0-3.57-1.246-6.601-3.738-9.094C27.48 7.996 24.46 6.75 20.914 6.75c-3.547 0-6.547 1.25-8.996 3.754zm6.727 7.55c-.391-.85-.977-1.277-1.758-1.277-1.375 0-2.067.926-2.067 2.782 0 1.855.692 2.785 2.067 2.785.91 0 1.562-.453 1.953-1.36l1.91 1.02c-.91 1.617-2.277 2.426-4.098 2.426-1.406 0-2.53-.43-3.379-1.29-.847-.863-1.27-2.05-1.27-3.566 0-1.488.438-2.668 1.31-3.543.87-.875 1.957-1.312 3.261-1.312 1.926 0 3.305.761 4.137 2.277zm8.988 0c-.39-.85-.965-1.277-1.719-1.277-1.406 0-2.11.926-2.11 2.782 0 1.855.704 2.785 2.11 2.785.91 0 1.55-.453 1.914-1.36l1.953 1.02c-.91 1.617-2.273 2.426-4.09 2.426-1.406 0-2.527-.43-3.375-1.29-.84-.863-1.265-2.05-1.265-3.566 0-1.488.43-2.668 1.289-3.543.855-.875 1.945-1.312 3.273-1.312 1.922 0 3.297.761 4.13 2.277z"/><path d="M117.754 0H2.246A2.249 2.249 0 000 2.246v39.246c0 .281.227.508.508.508h118.984a.507.507 0 00.508-.508V2.246A2.249 2.249 0 00117.754 0zM2.246 1.016h115.508c.68 0 1.23.55 1.23 1.23v27.246H36.43c-3.028 5.469-8.86 9.184-15.547 9.184-6.695 0-12.524-3.711-15.547-9.184h-4.32V2.246c0-.68.55-1.23 1.23-1.23z"/><path d="M86.266 37.73c.078.157.183.282.316.38.133.093.29.163.469.21.18.047.363.07.554.07.13 0 .27-.011.418-.03.145-.024.286-.063.415-.126a.914.914 0 00.324-.257.629.629 0 00.129-.41.577.577 0 00-.172-.438 1.356 1.356 0 00-.45-.277 4.284 4.284 0 00-.628-.196 17.33 17.33 0 01-.711-.183 6.233 6.233 0 01-.723-.23 2.364 2.364 0 01-.633-.348 1.697 1.697 0 01-.449-.532 1.639 1.639 0 01-.168-.773c0-.344.07-.637.215-.887.148-.25.336-.46.57-.629.235-.164.5-.289.797-.37a3.45 3.45 0 01.89-.118c.348 0 .68.039.997.113.316.078.601.203.847.38.247.171.446.394.59.663.145.27.215.594.215.977h-1.41a1.264 1.264 0 00-.125-.492.814.814 0 00-.281-.305 1.185 1.185 0 00-.403-.156 2.449 2.449 0 00-.492-.047c-.117 0-.234.011-.351.035-.118.027-.223.07-.32.129a.837.837 0 00-.235.234.62.62 0 00-.094.352c0 .129.028.234.074.316.051.082.149.156.293.223.145.066.344.137.602.203.258.07.59.156 1.004.262.125.023.297.07.515.132.22.067.438.168.653.313.219.14.402.332.562.57.157.239.235.543.235.914 0 .301-.059.582-.176.844a1.848 1.848 0 01-.524.672c-.234.187-.52.336-.863.441a4.078 4.078 0 01-1.191.157 4.19 4.19 0 01-1.063-.133 2.606 2.606 0 01-.91-.426 2.1 2.1 0 01-.625-.73c-.156-.301-.226-.653-.223-1.059h1.415c0 .223.039.41.12.562zm8.203-4.984l2.476 6.625h-1.511l-.5-1.476h-2.477l-.52 1.476h-1.464l2.504-6.625zm.086 4.063l-.836-2.43h-.02l-.863 2.43zm-34.559-4.063c.316 0 .606.031.863.086.262.055.485.145.672.273.184.125.328.293.43.504.102.211.152.47.152.778 0 .336-.074.613-.226.836a1.64 1.64 0 01-.672.547c.41.117.715.324.914.617.203.293.305.648.305 1.062 0 .332-.067.621-.196.867a1.683 1.683 0 01-.523.598 2.33 2.33 0 01-.754.344 3.4 3.4 0 01-.871.113h-3.215v-6.625zm-.187 2.68c.261 0 .476-.063.644-.184.164-.125.25-.324.25-.601a.726.726 0 00-.086-.38.612.612 0 00-.222-.234.918.918 0 00-.32-.113 1.97 1.97 0 00-.376-.035h-1.363v1.547zm.086 2.808c.144 0 .28-.011.41-.039a.966.966 0 00.343-.14.685.685 0 00.239-.266.897.897 0 00.086-.426c0-.34-.094-.582-.285-.726-.196-.145-.45-.219-.766-.219h-1.586v1.816zm2.796-5.488h1.633l1.551 2.617 1.54-2.617h1.624l-2.457 4.082v2.543h-1.46V36.79zm39.711-17.766c.004 5.844-4.73 10.586-10.578 10.594-5.844.004-10.586-4.73-10.59-10.578v-.016C81.23 9.137 85.964 4.395 91.81 4.39c5.847-.007 10.59 4.731 10.593 10.575v.015z" fill="#fff"/><path d="M91.742 3.387c-3.21 0-5.93 1.12-8.156 3.363-2.285 2.316-3.426 5.063-3.426 8.23 0 3.168 1.14 5.895 3.426 8.176 2.281 2.282 5.004 3.418 8.156 3.418 3.192 0 5.961-1.148 8.301-3.449 2.207-2.184 3.309-4.898 3.309-8.145 0-3.246-1.122-5.992-3.368-8.23-2.242-2.242-4.992-3.363-8.242-3.363zm.028 2.086c2.632 0 4.867.925 6.707 2.78 1.859 1.837 2.785 4.079 2.785 6.727 0 2.668-.907 4.88-2.727 6.637-1.918 1.895-4.172 2.844-6.765 2.844-2.59 0-4.829-.938-6.704-2.813-1.879-1.875-2.816-4.097-2.816-6.668 0-2.57.95-4.812 2.844-6.726 1.82-1.856 4.047-2.781 6.676-2.781z"/><path d="M86.602 13.344c.464-2.918 2.515-4.477 5.09-4.477 3.703 0 5.96 2.688 5.96 6.27 0 3.492-2.402 6.207-6.02 6.207-2.484 0-4.71-1.532-5.116-4.532h2.921c.086 1.56 1.098 2.106 2.543 2.106 1.649 0 2.723-1.531 2.723-3.871 0-2.453-.926-3.754-2.664-3.754-1.273 0-2.371.465-2.602 2.05l.848-.003-2.297 2.3-2.3-2.3z"/><path d="M74.098 15.219c0 5.93-4.809 10.734-10.739 10.734-5.93 0-10.738-4.805-10.738-10.734 0-5.934 4.809-10.739 10.738-10.739 5.93 0 10.739 4.805 10.739 10.739z" fill="#fff"/><path d="M66.469 12.11a.75.75 0 00-.75-.75h-4.742a.75.75 0 00-.75.75v4.742h1.324v5.617h3.594v-5.617h1.324zm-1.5-2.997a1.62 1.62 0 01-1.621 1.621 1.622 1.622 0 111.621-1.621z"/><path d="M63.332 3.387c-3.21 0-5.93 1.12-8.156 3.363-2.285 2.316-3.426 5.063-3.426 8.23 0 3.168 1.14 5.895 3.426 8.176 2.285 2.278 5.004 3.418 8.156 3.418 3.191 0 5.961-1.148 8.3-3.449 2.208-2.184 3.31-4.898 3.31-8.145 0-3.246-1.122-5.992-3.364-8.23-2.246-2.242-4.996-3.363-8.246-3.363zm.027 2.086c2.633 0 4.868.925 6.707 2.78 1.86 1.837 2.79 4.079 2.79 6.727 0 2.668-.91 4.88-2.731 6.637-1.918 1.895-4.172 2.84-6.766 2.84-2.59 0-4.828-.934-6.703-2.809-1.879-1.875-2.816-4.097-2.816-6.668 0-2.57.95-4.812 2.844-6.726 1.82-1.856 4.046-2.781 6.675-2.781z" fill-rule="evenodd"/></svg>