<?xml version="1.0" encoding="UTF-8"?>
<svg width="219px" height="92px" viewBox="0 0 219 92" version="1.1" xmlns="http://www.w3.org/2000/svg" xmlns:xlink="http://www.w3.org/1999/xlink">
    <!-- Generator: Sketch 46.2 (44496) - http://www.bohemiancoding.com/sketch -->
    <title>git</title>
    <desc>Created with Sketch.</desc>
    <defs></defs>
    <g id="Page-1" stroke="none" stroke-width="1" fill="none" fill-rule="evenodd">
        <g id="Logos" transform="translate(-30.000000, -2106.000000)" fill-rule="nonzero">
            <g id="git" transform="translate(30.000000, 2106.000000)">
                <path d="M131.439246,30.6167001 C126.579068,30.6167001 122.95931,32.9689832 122.95931,38.630071 C122.95931,42.8953976 125.344737,45.857013 131.177357,45.857013 C136.120772,45.857013 139.478641,42.9854467 139.478641,38.453975 C139.478641,33.3181737 136.474018,30.6167001 131.439246,30.6167001 L131.439246,30.6167001 L131.439246,30.6167001 Z M121.721934,70.5905041 C120.571854,71.9812627 119.425835,73.4600693 119.425835,75.2040206 C119.425835,78.6849193 123.928707,79.7324906 130.114574,79.7324906 C135.238672,79.7324906 142.218327,79.3782975 142.218327,74.6827362 C142.218327,71.8912136 138.860459,71.7191197 134.617446,71.4569768 L121.721934,70.5905041 L121.721934,70.5905041 Z M147.87128,30.8798436 C149.458857,32.8829362 151.139822,35.6704567 151.139822,39.6756413 C151.139822,49.3409133 143.453674,55.0000001 132.325407,55.0000001 C129.495378,55.0000001 126.933329,54.6528107 125.344737,54.2175734 L122.428426,58.8320903 L131.084986,59.3533747 C146.369984,60.3138987 155.377759,60.7501366 155.377759,72.326451 C155.377759,82.3429146 146.45728,88 131.084986,88 C115.095525,88 109,83.9948156 109,77.1160635 C109,73.1969258 110.767245,71.1117884 113.859163,68.2332183 C110.942854,67.0185558 109.972442,64.8423687 109.972442,62.4900857 C109.972442,60.57304 110.942854,58.8320903 112.535506,57.1761872 C114.125113,55.5242861 115.891344,53.8673824 118.011835,51.9523378 C113.683556,49.8621977 110.413999,45.3337276 110.413999,38.8892124 C110.413999,28.876751 117.12872,22 130.642413,22 C134.441838,22 136.739968,22.3441878 138.772148,22.8704748 L156,22.8704748 L156,30.2695107 L147.87128,30.8798436 L147.87128,30.8798436 Z" id="Shape" fill="#2F2707"></path>
                <path d="M171.316819,15.5400773 C166.316012,15.5400773 163.42256,12.6573443 163.42256,7.67926365 C163.42256,2.70820426 166.316012,0 171.316819,0 C176.404298,0 179.298758,2.70820426 179.298758,7.67926365 C179.298758,12.6573443 176.404298,15.5400773 171.316819,15.5400773 L171.316819,15.5400773 L171.316819,15.5400773 Z M160,68 L160,61.1071186 L164.474724,60.4982742 C165.703257,60.3217394 165.87761,60.0609494 165.87761,58.7489749 L165.87761,33.0842258 C165.87761,32.1263239 165.615577,31.5124642 164.735749,31.2526772 L160,29.5926483 L160.964484,22.5242352 L179.12239,22.5242352 L179.12239,58.7489749 C179.12239,60.1482137 179.207047,60.3217394 180.526284,60.4982742 L185,61.1071186 L185,68 L160,68 L160,68 Z" id="Shape" fill="#2F2707"></path>
                <path d="M219,64.4976433 C215.282554,66.3353742 209.839433,68 204.911631,68 C194.629078,68 190.741844,63.8001912 190.741844,53.8979821 L190.741844,30.9505007 C190.741844,30.4261536 190.741844,30.0749115 190.047801,30.0749115 L184,30.0749115 L184,22.2791485 C191.606667,21.4015465 194.629078,17.5469413 195.579291,8 L203.789646,8 L203.789646,20.4414177 C203.789646,21.0523173 203.789646,21.3170069 204.481702,21.3170069 L216.664682,21.3170069 L216.664682,30.0749115 L203.789646,30.0749115 L203.789646,51.0075314 C203.789646,56.1755204 205.000993,58.1883691 209.664681,58.1883691 C212.087376,58.1883691 214.590497,57.5764631 216.664682,56.7884329 L219,64.4976433" id="Shape" fill="#2F2707"></path>
                <path d="M90.2647753,41.9015999 L50.0961766,1.73525862 C47.7845617,-0.578419541 44.0324777,-0.578419541 41.7178345,1.73525862 L33.3768417,10.0764116 L43.9577792,20.6575523 C46.4167722,19.8267683 49.2361347,20.3839891 51.1964648,22.344357 C53.1658799,24.3168383 53.7190524,27.160482 52.8680955,29.6275978 L63.0654463,39.8251444 C65.5325148,38.9751806 68.3791321,39.5253353 70.3495567,41.498826 C73.1033058,44.2516185 73.1033058,48.7134237 70.3495567,51.4682351 C67.5947983,54.2230465 63.1330787,54.2230465 60.3773108,51.4682351 C58.3059424,49.394808 57.7941569,46.352301 58.8429638,43.8003907 L49.3330408,34.2902851 L49.3320314,59.3167725 C50.0033082,59.6498937 50.6372357,60.0930458 51.1964648,60.6502668 C53.9502139,63.4030592 53.9502139,67.8648644 51.1964648,70.6216947 C48.4417064,73.3754967 43.977968,73.3754967 41.2272473,70.6216947 C38.4734982,67.8648644 38.4734982,63.4030592 41.2272473,60.6502668 C41.907609,59.9709014 42.6949712,59.4570872 43.5348244,59.1118525 L43.5348244,33.8521803 C42.6949712,33.5089645 41.9086185,32.9981787 41.2272473,32.313766 C39.1407372,30.2302443 38.6390462,27.1685577 39.7080419,24.6065527 L29.2785201,14.1748119 L1.73598238,41.7158595 C-0.578660794,44.0315566 -0.578660794,47.7837127 1.73598238,50.0973909 L41.9045807,90.2647413 C44.217205,92.5784196 47.9682796,92.5784196 50.2839322,90.2647413 L90.2647753,50.2841407 C92.5784082,47.9694531 92.5784082,44.2152781 90.2647753,41.9015999" id="Shape" fill="#DE4C36"></path>
            </g>
        </g>
    </g>
</svg>