<?xml version="1.0" encoding="UTF-8" standalone="no"?>
<svg
   width="144.27612"
   height="30.295408"
   viewBox="0 0 36.069031 121.18163"
   version="1.1"
   id="svg2"
   sodipodi:docname="remark.svg"
   inkscape:version="1.3.2 (091e20e, 2023-11-25)"
   xmlns:inkscape="http://www.inkscape.org/namespaces/inkscape"
   xmlns:sodipodi="http://sodipodi.sourceforge.net/DTD/sodipodi-0.dtd"
   xmlns="http://www.w3.org/2000/svg"
   xmlns:svg="http://www.w3.org/2000/svg">
  <sodipodi:namedview
     id="namedview1"
     pagecolor="#ffffff"
     bordercolor="#000000"
     borderopacity="0.25"
     inkscape:showpageshadow="2"
     inkscape:pageopacity="0.0"
     inkscape:pagecheckerboard="0"
     inkscape:deskcolor="#d1d1d1"
     inkscape:zoom="3.3630806"
     inkscape:cx="84.149039"
     inkscape:cy="13.380589"
     inkscape:window-width="1072"
     inkscape:window-height="477"
     inkscape:window-x="222"
     inkscape:window-y="272"
     inkscape:window-maximized="0"
     inkscape:current-layer="svg2" />
  <defs
     id="defs2" />
  <path
     fill="#d80303"
     d="M -240.73764,119.66279 V 81.203625 q 0,-17.548011 8.19088,-27.962905 8.19088,-10.414894 22.02316,-10.414894 v 0 q 3.49876,0 7.29585,0.650931 3.82422,0.623809 6.75341,1.735816 v 0 -11.364169 q -1.97991,-0.867907 -5.34306,-1.383227 -3.39026,-0.51532 -7.13311,-0.51532 v 0 q -12.47618,0 -20.55857,6.238087 -8.10951,6.238088 -10.33353,17.683622 v 0 h -1.112 V 34.092503 h -29.56311 v 8.407857 h 19.39231 v 77.16243 z m -28.04427,0 h 55.22064 v -8.40786 h -55.22064 z m 133.57644,-77.786237 v 0 q 11.36417,0 17.76499,7.756925 6.40082,7.729803 6.40082,21.399352 v 0 h -48.95543 q 0,-13.750914 6.59068,-21.453596 6.59067,-7.702681 18.19894,-7.702681 z m 34.3366,56.658107 h -10.33353 q -1.97991,6.26521 -8.02814,9.76396 -6.04824,3.49876 -14.78156,3.49876 v 0 q -11.90661,0 -18.95836,-7.89254 -7.02463,-7.919661 -7.02463,-21.345109 v 0 -2.929189 h 59.50593 v -6.753407 q 0,-12.801641 -4.09544,-21.779063 -4.06832,-8.97742 -11.82524,-13.69667 -7.75693,-4.74637 -18.79563,-4.74637 v 0 q -10.57763,0 -18.52441,4.665003 -7.91966,4.637883 -12.31344,13.018619 -4.36666,8.380734 -4.36666,19.663536 v 0 12.476174 q 0,18.280306 9.57411,28.451106 9.5741,10.17079 26.82377,10.17079 v 0 q 8.65196,0 15.62234,-2.79358 6.94327,-2.76645 11.5269,-7.86541 4.55652,-5.07184 5.99399,-11.90661 z"
     id="path1"
     style="stroke-width:2.71222" />
  <path
     class="l"
     d="M 5.0429974,119.66279 V 58.258312 q 0,-12.720273 -4.71923998,-19.148216 Q -4.4226126,32.655032 -13.779742,32.655032 v 0 q -6.6178,0 -11.60827,3.498753 -5.01759,3.498753 -6.75341,9.384254 v 0 h -1.11201 q -1.3561,-6.1296 -5.53291,-9.492743 -4.1768,-3.390264 -10.27928,-3.390264 v 0 q -5.8855,0 -10.30641,3.471631 -4.39378,3.444508 -6.07535,9.411376 v 0 h -1.11201 V 34.092503 h -9.438495 v 85.570287 h 9.763965 V 62.380874 q 0,-9.46562 3.68861,-14.890044 3.71573,-5.451545 10.14367,-5.451545 v 0 q 6.10248,0 9.16727,4.637882 3.0648,4.665004 3.0648,13.886525 v 0 59.099098 h 9.76397 V 62.380874 q 0,-9.546986 3.63436,-14.944288 3.60724,-5.397301 9.87245,-5.397301 v 0 q 6.04824,0 9.1130294,4.692126 3.0648,4.692127 3.0648,13.886525 v 0 59.044854 z m 52.5355506,1.51884 v 0 q 9.6826,0 16.5445,-3.85134 6.88902,-3.85134 9.89957,-11.09295 v 0 h 1.11201 v 13.50682 h 10.00805 V 60.943402 q 0,-13.018618 -8.05526,-20.287345 -8.05527,-7.268728 -22.61985,-7.268728 v 0 q -8.24513,0 -14.97141,2.820701 -6.69917,2.820699 -10.95734,7.729803 -4.25817,4.936226 -5.0447,11.364168 v 0 h 10.33352 q 1.81718,-6.183843 7.18736,-9.519863 5.37018,-3.336022 13.45257,-3.336022 v 0 q 9.87246,0 15.02565,4.881982 5.18033,4.881981 5.18033,14.103502 v 0 8.109514 l -24.81674,1.112006 q -14.13063,0.623809 -21.88755,7.105996 -7.7298,6.482186 -7.7298,17.764988 v 0 q 0,11.581146 7.51283,18.632896 7.48569,7.02463 19.82626,7.02463 z m 2.52236,-9.22152 v 0 q -8.89605,0 -14.02214,-4.42091 -5.12608,-4.39378 -5.12608,-12.015096 v 0 q 0,-15.432487 19.63642,-16.300393 v 0 l 24.08444,-1.030642 V 90.09968 q 0,6.129598 -3.28178,11.09295 -3.25466,4.96334 -8.81469,7.86541 -5.56002,2.90207 -12.47617,2.90207 z m 101.545212,7.70268 V 81.203625 q 0,-17.548011 8.19089,-27.962905 8.19087,-10.414894 22.02316,-10.414894 v 0 q 3.49875,0 7.29585,0.650931 3.82421,0.623809 6.75341,1.735816 v 0 -11.364169 q -1.97992,-0.867907 -5.37019,-1.383227 -3.36314,-0.51532 -7.10599,-0.51532 v 0 q -12.47617,0 -20.58569,6.238087 -8.08239,6.238088 -10.3064,17.683622 v 0 h -1.11201 V 34.092503 h -29.56312 v 8.407857 h 19.39232 v 77.16243 z m -28.04427,0 h 55.22064 v -8.40786 h -55.22064 z m 157.4168,-85.570287 -40.195,40.276347 h -0.9764 V 0 h -10.38777 v 119.66279 h 10.38777 V 87.251858 l 15.1884,-14.781556 2.54948,-2.468112 36.61486,-35.909687 z m -22.02318,31.136193 -7.53994,6.753408 32.57367,47.680686 h 12.55754 z"
     id="path2"
     style="stroke-width:2.71222" />
</svg>
