<?xml version="1.0" encoding="UTF-8" standalone="no"?>
<svg
   width="547.76953pt"
   height="410.59479pt"
   viewBox="0 0 547.76951 410.59478"
   version="1.1"
   id="svg2"
   sodipodi:docname="Sass Logo (Color).eps"
   inkscape:export-filename="Sass Logo (Color).eps.svg"
   inkscape:export-xdpi="96"
   inkscape:export-ydpi="96"
   xmlns:inkscape="http://www.inkscape.org/namespaces/inkscape"
   xmlns:sodipodi="http://sodipodi.sourceforge.net/DTD/sodipodi-0.dtd"
   xmlns="http://www.w3.org/2000/svg"
   xmlns:svg="http://www.w3.org/2000/svg">
  <sodipodi:namedview
     id="namedview2"
     pagecolor="#ffffff"
     bordercolor="#000000"
     borderopacity="0.25"
     inkscape:showpageshadow="2"
     inkscape:pageopacity="0.0"
     inkscape:pagecheckerboard="0"
     inkscape:deskcolor="#d1d1d1"
     inkscape:document-units="pt" />
  <defs
     id="defs1">
    <clipPath
       id="clip-0">
      <path
         clip-rule="nonzero"
         d="M 0,0 H 547.76953 V 410.60156 H 0 Z m 0,0"
         id="path1" />
    </clipPath>
  </defs>
  <g
     clip-path="url(#clip-0)"
     id="g2"
     transform="translate(0,-0.00531167)">
    <path
       fill-rule="nonzero"
       fill="#cd499c"
       fill-opacity="1"
       d="m 387.3125,310.28125 c -1.73828,-1.23828 -1.44922,-5.23438 4.26562,-17.6875 2.2461,-4.89063 7.36719,-13.12109 16.26563,-20.98438 1.03125,3.23438 1.66016,6.33594 1.64453,9.22266 -0.11719,19.26563 -13.86328,26.46094 -22.17578,29.44922 z m -73.16797,16.67969 c -2.32812,1.21875 -4.46484,1.98437 -5.45703,1.39453 -0.73047,-0.4375 0.96094,-2.04297 0.96094,-2.04297 0,0 11.8789,-12.77734 16.55859,-18.59766 2.72266,-3.38672 5.87891,-7.40234 9.31641,-11.89453 0.0273,0.44922 0.043,0.89453 0.043,1.33203 -0.0352,15.3125 -14.82422,25.65235 -21.42188,29.8086 z m -94.97656,-45.32032 c -5.4961,13.39844 -17,47.67969 -24,45.84375 -6.01172,-1.57812 -9.67188,-27.63671 -1.19922,-53.28125 4.26172,-12.91015 13.36719,-28.33593 18.71875,-34.32031 8.61328,-9.63672 18.09375,-12.78515 20.39844,-8.8789 2.9375,4.97656 -10.47266,42.23828 -13.91797,50.63671 z m -114.96094,78.15235 c -15.781249,17.21484 -37.824218,23.72265 -47.281249,18.24219 -10.207031,-5.91797 -6.164062,-31.26172 13.203125,-49.53125 11.800782,-11.13282 27.039063,-21.38672 37.144534,-27.70313 2.30078,-1.38281 5.67969,-3.41797 9.78906,-5.87891 0.67969,-0.38671 1.06641,-0.60156 1.06641,-0.60156 l -0.0156,-0.0273 c 0.79297,-0.47266 1.60547,-0.96094 2.44141,-1.46094 7.04687,26.00391 0.21484,48.89453 -16.34766,66.96094 z M 471.41797,235.99609 c -19.14453,0.10157 -35.72656,4.69532 -49.62891,11.54688 -5.08203,-10.14453 -10.22656,-19.07031 -11.09375,-25.70703 -1.00781,-7.75 -2.17578,-12.3711 -0.95703,-21.60157 1.21875,-9.23046 6.55859,-22.30078 6.48047,-23.27734 -0.0781,-0.98047 -1.19922,-5.68359 -12.24219,-5.76172 -11.04297,-0.0781 -20.48828,2.125 -21.59765,5.03906 -1.11329,2.91797 -3.23829,9.48047 -4.5625,16.32032 -1.9336,10.01172 -22.04688,45.72265 -33.46485,64.40625 -3.73828,-7.29297 -6.91406,-13.72266 -7.57422,-18.80469 -1.00781,-7.75 -2.17968,-12.37109 -0.96093,-21.60156 1.21875,-9.23047 6.55859,-22.30078 6.48046,-23.28125 -0.0781,-0.97657 -1.19531,-5.67969 -12.23828,-5.75782 -11.04297,-0.0781 -20.48828,2.125 -21.60156,5.03907 -1.10937,2.91797 -2.29687,9.73047 -4.55859,16.32031 -2.26172,6.59375 -29,66.16016 -36,81.60156 -3.57032,7.86719 -6.67578,14.1875 -8.86719,18.50391 -0.004,-0.0117 -0.0117,-0.0234 -0.0117,-0.0234 0,0 -0.13672,0.28516 -0.37109,0.76953 -1.875,3.67578 -2.99219,5.70703 -2.99219,5.70703 0,0 0.0117,0.0312 0.0352,0.0781 -1.48829,2.69922 -3.08594,5.20312 -3.875,5.20312 -0.55079,0 -1.65625,-7.18359 0.24218,-17.03906 3.97657,-20.66406 13.53516,-52.89062 13.4375,-54 -0.0469,-0.57031 1.77735,-6.18359 -6.23828,-9.12109 -7.79297,-2.85157 -10.57031,1.90625 -11.28125,1.92187 -0.6875,0.0117 -1.19922,1.67969 -1.19922,1.67969 0,0 8.6836,-36.24219 -16.55859,-36.24219 -15.78125,0 -37.64844,17.26563 -48.42188,32.91406 -6.79687,3.70704 -21.34375,11.64844 -36.77734,20.12891 -5.92969,3.25391 -11.98047,6.58203 -17.71484,9.74219 -0.39063,-0.42969 -0.77735,-0.86328 -1.17969,-1.29297 -30.605469,-32.65234 -87.1875,-55.75 -84.789062,-99.65234 0.875,-15.95704 6.421874,-57.98438 108.722652,-108.957035 C 233.85937,19.035156 300.94531,30.527344 312.53906,55.996094 329.10156,92.378906 276.68359,160 189.65625,169.75391 156.5,173.47266 139.03906,160.62109 134.69531,155.83594 c -4.57031,-5.03907 -5.25,-5.26563 -6.95703,-4.32032 -2.78125,1.53907 -1.01953,5.98829 0,8.64063 2.59766,6.76172 13.25781,18.75391 31.4375,24.71875 15.99219,5.24609 54.92188,8.13281 102,-10.07813 52.73047,-20.39843 93.90625,-77.136714 81.8125,-124.562495 C 330.6875,2 250.71094,-13.855469 175.01953,13.035156 129.96875,29.039062 81.203125,54.15625 46.136719,86.953125 4.445312,125.95313 -2.203125,159.89453 0.535156,174.07422 c 9.734375,50.39062 79.191406,83.20703 107.003904,107.52734 -1.375,0.75781 -2.66015,1.46875 -3.83203,2.11328 -13.941405,6.89844 -66.886718,34.60547 -80.128905,63.87891 -15.023437,33.20703 2.390625,57.03125 13.917969,60.24219 35.71875,9.9375 72.371096,-7.9375 92.070316,-37.32032 19.69531,-29.375 17.28906,-67.62109 8.25,-85.08203 -0.11329,-0.21484 -0.23438,-0.42578 -0.35157,-0.64453 3.60157,-2.1289 7.27344,-4.29687 10.91407,-6.43359 7.09375,-4.16797 14.0625,-8.05469 20.10546,-11.34375 -3.3789,9.26953 -5.85937,20.3789 -7.14843,36.42187 -1.51172,18.85157 6.21093,43.21485 16.32031,52.80078 4.45312,4.22266 9.80859,4.32032 13.19922,4.32032 11.76562,0 17.13281,-9.78516 23.04297,-21.35938 7.24609,-14.19531 13.67968,-30.71875 13.67968,-30.71875 0,0 -8.07421,44.63672 13.91797,44.63672 8.01563,0 16.07422,-10.39062 19.66407,-15.6875 0.0117,0.0586 0.0156,0.0898 0.0156,0.0898 0,0 0.21094,-0.34765 0.61719,-1.03906 0.83203,-1.26953 1.30469,-2.08203 1.30469,-2.08203 0,0 0.0156,-0.082 0.043,-0.23047 3.21875,-5.58984 10.36329,-18.34375 21.07813,-39.36719 13.83984,-27.16796 27.11719,-61.20312 27.11719,-61.20312 0,0 1.23437,8.32031 5.28125,22.08203 2.3789,8.09375 7.4375,17.04297 11.42578,25.625 -3.21094,4.45703 -5.1875,7.01563 -5.1875,7.01563 0,0 0.0195,0.0469 0.0547,0.13281 -2.56641,3.40625 -5.44141,7.08203 -8.45313,10.66406 -10.92578,13.01563 -23.9375,27.87109 -25.67969,32.16016 -2.05078,5.05468 -1.5664,8.76953 2.39844,11.76172 2.89844,2.18359 8.05859,2.52343 13.44141,2.16015 9.8164,-0.66015 16.72656,-3.09375 20.13281,-4.57812 5.3125,-1.87891 11.5,-4.83594 17.30859,-9.10157 10.71485,-7.8789 17.17969,-19.15234 16.5586,-34.08203 -0.34375,-8.22656 -2.96875,-16.38281 -6.28516,-24.08203 0.97266,-1.39844 1.94531,-2.80859 2.92578,-4.23828 16.89453,-24.69922 30,-51.83984 30,-51.83984 0,0 1.23438,8.32031 5.28125,22.08203 2.04688,6.96484 6.08594,14.5625 9.71875,22.01172 -15.88672,12.91015 -25.73828,27.90625 -29.16015,37.74609 -6.32422,18.19922 -1.3711,26.44531 7.92187,28.32031 4.20703,0.85157 10.15234,-1.07812 14.625,-2.96875 5.5625,-1.84765 12.25,-4.91797 18.49219,-9.50781 10.71875,-7.87891 21.02344,-18.91406 20.40234,-33.84375 -0.28515,-6.79687 -2.1289,-13.54297 -4.6289,-20.02344 13.46484,-5.60937 30.90234,-8.72656 53.10937,-6.13281 47.63672,5.5625 56.98438,35.30859 55.19922,47.75781 -1.78906,12.44922 -11.78125,19.29297 -15.12109,21.36328 -3.33985,2.0625 -4.35938,2.78125 -4.07813,4.31641 0.40625,2.23438 1.94922,2.14844 4.79688,1.66797 3.92187,-0.66016 25.01953,-10.125 25.92187,-33.10547 1.14453,-29.17578 -26.80859,-61.22656 -76.32031,-60.96094"
       id="path2" />
  </g>
</svg>
