<?xml version="1.0" encoding="UTF-8"?>
<svg width="207px" height="93px" viewBox="0 0 207 93" version="1.1" xmlns="http://www.w3.org/2000/svg" xmlns:xlink="http://www.w3.org/1999/xlink">
    <!-- Generator: Sketch 46.2 (44496) - http://www.bohemiancoding.com/sketch -->
    <title>yarn</title>
    <desc>Created with Sketch.</desc>
    <defs></defs>
    <g id="Page-1" stroke="none" stroke-width="1" fill="none" fill-rule="evenodd">
        <g id="Logos" transform="translate(-31.000000, -145.000000)">
            <g id="yarn" transform="translate(31.000000, 145.000000)">
                <g id="Group">
                    <circle id="Oval" fill="#2C8EBB" cx="46.5" cy="46.5" r="46.5"></circle>
                    <path d="M34.9933258,25.9344724 C35.3121348,25.6094489 35.8321349,25.0952212 36.5287948,24.5402783 C37.0976034,24.0871786 37.7841804,23.6069366 38.5751732,23.1803743 C41.0112897,21.8666387 43.7646686,21.7529574 43.7646686,21.7529574 C43.7646686,21.7529574 44.9288356,18.9283826 46.0264987,17.827941 C46.407367,17.4461085 46.9569855,16.7418943 47.6820677,16.3822104 C48.5649005,15.9442728 49.4096847,15.8944881 49.4096847,15.8944881 C49.4096847,15.8944881 50.5235777,15.7908026 51.3157769,16.3822104 C51.4080452,16.4510924 51.6273723,16.5622943 51.7158791,16.630321 C52.121883,16.9423768 52.4040582,17.281002 52.659412,17.6569777 C53.4408094,18.8074856 54.4908242,20.9951475 54.4908242,20.9951475 C54.4908242,20.9951475 56.820925,20.0135373 58.2778411,22.112181 C58.7784504,22.8332936 59.072041,23.8244958 59.3269237,24.7747073 C59.8138227,26.5898828 59.987638,28.3368619 59.987638,28.3368619 C59.987638,28.3368619 60.7062254,33.018312 59.43134,37.7840654 C58.1564546,42.5498188 55.3577815,46.3246785 55.3577815,46.3246785 C55.3577815,46.3246785 57.9892408,48.9435888 59.542283,53.0062769 C61.0953253,57.068965 60.7365989,61.1338911 60.7365989,61.1338911 C60.7365989,61.1338911 60.4935314,61.4598462 62.9684876,59.9095216 C65.4434438,58.359197 68.1618284,56.9662735 71.1391841,56.4201722 C73.42544,56.0008313 74.9384547,56.4817664 75.9470607,57.0788763 C77.3686777,57.9204951 77.7706664,59.0848825 77.7706664,59.0848825 C77.7706664,59.0848825 78.7586826,61.1015194 77.7706664,63.2219856 C76.7826502,65.3424517 74.9090083,65.7476974 74.9090083,65.7476974 C74.9090083,65.7476974 73.9391362,65.9360127 71.8966019,66.6602595 C70.6057621,67.1179687 68.7957433,68.2695429 67.5915657,69.0446549 C66.8903373,69.4960258 66.352569,69.8103055 66.352569,69.8103055 C66.352569,69.8103055 63.0447278,71.6568162 61.2684539,72.4459213 C59.5590286,73.205329 55.8954714,74.455844 55.8954714,74.455844 C55.8954714,74.455844 55.0830617,75.0408555 54.6510394,75.2550653 C54.1820894,75.4875849 53.1925545,75.7960323 53.1925545,75.7960323 C53.1925545,75.7960323 51.957894,76.084901 49.8343705,76.3388378 C47.2427501,76.6487508 43.5293028,76.9088669 41.337639,76.9911475 C39.1298092,77.074035 38.3039712,77.2314973 36.4918755,76.6650326 C34.6797798,76.0985678 33.8604161,75.1511561 33.8604161,75.1511561 C33.8604161,75.1511561 32.2808371,76.0648373 29.8802959,75.8939467 C27.4797546,75.7230561 25.6511134,74.6294523 25.6511134,74.6294523 C25.6511134,74.6294523 24.7299987,74.3194833 23.8462913,72.9486018 C22.9625839,71.5777203 23.3798191,70.1387384 23.3798191,70.1387384 C23.3798191,70.1387384 20.6166349,67.1087474 21.0055748,62.2177435 C21.1695532,60.1556803 21.8422813,58.7688 22.5274443,57.6464601 C23.4674182,56.1067242 24.4599148,55.2233786 24.4599148,55.2233786 C24.4599148,55.2233786 24.3009338,50.0462248 25.974031,46.6077111 C26.5925542,45.3365354 27.1618542,44.1801013 28.0061744,43.0913453 C29.4457294,41.2350304 31.1214508,39.7811194 31.1214508,39.7811194 C31.1214508,39.7811194 29.071483,36.2447711 29.3378102,33.6515184 C29.4526478,32.533333 29.6928597,31.6380787 30.2789873,30.0911112 C30.8651149,28.5441436 31.9129188,27.6405336 31.9129188,27.6405336 C31.9129188,27.6405336 31.8494546,27.6391449 32.3407237,27.3401407 C32.4367026,27.2817244 32.5741683,27.2283489 32.7151774,27.1434482 C32.8504837,27.0619812 33.0228313,27.0034028 33.1719517,26.9489229 C33.348011,26.884601 33.5006245,26.8271602 33.650576,26.7613687 C34.1834661,26.5275622 34.6655152,26.279304 34.6655152,26.279304 C34.6655152,26.279304 34.7707549,26.1613818 34.9933258,25.9344724 Z M33.0028944,30.7280706 C32.8507994,30.9882131 32.6637514,31.5251904 32.6637514,31.5251904 C32.6637514,31.5251904 32.2610221,32.5054069 32.1818524,32.8971346 C32.0906878,33.3482121 32.0927269,34.25647 32.0927269,34.25647 C32.0927269,34.25647 32.1329108,34.8549204 32.274605,35.4884216 C32.4310358,36.1878091 32.7794248,37.0163477 33.0028944,37.5102387 C33.4904852,38.5878649 34.8331608,40.3131122 34.8331608,40.3131122 C34.8331608,40.3131122 30.5452955,43.4869098 29.0001094,46.6053413 C28.3444835,47.9284989 27.6434139,49.8953111 27.3767659,51.7074343 C27.0149751,54.1661419 27.2168238,56.3502469 27.2168238,56.3502469 C27.2168238,56.3502469 25.7290774,57.8321979 25.173589,58.6678532 C24.9573655,58.9931314 24.6013403,59.4630978 24.3817373,59.9285634 C24.0225402,60.6899093 23.8406804,61.4291867 23.8406804,61.4291867 C23.8406804,61.4291867 23.4996375,63.3684418 23.9591688,65.1639045 C24.2649066,66.3584709 24.584848,67.1405782 24.9034492,67.6346304 C25.0637134,67.8831508 25.0171877,67.8613302 25.3260177,68.2820851 C25.5263684,68.5550461 25.8104637,68.704892 26.060266,68.7764203 C26.5821737,68.9258631 27.0498,68.6270143 27.0498,68.6270143 C27.0498,68.6270143 26.4981206,69.3518492 26.1750409,70.0538846 C25.8519613,70.75592 26.1750409,71.4904275 26.1750409,71.4904275 C26.1750409,71.4904275 26.2925525,71.8421047 26.7413155,72.1654316 C27.1085638,72.4300284 27.7373122,72.6505755 28.3729497,72.8537355 C29.7853113,73.3051488 31.5003711,73.0835443 31.5003711,73.0835443 C31.5003711,73.0835443 33.1818343,72.6645898 33.7131534,71.8591062 C34.2895742,70.9852479 34.8579111,68.8692324 35.1747219,67.7392146 C35.2923713,67.3195765 35.4569524,66.9593671 35.4569524,66.9593671 C35.4569524,66.9593671 35.9732658,67.6674036 36.27454,67.9513192 C36.5528401,68.2135846 37.2314292,68.6635453 37.2314292,68.6635453 C37.2314292,68.6635453 36.2022229,69.0870121 35.6205217,70.0538846 C35.208954,70.7379704 35.0344864,71.8840084 35.4569524,72.6652939 C36.4765231,74.550832 39.6323747,74.3382091 39.6323747,74.3382091 C39.6323747,74.3382091 45.1534871,73.9909482 47.9258749,73.7585485 C50.6982627,73.5261488 52.8358046,73.0479632 52.8358046,73.0479632 C52.8358046,73.0479632 53.4946672,72.8196656 53.7424312,72.6652939 C54.0249865,72.4892452 54.4267625,72.056702 54.4267625,72.056702 C54.4267625,72.056702 57.9129216,70.9128726 59.5740145,70.2006134 C61.2692594,69.4737101 64.4957758,67.7392146 64.4957758,67.7392146 C64.4957758,67.7392146 67.3738705,65.8868778 69.286958,64.8194263 C71.2000455,63.7519748 73.6870937,63.23769 73.6870937,63.23769 C73.6870937,63.23769 75.8552077,62.762959 75.4624341,60.8005589 C75.0696604,58.8381588 72.8721834,59.0109688 72.8721834,59.0109688 C72.8721834,59.0109688 70.7116692,59.117453 69.0118091,59.8166384 C67.311949,60.5158239 64.7390571,62.0501283 64.7390571,62.0501283 C64.7390571,62.0501283 62.7963475,63.3045263 61.115487,63.9811791 C59.4346265,64.6578318 57.8841072,64.8194263 57.8841072,64.8194263 C57.8841072,64.8194263 57.7538149,64.8195727 57.7085759,64.7936646 C57.6597597,64.7657079 57.6019418,64.6578318 57.6019418,64.6578318 C57.6019418,64.6578318 57.6495148,64.1848425 57.7469849,63.4264838 C57.8142984,62.9027561 57.9238597,62.230483 57.982652,61.534705 C58.0470852,60.7721716 58.0807811,60.0542804 58.0628366,59.2803556 C58.0532456,58.8667053 58.0463353,58.364449 57.982652,57.9925156 C57.5336776,55.3703388 57.555749,55.9290504 57.2642485,54.8740532 C55.9203607,50.0102618 52.3778751,47.2253466 52.3778751,47.2253466 C52.3778751,47.2253466 52.1492567,47.0529663 52.0515838,46.9346682 C51.9786207,46.8462979 51.8659672,46.6053413 51.8659672,46.6053413 C51.8659672,46.6053413 54.0114788,43.5912004 54.8002937,42.0839818 C55.5891087,40.5767632 57.0072494,37.7230505 57.2642485,34.4685189 C57.9311207,26.0235193 55.9203607,23.5002591 55.9203607,23.5002591 C55.9203607,23.5002591 55.4562081,23.5002591 54.9415608,23.6919469 C54.4269134,23.8836347 53.2007481,24.5395491 53.2007481,24.5395491 C53.2007481,24.5395491 52.2724527,22.4529833 51.3867847,20.7638397 C51.1952949,20.398631 51.0224866,20.0883912 50.86962,19.8139892 C50.7155482,19.5374238 50.5812072,19.2971111 50.3332051,19.0345031 C49.8391406,18.5113413 49.6245006,18.6325436 49.6245006,18.6325436 C49.6245006,18.6325436 49.2433921,18.5830324 48.7917063,18.9161883 C48.3419725,19.2479044 47.8222305,19.9614315 47.5572486,20.3570676 C46.7781132,21.52037 45.6937528,24.5014189 45.6937528,24.5014189 C45.6937528,24.5014189 44.499754,24.4174442 43.135546,24.6072951 C42.2935775,24.7244682 41.4289514,25.0158806 40.6140628,25.2866059 C38.4788426,25.9959767 36.4765231,28.3242173 36.4765231,28.3242173 C36.4765231,28.3242173 35.7661293,28.8166194 35.3521619,29.0272578 C34.8450061,29.285313 33.7131534,29.7302982 33.7131534,29.7302982 C33.7131534,29.7302982 33.2006001,30.3899157 33.0028944,30.7280706 Z" id="Combined-Shape" fill="#FFFFFF"></path>
                </g>
                <path d="M107.086612,29.3936307 C107.462055,29.2924153 107.947691,29.2224276 108.543519,29.1836679 C109.823971,29.100372 110.644765,29.2949333 111.005901,29.7673517 C111.197467,29.9999777 111.26423,30.3173225 111.20619,30.719386 C111.148149,31.1214495 111.056939,31.4489622 110.932558,31.7019241 C110.675723,32.234409 110.500878,32.6384141 110.408023,32.9139393 C110.315168,33.1894645 110.209008,33.6192727 110.089544,34.2033639 C109.718623,35.7200852 109.455108,36.8556474 109.299001,37.6100505 C109.142894,38.3644536 108.952445,39.422715 108.727654,40.7848348 C108.4915,42.4251789 108.353139,43.651277 108.312571,44.4631288 C108.272004,45.2749807 108.272004,46.8178356 108.312571,49.0916935 C108.490629,50.5410629 108.760327,51.5324002 109.121663,52.0657054 C109.320632,52.3593673 109.545908,52.8974095 109.983621,53.18366 C110.13253,53.2810419 110.36075,53.4386578 110.689206,53.5303321 C110.820406,53.5669511 111.076657,53.6115265 111.457957,53.6640583 C111.689438,53.6640583 111.95431,53.6194829 112.252573,53.5303321 C112.705418,53.394977 113.058046,53.2006696 113.303576,53.0355178 C113.577654,52.8511635 113.937197,52.5700519 114.335657,52.0657054 C114.442199,51.93085 114.60426,51.6817495 114.821838,51.3184039 C115.164173,50.7753731 115.398763,50.374881 115.525607,50.1169276 C115.974454,49.2041416 116.232073,48.4150142 116.428133,47.8622546 C116.707303,47.07518 117.025086,45.8217296 117.381482,44.1019034 L117.381482,32.1452167 C117.377002,31.6899185 117.361271,31.3534215 117.334289,31.1357258 C117.307307,30.9180301 117.241993,30.6130501 117.138346,30.220786 C117.152329,29.8731081 117.201882,29.6329318 117.287005,29.5002572 C117.36633,29.3766205 117.448244,29.2566683 117.586773,29.1836679 C117.758857,29.0929849 117.842684,29.0191227 118.082438,28.9386713 C118.258384,28.8796313 118.609248,28.8338203 119.13503,28.8012381 C119.653761,28.8183814 120.037811,28.8641925 120.287181,28.9386713 C120.53655,29.0131501 120.907818,29.181185 121.400987,29.442776 C121.848213,29.7793384 122.149877,30.0575655 122.305979,30.2774574 C122.462081,30.4973494 122.622133,30.8695169 122.786136,31.3939601 L122.828824,31.7019241 L122.828824,57.2292865 C124.164487,55.7351886 125.266174,54.246427 126.133883,52.7630017 C127.001593,51.2795764 127.685403,49.8591994 128.185314,48.5018707 C128.11968,47.2319196 128.188402,45.8156023 128.39148,44.2529188 C128.594558,42.6902354 128.810361,41.6417601 129.038891,41.1074928 C129.525559,39.2736597 130.279791,37.567773 131.301586,35.9898327 C132.323381,34.4118925 133.548128,33.0142134 134.975826,31.7967955 C136.244495,30.7461225 137.629002,29.9144563 139.129346,29.301797 C140.629691,28.6891377 142.218273,28.2912741 143.895092,28.1082061 C144.802702,28.057352 145.441025,28.057352 145.810063,28.1082061 C146.179101,28.1590603 146.606494,28.3059182 147.092244,28.54878 C147.734216,28.9851854 148.115496,29.4243308 148.236086,29.8662162 C148.310915,30.1404205 148.473324,30.4578624 148.471343,31.2712687 C148.470023,31.8135396 148.374945,32.2421574 148.18611,32.5571221 C147.982737,32.689936 147.80011,32.7587115 147.638229,32.7634486 C147.520189,32.7669027 147.010281,32.6860222 146.241895,32.6410551 C146.051635,32.6299208 145.743619,32.6299208 145.317847,32.6410551 C144.764698,32.6613413 144.377448,32.684545 144.156096,32.7106664 C143.590646,32.7773944 143.187204,32.8915336 142.834727,32.988729 C142.275279,33.1429964 141.462152,33.4795641 140.395346,33.9984322 C139.923775,34.2823682 139.592597,34.492222 139.401812,34.6279934 C138.780019,35.07049 138.351598,35.4657383 138.050061,35.7509956 C137.609742,36.1675413 137.027294,36.87391 136.302716,37.8701017 C135.650367,38.9345855 135.187802,39.8142457 134.915021,40.5090825 C134.64224,41.2039192 134.359169,42.2235669 134.06581,43.5680256 C133.96479,44.0823613 133.875794,44.7282275 133.798822,45.505624 C133.721849,46.2830206 133.683363,47.092333 133.683363,47.9335611 C133.742554,48.7276735 133.801801,49.2936723 133.861102,49.6315574 C133.920404,49.9694425 134.038068,50.4114329 134.214094,50.9575287 C134.477714,51.5537407 134.711356,51.9775705 134.915021,52.2290178 C135.118685,52.4804652 135.471831,52.7810941 135.974459,53.1309044 C136.598217,53.4559269 137.202156,53.6107603 137.786275,53.5954044 C138.370395,53.5800486 138.937393,53.3934197 139.487268,53.0355178 C140.092654,52.606787 140.535119,52.1587408 140.814664,51.6913792 C140.955908,51.4552383 141.123811,51.2153907 141.282482,50.9062339 C141.386059,50.7044238 141.543796,50.3557726 141.755694,49.8602801 L141.755694,38.3564456 C141.741788,38.1178634 141.702501,37.7924017 141.637833,37.3800605 C141.60361,37.161843 141.551993,37.0323681 141.524819,36.8538963 C141.508703,36.7480522 141.494292,36.5820561 141.481585,36.3559081 C141.507054,36.1800274 141.53759,36.0580023 141.573193,35.9898327 C141.694038,35.7584521 141.906261,35.6090106 142.137087,35.4869147 C142.469922,35.3108609 142.923133,35.2193775 143.496718,35.2124645 C144.374372,35.208668 145.184943,35.4677908 145.928429,35.9898327 C146.671916,36.5118747 147.088606,37.2516608 147.178501,38.209191 L147.178501,50.5555003 C147.178501,51.4078628 147.466066,52.1947789 148.041196,52.9162484 C148.438486,53.4146266 149.291847,53.7204952 150.205456,53.5303321 C150.478099,53.473583 150.872821,53.2688885 151.389624,52.9162484 C151.75416,52.542818 152.005571,52.2593037 152.143856,52.0657054 C152.508655,51.5549885 152.738569,51.0260689 152.908074,50.6781487 C153.068641,50.3485745 153.295954,49.8766749 153.517645,49.2080251 C153.614587,48.9156354 153.761088,48.3950384 153.957147,47.646234 C154.290298,46.3138135 154.526454,45.2862187 154.665616,44.5634496 C154.804778,43.8406806 154.959566,42.8378195 155.129979,41.5548663 C155.274268,39.7391607 155.370835,38.362518 155.419679,37.4249381 C155.468524,36.4873582 155.522012,34.983692 155.580142,32.9139393 C155.008921,32.5410051 154.612864,32.2637196 154.391971,32.0820827 C153.844261,31.6317104 153.475312,31.1912855 153.241935,30.8337122 C152.867376,30.2598228 152.629267,29.3942293 152.527608,28.2369317 C152.591409,27.785482 152.653437,27.4654175 152.713691,27.2767383 C152.878511,26.7606222 153.131745,26.3692047 153.365063,26.1301499 C153.584896,25.9049113 153.857756,25.6160478 154.391971,25.3769629 C154.520452,25.319462 154.700803,25.2181686 154.964081,25.1385082 C155.101567,25.096909 155.36163,25.056522 155.74427,25.0173472 C156.874164,24.9315585 157.832892,25.1639643 158.620455,25.7145647 C159.094571,26.0460282 159.54782,26.534685 159.932976,27.2128217 C160.01643,27.359758 160.127156,27.5092782 160.238435,27.7676719 C160.315153,27.9458122 160.440655,28.2903343 160.61494,28.8012381 C161.816518,28.9607126 162.735686,29.0564447 163.372445,29.0884346 C164.009204,29.1204244 165.634873,29.1204244 168.249454,29.0884346 C168.645543,29.2306762 168.897378,29.34879 169.004961,29.442776 C169.166336,29.583755 169.983102,30.2038087 170.249054,30.4814679 C170.47983,30.7224011 170.695861,31.0048469 171.06017,31.5095563 C171.303042,31.8460292 171.454454,32.1752089 171.514403,32.4970953 C171.570548,32.9095507 171.570548,33.238755 171.514403,33.4847081 C171.458258,33.7306612 171.345822,34.1117563 171.177094,34.6279934 C170.689162,36.2577992 170.340268,37.4792489 170.130411,38.2923424 C169.920554,39.105436 169.606293,40.4533939 169.187628,42.336216 C168.849285,44.0437545 168.631778,45.3372529 168.535106,46.2167111 C168.467935,46.8277935 168.371439,47.6624081 168.332355,48.6796368 C168.320912,48.9774687 168.320912,49.4565656 168.332355,50.1169276 C168.374329,51.2184281 168.688676,52.0818651 169.275394,52.7072389 C169.862112,53.3326126 170.496012,53.6286678 171.177094,53.5954044 C171.804445,53.5954044 172.366689,53.4405711 172.863823,53.1309044 C173.360958,52.8212377 173.833447,52.341396 174.281291,51.6913792 C174.732037,51.0158922 175.14421,50.1275384 175.517811,49.0263177 C175.891412,47.9250971 176.144431,46.9060484 176.276867,45.9691715 C176.323653,45.7006595 176.365261,45.5088461 176.401693,45.3937312 C176.438125,45.2786164 176.499928,45.1073421 176.587104,44.8799084 L176.587104,31.8500386 C176.547021,31.4474876 176.511254,31.1539624 176.479801,30.969463 C176.448348,30.7849636 176.396154,30.4792011 176.323219,30.0521753 C176.330268,29.7311006 176.458387,29.4659489 176.707576,29.2567202 C176.956766,29.0474916 177.225186,28.9168651 177.512838,28.8648409 C178.168262,28.7689342 178.720469,28.7689342 179.169459,28.8648409 C179.618448,28.9607476 180.160692,29.2000593 180.796189,29.582776 C181.209255,29.9448464 181.485066,30.2444103 181.623622,30.4814679 C181.762178,30.7185254 181.899235,31.1253441 182.034795,31.7019241 L182.034795,35.1406301 C182.59127,34.0566707 183.032382,33.2642769 183.35813,32.7634486 C183.555907,32.4593732 183.797,32.0263218 184.156222,31.558223 C184.311179,31.3562997 184.58988,31.0347331 184.992324,30.593523 C185.785589,29.7865506 186.434159,29.2349333 186.938036,28.9386713 C187.441912,28.6424092 188.202334,28.3655875 189.2193,28.1082061 C190.015355,28.0558587 190.733582,28.0834927 191.373982,28.1911079 C192.014382,28.2987232 192.659757,28.5479109 193.310108,28.9386713 C194.096285,29.5086967 194.681845,30.1856273 195.066787,30.969463 C195.45173,31.7532988 195.721833,32.6761211 195.877098,33.7379299 C195.902508,34.0106426 195.920493,34.2110284 195.931053,34.3390871 C195.941612,34.4671458 195.955895,34.658086 195.973901,34.9119077 L195.973901,50.6111029 C195.973901,51.5307152 196.129251,52.2480148 196.439951,52.7630017 C196.750651,53.2779886 197.186299,53.5554561 197.746896,53.5954044 C198.301225,53.5954044 198.805006,53.4405711 199.258239,53.1309044 C199.711473,52.8212377 200.101879,52.4450088 200.429456,52.0022176 C200.752442,51.5015642 200.97534,51.1362363 201.098148,50.9062339 C201.413728,50.3152002 201.615004,49.7831496 201.773096,49.3712277 C201.917409,48.9952077 202.100983,48.4697151 202.281109,47.807695 C202.369363,47.4833308 202.49469,47.0230574 202.657088,46.4268745 C202.72872,45.6214027 202.925021,44.9668208 203.245989,44.4631288 C203.566957,43.9594369 203.915693,43.6832391 204.292197,43.6345355 C205.030302,43.5901956 205.666128,43.9240734 206.199677,44.6361691 C206.733226,45.3482647 207,46.0256258 207,46.6682524 C206.869637,47.4278808 206.651471,48.2356945 206.345503,49.0916935 C206.039534,49.9476925 205.698945,50.7878188 205.323734,51.6120723 C204.919825,52.3738553 204.608564,52.9303061 204.38995,53.2814246 C204.171337,53.6325432 203.806223,54.1624284 203.29461,54.8710802 C202.704111,55.5949188 202.058833,56.2131838 201.358776,56.7258751 C200.658719,57.2385665 199.95854,57.6256493 199.258239,57.8871236 C197.764518,58.4070713 196.243138,58.4691191 194.694101,58.0732672 C193.842079,57.8555357 193.310108,57.5046897 192.649355,56.9370347 C192.208853,56.558598 191.841313,56.1007843 191.546734,55.5635935 C191.202518,54.8991912 190.969219,54.3539816 190.846836,53.9279648 C190.724453,53.5019479 190.616724,52.8600321 190.523648,52.0022176 L190.523648,36.0795024 C190.467674,34.8287434 190.326079,33.9828875 190.098865,33.5419348 C189.871651,33.1009821 189.522854,32.8678568 189.052475,32.8425587 C188.579876,32.7898186 187.95711,33.1294646 187.184176,33.8614968 C186.411243,34.5935289 185.916827,35.1616882 185.70093,35.5659747 C184.671124,36.9983767 183.947348,38.2452254 183.529602,39.3065208 C183.317391,39.8456478 182.992167,40.5031246 182.749218,41.3084227 C182.655962,41.6175328 182.507654,42.0396556 182.371775,42.6242313 C182.309979,42.8900878 182.218616,43.3612089 182.097684,44.0375946 L182.034795,44.4063398 L182.034795,44.756858 L181.978748,56.4855303 C181.972431,57.058683 181.809056,57.5087361 181.488625,57.8356896 C181.168193,58.1626432 180.682351,58.335627 180.031097,58.3546411 C179.30409,58.3455891 178.663239,58.2063412 178.108544,57.9368972 C177.55385,57.6674532 177.166066,57.296691 176.945193,56.8246106 C176.786782,56.598557 176.694674,56.3560968 176.66887,56.0972299 C176.643066,55.8383629 176.61581,55.5583419 176.587104,55.2571668 C175.727855,56.1741963 174.959251,56.8315695 174.281291,57.2292865 C173.896065,57.4552747 173.461189,57.7038739 172.949395,57.8871236 C172.690119,57.9799581 172.260117,58.09221 171.659388,58.2238794 C170.284831,58.3447399 169.271696,58.3447399 168.619982,58.2238794 C167.968269,58.1030188 167.105703,57.7551694 166.032286,57.1803312 C165.501733,56.7886694 165.129779,56.4816031 164.916421,56.2591324 C164.504007,55.829102 164.18783,55.3313451 163.923005,54.8710802 C163.452675,54.0536471 163.13995,53.0223732 162.984832,51.7772587 C162.916794,50.8783942 162.882039,50.2394013 162.880566,49.8602801 C162.877762,49.1388963 162.961148,48.5197985 162.984832,48.0498108 C163.027185,47.2093221 163.137524,46.2621849 163.315848,45.2083993 C163.63294,43.6469104 163.890897,42.4698841 164.089721,41.6773206 C164.288544,40.884757 164.595684,39.8091563 165.011139,38.4505184 C165.308213,37.4815311 165.541732,36.7475951 165.711696,36.2487104 C165.88166,35.7498258 166.130459,35.0680436 166.458093,34.2033639 L160.238435,34.2033639 C160.150065,35.9746034 160.072212,37.2960875 160.004876,38.1678162 C159.93754,39.0395449 159.819031,40.2601724 159.649348,41.8296987 C159.462057,43.0592607 159.308402,43.970511 159.188383,44.5634496 C159.068363,45.1563883 158.879054,45.9395062 158.620455,46.9128035 C158.155944,48.4450879 157.784412,49.5828455 157.50586,50.3260763 C157.227309,51.069307 156.906987,51.7775507 156.544895,52.4508071 C155.951325,53.4975356 155.466324,54.2621942 155.089892,54.7447829 C154.840797,55.0641234 154.551721,55.4762206 154.12878,55.8933021 C153.98464,56.0354446 153.730068,56.2468009 153.365063,56.5273711 C152.602919,57.1407903 151.885782,57.5768965 151.213652,57.8356896 C150.541522,58.0944828 149.758954,58.2547619 148.86595,58.3165269 C148.238337,58.3382673 147.79197,58.3382673 147.526847,58.3165269 C147.134169,58.2843268 146.741665,58.1857913 146.489456,58.1232622 C145.981821,57.9974067 145.375311,57.7150611 144.669925,57.2762256 C144.239664,56.9850394 143.921428,56.7354212 143.715215,56.5273711 C143.509002,56.319321 143.215506,55.9517565 142.834727,55.4246776 C142.148504,56.1415059 141.533936,56.6824231 140.991022,57.0474295 C140.448107,57.4124358 139.747014,57.7414679 138.887741,58.0345257 C138.461192,58.1626537 138.138907,58.2423628 137.920885,58.273653 C137.702863,58.3049431 137.281653,58.3319392 136.657256,58.3546411 C135.438688,58.2793755 134.535318,58.1401275 133.947147,57.9368972 C133.358977,57.7336668 132.60753,57.3011273 131.692809,56.6392787 C131.315552,56.337489 131.038619,56.0888301 130.862011,55.8933021 C130.685404,55.697774 130.42997,55.3570334 130.095712,54.8710802 C129.094692,56.4416565 128.305064,57.5901388 127.726827,58.3165269 C127.14859,59.042915 126.192649,60.0872379 124.859003,61.4494958 C124.466143,61.8468715 124.165248,62.1402122 123.956317,62.3295179 C123.747386,62.5188237 123.371555,62.8386439 122.828824,63.2889786 L122.828824,76.4313831 C122.763944,77.6408063 122.651786,78.6219868 122.492351,79.3749246 C122.332915,80.1278623 122.040019,81.0009233 121.613663,81.9941075 C121.167088,82.8742404 120.659344,83.5820904 120.09043,84.1176577 C119.733258,84.4538949 119.334785,84.7981237 118.828886,85.0939801 C118.628946,85.2109077 118.291881,85.3698093 117.81769,85.5706849 C117.344192,85.7221736 116.989676,85.8217085 116.754141,85.8692896 C116.132299,85.99491 115.532341,86.0115349 115.1573,85.9943323 C114.774676,85.9767819 114.187216,85.8980947 113.578678,85.7162053 C113.360792,85.6510801 113.032007,85.5226797 112.592323,85.3310042 C111.94592,84.9237438 111.50237,84.6197646 111.26167,84.4190665 C110.833408,84.061976 110.546634,83.6871089 110.305644,83.3769573 C110.038685,83.0333857 109.734407,82.5832172 109.461712,81.9941075 C109.341039,81.7334157 109.170251,81.2828953 108.949346,80.6425461 C108.782738,80.0494926 108.678386,79.597238 108.636292,79.2857822 C108.594197,78.9743265 108.563273,78.4256855 108.543519,77.6398593 C108.599028,76.5490477 108.660406,75.7497432 108.727654,75.2419456 C108.794903,74.734148 108.926239,74.0782485 109.121663,73.2742469 C109.327099,72.6703931 109.482069,72.239846 109.586575,71.9826057 C109.880109,71.2600698 110.174662,70.6926985 110.408023,70.2624466 C110.766006,69.6024245 111.342866,68.7522272 112.138601,67.7118546 C112.939795,66.7851718 113.624791,66.0444345 114.193591,65.4896427 C114.76239,64.934851 115.825021,63.9709996 117.381482,62.5980887 L117.381482,53.4717376 C116.58416,54.7516363 115.872485,55.6807679 115.246457,56.2591324 C114.866291,56.6103531 114.411216,57.073817 113.779856,57.456761 C113.507645,57.6218677 113.0299,57.8440347 112.346621,58.1232622 C112.041323,58.2257694 111.814852,58.290191 111.66721,58.3165269 C111.153942,58.4080814 110.703719,58.4064877 110.408023,58.4147089 C109.984739,58.4264773 109.424617,58.3628675 108.727654,58.2238794 C108.128637,58.0830861 107.587914,57.8821223 107.105486,57.620988 C106.623058,57.3598537 106.121813,56.9606564 105.601752,56.4233963 C105.330862,56.1376266 105.14033,55.9183744 105.030155,55.7656396 C104.666554,55.2615772 104.416169,54.7610403 104.249295,54.43094 C104.006575,53.9508053 103.73124,53.1785214 103.42329,52.1140882 C103.224297,51.1474646 103.100837,50.3961952 103.052908,49.8602801 C103.00498,49.324365 102.989614,48.5233428 103.006812,47.4572136 C103.085153,45.6162043 103.162907,44.264028 103.240075,43.4006845 C103.317242,42.5373411 103.455446,41.4733891 103.654687,40.2088286 C104.018714,38.1042864 104.30683,36.5303151 104.519033,35.4869147 C104.731237,34.4435144 104.951439,33.5180982 105.17964,32.7106664 C105.263578,32.3403743 105.331271,32.0749845 105.382721,31.9144971 C105.43417,31.7540097 105.494034,31.5804973 105.562314,31.3939601 C105.601163,31.1476094 105.638369,30.9608601 105.673933,30.8337122 C105.699306,30.7430008 105.780943,30.5088294 105.89794,30.2774574 C105.975939,30.1232095 106.08625,29.986129 106.228875,29.8662162 C106.513102,29.6286921 106.799015,29.4711637 107.086612,29.3936307 Z M117.386549,68.1182914 C116.720672,68.848379 116.26754,69.3698397 116.027155,69.6826737 C115.532937,70.3258422 115.23244,70.8978595 115.019466,71.2546279 C114.651109,71.8716918 114.329917,72.6860598 114.055892,73.6977318 C113.926782,74.1143995 113.838242,74.4470319 113.790271,74.6956292 C113.674089,75.2977221 113.600908,76.038106 113.574314,76.4079701 C113.542108,76.8558889 113.523834,77.4877824 113.574314,78.2725023 C113.58566,78.4488793 113.616516,78.7273951 113.666881,79.1080497 C113.782332,79.5623126 113.87109,79.8753019 113.933154,80.0470177 C114.110455,80.5375635 114.296126,80.8332806 114.419674,80.9931814 C114.608095,81.2370423 114.960857,81.3899862 115.47796,81.4520129 C115.821955,81.4436863 116.073181,81.3814019 116.23164,81.26516 C116.440449,81.1119817 116.703155,80.8420811 116.846494,80.5368425 C117.152996,79.8841504 117.333014,78.9374224 117.386549,77.6966584 L117.386549,68.1182914 Z" id="Combined-Shape" fill="#2C8EBB"></path>
            </g>
        </g>
    </g>
</svg>