<?xml version="1.0" encoding="UTF-8" standalone="no"?><!-- Generator: Gravit.io --><svg xmlns="http://www.w3.org/2000/svg" xmlns:xlink="http://www.w3.org/1999/xlink" style="isolation:isolate" viewBox="0 0 256 256" width="256pt" height="256pt"><defs><clipPath id="_clipPath_CAygPQ3PZFmj3xxBgv7xuLNtxSRWsXzg"><rect width="256" height="256"/></clipPath></defs><g clip-path="url(#_clipPath_CAygPQ3PZFmj3xxBgv7xuLNtxSRWsXzg)"><path d=" M 211.828 153.852 L 211.828 223.74 L 211.828 223.74 Q 205.588 226.86 196.54 229.98 L 196.54 229.98 L 196.54 229.98 Q 187.492 233.1 177.508 235.596 L 177.508 235.596 L 177.508 235.596 Q 167.524 238.092 157.54 239.652 L 157.54 239.652 L 157.54 239.652 Q 147.556 241.212 139.756 241.212 L 139.756 241.212 L 139.756 241.212 Q 112.924 241.212 91.864 234.192 L 91.864 234.192 L 91.864 234.192 Q 70.804 227.172 55.984 212.976 L 55.984 212.976 L 55.984 212.976 Q 41.164 198.78 33.364 177.564 L 33.364 177.564 L 33.364 177.564 Q 25.564 156.348 25.564 128.268 L 25.564 128.268 L 25.564 128.268 Q 25.564 97.692 35.08 76.32 L 35.08 76.32 L 35.08 76.32 Q 44.596 54.948 60.352 41.376 L 60.352 41.376 L 60.352 41.376 Q 76.108 27.804 96.076 21.564 L 96.076 21.564 L 96.076 21.564 Q 116.044 15.324 136.948 15.324 L 136.948 15.324 L 136.948 15.324 Q 157.54 15.324 175.636 18.132 L 175.636 18.132 L 175.636 18.132 Q 193.732 20.94 204.34 26.244 L 204.34 26.244 L 204.34 26.244 Q 204.34 30.924 203.872 38.256 L 203.872 38.256 L 203.872 38.256 Q 203.404 45.588 202.468 54.012 L 202.468 54.012 L 202.468 54.012 Q 201.532 62.436 200.128 70.86 L 200.128 70.86 L 200.128 70.86 Q 198.724 79.284 196.852 86.148 L 196.852 86.148 L 184.06 86.148 L 166.588 38.724 L 166.588 38.724 Q 163.156 37.164 156.292 36.384 L 156.292 36.384 L 156.292 36.384 Q 149.428 35.604 142.564 35.604 L 142.564 35.604 L 142.564 35.604 Q 129.772 35.604 117.916 40.596 L 117.916 40.596 L 117.916 40.596 Q 106.06 45.588 97.012 56.664 L 97.012 56.664 L 97.012 56.664 Q 87.964 67.74 82.66 85.368 L 82.66 85.368 L 82.66 85.368 Q 77.356 102.996 77.356 128.268 L 77.356 128.268 L 77.356 128.268 Q 77.356 148.86 82.192 165.864 L 82.192 165.864 L 82.192 165.864 Q 87.028 182.868 95.764 195.036 L 95.764 195.036 L 95.764 195.036 Q 104.5 207.204 116.668 214.068 L 116.668 214.068 L 116.668 214.068 Q 128.836 220.932 143.5 220.932 L 143.5 220.932 L 143.5 220.932 Q 148.18 220.932 153.172 220.152 L 153.172 220.152 L 153.172 220.152 Q 158.164 219.372 162.532 218.124 L 162.532 218.124 L 162.532 218.124 Q 166.9 216.876 170.176 215.316 L 170.176 215.316 L 170.176 215.316 Q 173.452 213.756 174.7 212.508 L 174.7 212.508 L 174.7 153.852 L 174.7 153.852 Q 166.588 153.228 159.412 150.732 L 159.412 150.732 L 159.412 150.732 Q 152.236 148.236 145.996 144.804 L 145.996 144.804 L 145.996 132.948 L 231.172 132.948 L 231.172 144.804 L 231.172 144.804 Q 228.364 147.612 223.684 149.952 L 223.684 149.952 L 223.684 149.952 Q 219.004 152.292 211.828 153.852 L 211.828 153.852 L 211.828 153.852 Z " fill="rgb(0,0,0)"/></g></svg>