<?xml version="1.0" encoding="UTF-8" standalone="no"?><!-- Generator: Gravit.io --><svg xmlns="http://www.w3.org/2000/svg" xmlns:xlink="http://www.w3.org/1999/xlink" style="isolation:isolate" viewBox="0 0 256 256" width="256pt" height="256pt"><defs><clipPath id="_clipPath_ZbTcEsksqwGtVQT5RkK5BueUmSCaWA1f"><rect width="256" height="256"/></clipPath></defs><g clip-path="url(#_clipPath_ZbTcEsksqwGtVQT5RkK5BueUmSCaWA1f)"><path d=" M 122.908 99.876 L 102.94 96.756 L 102.94 88.956 L 102.94 88.956 Q 107.62 87.084 113.548 85.056 L 113.548 85.056 L 113.548 85.056 Q 119.476 83.028 125.716 81.468 L 125.716 81.468 L 125.716 81.468 Q 131.956 79.908 137.572 78.816 L 137.572 78.816 L 137.572 78.816 Q 143.188 77.724 147.556 77.724 L 147.556 77.724 L 153.172 81.468 L 123.844 219.996 L 146.932 219.996 L 146.932 228.108 L 146.932 228.108 Q 140.38 233.1 131.644 236.22 L 131.644 236.22 L 131.644 236.22 Q 122.908 239.34 114.484 239.34 L 114.484 239.34 L 114.484 239.34 Q 105.436 239.34 101.536 235.284 L 101.536 235.284 L 101.536 235.284 Q 97.636 231.228 97.636 225.924 L 97.636 225.924 L 97.636 225.924 Q 97.636 219.684 98.572 213.756 L 98.572 213.756 L 98.572 213.756 Q 99.508 207.828 101.068 200.652 L 101.068 200.652 L 122.908 99.876 L 122.908 99.876 Z  M 127.9 27.492 L 127.9 27.492 L 127.9 27.492 Q 127.9 19.38 132.892 14.7 L 132.892 14.7 L 132.892 14.7 Q 137.884 10.02 145.996 10.02 L 145.996 10.02 L 145.996 10.02 Q 154.732 10.02 159.724 14.7 L 159.724 14.7 L 159.724 14.7 Q 164.716 19.38 164.716 27.492 L 164.716 27.492 L 164.716 27.492 Q 164.716 35.292 159.724 39.66 L 159.724 39.66 L 159.724 39.66 Q 154.732 44.028 145.996 44.028 L 145.996 44.028 L 145.996 44.028 Q 137.884 44.028 132.892 39.66 L 132.892 39.66 L 132.892 39.66 Q 127.9 35.292 127.9 27.492 Z " fill="rgb(0,0,0)"/></g></svg>