<?xml version="1.0" encoding="UTF-8" standalone="no"?>
<svg
   xmlns:dc="http://purl.org/dc/elements/1.1/"
   xmlns:cc="http://creativecommons.org/ns#"
   xmlns:rdf="http://www.w3.org/1999/02/22-rdf-syntax-ns#"
   xmlns:svg="http://www.w3.org/2000/svg"
   xmlns="http://www.w3.org/2000/svg"
   xmlns:sodipodi="http://sodipodi.sourceforge.net/DTD/sodipodi-0.dtd"
   xmlns:inkscape="http://www.inkscape.org/namespaces/inkscape"
   inkscape:version="1.0 (4035a4fb49, 2020-05-01)"
   sodipodi:docname="maths.svg"
   id="svg4"
   version="1.1"
   width="24"
   viewBox="-42 0 18 18.028169"
   height="24">
  <metadata
     id="metadata10">
    <rdf:RDF>
      <cc:Work
         rdf:about="">
        <dc:format>image/svg+xml</dc:format>
        <dc:type
           rdf:resource="http://purl.org/dc/dcmitype/StillImage" />
        <dc:title></dc:title>
      </cc:Work>
    </rdf:RDF>
  </metadata>
  <defs
     id="defs8" />
  <sodipodi:namedview
     inkscape:current-layer="svg4"
     inkscape:cy="18.654384"
     inkscape:cx="-1.0471893"
     inkscape:zoom="16.301017"
     units="px"
     fit-margin-bottom="0"
     fit-margin-right="0"
     fit-margin-left="0"
     fit-margin-top="0"
     showgrid="false"
     id="namedview6"
     inkscape:window-height="480"
     inkscape:window-width="640"
     inkscape:pageshadow="2"
     inkscape:pageopacity="0"
     guidetolerance="10"
     gridtolerance="10"
     objecttolerance="10"
     borderopacity="1"
     bordercolor="#666666"
     pagecolor="#ffffff" />
  <path
     style="stroke-width:0.0281692"
     id="path2"
     d="m -28.643167,15.023539 h -8.71364 c -0.17364,0 -0.33231,-0.0998 -0.40681,-0.25727 -0.0746,-0.1568 -0.0524,-0.34254 0.057,-0.47777 l 4.27699,-5.2744695 -4.27754,-5.27447 c -0.10937,-0.13523 -0.13105,-0.32152 -0.0565,-0.47777 0.0745,-0.15736 0.23317,-0.25716 0.40681,-0.25716 h 8.71364 c 0.24879,0 0.45071,0.20192 0.45071,0.45071 v 1.50232 c 0,0.24879 -0.20192,0.45071 -0.45071,0.45071 -0.24879,0 -0.45071,-0.20192 -0.45071,-0.45071 v -1.05161 h -7.31706 l 3.91156,4.82376 c 0.13402,0.16527 0.13402,0.40262 0,0.56789 l -3.91156,4.8244195 h 7.31706 v -1.05172 c 0,-0.24879 0.20192,-0.45071 0.45071,-0.45071 0.24879,0 0.45071,0.20192 0.45071,0.45071 v 1.50243 c 0,0.24879 -0.20192,0.450711 -0.45071,0.450711 z m 0,0" />
</svg>
