<?xml version="1.0" encoding="UTF-8" standalone="no"?><!-- Generator: Gravit.io --><svg xmlns="http://www.w3.org/2000/svg" xmlns:xlink="http://www.w3.org/1999/xlink" style="isolation:isolate" viewBox="0 0 256 256" width="256pt" height="256pt"><defs><clipPath id="_clipPath_jOQTnFohnp4hwDar6ZcrzYyV9DismMeO"><rect width="256" height="256"/></clipPath></defs><g clip-path="url(#_clipPath_jOQTnFohnp4hwDar6ZcrzYyV9DismMeO)"><path d=" M 63.166 122.765 L 63.166 122.765 L 63.166 122.765 Q 84.912 122.765 98.603 137.262 L 98.603 137.262 L 98.603 137.262 Q 112.295 151.759 112.295 173.907 L 112.295 173.907 L 112.295 173.907 Q 112.295 196.055 97.395 212.566 L 97.395 212.566 L 97.395 212.566 Q 82.496 229.076 59.139 229.076 L 59.139 229.076 L 59.139 229.076 Q 35.783 229.076 22.092 209.344 L 22.092 209.344 L 22.092 209.344 Q 8.4 189.612 8.4 161.424 L 8.4 161.424 L 8.4 161.424 Q 8.4 116.322 36.589 76.858 L 36.589 76.858 L 36.589 76.858 Q 64.777 37.394 113.1 26.924 L 113.1 26.924 L 118.738 46.253 L 118.738 46.253 Q 63.166 70.415 63.166 122.765 Z  M 192.028 122.765 L 192.028 122.765 L 192.028 122.765 Q 213.774 122.765 227.465 137.262 L 227.465 137.262 L 227.465 137.262 Q 241.157 151.759 241.157 173.907 L 241.157 173.907 L 241.157 173.907 Q 241.157 196.055 226.257 212.566 L 226.257 212.566 L 226.257 212.566 Q 211.358 229.076 188.001 229.076 L 188.001 229.076 L 188.001 229.076 Q 164.645 229.076 150.954 209.344 L 150.954 209.344 L 150.954 209.344 Q 137.262 189.612 137.262 161.424 L 137.262 161.424 L 137.262 161.424 Q 137.262 116.322 165.451 76.858 L 165.451 76.858 L 165.451 76.858 Q 193.639 37.394 241.962 26.924 L 241.962 26.924 L 247.6 46.253 L 247.6 46.253 Q 192.028 70.415 192.028 122.765 Z " fill="rgb(0,0,0)"/></g></svg>