<?xml version="1.0" encoding="UTF-8" standalone="no"?><!-- Generator: Gravit.io --><svg xmlns="http://www.w3.org/2000/svg" xmlns:xlink="http://www.w3.org/1999/xlink" style="isolation:isolate" viewBox="0 0 256 256" width="256pt" height="256pt"><defs><clipPath id="_clipPath_G5tTIgLGpQBQuDTfiHqHwqkmwnqHq5Qg"><rect width="256" height="256"/></clipPath></defs><g clip-path="url(#_clipPath_G5tTIgLGpQBQuDTfiHqHwqkmwnqHq5Qg)"><path d=" M 67.004 228.42 L 67.004 24.684 L 43.292 22.188 L 43.292 14.076 L 43.292 14.076 Q 52.964 10.02 64.976 7.524 L 64.976 7.524 L 64.976 7.524 Q 76.988 5.028 87.284 2.844 L 87.284 2.844 L 95.084 2.844 L 95.084 112.356 L 95.708 112.356 L 95.708 112.356 Q 101.012 96.444 113.648 87.084 L 113.648 87.084 L 113.648 87.084 Q 126.284 77.724 141.572 77.724 L 141.572 77.724 L 141.572 77.724 Q 169.964 77.724 185.096 97.068 L 185.096 97.068 L 185.096 97.068 Q 200.228 116.412 200.228 156.66 L 200.228 156.66 L 200.228 156.66 Q 200.228 197.844 179.48 219.06 L 179.48 219.06 L 179.48 219.06 Q 158.732 240.276 119.732 240.276 L 119.732 240.276 L 119.732 240.276 Q 111.932 240.276 104.132 239.184 L 104.132 239.184 L 104.132 239.184 Q 96.332 238.092 89.156 236.532 L 89.156 236.532 L 89.156 236.532 Q 81.98 234.972 76.208 232.788 L 76.208 232.788 L 76.208 232.788 Q 70.436 230.604 67.004 228.42 L 67.004 228.42 Z  M 133.148 97.068 L 133.148 97.068 L 133.148 97.068 Q 118.172 97.068 108.812 107.208 L 108.812 107.208 L 108.812 107.208 Q 99.452 117.348 95.084 132.948 L 95.084 132.948 L 95.084 219.996 L 95.084 219.996 Q 100.7 223.116 108.812 224.832 L 108.812 224.832 L 108.812 224.832 Q 116.924 226.548 125.972 226.548 L 125.972 226.548 L 125.972 226.548 Q 146.564 226.548 158.42 208.608 L 158.42 208.608 L 158.42 208.608 Q 170.276 190.668 170.276 156.66 L 170.276 156.66 L 170.276 156.66 Q 170.276 144.492 168.248 133.572 L 168.248 133.572 L 168.248 133.572 Q 166.22 122.652 161.696 114.54 L 161.696 114.54 L 161.696 114.54 Q 157.172 106.428 150.152 101.748 L 150.152 101.748 L 150.152 101.748 Q 143.132 97.068 133.148 97.068 Z  M 42.98 151.668 L 213.02 151.668 L 213.02 167.268 L 42.98 167.268 L 42.98 151.668 Z " fill="rgb(0,0,0)"/></g></svg>