<?xml version="1.0" encoding="UTF-8" standalone="no"?>
<svg
   xmlns:dc="http://purl.org/dc/elements/1.1/"
   xmlns:cc="http://creativecommons.org/ns#"
   xmlns:rdf="http://www.w3.org/1999/02/22-rdf-syntax-ns#"
   xmlns:svg="http://www.w3.org/2000/svg"
   xmlns="http://www.w3.org/2000/svg"
   xmlns:sodipodi="http://sodipodi.sourceforge.net/DTD/sodipodi-0.dtd"
   xmlns:inkscape="http://www.inkscape.org/namespaces/inkscape"
   width="89.362396mm"
   height="103.18681mm"
   viewBox="0 0 89.362396 103.18681"
   version="1.1"
   id="svg1543"
   inkscape:version="1.0.2-2 (e86c870879, 2021-01-15)"
   sodipodi:docname="sciences-de-la-nature.svg">
  <title
     id="title2206">Icône sciences de la nature</title>
  <defs
     id="defs1537">
    <inkscape:path-effect
       effect="bspline"
       id="path-effect1582"
       is_visible="true"
       lpeversion="1"
       weight="33.333333"
       steps="2"
       helper_size="0"
       apply_no_weight="true"
       apply_with_weight="true"
       only_selected="false" />
  </defs>
  <sodipodi:namedview
     id="base"
     pagecolor="#ffffff"
     bordercolor="#666666"
     borderopacity="1.0"
     inkscape:pageopacity="0.0"
     inkscape:pageshadow="2"
     inkscape:zoom="1.979899"
     inkscape:cx="237.06211"
     inkscape:cy="113.42469"
     inkscape:document-units="mm"
     inkscape:current-layer="layer1"
     inkscape:document-rotation="0"
     showgrid="false"
     inkscape:window-width="1920"
     inkscape:window-height="1017"
     inkscape:window-x="-8"
     inkscape:window-y="-8"
     inkscape:window-maximized="1"
     fit-margin-top="0"
     fit-margin-left="0"
     fit-margin-right="0"
     fit-margin-bottom="0" />
  <metadata
     id="metadata1540">
    <rdf:RDF>
      <cc:Work
         rdf:about="">
        <dc:format>image/svg+xml</dc:format>
        <dc:type
           rdf:resource="http://purl.org/dc/dcmitype/StillImage" />
        <dc:title>Icône sciences de la nature</dc:title>
      </cc:Work>
    </rdf:RDF>
  </metadata>
  <g
     inkscape:label="Calque 1"
     inkscape:groupmode="layer"
     id="layer1"
     transform="translate(0.08001282,0.18863678)">
    <path
       sodipodi:type="star"
       style="fill:#0b5a7f;fill-opacity:1;fill-rule:evenodd;stroke-width:0.264583"
       id="path12"
       sodipodi:sides="6"
       sodipodi:cx="44.601185"
       sodipodi:cy="51.404766"
       sodipodi:r1="51.593403"
       sodipodi:r2="44.681198"
       sodipodi:arg1="0.52359878"
       sodipodi:arg2="1.0471976"
       inkscape:flatsided="true"
       inkscape:rounded="0"
       inkscape:randomized="0"
       d="M 89.282382,77.201468 44.601185,102.99817 -0.08001282,77.201467 -0.08001259,25.608064 44.601185,-0.18863678 89.282383,25.608065 Z" />
    <path
       sodipodi:type="star"
       style="fill:#fafafa;stroke:none;stroke-width:1.2631;stroke-linecap:square;stroke-linejoin:miter;stroke-miterlimit:3.5;stroke-dasharray:none;stroke-opacity:1"
       id="path1554"
       sodipodi:sides="3"
       sodipodi:cx="58.208332"
       sodipodi:cy="58.964287"
       sodipodi:r1="24.627258"
       sodipodi:r2="12.31363"
       sodipodi:arg1="-1.5707963"
       sodipodi:arg2="-0.52359878"
       inkscape:flatsided="true"
       inkscape:rounded="0"
       inkscape:randomized="0"
       d="m 58.208333,34.337029 21.32783,36.940888 -42.655663,-2e-6 z"
       inkscape:transform-center-y="-4.5027555"
       transform="matrix(0.67391736,0,0,0.73134483,14.93638,9.4153888)" />
    <path
       style="fill:#0d6b96;fill-opacity:1;stroke:none;stroke-width:0.0368215;stroke-linecap:square;stroke-linejoin:miter;stroke-miterlimit:3.5;stroke-dasharray:none;stroke-opacity:1"
       d="m 50.357755,41.497186 c 0,-0.0096 2.635915,-4.903007 3.319857,-6.163166 0.360136,-0.663548 0.458042,-0.840969 0.47192,-0.855202 0.0048,-0.0049 0.02309,0.01711 0.0405,0.04914 0.404843,0.74452 1.913708,3.549748 2.685637,4.993043 0.237659,0.444356 0.495211,0.925144 0.57234,1.068417 0.117485,0.218243 0.13786,0.26285 0.125603,0.274978 -0.02014,0.01993 -0.508551,0.26518 -0.641295,0.322022 -0.413816,0.177197 -0.776808,0.239914 -1.102063,0.190411 -0.227929,-0.03469 -0.338883,-0.0718 -0.994016,-0.332448 -0.620812,-0.246994 -0.820773,-0.313729 -1.069649,-0.356994 -0.154357,-0.02683 -0.626442,-0.02697 -0.815743,-2.42e-4 -0.291922,0.04123 -0.640281,0.129012 -0.959072,0.241695 -0.06101,0.02157 -0.228744,0.08047 -0.372757,0.130904 -0.319652,0.111945 -0.98988,0.350206 -1.135597,0.403695 -0.105703,0.0388 -0.125662,0.04417 -0.125662,0.03376 z"
       id="path2149" />
    <path
       sodipodi:type="star"
       style="fill:#fafafa;stroke:none;stroke-width:1.2631;stroke-linecap:square;stroke-linejoin:miter;stroke-miterlimit:3.5;stroke-dasharray:none;stroke-opacity:1"
       id="path1554-2"
       sodipodi:sides="3"
       sodipodi:cx="58.208332"
       sodipodi:cy="58.964287"
       sodipodi:r1="24.627258"
       sodipodi:r2="12.31363"
       sodipodi:arg1="-1.5707963"
       sodipodi:arg2="-0.52359878"
       inkscape:flatsided="true"
       inkscape:rounded="0"
       inkscape:randomized="0"
       inkscape:transform-center-y="-6.2812991"
       transform="matrix(0.94647729,0,0,1.0202183,-18.23351,-11.216535)"
       d="m 58.208333,34.337029 21.32783,36.940888 -42.655663,-2e-6 z" />
    <path
       style="fill:#0d6b96;fill-opacity:1;stroke:none;stroke-width:0.0515393;stroke-linecap:square;stroke-linejoin:miter;stroke-miterlimit:3.5;stroke-dasharray:none;stroke-opacity:1"
       d="m 31.513728,33.537234 c 0,-0.01339 3.701987,-6.839643 4.662544,-8.597552 0.505789,-0.925642 0.643293,-1.173143 0.662783,-1.192998 0.0067,-0.0068 0.03243,0.02387 0.05688,0.06855 0.568578,1.038598 2.687691,4.951861 3.771819,6.965243 0.333779,0.619872 0.695495,1.290566 0.803818,1.49043 0.165001,0.304447 0.193617,0.366673 0.176402,0.383592 -0.02828,0.0278 -0.71423,0.369923 -0.900661,0.449217 -0.58118,0.247188 -1.090981,0.334677 -1.547782,0.265621 -0.320113,-0.04839 -0.475942,-0.10016 -1.396037,-0.463761 -0.871894,-0.344554 -1.152728,-0.437649 -1.50226,-0.498003 -0.216785,-0.03743 -0.8798,-0.03762 -1.145663,-3.38e-4 -0.409987,0.05752 -0.899237,0.179971 -1.34696,0.337162 -0.08568,0.03009 -0.321257,0.112255 -0.523515,0.18261 -0.448932,0.156162 -1.390228,0.488534 -1.594879,0.56315 -0.148454,0.05413 -0.176485,0.06162 -0.176485,0.04709 z"
       id="path2149-9" />
  </g>
</svg>
