<?xml version="1.0" encoding="UTF-8" standalone="no"?>
<svg
   xmlns:dc="http://purl.org/dc/elements/1.1/"
   xmlns:cc="http://creativecommons.org/ns#"
   xmlns:rdf="http://www.w3.org/1999/02/22-rdf-syntax-ns#"
   xmlns:svg="http://www.w3.org/2000/svg"
   xmlns="http://www.w3.org/2000/svg"
   xmlns:sodipodi="http://sodipodi.sourceforge.net/DTD/sodipodi-0.dtd"
   xmlns:inkscape="http://www.inkscape.org/namespaces/inkscape"
   width="89.362396mm"
   height="103.18681mm"
   viewBox="0 0 89.362396 103.18681"
   version="1.1"
   id="svg1543"
   inkscape:version="1.0.2-2 (e86c870879, 2021-01-15)"
   sodipodi:docname="sciences-de-la-nature.svg">
  <title
     id="title2206">Icône sciences de la nature</title>
  <defs
     id="defs1537">
    <inkscape:path-effect
       effect="bspline"
       id="path-effect1582"
       is_visible="true"
       lpeversion="1"
       weight="33.333333"
       steps="2"
       helper_size="0"
       apply_no_weight="true"
       apply_with_weight="true"
       only_selected="false" />
  </defs>
  <sodipodi:namedview
     id="base"
     pagecolor="#ffffff"
     bordercolor="#666666"
     borderopacity="1.0"
     inkscape:pageopacity="0.0"
     inkscape:pageshadow="2"
     inkscape:zoom="22.4"
     inkscape:cx="123.80698"
     inkscape:cy="169.45156"
     inkscape:document-units="mm"
     inkscape:current-layer="layer1"
     inkscape:document-rotation="0"
     showgrid="false"
     inkscape:window-width="1920"
     inkscape:window-height="1017"
     inkscape:window-x="-8"
     inkscape:window-y="-8"
     inkscape:window-maximized="1"
     fit-margin-top="0"
     fit-margin-left="0"
     fit-margin-right="0"
     fit-margin-bottom="0" />
  <metadata
     id="metadata1540">
    <rdf:RDF>
      <cc:Work
         rdf:about="">
        <dc:format>image/svg+xml</dc:format>
        <dc:type
           rdf:resource="http://purl.org/dc/dcmitype/StillImage" />
        <dc:title>Icône sciences de la nature</dc:title>
      </cc:Work>
    </rdf:RDF>
  </metadata>
  <g
     inkscape:label="Calque 1"
     inkscape:groupmode="layer"
     id="layer1"
     transform="translate(0.08001282,0.18863678)">
    <path
       sodipodi:type="star"
       style="fill:#0b5a7f;fill-opacity:1;fill-rule:evenodd;stroke-width:0.264583"
       id="path12"
       sodipodi:sides="6"
       sodipodi:cx="44.601185"
       sodipodi:cy="51.404766"
       sodipodi:r1="51.593403"
       sodipodi:r2="44.681198"
       sodipodi:arg1="0.52359878"
       sodipodi:arg2="1.0471976"
       inkscape:flatsided="true"
       inkscape:rounded="0"
       inkscape:randomized="0"
       d="M 89.282382,77.201468 44.601185,102.99817 -0.08001282,77.201467 -0.08001259,25.608064 44.601185,-0.18863678 89.282383,25.608065 Z" />
    <path
       sodipodi:type="star"
       style="fill:#fafafa;stroke:none;stroke-width:1.2631;stroke-linecap:square;stroke-linejoin:miter;stroke-miterlimit:3.5;stroke-dasharray:none;stroke-opacity:1"
       id="path1554"
       sodipodi:sides="3"
       sodipodi:cx="58.208332"
       sodipodi:cy="58.964287"
       sodipodi:r1="24.627258"
       sodipodi:r2="12.31363"
       sodipodi:arg1="-1.5707963"
       sodipodi:arg2="-0.52359878"
       inkscape:flatsided="true"
       inkscape:rounded="0"
       inkscape:randomized="0"
       d="m 58.208333,34.337029 21.32783,36.940888 -42.655663,-2e-6 z"
       inkscape:transform-center-y="-4.5027555"
       transform="matrix(0.67391736,0,0,0.73134483,14.93638,9.4153888)" />
    <path
       style="fill:#0d6b96;fill-opacity:1;stroke:none;stroke-width:0.0365337;stroke-linecap:square;stroke-linejoin:miter;stroke-miterlimit:3.5;stroke-dasharray:none;stroke-opacity:1"
       d="m 50.434697,41.497186 c 0,-0.0096 2.594882,-4.903007 3.268177,-6.163166 0.35453,-0.663548 0.450912,-0.840969 0.464574,-0.855202 0.0047,-0.0049 0.02273,0.01711 0.03987,0.04914 0.398541,0.74452 1.883918,3.549748 2.64383,4.993043 0.233959,0.444356 0.487502,0.925144 0.563431,1.068417 0.115656,0.218243 0.135714,0.26285 0.123647,0.274978 -0.01983,0.01993 -0.500635,0.26518 -0.631312,0.322022 -0.407374,0.177197 -0.764715,0.239914 -1.084907,0.190411 -0.224381,-0.03469 -0.333608,-0.0718 -0.978542,-0.332448 -0.611148,-0.246994 -0.807996,-0.313729 -1.052998,-0.356994 -0.151954,-0.02683 -0.616691,-0.02697 -0.803045,-2.42e-4 -0.287378,0.04123 -0.630314,0.129012 -0.944142,0.241695 -0.06006,0.02157 -0.225183,0.08047 -0.366954,0.130904 -0.314676,0.111945 -0.97447,0.350206 -1.117919,0.403695 -0.104058,0.0388 -0.123706,0.04417 -0.123706,0.03376 z"
       id="path2149" />
    <path
       sodipodi:type="star"
       style="fill:#fafafa;stroke:none;stroke-width:1.2631;stroke-linecap:square;stroke-linejoin:miter;stroke-miterlimit:3.5;stroke-dasharray:none;stroke-opacity:1"
       id="path1554-2"
       sodipodi:sides="3"
       sodipodi:cx="58.208332"
       sodipodi:cy="58.964287"
       sodipodi:r1="24.627258"
       sodipodi:r2="12.31363"
       sodipodi:arg1="-1.5707963"
       sodipodi:arg2="-0.52359878"
       inkscape:flatsided="true"
       inkscape:rounded="0"
       inkscape:randomized="0"
       inkscape:transform-center-y="-6.2812991"
       transform="matrix(0.94647729,0,0,1.0202183,-18.23351,-11.216535)"
       d="m 58.208333,34.337029 21.32783,36.940888 -42.655663,-2e-6 z" />
    <path
       style="fill:#0d6b96;fill-opacity:1;stroke:none;stroke-width:0.0511217;stroke-linecap:square;stroke-linejoin:miter;stroke-miterlimit:3.5;stroke-dasharray:none;stroke-opacity:1"
       d="m 31.643942,33.537234 c 0,-0.01339 3.642242,-6.839643 4.587297,-8.597552 0.497626,-0.925642 0.632911,-1.173143 0.652087,-1.192998 0.0066,-0.0068 0.0319,0.02387 0.05596,0.06855 0.559402,1.038598 2.644315,4.951861 3.710947,6.965243 0.328393,0.619872 0.684271,1.290566 0.790846,1.49043 0.162338,0.304447 0.190492,0.366673 0.173555,0.383592 -0.02783,0.0278 -0.702704,0.369923 -0.886125,0.449217 -0.571801,0.247188 -1.073374,0.334677 -1.522804,0.265621 -0.314946,-0.04839 -0.468261,-0.10016 -1.373507,-0.463761 -0.857823,-0.344554 -1.134125,-0.437649 -1.478016,-0.498003 -0.213286,-0.03743 -0.865601,-0.03762 -1.127174,-3.38e-4 -0.40337,0.05752 -0.884723,0.179971 -1.325221,0.337162 -0.0843,0.03009 -0.316072,0.112255 -0.515066,0.18261 -0.441688,0.156162 -1.367792,0.488534 -1.569141,0.56315 -0.146057,0.05413 -0.173636,0.06162 -0.173636,0.04709 z"
       id="path2149-9" />
  </g>
</svg>
