<?xml version="1.0" encoding="UTF-8" ?><!DOCTYPE svg PUBLIC "-//W3C//DTD SVG 1.1 Basic//EN" "http://www.w3.org/Graphics/SVG/1.1/DTD/svg11-basic.dtd">
<svg xmlns="http://www.w3.org/2000/svg" xmlns:xlink="http://www.w3.org/1999/xlink" width="88" height="31" viewBox="0 0 88 31" baseProfile="basic" version="1.1">
<g id="surface1">
<path style=" stroke:none;fill-rule:nonzero;fill:rgb(66.666667%,69.803922%,67.058824%);fill-opacity:1;" d="M 2.300781 0.375 L 85.429688 0.523438 C 86.589844 0.523438 87.628906 0.351563 87.628906 2.855469 L 87.527344 30.410156 L 0.203125 30.410156 L 0.203125 2.753906 C 0.203125 1.519531 0.324219 0.375 2.300781 0.375 Z "/>
<path style=" stroke:none;fill-rule:nonzero;fill:rgb(0%,0%,0%);fill-opacity:1;" d="M 86.351563 0 L 1.648438 0 C 0.738281 0 0 0.742188 0 1.65625 L 0 30.625 C 0 30.832031 0.167969 31 0.371094 31 L 87.628906 31 C 87.832031 31 88 30.832031 88 30.625 L 88 1.65625 C 88 0.742188 87.261719 0 86.351563 0 Z M 1.648438 0.75 L 86.351563 0.75 C 86.851563 0.75 87.253906 1.15625 87.253906 1.65625 C 87.253906 1.65625 87.253906 13.355469 87.253906 21.789063 L 26.515625 21.789063 C 24.296875 25.828125 20.023438 28.570313 15.117188 28.570313 C 10.207031 28.570313 5.933594 25.832031 3.714844 21.789063 L 0.746094 21.789063 C 0.746094 13.355469 0.746094 1.65625 0.746094 1.65625 C 0.746094 1.15625 1.148438 0.75 1.648438 0.75 Z "/>
<path style=" stroke:none;fill-rule:nonzero;fill:rgb(100%,100%,100%);fill-opacity:1;" d="M 25.121094 14.472656 C 25.125 20.027344 20.648438 24.535156 15.125 24.539063 C 9.605469 24.542969 5.125 20.039063 5.121094 14.484375 C 5.121094 14.480469 5.121094 14.476563 5.121094 14.472656 C 5.117188 8.914063 9.59375 4.40625 15.113281 4.402344 C 20.636719 4.398438 25.117188 8.902344 25.121094 14.460938 C 25.121094 14.460938 25.121094 14.46875 25.121094 14.472656 Z "/>
<path style=" stroke:none;fill-rule:nonzero;fill:rgb(0%,0%,0%);fill-opacity:1;" d="M 23.25 6.273438 C 25.464844 8.507813 26.574219 11.238281 26.574219 14.472656 C 26.574219 17.703125 25.484375 20.40625 23.304688 22.582031 C 20.992188 24.871094 18.261719 26.015625 15.105469 26.015625 C 11.992188 26.015625 9.304688 24.878906 7.050781 22.609375 C 4.792969 20.339844 3.667969 17.625 3.667969 14.472656 C 3.667969 11.316406 4.792969 8.582031 7.050781 6.273438 C 9.246094 4.042969 11.933594 2.925781 15.105469 2.925781 C 18.316406 2.925781 21.03125 4.042969 23.25 6.273438 Z M 8.542969 7.777344 C 6.667969 9.679688 5.730469 11.914063 5.730469 14.472656 C 5.730469 17.035156 6.660156 19.246094 8.511719 21.113281 C 10.367188 22.980469 12.578125 23.914063 15.140625 23.914063 C 17.703125 23.914063 19.929688 22.972656 21.824219 21.085938 C 23.621094 19.332031 24.519531 17.128906 24.519531 14.472656 C 24.519531 11.835938 23.605469 9.601563 21.78125 7.761719 C 19.953125 5.921875 17.742188 5.003906 15.140625 5.003906 C 12.539063 5.003906 10.339844 5.929688 8.542969 7.777344 Z M 13.476563 13.347656 C 13.1875 12.71875 12.761719 12.40625 12.1875 12.40625 C 11.175781 12.40625 10.671875 13.089844 10.671875 14.460938 C 10.671875 15.828125 11.175781 16.511719 12.1875 16.511719 C 12.855469 16.511719 13.332031 16.179688 13.617188 15.511719 L 15.019531 16.261719 C 14.351563 17.457031 13.351563 18.054688 12.015625 18.054688 C 10.984375 18.054688 10.15625 17.738281 9.539063 17.101563 C 8.917969 16.464844 8.605469 15.589844 8.605469 14.472656 C 8.605469 13.371094 8.925781 12.5 9.566406 11.855469 C 10.207031 11.210938 11.003906 10.886719 11.957031 10.886719 C 13.371094 10.886719 14.378906 11.449219 14.992188 12.566406 Z M 20.066406 13.347656 C 19.78125 12.71875 19.359375 12.40625 18.808594 12.40625 C 17.777344 12.40625 17.257813 13.089844 17.257813 14.460938 C 17.257813 15.828125 17.777344 16.511719 18.808594 16.511719 C 19.476563 16.511719 19.945313 16.179688 20.210938 15.511719 L 21.644531 16.261719 C 20.976563 17.457031 19.976563 18.054688 18.640625 18.054688 C 17.613281 18.054688 16.789063 17.738281 16.171875 17.101563 C 15.550781 16.464844 15.242188 15.589844 15.242188 14.472656 C 15.242188 13.371094 15.554688 12.5 16.183594 11.855469 C 16.8125 11.210938 17.613281 10.886719 18.585938 10.886719 C 19.996094 10.886719 21.003906 11.449219 21.613281 12.566406 Z "/>

</g>
</svg>
