<?xml version="1.0" encoding="UTF-8" ?><!DOCTYPE svg PUBLIC "-//W3C//DTD SVG 1.1 Basic//EN" "http://www.w3.org/Graphics/SVG/1.1/DTD/svg11-basic.dtd">
<svg xmlns="http://www.w3.org/2000/svg" xmlns:xlink="http://www.w3.org/1999/xlink" width="120" height="42" viewBox="0 0 120 42" baseProfile="basic" version="1.1">
<g id="surface1">
<path style=" stroke:none;fill-rule:nonzero;fill:rgb(66.666667%,69.803922%,67.058824%);fill-opacity:1;" d="M 3.40625 0.476563 L 116.761719 0.679688 C 118.347656 0.679688 119.761719 0.441406 119.761719 3.839844 L 119.621094 41.167969 L 0.546875 41.167969 L 0.546875 3.699219 C 0.546875 2.027344 0.710938 0.476563 3.40625 0.476563 Z "/>
<path style=" stroke:none;fill-rule:nonzero;fill:rgb(100%,100%,100%);fill-opacity:1;" d="M 34.523438 19.574219 C 34.527344 27.105469 28.425781 33.210938 20.894531 33.21875 C 13.367188 33.222656 7.257813 27.121094 7.253906 19.59375 C 7.253906 19.585938 7.253906 19.582031 7.253906 19.574219 C 7.25 12.046875 13.347656 5.9375 20.878906 5.933594 C 28.410156 5.929688 34.519531 12.03125 34.523438 19.558594 C 34.523438 19.5625 34.523438 19.570313 34.523438 19.574219 Z "/>
<path style=" stroke:none;fill-rule:nonzero;fill:rgb(0%,0%,0%);fill-opacity:1;" d="M 31.972656 8.46875 C 34.996094 11.496094 36.507813 15.195313 36.507813 19.574219 C 36.507813 23.957031 35.019531 27.617188 32.050781 30.5625 C 28.894531 33.664063 25.167969 35.214844 20.867188 35.214844 C 16.617188 35.214844 12.957031 33.679688 9.882813 30.601563 C 6.804688 27.527344 5.265625 23.851563 5.265625 19.574219 C 5.265625 15.300781 6.804688 11.597656 9.882813 8.46875 C 12.878906 5.445313 16.539063 3.933594 20.867188 3.933594 C 25.246094 3.933594 28.949219 5.445313 31.972656 8.46875 Z M 11.917969 10.503906 C 9.359375 13.085938 8.082031 16.109375 8.082031 19.578125 C 8.082031 23.046875 9.347656 26.046875 11.878906 28.574219 C 14.40625 31.105469 17.417969 32.371094 20.914063 32.371094 C 24.410156 32.371094 27.445313 31.09375 30.027344 28.535156 C 32.480469 26.164063 33.707031 23.179688 33.707031 19.578125 C 33.707031 16.007813 32.460938 12.976563 29.96875 10.484375 C 27.480469 7.996094 24.460938 6.75 20.914063 6.75 C 17.367188 6.75 14.367188 8 11.917969 10.503906 Z M 18.644531 18.054688 C 18.253906 17.203125 17.667969 16.777344 16.886719 16.777344 C 15.511719 16.777344 14.820313 17.703125 14.820313 19.558594 C 14.820313 21.414063 15.511719 22.34375 16.886719 22.34375 C 17.796875 22.34375 18.449219 21.890625 18.839844 20.984375 L 20.75 22.003906 C 19.839844 23.621094 18.472656 24.429688 16.652344 24.429688 C 15.246094 24.429688 14.121094 24 13.273438 23.140625 C 12.425781 22.277344 12.003906 21.089844 12.003906 19.574219 C 12.003906 18.085938 12.441406 16.90625 13.3125 16.03125 C 14.183594 15.15625 15.269531 14.71875 16.574219 14.71875 C 18.5 14.71875 19.878906 15.480469 20.710938 16.996094 Z M 27.632813 18.054688 C 27.242188 17.203125 26.667969 16.777344 25.914063 16.777344 C 24.507813 16.777344 23.804688 17.703125 23.804688 19.558594 C 23.804688 21.414063 24.507813 22.34375 25.914063 22.34375 C 26.824219 22.34375 27.464844 21.890625 27.828125 20.984375 L 29.78125 22.003906 C 28.871094 23.621094 27.507813 24.429688 25.691406 24.429688 C 24.285156 24.429688 23.164063 24 22.316406 23.140625 C 21.476563 22.277344 21.050781 21.089844 21.050781 19.574219 C 21.050781 18.085938 21.480469 16.90625 22.339844 16.03125 C 23.195313 15.15625 24.285156 14.71875 25.613281 14.71875 C 27.535156 14.71875 28.910156 15.480469 29.742188 16.996094 Z "/>
<path style=" stroke:none;fill-rule:nonzero;fill:rgb(0%,0%,0%);fill-opacity:1;" d="M 117.753906 0 L 2.246094 0 C 1.007813 0 0 1.007813 0 2.246094 L 0 41.492188 C 0 41.773438 0.226563 42 0.507813 42 L 119.492188 42 C 119.773438 42 120 41.773438 120 41.492188 L 120 2.246094 C 120 1.007813 118.992188 0 117.753906 0 Z M 2.246094 1.015625 L 117.753906 1.015625 C 118.433594 1.015625 118.984375 1.566406 118.984375 2.246094 C 118.984375 2.246094 118.984375 18.066406 118.984375 29.492188 L 36.429688 29.492188 C 33.402344 34.960938 27.570313 38.675781 20.882813 38.675781 C 14.1875 38.675781 8.359375 34.964844 5.335938 29.492188 L 1.015625 29.492188 C 1.015625 18.066406 1.015625 2.246094 1.015625 2.246094 C 1.015625 1.566406 1.566406 1.015625 2.246094 1.015625 Z "/>
<path style=" stroke:none;fill-rule:nonzero;fill:rgb(100%,100%,100%);fill-opacity:1;" d="M 86.265625 37.730469 C 86.34375 37.886719 86.449219 38.011719 86.582031 38.109375 C 86.714844 38.203125 86.871094 38.273438 87.050781 38.320313 C 87.230469 38.367188 87.414063 38.390625 87.605469 38.390625 C 87.734375 38.390625 87.875 38.378906 88.023438 38.359375 C 88.167969 38.335938 88.308594 38.296875 88.4375 38.234375 C 88.566406 38.171875 88.675781 38.085938 88.761719 37.976563 C 88.847656 37.871094 88.890625 37.734375 88.890625 37.566406 C 88.890625 37.386719 88.835938 37.242188 88.71875 37.128906 C 88.605469 37.019531 88.457031 36.925781 88.269531 36.851563 C 88.085938 36.777344 87.875 36.710938 87.640625 36.65625 C 87.40625 36.601563 87.167969 36.539063 86.929688 36.472656 C 86.679688 36.410156 86.441406 36.332031 86.207031 36.242188 C 85.972656 36.15625 85.761719 36.039063 85.574219 35.894531 C 85.390625 35.753906 85.242188 35.574219 85.125 35.363281 C 85.011719 35.148438 84.957031 34.890625 84.957031 34.589844 C 84.957031 34.246094 85.027344 33.953125 85.171875 33.703125 C 85.320313 33.453125 85.507813 33.242188 85.742188 33.074219 C 85.976563 32.910156 86.242188 32.785156 86.539063 32.703125 C 86.835938 32.625 87.132813 32.585938 87.429688 32.585938 C 87.777344 32.585938 88.109375 32.625 88.425781 32.699219 C 88.742188 32.777344 89.027344 32.902344 89.273438 33.078125 C 89.519531 33.25 89.71875 33.472656 89.863281 33.742188 C 90.007813 34.011719 90.078125 34.335938 90.078125 34.71875 L 88.667969 34.71875 C 88.652344 34.523438 88.613281 34.359375 88.542969 34.226563 C 88.472656 34.097656 88.378906 33.996094 88.261719 33.921875 C 88.144531 33.847656 88.011719 33.796875 87.859375 33.765625 C 87.707031 33.734375 87.542969 33.71875 87.367188 33.71875 C 87.25 33.71875 87.132813 33.730469 87.015625 33.753906 C 86.898438 33.78125 86.792969 33.824219 86.695313 33.882813 C 86.601563 33.945313 86.523438 34.023438 86.460938 34.117188 C 86.398438 34.210938 86.367188 34.328125 86.367188 34.46875 C 86.367188 34.597656 86.394531 34.703125 86.441406 34.785156 C 86.492188 34.867188 86.589844 34.941406 86.734375 35.007813 C 86.878906 35.074219 87.078125 35.144531 87.335938 35.210938 C 87.59375 35.28125 87.925781 35.367188 88.339844 35.472656 C 88.464844 35.496094 88.636719 35.542969 88.855469 35.605469 C 89.074219 35.671875 89.292969 35.773438 89.507813 35.917969 C 89.726563 36.058594 89.910156 36.25 90.070313 36.488281 C 90.226563 36.726563 90.304688 37.03125 90.304688 37.402344 C 90.304688 37.703125 90.246094 37.984375 90.128906 38.246094 C 90.011719 38.503906 89.835938 38.730469 89.605469 38.917969 C 89.371094 39.105469 89.085938 39.253906 88.742188 39.359375 C 88.398438 39.464844 88 39.515625 87.550781 39.515625 C 87.1875 39.515625 86.832031 39.472656 86.488281 39.382813 C 86.144531 39.292969 85.839844 39.152344 85.578125 38.957031 C 85.316406 38.765625 85.109375 38.523438 84.953125 38.226563 C 84.796875 37.925781 84.726563 37.574219 84.730469 37.167969 L 86.144531 37.167969 C 86.144531 37.390625 86.183594 37.578125 86.265625 37.730469 Z "/>
<path style=" stroke:none;fill-rule:nonzero;fill:rgb(100%,100%,100%);fill-opacity:1;" d="M 94.46875 32.746094 L 96.945313 39.371094 L 95.433594 39.371094 L 94.933594 37.894531 L 92.457031 37.894531 L 91.9375 39.371094 L 90.472656 39.371094 L 92.976563 32.746094 Z M 94.554688 36.808594 L 93.71875 34.378906 L 93.699219 34.378906 L 92.835938 36.808594 Z "/>
<path style=" stroke:none;fill-rule:nonzero;fill:rgb(100%,100%,100%);fill-opacity:1;" d="M 59.996094 32.746094 C 60.3125 32.746094 60.601563 32.777344 60.859375 32.832031 C 61.121094 32.886719 61.34375 32.976563 61.53125 33.105469 C 61.714844 33.230469 61.859375 33.398438 61.960938 33.609375 C 62.0625 33.820313 62.113281 34.078125 62.113281 34.386719 C 62.113281 34.722656 62.039063 35 61.886719 35.222656 C 61.734375 35.445313 61.511719 35.628906 61.214844 35.769531 C 61.625 35.886719 61.929688 36.09375 62.128906 36.386719 C 62.332031 36.679688 62.433594 37.035156 62.433594 37.449219 C 62.433594 37.78125 62.367188 38.070313 62.238281 38.316406 C 62.109375 38.558594 61.933594 38.761719 61.714844 38.914063 C 61.492188 39.070313 61.242188 39.183594 60.960938 39.257813 C 60.679688 39.332031 60.390625 39.371094 60.089844 39.371094 L 56.875 39.371094 L 56.875 32.746094 Z M 59.808594 35.425781 C 60.070313 35.425781 60.285156 35.363281 60.453125 35.242188 C 60.617188 35.117188 60.703125 34.917969 60.703125 34.640625 C 60.703125 34.484375 60.675781 34.359375 60.617188 34.261719 C 60.5625 34.160156 60.488281 34.085938 60.394531 34.027344 C 60.300781 33.972656 60.195313 33.933594 60.074219 33.914063 C 59.953125 33.890625 59.828125 33.878906 59.699219 33.878906 L 58.335938 33.878906 L 58.335938 35.425781 Z M 59.894531 38.234375 C 60.039063 38.234375 60.175781 38.222656 60.304688 38.195313 C 60.433594 38.167969 60.550781 38.121094 60.648438 38.054688 C 60.746094 37.992188 60.828125 37.902344 60.886719 37.789063 C 60.945313 37.679688 60.972656 37.539063 60.972656 37.363281 C 60.972656 37.023438 60.878906 36.78125 60.6875 36.636719 C 60.492188 36.492188 60.238281 36.417969 59.921875 36.417969 L 58.335938 36.417969 L 58.335938 38.234375 Z "/>
<path style=" stroke:none;fill-rule:nonzero;fill:rgb(100%,100%,100%);fill-opacity:1;" d="M 62.691406 32.746094 L 64.324219 32.746094 L 65.875 35.363281 L 67.414063 32.746094 L 69.039063 32.746094 L 66.582031 36.828125 L 66.582031 39.371094 L 65.121094 39.371094 L 65.121094 36.789063 Z "/>
<path style=" stroke:none;fill-rule:nonzero;fill:rgb(100%,100%,100%);fill-opacity:1;" d="M 102.402344 14.980469 C 102.40625 20.824219 97.671875 25.566406 91.824219 25.574219 C 85.980469 25.578125 81.238281 20.84375 81.234375 14.996094 C 81.234375 14.992188 81.234375 14.984375 81.234375 14.980469 C 81.230469 9.136719 85.964844 4.394531 91.808594 4.390625 C 97.65625 4.382813 102.398438 9.121094 102.402344 14.964844 C 102.402344 14.972656 102.402344 14.976563 102.402344 14.980469 Z "/>
<path style=" stroke:none;fill-rule:nonzero;fill:rgb(0%,0%,0%);fill-opacity:1;" d="M 91.742188 3.386719 C 88.53125 3.386719 85.8125 4.507813 83.585938 6.75 C 81.300781 9.066406 80.160156 11.8125 80.160156 14.980469 C 80.160156 18.148438 81.300781 20.875 83.585938 23.15625 C 85.867188 25.4375 88.589844 26.574219 91.742188 26.574219 C 94.933594 26.574219 97.703125 25.425781 100.042969 23.125 C 102.25 20.941406 103.351563 18.226563 103.351563 14.980469 C 103.351563 11.734375 102.230469 8.988281 99.984375 6.75 C 97.742188 4.507813 94.992188 3.386719 91.742188 3.386719 Z M 91.769531 5.472656 C 94.402344 5.472656 96.636719 6.398438 98.476563 8.253906 C 100.335938 10.089844 101.261719 12.332031 101.261719 14.980469 C 101.261719 17.648438 100.355469 19.859375 98.535156 21.617188 C 96.617188 23.511719 94.363281 24.460938 91.769531 24.460938 C 89.179688 24.460938 86.941406 23.523438 85.066406 21.648438 C 83.1875 19.773438 82.25 17.550781 82.25 14.980469 C 82.25 12.410156 83.199219 10.167969 85.09375 8.253906 C 86.914063 6.398438 89.140625 5.472656 91.769531 5.472656 Z "/>
<path style=" stroke:none;fill-rule:nonzero;fill:rgb(0%,0%,0%);fill-opacity:1;" d="M 86.601563 13.34375 C 87.066406 10.425781 89.117188 8.867188 91.691406 8.867188 C 95.394531 8.867188 97.652344 11.554688 97.652344 15.136719 C 97.652344 18.628906 95.25 21.34375 91.632813 21.34375 C 89.148438 21.34375 86.921875 19.8125 86.515625 16.8125 L 89.4375 16.8125 C 89.523438 18.371094 90.535156 18.917969 91.980469 18.917969 C 93.628906 18.917969 94.703125 17.386719 94.703125 15.046875 C 94.703125 12.59375 93.777344 11.292969 92.039063 11.292969 C 90.765625 11.292969 89.667969 11.757813 89.4375 13.34375 L 90.285156 13.339844 L 87.988281 15.640625 L 85.6875 13.339844 Z "/>
<path style=" stroke:none;fill-rule:nonzero;fill:rgb(100%,100%,100%);fill-opacity:1;" d="M 74.097656 15.21875 C 74.097656 21.148438 69.289063 25.953125 63.359375 25.953125 C 57.429688 25.953125 52.621094 21.148438 52.621094 15.21875 C 52.621094 9.285156 57.429688 4.480469 63.359375 4.480469 C 69.289063 4.480469 74.097656 9.285156 74.097656 15.21875 Z "/>
<path style=" stroke:none;fill-rule:nonzero;fill:rgb(0%,0%,0%);fill-opacity:1;" d="M 66.46875 12.109375 C 66.46875 11.695313 66.132813 11.359375 65.71875 11.359375 L 60.976563 11.359375 C 60.5625 11.359375 60.226563 11.695313 60.226563 12.109375 L 60.226563 16.851563 L 61.550781 16.851563 L 61.550781 22.46875 L 65.144531 22.46875 L 65.144531 16.851563 L 66.46875 16.851563 Z "/>
<path style=" stroke:none;fill-rule:nonzero;fill:rgb(0%,0%,0%);fill-opacity:1;" d="M 64.96875 9.113281 C 64.96875 10.011719 64.242188 10.734375 63.347656 10.734375 C 62.453125 10.734375 61.726563 10.011719 61.726563 9.113281 C 61.726563 8.21875 62.453125 7.492188 63.347656 7.492188 C 64.242188 7.492188 64.96875 8.21875 64.96875 9.113281 Z "/>
<path style=" stroke:none;fill-rule:evenodd;fill:rgb(0%,0%,0%);fill-opacity:1;" d="M 63.332031 3.386719 C 60.121094 3.386719 57.402344 4.507813 55.175781 6.75 C 52.890625 9.066406 51.75 11.8125 51.75 14.980469 C 51.75 18.148438 52.890625 20.875 55.175781 23.15625 C 57.460938 25.433594 60.179688 26.574219 63.332031 26.574219 C 66.523438 26.574219 69.292969 25.425781 71.632813 23.125 C 73.839844 20.941406 74.941406 18.226563 74.941406 14.980469 C 74.941406 11.734375 73.820313 8.988281 71.578125 6.75 C 69.332031 4.507813 66.582031 3.386719 63.332031 3.386719 Z M 63.359375 5.472656 C 65.992188 5.472656 68.226563 6.398438 70.066406 8.253906 C 71.925781 10.089844 72.855469 12.332031 72.855469 14.980469 C 72.855469 17.648438 71.945313 19.859375 70.125 21.617188 C 68.207031 23.511719 65.953125 24.457031 63.359375 24.457031 C 60.769531 24.457031 58.53125 23.523438 56.65625 21.648438 C 54.777344 19.773438 53.839844 17.550781 53.839844 14.980469 C 53.839844 12.410156 54.789063 10.167969 56.683594 8.253906 C 58.503906 6.398438 60.730469 5.472656 63.359375 5.472656 Z "/>
</g>
</svg>
