<?xml version="1.0" encoding="UTF-8" ?><!DOCTYPE svg PUBLIC "-//W3C//DTD SVG 1.1 Basic//EN" "http://www.w3.org/Graphics/SVG/1.1/DTD/svg11-basic.dtd">
<svg xmlns="http://www.w3.org/2000/svg" xmlns:xlink="http://www.w3.org/1999/xlink" width="120" height="42" viewBox="0 0 120 42" baseProfile="basic" version="1.1">
<g id="surface1">
<path style=" stroke:none;fill-rule:nonzero;fill:rgb(66.666667%,69.803922%,67.058824%);fill-opacity:1;" d="M 3.40625 0.4375 L 116.761719 0.636719 C 118.347656 0.636719 119.761719 0.402344 119.761719 3.800781 L 119.621094 41.128906 L 0.546875 41.128906 L 0.546875 3.660156 C 0.546875 1.988281 0.710938 0.4375 3.40625 0.4375 Z "/>
<path style=" stroke:none;fill-rule:nonzero;fill:rgb(100%,100%,100%);fill-opacity:1;" d="M 34.523438 19.535156 C 34.527344 27.066406 28.425781 33.171875 20.894531 33.175781 C 13.367188 33.183594 7.257813 27.082031 7.253906 19.550781 C 7.253906 19.546875 7.253906 19.542969 7.253906 19.535156 C 7.25 12.003906 13.347656 5.898438 20.878906 5.894531 C 28.410156 5.890625 34.519531 11.988281 34.523438 19.519531 C 34.523438 19.523438 34.523438 19.53125 34.523438 19.535156 Z "/>
<path style=" stroke:none;fill-rule:nonzero;fill:rgb(0%,0%,0%);fill-opacity:1;" d="M 31.972656 8.429688 C 34.996094 11.453125 36.507813 15.15625 36.507813 19.535156 C 36.507813 23.914063 35.019531 27.578125 32.050781 30.523438 C 28.894531 33.625 25.167969 35.175781 20.867188 35.175781 C 16.617188 35.175781 12.957031 33.640625 9.882813 30.5625 C 6.804688 27.488281 5.265625 23.8125 5.265625 19.535156 C 5.265625 15.261719 6.804688 11.558594 9.882813 8.429688 C 12.878906 5.40625 16.539063 3.894531 20.867188 3.894531 C 25.246094 3.894531 28.949219 5.40625 31.972656 8.429688 Z M 11.917969 10.464844 C 9.359375 13.046875 8.082031 16.070313 8.082031 19.539063 C 8.082031 23.007813 9.347656 26.007813 11.878906 28.535156 C 14.40625 31.066406 17.417969 32.332031 20.914063 32.332031 C 24.410156 32.332031 27.445313 31.054688 30.027344 28.496094 C 32.480469 26.125 33.707031 23.140625 33.707031 19.539063 C 33.707031 15.96875 32.460938 12.9375 29.96875 10.445313 C 27.480469 7.957031 24.460938 6.710938 20.914063 6.710938 C 17.367188 6.710938 14.367188 7.960938 11.917969 10.464844 Z M 18.644531 18.015625 C 18.253906 17.164063 17.667969 16.738281 16.886719 16.738281 C 15.511719 16.738281 14.820313 17.664063 14.820313 19.519531 C 14.820313 21.375 15.511719 22.304688 16.886719 22.304688 C 17.796875 22.304688 18.449219 21.851563 18.839844 20.945313 L 20.75 21.964844 C 19.839844 23.582031 18.472656 24.390625 16.652344 24.390625 C 15.246094 24.390625 14.121094 23.960938 13.273438 23.097656 C 12.425781 22.238281 12.003906 21.050781 12.003906 19.535156 C 12.003906 18.046875 12.441406 16.867188 13.3125 15.992188 C 14.183594 15.117188 15.269531 14.679688 16.574219 14.679688 C 18.5 14.679688 19.878906 15.4375 20.710938 16.957031 Z M 27.632813 18.015625 C 27.242188 17.164063 26.667969 16.738281 25.914063 16.738281 C 24.507813 16.738281 23.804688 17.664063 23.804688 19.519531 C 23.804688 21.375 24.507813 22.304688 25.914063 22.304688 C 26.824219 22.304688 27.464844 21.851563 27.828125 20.945313 L 29.78125 21.964844 C 28.871094 23.582031 27.507813 24.390625 25.691406 24.390625 C 24.285156 24.390625 23.164063 23.960938 22.316406 23.097656 C 21.476563 22.238281 21.050781 21.050781 21.050781 19.535156 C 21.050781 18.046875 21.480469 16.867188 22.339844 15.992188 C 23.195313 15.117188 24.285156 14.679688 25.613281 14.679688 C 27.535156 14.679688 28.910156 15.4375 29.742188 16.957031 Z "/>
<path style=" stroke:none;fill-rule:nonzero;fill:rgb(100%,100%,100%);fill-opacity:1;" d="M 74.097656 15.175781 C 74.097656 21.109375 69.289063 25.914063 63.359375 25.914063 C 57.429688 25.914063 52.621094 21.109375 52.621094 15.175781 C 52.621094 9.246094 57.429688 4.441406 63.359375 4.441406 C 69.289063 4.441406 74.097656 9.246094 74.097656 15.175781 Z "/>
<path style=" stroke:none;fill-rule:nonzero;fill:rgb(0%,0%,0%);fill-opacity:1;" d="M 66.46875 12.070313 C 66.46875 11.65625 66.132813 11.320313 65.71875 11.320313 L 60.976563 11.320313 C 60.5625 11.320313 60.226563 11.65625 60.226563 12.070313 L 60.226563 16.8125 L 61.550781 16.8125 L 61.550781 22.429688 L 65.144531 22.429688 L 65.144531 16.8125 L 66.46875 16.8125 Z "/>
<path style=" stroke:none;fill-rule:nonzero;fill:rgb(0%,0%,0%);fill-opacity:1;" d="M 64.96875 9.074219 C 64.96875 9.972656 64.242188 10.695313 63.347656 10.695313 C 62.453125 10.695313 61.726563 9.972656 61.726563 9.074219 C 61.726563 8.179688 62.453125 7.453125 63.347656 7.453125 C 64.242188 7.453125 64.96875 8.179688 64.96875 9.074219 Z "/>
<path style=" stroke:none;fill-rule:evenodd;fill:rgb(0%,0%,0%);fill-opacity:1;" d="M 63.332031 3.347656 C 60.121094 3.347656 57.402344 4.464844 55.175781 6.710938 C 52.890625 9.027344 51.75 11.773438 51.75 14.941406 C 51.75 18.109375 52.890625 20.835938 55.175781 23.117188 C 57.460938 25.394531 60.179688 26.535156 63.332031 26.535156 C 66.523438 26.535156 69.292969 25.386719 71.632813 23.085938 C 73.839844 20.902344 74.941406 18.1875 74.941406 14.941406 C 74.941406 11.695313 73.820313 8.949219 71.578125 6.710938 C 69.332031 4.464844 66.582031 3.347656 63.332031 3.347656 Z M 63.359375 5.433594 C 65.992188 5.433594 68.226563 6.359375 70.066406 8.214844 C 71.925781 10.050781 72.855469 12.292969 72.855469 14.941406 C 72.855469 17.609375 71.945313 19.820313 70.125 21.578125 C 68.207031 23.472656 65.953125 24.417969 63.359375 24.417969 C 60.769531 24.417969 58.53125 23.480469 56.65625 21.609375 C 54.777344 19.734375 53.839844 17.511719 53.839844 14.941406 C 53.839844 12.371094 54.789063 10.128906 56.683594 8.214844 C 58.503906 6.359375 60.730469 5.433594 63.359375 5.433594 Z "/>
<path style=" stroke:none;fill-rule:nonzero;fill:rgb(0%,0%,0%);fill-opacity:1;" d="M 117.753906 0 L 2.246094 0 C 1.007813 0 0 1.007813 0 2.246094 L 0 41.492188 C 0 41.773438 0.226563 42 0.507813 42 L 119.492188 42 C 119.773438 42 120 41.773438 120 41.492188 L 120 2.246094 C 120 1.007813 118.992188 0 117.753906 0 Z M 2.246094 1.015625 L 117.753906 1.015625 C 118.433594 1.015625 118.984375 1.566406 118.984375 2.246094 C 118.984375 2.246094 118.984375 18.027344 118.984375 29.453125 L 36.429688 29.453125 C 33.402344 34.921875 27.570313 38.636719 20.882813 38.636719 C 14.1875 38.636719 8.359375 34.925781 5.335938 29.453125 L 1.015625 29.453125 C 1.015625 18.027344 1.015625 2.246094 1.015625 2.246094 C 1.015625 1.566406 1.566406 1.015625 2.246094 1.015625 Z "/>
<path style=" stroke:none;fill-rule:nonzero;fill:rgb(100%,100%,100%);fill-opacity:1;" d="M 59.996094 32.746094 C 60.3125 32.746094 60.601563 32.777344 60.859375 32.832031 C 61.121094 32.886719 61.34375 32.976563 61.53125 33.105469 C 61.714844 33.230469 61.859375 33.398438 61.960938 33.609375 C 62.0625 33.820313 62.113281 34.078125 62.113281 34.386719 C 62.113281 34.722656 62.039063 35 61.886719 35.222656 C 61.734375 35.445313 61.511719 35.628906 61.214844 35.769531 C 61.625 35.886719 61.929688 36.09375 62.128906 36.386719 C 62.332031 36.679688 62.433594 37.035156 62.433594 37.449219 C 62.433594 37.78125 62.367188 38.070313 62.238281 38.316406 C 62.109375 38.5625 61.933594 38.761719 61.714844 38.914063 C 61.492188 39.070313 61.242188 39.183594 60.960938 39.257813 C 60.679688 39.332031 60.386719 39.371094 60.089844 39.371094 L 56.875 39.371094 L 56.875 32.746094 Z M 59.8125 35.425781 C 60.070313 35.425781 60.285156 35.363281 60.453125 35.242188 C 60.617188 35.117188 60.703125 34.917969 60.703125 34.640625 C 60.703125 34.484375 60.675781 34.359375 60.617188 34.261719 C 60.5625 34.160156 60.488281 34.085938 60.394531 34.03125 C 60.304688 33.972656 60.195313 33.933594 60.074219 33.914063 C 59.953125 33.890625 59.828125 33.878906 59.699219 33.878906 L 58.335938 33.878906 L 58.335938 35.425781 Z M 59.894531 38.234375 C 60.039063 38.234375 60.175781 38.222656 60.304688 38.195313 C 60.433594 38.167969 60.550781 38.121094 60.648438 38.054688 C 60.746094 37.992188 60.828125 37.902344 60.886719 37.792969 C 60.945313 37.679688 60.972656 37.539063 60.972656 37.363281 C 60.972656 37.023438 60.878906 36.78125 60.6875 36.636719 C 60.492188 36.492188 60.238281 36.417969 59.921875 36.417969 L 58.335938 36.417969 L 58.335938 38.234375 Z "/>
<path style=" stroke:none;fill-rule:nonzero;fill:rgb(100%,100%,100%);fill-opacity:1;" d="M 62.691406 32.746094 L 64.324219 32.746094 L 65.875 35.363281 L 67.414063 32.746094 L 69.039063 32.746094 L 66.582031 36.828125 L 66.582031 39.371094 L 65.121094 39.371094 L 65.121094 36.789063 Z "/>
<path style=" stroke:none;fill-rule:nonzero;fill:rgb(100%,100%,100%);fill-opacity:1;" d="M 85.933594 32.746094 L 88.699219 37.191406 L 88.714844 37.191406 L 88.714844 32.746094 L 90.082031 32.746094 L 90.082031 39.371094 L 88.625 39.371094 L 85.867188 34.9375 L 85.851563 34.9375 L 85.851563 39.371094 L 84.484375 39.371094 L 84.484375 32.746094 Z "/>
<path style=" stroke:none;fill-rule:nonzero;fill:rgb(100%,100%,100%);fill-opacity:1;" d="M 94.21875 32.746094 C 94.644531 32.746094 95.042969 32.816406 95.410156 32.953125 C 95.78125 33.089844 96.097656 33.292969 96.367188 33.5625 C 96.636719 33.835938 96.847656 34.175781 97 34.582031 C 97.152344 34.992188 97.226563 35.472656 97.226563 36.023438 C 97.226563 36.503906 97.164063 36.949219 97.042969 37.355469 C 96.917969 37.765625 96.730469 38.117188 96.480469 38.414063 C 96.230469 38.710938 95.917969 38.945313 95.542969 39.113281 C 95.167969 39.285156 94.726563 39.371094 94.21875 39.371094 L 91.359375 39.371094 L 91.359375 32.746094 Z M 94.117188 38.144531 C 94.328125 38.144531 94.53125 38.109375 94.726563 38.039063 C 94.925781 37.972656 95.101563 37.859375 95.257813 37.703125 C 95.410156 37.546875 95.535156 37.339844 95.628906 37.085938 C 95.722656 36.832031 95.769531 36.523438 95.769531 36.160156 C 95.769531 35.828125 95.734375 35.527344 95.671875 35.257813 C 95.605469 34.988281 95.5 34.757813 95.351563 34.566406 C 95.203125 34.375 95.007813 34.230469 94.761719 34.125 C 94.515625 34.027344 94.214844 33.972656 93.855469 33.972656 L 92.816406 33.972656 L 92.816406 38.144531 Z "/>
<path style=" stroke:none;fill-rule:nonzero;fill:rgb(100%,100%,100%);fill-opacity:1;" d="M 102.496094 14.980469 C 102.5 20.824219 97.761719 25.566406 91.914063 25.574219 C 86.070313 25.574219 81.328125 20.84375 81.324219 14.996094 C 81.324219 14.992188 81.324219 14.984375 81.324219 14.980469 C 81.320313 9.136719 86.054688 4.394531 91.902344 4.390625 C 97.746094 4.382813 102.488281 9.121094 102.496094 14.964844 C 102.496094 14.96875 102.496094 14.976563 102.496094 14.980469 Z "/>
<path style=" stroke:none;fill-rule:nonzero;fill:rgb(0%,0%,0%);fill-opacity:1;" d="M 91.742188 3.386719 C 88.53125 3.386719 85.8125 4.503906 83.585938 6.746094 C 81.300781 9.066406 80.160156 11.808594 80.160156 14.980469 C 80.160156 18.148438 81.300781 20.875 83.585938 23.15625 C 85.871094 25.4375 88.589844 26.574219 91.742188 26.574219 C 94.933594 26.574219 97.703125 25.425781 100.042969 23.125 C 102.25 20.941406 103.355469 18.226563 103.355469 14.980469 C 103.355469 11.734375 102.230469 8.988281 99.988281 6.746094 C 97.742188 4.503906 94.992188 3.386719 91.742188 3.386719 Z M 91.773438 5.472656 C 94.402344 5.472656 96.636719 6.398438 98.476563 8.257813 C 100.335938 10.089844 101.265625 12.332031 101.265625 14.980469 C 101.265625 17.648438 100.355469 19.859375 98.535156 21.617188 C 96.617188 23.511719 94.363281 24.457031 91.773438 24.457031 C 89.179688 24.457031 86.941406 23.523438 85.066406 21.644531 C 83.1875 19.773438 82.25 17.550781 82.25 14.980469 C 82.25 12.410156 83.199219 10.167969 85.09375 8.257813 C 86.914063 6.398438 89.140625 5.472656 91.773438 5.472656 Z "/>
<path style=" stroke:none;fill-rule:nonzero;fill:rgb(0%,0%,0%);fill-opacity:1;" d="M 96.140625 12.234375 L 87.707031 12.234375 L 87.707031 14.230469 L 96.140625 14.230469 Z M 96.140625 15.957031 L 87.707031 15.957031 L 87.707031 17.953125 L 96.140625 17.953125 Z "/>
</g>
</svg>
