<?xml version="1.0" encoding="UTF-8" standalone="no"?>
<!-- Created with Inkscape (http://www.inkscape.org/) -->
<svg xmlns:dc="http://purl.org/dc/elements/1.1/" xmlns:cc="http://creativecommons.org/ns#" xmlns:rdf="http://www.w3.org/1999/02/22-rdf-syntax-ns#" xmlns:svg="http://www.w3.org/2000/svg" xmlns="http://www.w3.org/2000/svg" xmlns:xlink="http://www.w3.org/1999/xlink" xmlns:sodipodi="http://sodipodi.sourceforge.net/DTD/sodipodi-0.dtd" xmlns:inkscape="http://www.inkscape.org/namespaces/inkscape" width="88" height="31" id="svg3143" version="1.1" inkscape:version="0.47 r22583" sodipodi:docname="licenses-copyright-88x31.svg" inkscape:export-filename="/mnt/ogre/privy/docs/icons/open_icon_library-devel/web_icons/homemade/licenses/svg/licenses-copyright-88x31.png" inkscape:export-xdpi="90" inkscape:export-ydpi="90">
  <defs id="defs3145">
    <linearGradient id="linearGradient5185">
      <stop id="stop5187" offset="0" style="stop-color:#ffffff;stop-opacity:1;"/>
      <stop id="stop5189" offset="1" style="stop-color:#ffffff;stop-opacity:0"/>
    </linearGradient>
    <inkscape:perspective sodipodi:type="inkscape:persp3d" inkscape:vp_x="0 : 526.18109 : 1" inkscape:vp_y="0 : 1000 : 0" inkscape:vp_z="744.09448 : 526.18109 : 1" inkscape:persp3d-origin="372.04724 : 350.78739 : 1" id="perspective3151"/>
    <linearGradient y2="303.3382" x2="1484.4534" y1="269.99911" x1="1466.6725" gradientTransform="translate(-955.35241,24.575768)" gradientUnits="userSpaceOnUse" id="linearGradient3842" xlink:href="#linearGradient3820" inkscape:collect="always"/>
    <linearGradient y2="262.63425" x2="1508.4443" y1="231.9935" x1="1498.1847" gradientTransform="translate(-961.79499,28.334586)" gradientUnits="userSpaceOnUse" id="linearGradient3840" xlink:href="#linearGradient3396" inkscape:collect="always"/>
    <linearGradient gradientTransform="translate(-1014.6582,22.487536)" y2="303.3382" x2="1484.4534" y1="269.99911" x1="1466.6725" gradientUnits="userSpaceOnUse" id="linearGradient3834" xlink:href="#linearGradient3820" inkscape:collect="always"/>
    <linearGradient gradientTransform="translate(-1019.0125,27.081647)" y2="262.63422" x2="1506.3561" y1="234.49939" x1="1498.6023" gradientUnits="userSpaceOnUse" id="linearGradient3832" xlink:href="#linearGradient3396" inkscape:collect="always"/>
    <linearGradient gradientTransform="translate(-1006.1028,24.796082)" gradientUnits="userSpaceOnUse" y2="916.28113" x2="1523.0221" y1="892.53217" x1="1522.775" id="linearGradient3806" xlink:href="#linearGradient3800" inkscape:collect="always"/>
    <filter id="filter3794" height="1.72" y="-0.36" width="1.0654545" x="-0.032727273" inkscape:collect="always">
      <feGaussianBlur id="feGaussianBlur3796" stdDeviation="10.99209" inkscape:collect="always"/>
    </filter>
    <linearGradient y2="401.17514" x2="1242.624" y1="638.37286" x1="938.64874" gradientTransform="matrix(-1,0,0,1,2045.6522,42.425612)" gradientUnits="userSpaceOnUse" id="linearGradient3758" xlink:href="#linearGradient3330" inkscape:collect="always"/>
    <linearGradient gradientTransform="translate(-1024,44.354049)" gradientUnits="userSpaceOnUse" y2="401.17514" x2="1242.624" y1="638.37286" x1="938.64874" id="linearGradient3750" xlink:href="#linearGradient3330" inkscape:collect="always"/>
    <filter id="filter3736" height="1.3758222" y="-0.1879111" width="1.1762891" x="-0.088144548" inkscape:collect="always">
      <feGaussianBlur id="feGaussianBlur3738" stdDeviation="12.536909" inkscape:collect="always"/>
    </filter>
    <linearGradient gradientUnits="userSpaceOnUse" y2="600.02802" x2="513.85217" y1="457.3237" x1="513.85217" id="linearGradient3620" xlink:href="#linearGradient3614" inkscape:collect="always"/>
    <linearGradient y2="888.87366" x2="1304.5875" y1="806.08667" x1="1304.5875" gradientUnits="userSpaceOnUse" id="linearGradient3612" xlink:href="#linearGradient3330" inkscape:collect="always"/>
    <linearGradient gradientUnits="userSpaceOnUse" y2="888.87366" x2="1304.5875" y1="806.08667" x1="1304.5875" id="linearGradient3608" xlink:href="#linearGradient3330" inkscape:collect="always"/>
    <radialGradient gradientUnits="userSpaceOnUse" gradientTransform="matrix(1,0,0,0.4690758,0,457.16122)" r="170.67751" fy="902.17822" fx="712.55743" cy="902.17822" cx="712.55743" id="radialGradient3598" xlink:href="#linearGradient3420" inkscape:collect="always"/>
    <radialGradient gradientUnits="userSpaceOnUse" gradientTransform="matrix(1,0,0,0.4690758,0,457.16122)" r="170.67751" fy="898.06708" fx="317.22787" cy="898.06708" cx="317.22787" id="radialGradient3590" xlink:href="#linearGradient3420" inkscape:collect="always"/>
    <filter id="filter3580" height="1.3249237" y="-0.16246186" width="1.19027" x="-0.095135023" inkscape:collect="always">
      <feGaussianBlur id="feGaussianBlur3582" stdDeviation="11.052912" inkscape:collect="always"/>
    </filter>
    <radialGradient gradientUnits="userSpaceOnUse" gradientTransform="matrix(0.9999998,-9.7785892e-8,7.8571935e-8,0.8035098,8.2454079e-5,82.275384)" r="90.911514" fy="418.72488" fx="510.06738" cy="418.72488" cx="510.06738" id="radialGradient3434" xlink:href="#linearGradient3420" inkscape:collect="always"/>
    <linearGradient gradientTransform="translate(-1003.3646,24.993414)" gradientUnits="userSpaceOnUse" y2="393.50894" x2="1532.6458" y1="341.2269" x1="1563.5314" id="linearGradient3414" xlink:href="#linearGradient3330" inkscape:collect="always"/>
    <radialGradient r="89.638496" fy="319.54004" fx="1619.8779" cy="319.54004" cx="1619.8779" gradientTransform="matrix(-0.7517595,-0.9307538,0.3594303,-0.2479061,1476.0623,1923.7939)" gradientUnits="userSpaceOnUse" id="radialGradient3404" xlink:href="#linearGradient3396" inkscape:collect="always"/>
    <radialGradient gradientUnits="userSpaceOnUse" gradientTransform="matrix(-1,-9.1743859e-7,3.3119138e-7,-0.3609957,2230.4424,461.01997)" r="89.638496" fy="319.54004" fx="1619.8779" cy="319.54004" cx="1619.8779" id="radialGradient3394" xlink:href="#linearGradient3396" inkscape:collect="always"/>
    <linearGradient gradientTransform="translate(-1006.6441,26.998117)" gradientUnits="userSpaceOnUse" y2="249.1969" x2="1664.2391" y1="197.05765" x1="1632.8861" id="linearGradient3382" xlink:href="#linearGradient3330" inkscape:collect="always"/>
    <linearGradient gradientUnits="userSpaceOnUse" y2="146.25206" x2="615.17139" y1="295.80273" x1="615.17139" id="linearGradient3372" xlink:href="#linearGradient3338" inkscape:collect="always"/>
    <linearGradient gradientUnits="userSpaceOnUse" y2="143.58786" x2="426.80252" y1="272.77432" x1="429.12805" id="linearGradient3364" xlink:href="#linearGradient3338" inkscape:collect="always"/>
    <linearGradient y2="360.61771" x2="1510.9303" y1="-9.6421814" x1="1510.9303" gradientUnits="userSpaceOnUse" id="linearGradient3360" xlink:href="#linearGradient3285" inkscape:collect="always"/>
    <linearGradient gradientTransform="translate(-1012.4294,30.854991)" gradientUnits="userSpaceOnUse" y2="237.21567" x2="1487.1814" y1="177.43414" x1="1449.6846" id="linearGradient3336" xlink:href="#linearGradient3330" inkscape:collect="always"/>
    <linearGradient y2="360.61771" x2="1510.9303" y1="-9.6421814" x1="1510.9303" gradientUnits="userSpaceOnUse" id="linearGradient3324" xlink:href="#linearGradient3285" inkscape:collect="always"/>
    <pattern id="pattern3321" patternTransform="translate(304.69298,17.355935)" height="374.11677" width="412.68549" patternUnits="userSpaceOnUse">
      <path sodipodi:type="arc" style="opacity:1;fill:url(#linearGradient3324);fill-opacity:1;fill-rule:evenodd;stroke:none;stroke-width:2.7019999;stroke-linecap:butt;stroke-linejoin:miter;stroke-miterlimit:4;stroke-dasharray:none;stroke-dashoffset:0;stroke-opacity:1" id="path3283" sodipodi:cx="1510.9303" sodipodi:cy="175.48776" sodipodi:rx="189.95103" sodipodi:ry="185.12994" d="M 1700.8813,175.48776 A 189.95103,185.12994 0 1 1 1700.8813,175.48454" sodipodi:start="0" sodipodi:end="6.2831679" sodipodi:open="true" transform="matrix(1.0862944,0,0,1.0104167,-1434.9724,9.7426211)"/>
    </pattern>
    <radialGradient gradientUnits="userSpaceOnUse" gradientTransform="matrix(1,0,0,1.025,0,-7.6655342)" r="77.137474" fy="306.62146" fx="615.17139" cy="306.62146" cx="615.17139" id="radialGradient3319" xlink:href="#linearGradient3303" inkscape:collect="always"/>
    <radialGradient gradientUnits="userSpaceOnUse" gradientTransform="matrix(1,0,0,1.2625,0,-70.616952)" r="77.137474" fy="269.01694" fx="430.04144" cy="269.01694" cx="430.04144" id="radialGradient3309" xlink:href="#linearGradient3303" inkscape:collect="always"/>
    <linearGradient id="linearGradient3285">
      <stop id="stop3287" offset="0" style="stop-color:#ffffff;stop-opacity:1;"/>
      <stop id="stop3289" offset="1" style="stop-color:#000000;stop-opacity:0.45360824;"/>
    </linearGradient>
    <linearGradient id="linearGradient3303">
      <stop id="stop3305" offset="0" style="stop-color:#d2d2d2;stop-opacity:1;"/>
      <stop style="stop-color:#d2d2d2;stop-opacity:1;" offset="0.88" id="stop3311"/>
      <stop id="stop3307" offset="1" style="stop-color:#808080;stop-opacity:1;"/>
    </linearGradient>
    <linearGradient id="linearGradient3330">
      <stop id="stop3332" offset="0" style="stop-color:#ffffff;stop-opacity:1;"/>
      <stop id="stop3334" offset="1" style="stop-color:#ffffff;stop-opacity:0;"/>
    </linearGradient>
    <linearGradient id="linearGradient3338">
      <stop id="stop3340" offset="0" style="stop-color:#000000;stop-opacity:1;"/>
      <stop id="stop3342" offset="1" style="stop-color:#ffffff;stop-opacity:1;"/>
    </linearGradient>
    <linearGradient id="linearGradient3396">
      <stop style="stop-color:#ffffff;stop-opacity:1;" offset="0" id="stop3398"/>
      <stop style="stop-color:#ffffff;stop-opacity:0" offset="1" id="stop3400"/>
    </linearGradient>
    <linearGradient id="linearGradient3420">
      <stop id="stop3422" offset="0" style="stop-color:#dfbe00;stop-opacity:1;"/>
      <stop style="stop-color:#deaf00;stop-opacity:1;" offset="0.80000001" id="stop3436"/>
      <stop id="stop3424" offset="1" style="stop-color:#dea101;stop-opacity:1;"/>
    </linearGradient>
    <linearGradient id="linearGradient3614">
      <stop id="stop3616" offset="0" style="stop-color:#ffffff;stop-opacity:1;"/>
      <stop id="stop3618" offset="1" style="stop-color:#bebebe;stop-opacity:1;"/>
    </linearGradient>
    <linearGradient id="linearGradient3800" inkscape:collect="always">
      <stop id="stop3802" offset="0" style="stop-color:#3c3c3c;stop-opacity:1"/>
      <stop id="stop3804" offset="1" style="stop-color:#a0a0a0;stop-opacity:0;"/>
    </linearGradient>
    <linearGradient id="linearGradient3820" inkscape:collect="always">
      <stop id="stop3822" offset="0" style="stop-color:#3c3c3c;stop-opacity:1;"/>
      <stop id="stop3824" offset="1" style="stop-color:#3c3c3c;stop-opacity:0;"/>
    </linearGradient>
    <inkscape:perspective id="perspective3976" inkscape:persp3d-origin="512 : 341.33333 : 1" inkscape:vp_z="1024 : 512 : 1" inkscape:vp_y="0 : 1000 : 0" inkscape:vp_x="0 : 512 : 1" sodipodi:type="inkscape:persp3d"/>
    <pattern patternUnits="userSpaceOnUse" width="980.23737" height="992.67708" patternTransform="matrix(0.02799762,0,0,0.02799762,1.3935781,1024.1554)" id="pattern4080">
      <g transform="translate(-20.912648,-11.421446)" inkscape:label="Capa 1" id="layer1-2">
        <g id="g3844">
          <path sodipodi:open="true" sodipodi:end="6.2831679" sodipodi:start="0" d="m 914.07907,941.07721 c 0,20.23588 -180.44863,36.6403 -403.0433,36.6403 -222.59467,0 -403.04331,-16.40442 -403.04331,-36.6403 0,-20.23588 180.44864,-36.6403 403.04331,-36.6403 222.59193,0 403.03943,16.40403 403.0433,36.63966" sodipodi:ry="36.640301" sodipodi:rx="403.0433" sodipodi:cy="941.07721" sodipodi:cx="511.03577" id="path3764" style="opacity:0.8;fill:#a0a0a0;fill-opacity:1;fill-rule:evenodd;stroke:none;filter:url(#filter3794)" sodipodi:type="arc"/>
          <path sodipodi:nodetypes="cssscccssccsccssccc" d="m 177.14289,566.85714 c 0,0 -3.3971,16.63222 -2.8572,34.2857 5.3538,175.06286 151.68,317.14286 338.5714,317.14286 186.8915,0 336.8322,-141.23911 338.5715,-317.14286 C 851.63529,580.24242 844.51919,564 844.51919,564 c 0,0 40,8.57143 111.4286,60 62.85711,11.42857 40,-40 40,-40 0,0 -14.2857,-40 -105.7143,-111.42857 -91.4286,-71.42857 -88.9679,-95.54629 -98.9293,-139.66102 -10.0386,-44.4567 -23.9279,-103.19612 -23.9279,-103.19612 0,0 -21.1269,-92.29936 -69.1407,-140.012153 -48.0137,-47.7128 -114.0138,-77.130691 -186.807,-77.130691 -73.3372,0 -139.7658,29.920001 -187.86,78.272861 -48.0943,48.352853 -74.9972,121.727123 -74.9972,121.727123 0,0 -15.3564,58.20823 -15.0013,104.99327 0.3477,45.80217 -10.713,86.4353 -102.1415,157.86387 -91.428599,71.42857 -105.714299,111.42857 -105.714299,111.42857 0,0 -21.7864004,48.2163 41.0708,36.78773 71.428499,-47.14554 110.357799,-56.78773 110.357799,-56.78773 z" style="fill:#000000;fill-opacity:1;fill-rule:evenodd;stroke:#000000;stroke-width:2.29999995;stroke-linecap:butt;stroke-linejoin:miter;stroke-miterlimit:4;stroke-opacity:1;stroke-dasharray:none;stroke-dashoffset:0" id="path3161"/>
          <path transform="matrix(1.0862944,0,0,1.0104167,-1130.2794,27.098556)" sodipodi:open="true" sodipodi:end="6.2831679" sodipodi:start="0" d="m 1700.8813,175.48776 c 0,102.24445 -85.0439,185.12995 -189.951,185.12995 -104.9071,0 -189.951,-82.8855 -189.951,-185.12995 0,-102.244442 85.0439,-185.1299414 189.951,-185.1299414 104.9058,0 189.9492,82.8835354 189.951,185.1267214" sodipodi:ry="185.12994" sodipodi:rx="189.95103" sodipodi:cy="175.48776" sodipodi:cx="1510.9303" id="path3358" style="fill:url(#linearGradient3360);fill-opacity:1;fill-rule:evenodd;stroke:none" sodipodi:type="arc"/>
          <rect id="rect3326" y="17.355934" x="304.69299" height="374.11676" width="412.68549" style="fill:none;stroke:none"/>
          <path sodipodi:nodetypes="cssssc" id="path3170" d="m 786.7143,659.55151 c 0,86.75456 -30.5518,167.16744 -79.9407,224.06084 -49.3889,56.8934 -336.4447,56.8934 -385.8335,0 -49.3889,-56.8934 -79.95,-135.47543 -79.95,-222.23 0,-173.50913 122.2443,-314.32814 272.8667,-314.32814 149.5054,0 271.1159,140.28665 272.8575,312.4973 z" style="fill:url(#linearGradient3620);fill-opacity:1;fill-rule:evenodd;stroke:none"/>
          <path id="path3760" d="m 262.40651,547.40114 c 0,0 -9.2245,86.71066 1.8449,136.52317 11.0695,49.8125 23.9838,99.62501 23.9838,99.62501 l -26.7511,8.30208 c 0,0 -14.7593,-16.60417 -27.6736,-36.89815 -12.9144,-20.29398 -28.5961,-61.8044 -28.5961,-61.8044 l 41.5104,32.28588 c 0,0 -8.3021,-35.05325 -4.6123,-73.79631 3.6899,-38.74306 7.3797,-79.33102 20.294,-104.23728 z" style="fill:#ffffff;fill-opacity:0.3857143;fill-rule:evenodd;stroke:none"/>
          <path sodipodi:nodetypes="cccccccscssc" id="path3438" d="m 368.6692,405.27337 c 0,0 12.05818,18.47268 20.30034,18.72736 13.63524,1.45314 17.46215,15.84832 30.96121,14.8841 28.92656,34.71186 54.33399,66.89606 81.3321,80.39512 9.6204,6.30827 20.09061,7.84448 28.92655,-7.45227 15.4275,-13.49905 50.92381,-51.52304 58.50683,-66.22056 11.17839,-12.89982 8.65072,-31.79197 8.65072,-31.79197 0,0 19.1312,-7.59642 28.59289,-8.26803 10.68676,-0.75858 1.57026,-19.33477 11.04357,-21.09433 -2.38337,-15.24072 12.43134,-14.99169 -4.9246,-16.92013 -17.35593,-1.92843 -237.19774,-13.49906 -254.55367,-1.92843 -17.35593,11.57062 -20.40657,18.45634 -8.83594,39.66914 z" style="fill:#a0a0a0;fill-opacity:1;fill-rule:evenodd;stroke:none;filter:url(#filter3580)"/>
          <path transform="matrix(1.0435349,0,0,1.018695,-33.960333,-13.174574)" sodipodi:open="true" sodipodi:end="6.2831679" sodipodi:start="0" d="m 725.0923,284.44446 c 0,55.91493 -49.21327,101.24294 -109.92091,101.24294 -60.70765,0 -109.92092,-45.32801 -109.92092,-101.24294 0,-55.91494 49.21327,-101.24294 109.92092,-101.24294 60.70689,0 109.91985,45.32693 109.92091,101.24118" sodipodi:ry="101.24294" sodipodi:rx="109.92091" sodipodi:cy="284.44446" sodipodi:cx="615.17139" id="path3225" style="fill:url(#linearGradient3372);fill-opacity:1;fill-rule:evenodd;stroke:#000000;stroke-width:8.72904873;stroke-linecap:butt;stroke-linejoin:miter;stroke-miterlimit:4;stroke-opacity:1;stroke-dasharray:none;stroke-dashoffset:0" sodipodi:type="arc"/>
          <path id="path3762" d="m 764.29947,551.97826 c 0,0 9.2245,86.71066 -1.8449,136.52317 -11.0695,49.8125 -23.9838,99.62501 -23.9838,99.62501 l 26.7511,8.30208 c 0,0 14.7593,-16.60417 27.6736,-36.89815 12.9144,-20.29398 28.5961,-61.8044 28.5961,-61.8044 l -41.5104,32.28588 c 0,0 8.3021,-35.05325 4.6123,-73.79631 -3.6899,-38.74306 -7.3797,-79.33102 -20.294,-104.23728 z" style="fill:#ffffff;fill-opacity:0.3857143;fill-rule:evenodd;stroke:none"/>
          <path id="path3740" style="fill:#a0a0a0;fill-opacity:1;fill-rule:evenodd;stroke:none;filter:url(#filter3736)" d="m 862.16528,897.75899 c 0,16.90039 -4.779,23.00474 -13.4195,37.65479 l -314.516,0 c -8.6405,-14.65005 -13.4195,-20.7544 -13.4195,-37.65479 0,-67.60154 76.4635,-122.46658 170.6775,-122.46658 94.2129,0 170.6759,54.86365 170.6775,122.46446" sodipodi:nodetypes="cccssc"/>
          <path sodipodi:nodetypes="cccssc" d="m 883.23492,903.47273 c 0,16.90039 -4.7789,23.00474 -13.4195,37.65479 l -314.516,0 c -8.6405,-14.65005 -13.4195,-20.7544 -13.4195,-37.65479 0,-67.60154 76.4635,-122.46658 170.6775,-122.46658 94.213,0 170.6759,54.86365 170.6775,122.46446" style="fill:url(#radialGradient3598);fill-opacity:1;fill-rule:evenodd;stroke:none" id="path3193"/>
          <path sodipodi:nodetypes="cccssc" d="m 509.1182,899.61586 c 0,16.90039 -4.779,23.00474 -13.4195,37.65479 l -314.516,0 c -8.6405,-14.65005 -13.4195,-20.7544 -13.4195,-37.65479 0,-67.60154 76.4635,-122.46658 170.6775,-122.46658 94.2129,0 170.6759,54.86365 170.6775,122.46446" style="fill:#a0a0a0;fill-opacity:1;fill-rule:evenodd;stroke:none;filter:url(#filter3736)" id="path3622"/>
          <path id="path3200" style="fill:url(#radialGradient3590);fill-opacity:1;fill-rule:evenodd;stroke:none" d="m 487.90539,903.47273 c 0,16.90039 -4.779,23.00474 -13.4195,37.65479 l -314.516,0 c -8.6405,-14.65005 -13.4195,-20.7544 -13.4195,-37.65479 0,-67.60154 76.4635,-122.46658 170.6775,-122.46658 94.2129,0 170.6759,54.86365 170.6775,122.46446" sodipodi:nodetypes="cccssc"/>
          <path transform="matrix(1.4045531,0,0,1.1010525,-256.82859,-44.909235)" sodipodi:open="true" sodipodi:end="6.2831679" sodipodi:start="0" d="m 700.02258,299.87195 c 0,46.32951 -37.12579,83.88701 -82.92279,83.88701 -45.79699,0 -82.92279,-37.5575 -82.92279,-83.88701 0,-46.32952 37.1258,-83.88701 82.92279,-83.88701 45.79643,0 82.922,37.5566 82.92279,83.88555" sodipodi:ry="83.887009" sodipodi:rx="82.922791" sodipodi:cy="299.87195" sodipodi:cx="617.09979" id="path3227" style="fill:#000000;fill-opacity:1;fill-rule:evenodd;stroke:none" sodipodi:type="arc"/>
          <path transform="matrix(1.181752,0,0,1.1344936,-81.4927,-58.763901)" sodipodi:open="true" sodipodi:end="6.2831679" sodipodi:start="0" d="m 511.03577,286.37289 c 0,66.5654 -42.30614,120.52732 -94.49341,120.52732 -52.18727,0 -94.49341,-53.96192 -94.49341,-120.52732 0,-66.56539 42.30614,-120.52731 94.49341,-120.52731 52.18662,0 94.4925,53.96064 94.49341,120.52522" sodipodi:ry="120.52731" sodipodi:rx="94.493408" sodipodi:cy="286.37289" sodipodi:cx="416.54236" id="path3211" style="fill:url(#linearGradient3364);fill-opacity:1;fill-rule:evenodd;stroke:#000000;stroke-width:7.77281475;stroke-linecap:butt;stroke-linejoin:miter;stroke-miterlimit:4;stroke-opacity:1;stroke-dasharray:none;stroke-dashoffset:0" sodipodi:type="arc"/>
          <path transform="matrix(1.2834927,0,0,1.2542517,-142.16221,-58.755833)" sodipodi:open="true" sodipodi:end="6.2831679" sodipodi:start="0" d="m 507.17892,269.01694 c 0,53.78483 -34.53563,97.38606 -77.13748,97.38606 -42.60185,0 -77.13747,-43.60123 -77.13747,-97.38606 0,-53.78484 34.53562,-97.38607 77.13747,-97.38607 42.60133,0 77.13674,43.6002 77.13748,97.38437" sodipodi:ry="97.386063" sodipodi:rx="77.137474" sodipodi:cy="269.01694" sodipodi:cx="430.04144" id="path3213" style="fill:#000000;fill-opacity:1;fill-rule:evenodd;stroke:#000000;stroke-width:2.36446118;stroke-linecap:butt;stroke-linejoin:miter;stroke-miterlimit:4;stroke-opacity:1;stroke-dasharray:none;stroke-dashoffset:0" sodipodi:type="arc"/>
          <path sodipodi:type="arc" style="fill:url(#radialGradient3309);fill-opacity:1;fill-rule:evenodd;stroke:none" id="path3215" sodipodi:cx="430.04144" sodipodi:cy="269.01694" sodipodi:rx="77.137474" sodipodi:ry="97.386063" d="m 507.17892,269.01694 c 0,53.78483 -34.53563,97.38606 -77.13748,97.38606 -42.60185,0 -77.13747,-43.60123 -77.13747,-97.38606 0,-53.78484 34.53562,-97.38607 77.13747,-97.38607 42.60133,0 77.13674,43.6002 77.13748,97.38437" sodipodi:start="0" sodipodi:end="6.2831679" sodipodi:open="true" transform="matrix(1.2216697,0,0,1.225085,-116.53999,-48.016837)"/>
          <path transform="matrix(1.3218764,0,0,1.1067088,-206.1523,-47.325583)" sodipodi:open="true" sodipodi:end="6.2831679" sodipodi:start="0" d="m 692.30886,306.62146 c 0,43.6669 -34.53562,79.06591 -77.13747,79.06591 -42.60185,0 -77.13748,-35.39901 -77.13748,-79.06591 0,-43.6669 34.53563,-79.06591 77.13748,-79.06591 42.60132,0 77.13673,35.39817 77.13747,79.06453" sodipodi:ry="79.06591" sodipodi:rx="77.137474" sodipodi:cy="306.62146" sodipodi:cx="615.17139" id="path3229" style="fill:url(#radialGradient3319);fill-opacity:1;fill-rule:evenodd;stroke:none" sodipodi:type="arc"/>
          <path sodipodi:open="true" sodipodi:end="6.2831679" sodipodi:start="0" d="m 509.10734,296.01508 c 0,21.83344 -12.08747,39.53295 -26.99812,39.53295 -14.91065,0 -26.99812,-17.69951 -26.99812,-39.53295 0,-21.83345 12.08747,-39.53296 26.99812,-39.53296 14.91047,0 26.99786,17.69909 26.99812,39.53227" sodipodi:ry="39.532955" sodipodi:rx="26.998117" sodipodi:cy="296.01508" sodipodi:cx="482.10922" id="path3231" style="fill:#000000;fill-opacity:1;fill-rule:evenodd;stroke:none" sodipodi:type="arc" transform="translate(50.229756,-3.0357912)"/>
          <path sodipodi:nodetypes="csscsc" id="path3328" d="m 349.04712,202.48588 c 0,0 26.99804,-50.13937 79.06584,-32.78343 52.0678,17.35593 61.71006,46.28248 75.20906,115.70621 13.4991,69.42373 -53.9962,7.71375 -53.9962,7.71375 0,0 -7.7138,-59.78154 -42.4257,-77.13748 -34.7118,-17.35593 -57.853,-11.57062 -57.853,-13.49905 z" style="opacity:0.8;fill:url(#linearGradient3336);fill-opacity:1;fill-rule:evenodd;stroke:none"/>
          <path transform="translate(-7.78528,-3.856873)" sodipodi:open="true" sodipodi:end="6.2831679" sodipodi:start="0" d="m 509.10734,296.01508 c 0,21.83344 -12.08747,39.53295 -26.99812,39.53295 -14.91065,0 -26.99812,-17.69951 -26.99812,-39.53295 0,-21.83345 12.08747,-39.53296 26.99812,-39.53296 14.91047,0 26.99786,17.69909 26.99812,39.53227" sodipodi:ry="39.532955" sodipodi:rx="26.998117" sodipodi:cy="296.01508" sodipodi:cx="482.10922" id="path3217" style="fill:#000000;fill-opacity:1;fill-rule:evenodd;stroke:#000000;stroke-width:2.29999995;stroke-linecap:butt;stroke-linejoin:miter;stroke-miterlimit:4;stroke-opacity:1;stroke-dasharray:none;stroke-dashoffset:0" sodipodi:type="arc"/>
          <path sodipodi:nodetypes="csccc" id="path3374" d="m 592.03013,212.12806 c 0,0 55.9247,-9.64218 86.7797,28.92656 30.855,38.56874 21.2128,52.06779 21.2128,52.06779 l -42.4256,1.92844 c 0,0 -26.9982,-61.70998 -65.5669,-82.92279 z" style="opacity:0.8;fill:url(#linearGradient3382);fill-opacity:1;fill-rule:evenodd;stroke:none"/>
          <path sodipodi:nodetypes="cscsc" id="path3384" d="m 521.42603,333.13229 c 0,0 50.7714,29.96159 95.1254,24.17628 44.3541,-5.78531 65.269,-22.22969 83.1516,-39.79626 -4.4888,21.07481 -46.2135,54.3122 -82.8538,56.24063 -36.6403,1.92844 -95.4232,-38.69221 -95.4232,-40.62065 z" style="opacity:0.8;fill:url(#radialGradient3394);fill-opacity:1;fill-rule:evenodd;stroke:none"/>
          <path style="opacity:0.8;fill:url(#radialGradient3404);fill-opacity:1;fill-rule:evenodd;stroke:none" d="m 318.6246,245.29756 c 0,0 8.33629,67.83116 47.44009,105.14083 39.10387,37.30978 71.19992,45.48354 102.13374,50.06433 C 443.84051,410.79746 379.38029,394.78716 349.9155,362.0084 320.45071,329.22964 316.70453,246.62188 318.6246,245.29756 z" id="path3402" sodipodi:nodetypes="cscsc"/>
          <path sodipodi:nodetypes="ccccccscsc" d="m 513.1526,491.7732 c 0,0 9.5069,-0.17903 9.5069,-0.17903 0,0 10.3427,-11.43988 46.2966,-49.02805 23.9693,-27.23781 31.5959,-45.21477 31.5959,-45.21477 0,0 4.9028,-17.97695 -18.5217,-36.49866 -30.7436,-15.26467 -46.2966,-15.25318 -69.027,-15.16366 -22.7304,0.0895 -39.6102,2.81329 -69.027,15.34269 -29.4168,12.52939 -24.514,37.58817 -24.514,37.58817 0,0 2.179,11.98464 38.1329,49.57282 35.9539,37.58817 55.5574,43.58049 55.5574,43.58049 z" style="fill:url(#radialGradient3434);fill-opacity:1;fill-rule:evenodd;stroke:none" id="path3202"/>
          <path id="path3406" d="m 452.5581,363.56666 c 0,0 46.5221,3.10147 77.0939,21.71035 30.5717,18.60887 41.6484,44.30683 41.6484,44.30683 0,0 19.0519,-20.82421 21.7103,-28.79944 2.6584,-7.97523 7.9753,-23.92569 -19.938,-39.87615 -27.9134,-15.95047 -43.8638,-11.51978 -70.891,-11.07671 -27.0272,0.44306 -49.6236,14.17818 -49.6236,13.73512 z" style="opacity:0.8;fill:url(#linearGradient3414);fill-opacity:1;fill-rule:evenodd;stroke:none"/>
          <path sodipodi:nodetypes="csscssc" id="path3416" d="m 431.93304,380.40036 c 0,0 2.6567,9.56407 5.3134,11.95509 2.6567,2.39102 -4.2507,-0.53134 -2.6567,6.37605 1.594,6.90738 81.2946,84.48263 81.2946,84.48263 0,0 -3.7193,3.18803 -19.1281,-7.97006 -15.4088,-11.15808 -51.8055,-49.1487 -61.3695,-61.10379 -8.9373,-11.17166 -11.9551,-20.45649 -3.4537,-33.73992 z" style="fill:#ffffff;fill-opacity:0.42857145;fill-rule:evenodd;stroke:none"/>
          <path transform="matrix(1.3333334,0,0,1.4791666,-1450.1846,-395.89204)" sodipodi:open="true" sodipodi:end="6.2831679" sodipodi:start="0" d="m 1382.6892,852.36914 c 0,25.56111 -34.9673,46.28249 -78.1017,46.28249 -43.1343,0 -78.1017,-20.72138 -78.1017,-46.28249 0,-25.56111 34.9674,-46.28249 78.1017,-46.28249 43.1339,0 78.101,20.72089 78.1017,46.28168" sodipodi:ry="46.282486" sodipodi:rx="78.101692" sodipodi:cy="852.36914" sodipodi:cx="1304.5875" id="path3600" style="opacity:0.8;fill:url(#linearGradient3608);fill-opacity:1;fill-rule:evenodd;stroke:none" sodipodi:type="arc"/>
          <path sodipodi:type="arc" style="opacity:0.8;fill:url(#linearGradient3612);fill-opacity:1;fill-rule:evenodd;stroke:none" id="path3610" sodipodi:cx="1304.5875" sodipodi:cy="852.36914" sodipodi:rx="78.101692" sodipodi:ry="46.282486" d="m 1382.6892,852.36914 c 0,25.56111 -34.9673,46.28249 -78.1017,46.28249 -43.1343,0 -78.1017,-20.72138 -78.1017,-46.28249 0,-25.56111 34.9674,-46.28249 78.1017,-46.28249 43.1339,0 78.101,20.72089 78.1017,46.28168" sodipodi:start="0" sodipodi:end="6.2831679" sodipodi:open="true" transform="matrix(1.3333334,0,0,1.4791666,-1000.8588,-395.89204)"/>
          <path sodipodi:nodetypes="cscccc" id="path3742" d="m 34.711858,597.81545 c 0,0 161.988742,-104.1356 187.058342,-123.41997 25.0697,-19.28437 1.92847,-80.99435 1.92847,-80.99435 0,0 -23.14127,32.78343 -55.92467,65.56686 -28.9265,23.14124 -52.0678,42.42561 -96.4218,79.06591 -44.3541,44.35404 -36.640342,61.70998 -36.640342,59.78155 z" style="fill:url(#linearGradient3750);fill-opacity:1;fill-rule:evenodd;stroke:none"/>
          <path id="path3752" d="m 51.838983,619.15281 c 0,0 57.787797,-38.24189 69.685197,-42.49099 11.8975,-4.24909 22.9452,-11.04765 31.4434,-16.14657 8.4982,-5.09892 25.4946,-4.2491 25.4946,-4.2491 l -2.5495,5.94874 c 0,0 -11.8975,-1.69964 -25.4946,5.94874 -13.5971,7.64837 -31.4433,16.99639 -41.6411,24.64477 -10.197897,7.64837 -32.293197,19.54585 -36.542297,20.39567 -4.2491,0.84982 -15.2967,8.4982 -15.2967,8.4982 l -5.099,-2.54946 z" style="fill:#ffffff;fill-opacity:0.3857143;fill-rule:evenodd;stroke:none"/>
          <path style="fill:url(#linearGradient3758);fill-opacity:1;fill-rule:evenodd;stroke:none" d="m 986.94033,595.88701 c 0,0 -161.98874,-104.1356 -187.05834,-123.41997 -25.0697,-19.28437 -1.92847,-80.99435 -1.92847,-80.99435 0,0 23.14127,32.78343 55.92467,65.56686 28.9265,23.14124 52.0678,42.42561 96.4218,79.06591 44.3541,44.35404 36.64034,61.70998 36.64034,59.78155 z" id="path3754" sodipodi:nodetypes="cscccc"/>
          <path style="fill:#ffffff;fill-opacity:0.3857143;fill-rule:evenodd;stroke:none" d="m 969.81321,617.22437 c 0,0 -57.7878,-38.24189 -69.6852,-42.49099 -11.8975,-4.24909 -22.9452,-11.04765 -31.4434,-16.14657 -8.4982,-5.09892 -25.4946,-4.2491 -25.4946,-4.2491 l 2.5495,5.94874 c 0,0 11.8975,-1.69964 25.4946,5.94874 13.5971,7.64837 31.4433,16.99639 41.6411,24.64477 10.1979,7.64837 32.2932,19.54585 36.5423,20.39567 4.2491,0.84982 15.2967,8.4982 15.2967,8.4982 l 5.099,-2.54946 z" id="path3756"/>
          <path sodipodi:nodetypes="cscccc" id="path3798" d="m 486.06998,917.51684 c 0,0 20.7963,1.78844 29.33121,1.62728 9.61712,-0.18159 22.17785,-1.0372 28.8721,-1.81586 2.09355,10.31714 8.71266,19.70377 10.8951,22.51659 2.7238,2.5422 -80.4423,0.36317 -80.4423,0.36317 0,0 10.43943,-14.44827 11.34389,-22.69118 z" style="fill:url(#linearGradient3806);fill-opacity:1;fill-rule:evenodd;stroke:none"/>
          <path style="fill:url(#linearGradient3832);fill-opacity:1;fill-rule:evenodd;stroke:none" d="m 468.89806,254.15419 c 0,0 6.6678,19.26258 7.1617,35.56168 14.5704,-4.93912 22.2261,-9.87824 22.2261,-9.87824 0,0 -3.7044,-25.68344 -29.3878,-25.68344 z" id="path3828" sodipodi:nodetypes="cccc"/>
          <path style="fill:url(#linearGradient3834);fill-opacity:1;fill-rule:evenodd;stroke:none" d="m 453.74298,267.83483 c 0,0 -2.4696,21.48519 6.6678,36.0556 9.1374,14.57041 19.5096,19.26258 27.4122,20.99127 -2.4696,2.22261 -13.5826,8.14955 -23.9548,-0.24696 -10.3722,-8.3965 -15.5582,-16.54606 -15.5582,-27.65908 0,-11.11303 1.9756,-24.94257 5.433,-29.14083 z" id="path3830" sodipodi:nodetypes="cscssc"/>
          <path sodipodi:nodetypes="cccc" id="path3836" d="m 526.11562,255.40714 c 0,0 6.6678,19.26258 7.1617,35.56168 14.5704,-4.93912 22.2261,-9.87824 22.2261,-9.87824 0,0 -3.7044,-25.68344 -29.3878,-25.68344 z" style="fill:url(#linearGradient3840);fill-opacity:1;fill-rule:evenodd;stroke:none"/>
          <path sodipodi:nodetypes="cscssc" id="path3838" d="m 513.04877,269.92307 c 0,0 -2.4696,21.48519 6.6678,36.0556 9.1374,14.57041 19.5096,19.26258 27.4122,20.99127 -2.4696,2.22261 -13.5826,8.14955 -23.9548,-0.24696 -10.3722,-8.3965 -15.5582,-16.54606 -15.5582,-27.65908 0,-11.11303 1.9756,-24.94257 5.433,-29.14083 z" style="fill:url(#linearGradient3842);fill-opacity:1;fill-rule:evenodd;stroke:none"/>
        </g>
      </g>
    </pattern>
    <inkscape:perspective id="perspective3138" inkscape:persp3d-origin="0.5 : 0.33333333 : 1" inkscape:vp_z="1 : 0.5 : 1" inkscape:vp_y="0 : 1000 : 0" inkscape:vp_x="0 : 0.5 : 1" sodipodi:type="inkscape:persp3d"/>
    <inkscape:perspective sodipodi:type="inkscape:persp3d" inkscape:vp_x="0 : 27.427999 : 1" inkscape:vp_y="0 : 1000 : 0" inkscape:vp_z="117.472 : 27.427999 : 1" inkscape:persp3d-origin="58.736 : 18.285333 : 1" id="perspective26"/>
    <inkscape:perspective sodipodi:type="inkscape:persp3d" inkscape:vp_x="0 : 0.5 : 1" inkscape:vp_y="0 : 1000 : 0" inkscape:vp_z="1 : 0.5 : 1" inkscape:persp3d-origin="0.5 : 0.33333333 : 1" id="perspective2884"/>
    <inkscape:perspective id="perspective10" inkscape:persp3d-origin="372.04724 : 350.78739 : 1" inkscape:vp_z="744.09448 : 526.18109 : 1" inkscape:vp_y="0 : 1000 : 0" inkscape:vp_x="0 : 526.18109 : 1" sodipodi:type="inkscape:persp3d"/>
    <pattern patternUnits="userSpaceOnUse" width="255.72349" height="254.98985" patternTransform="matrix(0.1205977,0,0,0.1205977,-36.664047,1021.3624)" id="pattern3595">
      <g inkscape:label="Layer 1" id="layer1-5" transform="translate(7.3392429e-7,-797.37235)">
        <path sodipodi:type="arc" style="fill:#ffffff;fill-opacity:1;fill-rule:nonzero;stroke:#000000;stroke-width:15.34917164;stroke-linecap:round;stroke-miterlimit:4;stroke-opacity:1;stroke-dasharray:none" id="path3685" sodipodi:cx="132.32999" sodipodi:cy="134.78169" sodipodi:rx="113.13708" sodipodi:ry="109.09647" d="m 245.46706,134.78169 c 0,60.25232 -50.65319,109.09648 -113.13707,109.09648 -62.483886,0 -113.137081,-48.84416 -113.137081,-109.09648 0,-60.252316 50.653195,-109.096471 113.137081,-109.096471 62.48311,0 113.13599,48.842997 113.13707,109.094571" transform="matrix(1.0572285,0,0,1.0930227,-12.041291,777.54782)" sodipodi:start="0" sodipodi:end="6.2831679" sodipodi:open="true"/>
        <g id="g4139" transform="matrix(0.86196383,0,0,1.2200427,15.641523,-202.93929)">
          <path sodipodi:nodetypes="ccscccscssccccsccsccssccc" d="m 136.58507,970.22141 c 11.91628,-1.36668 22.99865,-12.87097 21.06775,-25.13472 -0.8157,-5.19041 -4.21752,-10.54132 -9.84474,-14.26413 -4.39953,-2.9104 -25.88755,-13.06952 -29.65834,-15.68044 -2.31145,-1.7704 -6.8483,-6.62163 -7.18253,-9.74879 -0.90671,-8.42677 3.69302,-12.0321 8.35563,-14.18801 1.91931,-0.90506 4.40283,-1.23598 5.42205,-1.35511 8.69813,-1.01591 11.52084,0.56422 19.47606,4.33831 0.81902,0.38717 1.63307,0.40703 2.51496,0.26804 2.67545,-0.42026 4.52362,-1.59336 4.10336,-4.26716 -0.31437,-1.98549 -1.41798,-2.89386 -3.48951,-3.92135 -5.54781,-2.74329 -15.6943,-7.04109 -24.70784,-4.65268 -0.14725,0.0215 -0.28955,0.053 -0.43515,0.0761 l -0.0215,-0.12244 c -12.15454,2.0219 -21.7875,13.01327 -19.86819,25.20918 1.03246,6.55544 6.07562,12.04699 11.23129,15.40248 3.4531,2.89551 15.93029,7.91054 28.27841,14.75554 4.37967,2.42892 6.14677,4.82806 6.78874,10.26004 0.6668,5.6355 -5.86217,12.03872 -10.96655,13.97623 -7.93536,2.32634 -17.26057,-0.97289 -23.47517,-4.26054 -1.85479,-1.20784 -2.70689,-1.84651 -4.41442,-1.57681 -2.67215,0.42192 -4.4988,2.93026 -4.08019,5.60406 0.28128,1.77867 1.30546,3.02622 3.04773,3.7956 11.05094,4.86447 18.50316,6.55876 27.85816,5.48659 l -1e-5,10e-6 z" id="path1557" style="fill:#990000;fill-opacity:1;stroke:#990000;stroke-width:6.24091005;stroke-miterlimit:4;stroke-opacity:1;stroke-dasharray:none"/>
          <g transform="matrix(1.6545794,0,0,1.6545794,-652.29076,156.18489)" id="g1577" style="fill:#990000;fill-opacity:1;stroke:#990000;stroke-width:3.77190137;stroke-miterlimit:4;stroke-opacity:1;stroke-dasharray:none">
            <path sodipodi:nodetypes="ccccccccc" d="m 413.564,489.733 c 0,-1.349 1.233,-2.443 2.756,-2.443 l 21.28859,0 c 1.521,0 3.82541,1.095 3.82541,2.443 l 0,0 c 0,1.35 -3.75339,2.67194 -5.27539,2.67194 l -19.83861,0.0763 c -1.522,10e-4 -2.756,-1.39826 -2.756,-2.74826 l 0,0 z" id="path1579" style="fill:#990000;fill-opacity:1;stroke:#990000;stroke-width:3.77190137;stroke-miterlimit:4;stroke-opacity:1;stroke-dasharray:none"/>
            <path sodipodi:nodetypes="ccccccccc" d="m 415.632,492.034 c -1.351,0 -2.443,-1.233 -2.443,-2.756 l 0.054,-37.17596 c 0,-1.522 1.03904,-2.70204 2.38904,-2.70204 l 0,0 c 1.35,0 2.60489,1.28696 2.60489,2.80996 l 0.054,37.06804 c 0,1.523 -1.30985,2.756 -2.65885,2.756 l 0,0 z" id="path1581" style="fill:#990000;fill-opacity:1;stroke:#990000;stroke-width:3.77190137;stroke-miterlimit:4;stroke-opacity:1;stroke-dasharray:none"/>
            <path d="m 437.396,461.078 v 4.782 c 5.837,0.09 10.542,4.847 10.542,10.706 0,5.858 -4.705,10.615 -10.542,10.705 v 5.062 c 8.611,-0.021 15.589,-7.009 15.589,-15.627 0,-8.618 -6.977,-15.606 -15.589,-15.628 z" id="path1583" style="fill:#990000;fill-opacity:1;stroke:#990000;stroke-width:3.77190137;stroke-miterlimit:4;stroke-opacity:1;stroke-dasharray:none"/>
            <path d="m 414.475,463.305 c 0,1.37 1.11,2.479 2.479,2.479 h 20.109 c 1.369,0 2.479,-1.108 2.479,-2.479 l 0,0 c 0,-1.368 -1.109,-2.478 -2.479,-2.478 h -20.109 c -1.369,0 -2.479,1.11 -2.479,2.478 l 0,0 z" id="path1585" style="fill:#990000;fill-opacity:1;stroke:#990000;stroke-width:3.77190137;stroke-miterlimit:4;stroke-opacity:1;stroke-dasharray:none"/>
            <path sodipodi:nodetypes="ccccccccccc" d="m 425.197,439.932 c 0,1.35 0.685,2.443 1.528,2.443 l 5.25563,-0.054 c 0.844,0 3.21243,0.28204 3.21243,-1.06596 l 0.29052,-2.40133 c 0,-1.351 -3.27876,-1.33677 -4.22968,-1.39074 l -1.86305,-8e-5 c -0.843,-0.001 -4.19385,1.11898 -4.19385,2.46898 l 0,0 0,8e-5 0,5e-5 z" id="path1587" style="fill:#990000;fill-opacity:1;stroke:#990000;stroke-width:3.77190137;stroke-miterlimit:4;stroke-opacity:1;stroke-dasharray:none"/>
            <path d="m 418.189,468.762 c 0,-0.622 0.158,-1.207 0.437,-1.718 0.608,-1.124 1.801,-1.887 3.169,-1.887 h 1.188 v -3.628 h -8.765 v 7.949 h 3.972 v -0.716 z" id="path1589" style="fill:#990000;fill-opacity:1;stroke:#990000;stroke-width:3.77190137;stroke-miterlimit:4;stroke-opacity:1;stroke-dasharray:none"/>
            <path d="m 418.189,457.408 c 0,0.623 0.158,1.209 0.437,1.719 0.608,1.123 1.801,1.887 3.169,1.887 h 1.188 v 3.629 h -8.765 v -7.949 h 3.972 v 0.714 z" id="path1591" style="fill:#990000;fill-opacity:1;stroke:#990000;stroke-width:3.77190137;stroke-miterlimit:4;stroke-opacity:1;stroke-dasharray:none"/>
            <path d="m 432.22999,437.53096 0.11801,4.59804 c 5.231,0.018 9.468,4.265 9.468,9.502 0,5.236 -4.236,9.482 -9.468,9.502 l 0,4.651 c 7.801,-0.019 14.12,-6.348 14.12,-14.153 0,-7.807 -6.43801,-14.08304 -14.23801,-14.10004 z" id="path1593" style="fill:#990000;fill-opacity:1;stroke:#990000;stroke-width:3.77190137;stroke-miterlimit:4;stroke-opacity:1;stroke-dasharray:none" sodipodi:nodetypes="ccsccsc"/>
            <path sodipodi:nodetypes="ccscccc" d="m 431.59204,437.86493 0.054,4.45207 c 5.232,0.02 9.469,4.182 9.469,9.314 0,5.132 -4.236,9.295 -9.469,9.313 l 0,4.561 c 7.802,-0.018 14.12,-6.223 14.12,-13.873 0.001,-7.653 -6.37196,-13.74907 -14.17396,-13.76707 z" id="path1595" style="fill:#990000;fill-opacity:1;stroke:#990000;stroke-width:3.77190137;stroke-miterlimit:4;stroke-opacity:1;stroke-dasharray:none"/>
            <path sodipodi:nodetypes="cccccccc" d="m 418.29381,451.951 c 0.219,-4.965 3.77919,-8.988 8.65719,-9.514 l -0.054,-4.76411 c -7.592,0.545 -13.55604,6.71104 -13.56619,14.33107 l 4.909,-0.054 0.054,0.001 -4e-5,0 0,4e-5 z" id="path1597" style="fill:#990000;fill-opacity:1;stroke:#990000;stroke-width:3.77190137;stroke-miterlimit:4;stroke-opacity:1;stroke-dasharray:none"/>
          </g>
          <g transform="matrix(1.6545794,0,0,1.6545794,-640.29076,156.18489)" id="g1599" style="fill:#990000;fill-opacity:1">
            <path sodipodi:nodetypes="ccccccccc" d="m 491.271,489.297 c 0,-1.25 0.845,-2.262 1.888,-2.262 l 15.312,0 c 1.042,0 1.888,1.012 1.888,2.262 l 1.14472,0.22894 c 0,1.25 -6.14241,2.03306 -7.18441,2.03306 l -11.31194,0 c -1.045,0 -1.73637,-1.012 -1.73637,-2.262 l 0,0 z" id="path1601" style="fill:#990000;fill-opacity:1;stroke:#990000;stroke-width:3.77190137;stroke-miterlimit:4;stroke-opacity:1;stroke-dasharray:none"/>
            <path sodipodi:nodetypes="csccccccc" d="m 495.663,483.516 c 0,0.621 0.158,1.207 0.436,1.719 0.61,1.123 1.801,1.885 3.169,1.885 l 1.188,0 0,3.63 -8.00185,-0.83946 -0.76315,-7.11054 3.972,0 0,0.716 z" id="path1603" style="fill:#990000;fill-opacity:1;stroke:#990000;stroke-width:3.77190137;stroke-miterlimit:4;stroke-opacity:1;stroke-dasharray:none"/>
            <path sodipodi:nodetypes="ccccsccsccsccsccsc" d="m 504.799,438.619 c -0.237,-0.029 -0.43,-0.045 -0.558,-0.045 l -4.9,0 0.002,0.028 c -0.041,0 -0.083,-4.8e-4 -0.124,-0.002 -6.18424,-0.22894 -8.063,3.386 -8.464,7.709 l 0,42.492 c 0,1.522 1.094,2.45174 2.443,2.45174 1.349,0 2.442,-0.92874 2.442,-2.45174 l 0,-42.214 c 0.006,-0.611 0.161,-1.186 0.435,-1.688 0.491,-0.905 1.36,-1.575 2.395,-1.802 l 8.113,0 c 11.066,1.392 19.619,10.707 19.619,21.992 0,12.037 -9.731,21.834 -21.861,22.164 l 0,4.01674 c 14.552,-0.33 26.246,-11.75674 26.246,-26.18074 0,-14.271 -11.449,-25.905 -25.788,-26.47 z" id="path1605" style="fill:#990000;fill-opacity:1;stroke:#990000;stroke-width:3.77190137;stroke-miterlimit:4;stroke-opacity:1;stroke-dasharray:none"/>
          </g>
        </g>
      </g>
    </pattern>
    <radialGradient inkscape:collect="always" xlink:href="#linearGradient3285" id="radialGradient5173" cx="15.785714" cy="999.85327" fx="15.785714" fy="999.85327" r="44" gradientTransform="matrix(0.6412337,-6.5827328e-8,7.9883516e-8,0.72928021,5.6633051,306.1711)" gradientUnits="userSpaceOnUse"/>
    <radialGradient inkscape:collect="always" xlink:href="#linearGradient3820" id="radialGradient5183" cx="15.428572" cy="1036.8622" fx="15.428572" fy="1036.8622" r="44" gradientTransform="matrix(0.64935067,9.859472e-8,-7.9368749e-8,0.52272727,5.4101006,494.86604)" gradientUnits="userSpaceOnUse"/>
    <inkscape:perspective sodipodi:type="inkscape:persp3d" inkscape:vp_z="744.09448 : 526.18109 : 1" inkscape:vp_y="0 : 1000 : 0" inkscape:vp_x="0 : 526.18109 : 1" inkscape:persp3d-origin="372.04724 : 350.78739 : 1" id="perspective13"/>
    <pattern patternUnits="userSpaceOnUse" width="745" height="745" patternTransform="matrix(0.04151535,0,0,0.04151535,0.9761664,1021.2309)" id="pattern6611">
      <g transform="scale(3.8010204,3.8010204)" id="g6607">
        <circle d="m 186,98 c 0,48.60106 -39.39894,88 -88,88 -48.601058,0 -88,-39.39894 -88,-88 0,-48.601058 39.398942,-88 88,-88 48.60106,0 88,39.398942 88,88 z" cx="98" cy="98" id="circle4" r="88" sodipodi:cx="98" sodipodi:cy="98" sodipodi:rx="88" sodipodi:ry="88" style="fill:none;stroke:#000000;stroke-width:20"/>
        <path d="M 97.28125,43 C 71.21839,43 49.38119,61.152555 43.71875,85.5 L 70,85.5 C 74.741911,75.172905 85.17979,68 97.28125,68 c 16.55999,-2e-6 30,13.44 30,30 -1e-5,16.56 -13.44,30 -30,30 C 85.17978,128 74.741911,120.8271 70,110.5 l -26.28125,0 c 5.66243,24.34745 27.49963,42.5 53.5625,42.5 30.36,0 54.99999,-24.64 55,-55 0,-30.36 -24.64001,-55.000002 -55,-55 z" id="path6" style="fill:#000000"/>
      </g>
    </pattern>
    <inkscape:perspective id="perspective7362" inkscape:persp3d-origin="100 : 66.666667 : 1" inkscape:vp_z="200 : 100 : 1" inkscape:vp_y="0 : 1000 : 0" inkscape:vp_x="0 : 100 : 1" sodipodi:type="inkscape:persp3d"/>
    <pattern patternUnits="userSpaceOnUse" width="200" height="200" patternTransform="matrix(0.15178572,0,0,0.15178572,1.1275759,1021.8162)" id="pattern7369">
      <g id="g7365" style="fill:none;stroke:#000000">
        <circle d="m 188.5,100 c 0,48.8772 -39.6228,88.5 -88.5,88.5 -48.8772,0 -88.5,-39.6228 -88.5,-88.5 0,-48.8772 39.6228,-88.5 88.5,-88.5 48.8772,0 88.5,39.6228 88.5,88.5 z" style="stroke-width:23" sodipodi:ry="88.5" sodipodi:rx="88.5" sodipodi:cy="100" sodipodi:cx="100" cx="100" cy="100" r="88.5" id="circle7354"/>
        <circle d="m 142.5,100 c 0,23.4721 -19.0279,42.5 -42.5,42.5 -23.472102,0 -42.5,-19.0279 -42.5,-42.5 0,-23.472102 19.027898,-42.5 42.5,-42.5 23.4721,0 42.5,19.027898 42.5,42.5 z" style="stroke-width:23" sodipodi:ry="42.5" sodipodi:rx="42.5" sodipodi:cy="100" sodipodi:cx="100" clip-path="url(#c)" cx="100" cy="100" r="42.5" id="circle7356"/>
      </g>
    </pattern>
  </defs>
  <sodipodi:namedview id="base" pagecolor="#ffffff" bordercolor="#666666" borderopacity="1.0" inkscape:pageopacity="0.0" inkscape:pageshadow="2" inkscape:zoom="5.6" inkscape:cx="36.645522" inkscape:cy="12.757314" inkscape:document-units="px" inkscape:current-layer="layer1" showgrid="false" inkscape:window-width="793" inkscape:window-height="755" inkscape:window-x="69" inkscape:window-y="222" inkscape:window-maximized="0"/>
  <metadata id="metadata3148">
    <rdf:RDF>
      <cc:Work rdf:about="">
        <dc:format>image/svg+xml</dc:format>
        <dc:type rdf:resource="http://purl.org/dc/dcmitype/StillImage"/>
        <dc:title/>
      </cc:Work>
    </rdf:RDF>
  </metadata>
  <g inkscape:label="Layer 1" inkscape:groupmode="layer" id="layer1" transform="translate(0,-1021.3622)">
    <rect style="fill:#ffffff;fill-opacity:1;fill-rule:nonzero;stroke:#000000;stroke-width:0.99999987999999995;stroke-linecap:round;stroke-miterlimit:4;stroke-opacity:1;stroke-dasharray:none" id="rect3153" width="87" height="30" x="0.49999994" y="1021.8622" rx="2.4050119" ry="2.6516509"/>
    <rect ry="2.6516509" rx="2.4050119" y="1021.8622" x="0.49999994" height="30" width="87" id="rect5175" style="fill:url(#radialGradient5183);fill-opacity:1;fill-rule:nonzero;stroke:#000000;stroke-width:0.99999987999999995;stroke-linecap:round;stroke-miterlimit:4;stroke-opacity:1;stroke-dasharray:none"/>
    <path style="fill:#000000;fill-opacity:1;fill-rule:nonzero;stroke:#000000;stroke-width:0.99999987999999995;stroke-linecap:round;stroke-miterlimit:4;stroke-opacity:1" d="m 87.5,1037.1963 0,12.0142 c 0,1.469 -1.072635,2.6517 -2.405012,2.6517 l -82.1899762,0 c -1.3323766,0 -2.40501186,-1.1827 -2.40501186,-2.6517 L 0.62626901,1037.2333 87.5,1037.1963 z" id="rect5158" sodipodi:nodetypes="ccccccc"/>
    <text xml:space="preserve" style="font-size:12.46980858px;font-style:normal;font-variant:normal;font-weight:normal;font-stretch:normal;text-align:center;text-anchor:middle;fill:#000000;fill-opacity:1;stroke:none;font-family:Arial;-inkscape-font-specification:Arial" x="66.164131" y="928.16016" id="text3930" transform="scale(0.89910811,1.1122133)"><tspan sodipodi:role="line" x="66.164131" y="928.16016" style="font-size:9.35235596px;font-weight:bold;text-align:center;text-anchor:middle;fill:#000000;fill-opacity:1;-inkscape-font-specification:Bitstream Vera Sans Bold" id="tspan3622">All Rights</tspan></text>
    <path sodipodi:nodetypes="ccccccc" id="path5165" d="M 87.373731,1037.1963 87.5,1049.2105 c 0,1.469 -1.072635,2.6517 -2.405012,2.6517 l -82.1899762,0 c -1.3323766,0 -2.40501186,-1.1827 -2.40501186,-2.6517 l 0,-11.851 86.87373106,-0.1632 z" style="fill:url(#radialGradient5173);fill-opacity:1.0;fill-rule:nonzero;stroke:#000000;stroke-width:0.99999987999999995;stroke-linecap:round;stroke-miterlimit:4;stroke-opacity:1"/>
    <text xml:space="preserve" style="font-size:7.48677111px;font-style:normal;font-variant:normal;font-weight:normal;font-stretch:normal;fill:#ffffff;fill-opacity:1;stroke:none;font-family:Arial;-inkscape-font-specification:Arial" x="45.061489" y="938.87488" id="text3626" transform="scale(0.89576182,1.1163682)"><tspan sodipodi:role="line" id="tspan3628" x="45.061489" y="938.87488" style="font-size:9.35846329px;font-weight:bold;fill:#ffffff;fill-opacity:1;-inkscape-font-specification:Bitstream Vera Sans Bold">Reserved</tspan></text>
    <path sodipodi:type="arc" style="fill:#ffffff;fill-opacity:1;fill-rule:nonzero;stroke:none" id="path6618" sodipodi:cx="15.714286" sodipodi:cy="15.285714" sodipodi:rx="14.464286" sodipodi:ry="14.107142" d="m 30.178572,15.285714 c 0,7.79116 -6.475882,14.107143 -14.464286,14.107143 C 7.7258814,29.392857 1.25,23.076874 1.25,15.285714 1.25,7.4945545 7.7258814,1.1785717 15.714286,1.1785717 c 7.988404,0 14.464286,6.3159828 14.464286,14.1071423 z" transform="translate(1.1147573,1021.5408)"/>
    <rect style="fill:url(#pattern7369);stroke:none" width="30.357141" height="30.357141" x="1.127576" y="1021.8161" id="rect7374"/>
    <rect style="fill:#ffffff;fill-opacity:1;fill-rule:nonzero;stroke:none" id="rect7376" width="7.5000005" height="4.2857141" x="18.793329" y="1034.8623"/>
  </g>
</svg>