<?xml version="1.0" encoding="utf-8"?>
<!DOCTYPE svg PUBLIC "-//W3C//DTD SVG 1.1//EN" "http://www.w3.org/Graphics/SVG/1.1/DTD/svg11.dtd">
<!-- Clemoji 3.0: 1f47f.svg - licence GPLv3 or later - Author A-312 - https://zestedesavoir.com/ -->
<!-- Clemoji is based on Twemoji (CC BY 4.0 - https://github.com/twitter/twemoji) -->
<svg xmlns:dc="http://purl.org/dc/elements/1.1/" xmlns:cc="http://creativecommons.org/ns#" xmlns:rdf="http://www.w3.org/1999/02/22-rdf-syntax-ns#" xmlns:svg="http://www.w3.org/2000/svg" xmlns="http://www.w3.org/2000/svg" viewBox="0 0 26.929 27.834" style="enable-background: new 0 0 26.929 27.834" xml:space="preserve" version="1.1" id="clemoji3_1f47f" width="26.9333px" height="27.9167px">
  <g transform="matrix(1.18,0,0,-1.18,-1.2,61.2)" id="g10">
    <g id="gqueue" transform="translate(57.917999,-0.62614057)">
      <path id="path4183-2" fill="none" stroke="#48A000" stroke-width="1.7" stroke-linecap="round" stroke-linejoin="round" d="M-42.489,35.734c2.439,0.416,2.042-2.617,5.081-0.565"></path>
      <path id="path4183-2-5" fill="#479F00" d="M-34.405,38.346c-2.699,0.134-4.051-1.089-4.184-3.79c-0.005-0.056,0-0.113,0-0.168c0.107-0.015,0.215-0.026,0.323-0.033c2.7-0.134,4.053,1.091,4.187,3.79c0.004,0.056,0,0.113,0,0.168C-34.189,38.327-34.296,38.339-34.405,38.346L-34.405,38.346z"></path>
    </g>
    <path id="gfeuille" fill="#479F00" d="M1.807,48.04c-0.254-0.67-0.385-1.373-0.387-2.08c0-3.674,3.401-6.653,7.597-6.653c4.197,0,7.598,2.979,7.599,6.653c0,0.001,0,0.001,0,0.001c-0.003,0.704-0.134,1.402-0.387,2.069c-1.025-2.727-3.933-4.57-7.211-4.572C5.736,43.462,2.829,45.31,1.807,48.04L1.807,48.04z"></path>
    <g transform="translate(37,19)" id="g20">
      <path id="path22" fill="#AA8ED6" d="M-19.992,18.232c0-4.392-3.56-7.952-7.954-7.952c-4.392,0-7.952,3.56-7.952,7.952c0,4.391,3.56,7.952,7.952,7.952C-23.553,26.185-19.992,22.624-19.992,18.232"></path>
    </g>
    <path id="g312" fill="#553986" d="M8.124,38.873l-2.654,1.327c-0.437,0.218-0.969,0.041-1.188-0.396 c-0.219-0.438-0.041-0.969,0.396-1.188l1.864-0.932c-0.135-0.236-0.14-0.488-0.14-0.488v-0.885c0,0,0-0.886,0.885-0.886 c0.885,0,0.885,0.886,0.885,0.886v0.885c0,0-0.002,0.047-0.012,0.116c0.149,0.084,0.278,0.209,0.361,0.373 C8.739,38.123,8.561,38.654,8.124,38.873L8.124,38.873z M13.83,39.805c-0.218,0.435-0.75,0.615-1.188,0.396l-2.655-1.327 c-0.437-0.219-0.615-0.751-0.396-1.188c0.082-0.165,0.21-0.29,0.36-0.373c-0.009-0.069-0.011-0.116-0.011-0.116v-0.885 c0,0,0-0.886,0.885-0.886c0.885,0,0.885,0.886,0.885,0.886v0.885c0,0-0.005,0.252-0.141,0.488l1.865,0.932 C13.872,38.836,14.049,39.367,13.83,39.805L13.83,39.805z M11.836,32.066c-0.017,0.074-0.436,1.702-2.78,1.702 c-2.342,0-2.764-1.632-2.78-1.702c-0.027-0.115,0.021-0.233,0.122-0.293c0.101-0.059,0.228-0.043,0.311,0.041 c0.007,0.007,0.701,0.672,2.348,0.672c1.647,0,2.341-0.665,2.347-0.672c0.048-0.051,0.115-0.078,0.183-0.078 c0.044,0,0.088,0.012,0.128,0.036C11.813,31.83,11.864,31.951,11.836,32.066z"/>
  </g>
</svg>