<?xml version="1.0" encoding="utf-8"?>
<!DOCTYPE svg PUBLIC "-//W3C//DTD SVG 1.1//EN" "http://www.w3.org/Graphics/SVG/1.1/DTD/svg11.dtd">
<!-- Clemoji 3.0: 1f60d.svg - licence GPLv3 or later - Author A-312 - https://zestedesavoir.com/ -->
<!-- Clemoji is based on Twemoji (CC BY 4.0 - https://github.com/twitter/twemoji) -->
<svg xmlns:dc="http://purl.org/dc/elements/1.1/" xmlns:cc="http://creativecommons.org/ns#" xmlns:rdf="http://www.w3.org/1999/02/22-rdf-syntax-ns#" xmlns:svg="http://www.w3.org/2000/svg" xmlns="http://www.w3.org/2000/svg" viewBox="0 0 42.5 63" style="enable-background: new 0 0 42.5 63" xml:space="preserve" version="1.1" id="clemoji3_1f60d" width="19px" height="27.8333px">
  <g transform="matrix(1.25,0,0,-1.25,-2.5,62.5)" id="g10">
    <g transform="translate(36,19)" id="g20">
      <path id="path22" style="fill: rgb(250, 172, 44); fill-opacity: 1; fill-rule: nonzero; stroke: none;" d="m 0,0 c 0,-9.389 -7.611,-17 -17,-17 -9.389,0 -17,7.611 -17,17 0,9.389 7.611,17 17,17 C -7.611,17 0,9.389 0,0"></path>
    </g>
    <g transform="translate(19,15.1514)" id="g24">
      <path id="path26" style="fill: rgb(153, 37, 0); fill-opacity: 1; fill-rule: nonzero; stroke: none;" d="m 0,0 c -2.966,0 -4.935,0.346 -7.369,0.819 -0.557,0.107 -1.638,0 -1.638,-1.637 0,-3.276 3.763,-7.37 9.007,-7.37 5.244,0 9.007,4.094 9.007,7.37 0,1.637 -1.082,1.745 -1.638,1.637 C 4.936,0.346 2.967,0 0,0"></path>
    </g>
    <g transform="translate(18.1499,33.7192)" id="g28">
      <path id="path30" style="fill:#e75a70;fill-opacity:1;fill-rule:nonzero;stroke:none" d="m 0,0 c -0.859,2.431 -3.524,3.707 -5.956,2.85 -1.476,-0.521 -2.521,-1.711 -2.928,-3.105 -1.191,0.83 -2.751,1.1 -4.224,0.581 -2.431,-0.858 -3.708,-3.525 -2.85,-5.956 0.122,-0.345 0.284,-0.663 0.472,-0.958 1.951,-3.582 7.588,-6.1 11.002,-6.131 2.636,2.167 5.446,7.664 4.717,11.677 C 0.195,-0.694 0.12,-0.344 0,0"></path>
    </g>
    <g transform="translate(19.8496,33.7192)" id="g32">
      <path id="path34" style="fill:#e75a70;fill-opacity:1;fill-rule:nonzero;stroke:none" d="m 0,0 c 0.859,2.431 3.525,3.707 5.956,2.85 1.477,-0.521 2.521,-1.711 2.929,-3.105 1.191,0.83 2.751,1.1 4.224,0.581 2.43,-0.858 3.707,-3.525 2.85,-5.956 -0.123,-0.345 -0.284,-0.663 -0.473,-0.958 -1.951,-3.582 -7.588,-6.1 -11.002,-6.131 -2.636,2.167 -5.445,7.664 -4.716,11.677 C -0.194,-0.694 -0.119,-0.344 0,0"></path>
    </g>
    <g id="gfeuille" transform="translate(113.91075,50.659)">
      <path id="path4138-2" fill="#479F00" d="M-80.758-0.674c-7.478-0.001-13.541-6.064-13.539-13.541c0.003-0.155,0.009-0.31,0.017-0.464c0.297-0.026,0.597-0.041,0.897-0.045c7.478-0.001,13.541,6.062,13.542,13.54c0,0.001,0,0.001,0,0.002c-0.005,0.154-0.009,0.308-0.017,0.462C-80.156-0.696-80.458-0.68-80.758-0.674L-80.758-0.674z"></path>
      <path id="path4138-2-5" fill="#479F00" d="M-106.123-3.933c5.744,0,10.4-4.658,10.4-10.402c-0.003-0.12-0.006-0.238-0.013-0.357c-0.23-0.02-0.461-0.03-0.691-0.034c-5.745-0.001-10.402,4.656-10.402,10.4c0,0.002,0,0.002,0,0.002c0.002,0.119,0.006,0.237,0.013,0.355C-106.584-3.949-106.355-3.937-106.123-3.933L-106.123-3.933z"></path>
    </g>
  </g>
</svg>