<?xml version="1.0" encoding="utf-8"?>
<!DOCTYPE svg PUBLIC "-//W3C//DTD SVG 1.1//EN" "http://www.w3.org/Graphics/SVG/1.1/DTD/svg11.dtd">
<!-- Clemoji 3.0: 1f607.svg - licence GPLv3 or later - Author A-312 - https://zestedesavoir.com/ -->
<!-- Clemoji is based on Twemoji (CC BY 4.0 - https://github.com/twitter/twemoji) -->
<svg xmlns:dc="http://purl.org/dc/elements/1.1/" xmlns:cc="http://creativecommons.org/ns#" xmlns:rdf="http://www.w3.org/1999/02/22-rdf-syntax-ns#" xmlns:svg="http://www.w3.org/2000/svg" xmlns="http://www.w3.org/2000/svg" viewBox="0 0 42.5 63" style="enable-background: new 0 0 42.5 63" xml:space="preserve" version="1.1" id="clemoji3_1f607" width="19px" height="27.8333px">
  <g transform="matrix(1.25,0,0,-1.25,-2.5,62.5)" id="g10">
    <g transform="translate(36,19)" id="g20">
      <path id="path22" style="fill: rgb(250, 172, 44); fill-opacity: 1; fill-rule: nonzero; stroke: none;" d="m 0,0 c 0,-9.389 -7.611,-17 -17,-17 -9.388,0 -17,7.611 -17,17 0,9.388 7.612,17 17,17 C -7.611,17 0,9.388 0,0"></path>
    </g>
    <g transform="translate(28.335,14.3711)" id="g24">
      <path id="path26" style="fill: rgb(153, 37, 0); fill-opacity: 1; fill-rule: nonzero; stroke: none;" d="m 0,0 c -0.178,0.161 -0.444,0.171 -0.635,0.029 -0.039,-0.029 -3.922,-2.9 -8.7,-2.9 -4.766,0 -8.662,2.871 -8.7,2.9 -0.191,0.142 -0.457,0.13 -0.635,-0.029 -0.177,-0.16 -0.217,-0.424 -0.094,-0.628 0.129,-0.215 3.217,-5.243 9.429,-5.243 6.212,0 9.301,5.028 9.429,5.243 C 0.217,-0.423 0.178,-0.16 0,0"></path>
    </g>
    <g transform="translate(19,30)" id="g28">
      <path id="path30" style="fill: rgb(61, 174, 255); fill-opacity: 0.64; fill-rule: nonzero; stroke: none;" d="M 0,0 C -6.627,0 -12,0.567 -12,2.5 -12,4.433 -6.627,5 0,5 6.627,5 12,4.433 12,2.5 12,0.567 6.627,0 0,0 m 0,7 c -8.836,0 -16,-1.686 -16,-5 0,-3.313 7.164,-5 16,-5 8.836,0 16,1.687 16,5 0,3.314 -7.164,5 -16,5"></path>
    </g>
    <g transform="translate(11.375,30.9375)" id="g32">
      <path id="path34" style="fill: rgb(250, 172, 44); fill-opacity: 1; fill-rule: nonzero; stroke: none;" d="m 0,0 c -3.397,1.324 -2.5,1.991 -0.062,3.23 2.308,1.172 4.92,1.832 7.687,1.832 2.893,0 5.616,-0.722 8.001,-1.997 0.695,-0.372 1.432,-0.885 2.124,-1.346"></path>
    </g>
    <g transform="translate(27,18)" id="g36">
      <path id="path38" style="fill: rgb(153, 37, 0); fill-opacity: 1; fill-rule: nonzero; stroke: none;" d="M 0,0 C -0.419,0 -0.809,0.265 -0.948,0.684 -1.151,1.283 -1.967,3 -3,3 -4.062,3 -4.889,1.173 -5.052,0.684 -5.227,0.16 -5.788,-0.124 -6.316,0.052 -6.84,0.226 -7.123,0.792 -6.948,1.316 -6.823,1.693 -5.645,5 -3,5 -0.355,5 0.823,1.693 0.948,1.316 1.123,0.792 0.84,0.226 0.316,0.052 0.211,0.017 0.105,0 0,0"></path>
    </g>
    <g transform="translate(17,18)" id="g40">
      <path id="path42" style="fill: rgb(153, 37, 0); fill-opacity: 1; fill-rule: nonzero; stroke: none;" d="M 0,0 C -0.419,0 -0.809,0.265 -0.949,0.684 -1.152,1.283 -1.966,3 -3,3 -4.062,3 -4.888,1.173 -5.051,0.684 -5.226,0.16 -5.79,-0.124 -6.316,0.052 -6.84,0.226 -7.124,0.792 -6.949,1.316 -6.823,1.693 -5.645,5 -3,5 -0.355,5 0.823,1.693 0.949,1.316 1.124,0.792 0.84,0.226 0.316,0.052 0.211,0.017 0.105,0 0,0"></path>
    </g>
    <g id="gfeuille" transform="translate(113.91075,50.659)">
      <path id="path4138-2" fill="#479F00" d="M-80.758-0.674c-7.478-0.001-13.541-6.064-13.539-13.541c0.003-0.155,0.009-0.31,0.017-0.464c0.297-0.026,0.597-0.041,0.897-0.045c7.478-0.001,13.541,6.062,13.542,13.54c0,0.001,0,0.001,0,0.002c-0.005,0.154-0.009,0.308-0.017,0.462C-80.156-0.696-80.458-0.68-80.758-0.674L-80.758-0.674z"></path>
      <path id="path4138-2-5" fill="#479F00" d="M-106.123-3.933c5.744,0,10.4-4.658,10.4-10.402c-0.003-0.12-0.006-0.238-0.013-0.357c-0.23-0.02-0.461-0.03-0.691-0.034c-5.745-0.001-10.402,4.656-10.402,10.4c0,0.002,0,0.002,0,0.002c0.002,0.119,0.006,0.237,0.013,0.355C-106.584-3.949-106.355-3.937-106.123-3.933L-106.123-3.933z"></path>
    </g>
  </g>
</svg>