<?xml version="1.0" encoding="utf-8"?>
<!DOCTYPE svg PUBLIC "-//W3C//DTD SVG 1.1//EN" "http://www.w3.org/Graphics/SVG/1.1/DTD/svg11.dtd">
<!-- Clemoji 3.0: 1f608.svg - licence GPLv3 or later - Author A-312 - https://zestedesavoir.com/ -->
<!-- Clemoji is based on Twemoji (CC BY 4.0 - https://github.com/twitter/twemoji) -->
<svg xmlns:dc="http://purl.org/dc/elements/1.1/" xmlns:cc="http://creativecommons.org/ns#" xmlns:rdf="http://www.w3.org/1999/02/22-rdf-syntax-ns#" xmlns:svg="http://www.w3.org/2000/svg" xmlns="http://www.w3.org/2000/svg" viewBox="0 0 26.929 27.834" style="enable-background: new 0 0 26.929 27.834" xml:space="preserve" version="1.1" id="clemoji3_1f608" width="26.9333px" height="27.9167px">
  <g transform="matrix(1.18,0,0,-1.18,-1.2,61.2)" id="g10">
    <g id="gqueue" transform="translate(57.917999,-0.62614057)">
      <path id="path4183-2" fill="none" stroke="#48A000" stroke-width="1.7" stroke-linecap="round" stroke-linejoin="round" d="M-42.489,35.734c2.439,0.416,2.042-2.617,5.081-0.565"></path>
      <path id="path4183-2-5" fill="#479F00" d="M-34.405,38.346c-2.699,0.134-4.051-1.089-4.184-3.79c-0.005-0.056,0-0.113,0-0.168c0.107-0.015,0.215-0.026,0.323-0.033c2.7-0.134,4.053,1.091,4.187,3.79c0.004,0.056,0,0.113,0,0.168C-34.189,38.327-34.296,38.339-34.405,38.346L-34.405,38.346z"></path>
    </g>
    <path id="gfeuille" fill="#479F00" d="M1.807,48.04c-0.254-0.67-0.385-1.373-0.387-2.08c0-3.674,3.401-6.653,7.597-6.653c4.197,0,7.598,2.979,7.599,6.653c0,0.001,0,0.001,0,0.001c-0.003,0.704-0.134,1.402-0.387,2.069c-1.025-2.727-3.933-4.57-7.211-4.572C5.736,43.462,2.829,45.31,1.807,48.04L1.807,48.04z"></path>
    <g transform="translate(37,19)" id="g20">
      <path id="path22" fill="#AA8ED6" d="M-19.992,18.232c0-4.392-3.56-7.952-7.954-7.952c-4.392,0-7.952,3.56-7.952,7.952c0,4.391,3.56,7.952,7.952,7.952C-23.553,26.185-19.992,22.624-19.992,18.232"></path>
    </g>
    <g id="g312" transform="matrix(0.45,0,0,0.45,0.5,29)">
      <g transform="translate(28.335,11.3711)" id="g24">
        <path id="path26" style="fill:#553986;fill-opacity:1;fill-rule:nonzero;stroke:none" d="m 0,0 c -0.178,0.161 -0.444,0.171 -0.635,0.029 -0.039,-0.029 -3.922,-2.9 -8.7,-2.9 -4.766,0 -8.662,2.871 -8.7,2.9 -0.191,0.142 -0.457,0.13 -0.635,-0.029 -0.177,-0.16 -0.217,-0.424 -0.094,-0.628 0.129,-0.215 3.217,-5.243 9.429,-5.243 6.212,0 9.301,5.028 9.429,5.243 C 0.217,-0.423 0.178,-0.16 0,0"></path>
      </g>
      <g transform="translate(16.707,18.707)" id="g28">
        <path id="path30" style="fill:#553986;fill-opacity:1;fill-rule:nonzero;stroke:none" d="m 0,0 c -3.255,3.255 -8.486,3.293 -8.707,3.293 -0.552,0 -0.999,-0.447 -0.999,-0.999 -0.001,-0.551 0.446,-1 0.998,-1.001 0.029,0 1.925,-0.022 3.983,-0.737 -0.593,-0.64 -0.982,-1.634 -0.982,-2.763 0,-1.934 1.119,-3.5 2.5,-3.5 1.381,0 2.5,1.566 2.5,3.5 0,0.174 -0.019,0.34 -0.037,0.507 0.013,0 0.025,-0.007 0.037,-0.007 0.256,0 0.512,0.098 0.707,0.293 0.391,0.391 0.391,1.023 0,1.414"></path>
      </g>
      <g transform="translate(30,22)" id="g32">
        <path id="path34" style="fill:#553986;fill-opacity:1;fill-rule:nonzero;stroke:none" d="m 0,0 c -0.221,0 -5.451,-0.038 -8.707,-3.293 -0.391,-0.391 -0.391,-1.023 0,-1.414 C -8.512,-4.902 -8.256,-5 -8,-5 c 0.013,0 0.024,0.007 0.036,0.007 C -7.98,-5.16 -8,-5.326 -8,-5.5 -8,-7.434 -6.881,-9 -5.5,-9 c 1.381,0 2.5,1.566 2.5,3.5 0,1.129 -0.389,2.123 -0.982,2.763 C -1.924,-2.022 -0.028,-2 0.002,-2 0.553,-1.999 1,-1.55 0.999,-0.999 0.998,-0.447 0.552,0 0,0"></path>
      </g>
    </g>
  </g>
</svg>