<?xml version="1.0" encoding="utf-8"?>
<!DOCTYPE svg PUBLIC "-//W3C//DTD SVG 1.1//EN" "http://www.w3.org/Graphics/SVG/1.1/DTD/svg11.dtd">
<!-- Clemoji 3.0: 1f605.svg - licence GPLv3 or later - Author A-312 - https://zestedesavoir.com/ -->
<!-- Clemoji is based on Twemoji (CC BY 4.0 - https://github.com/twitter/twemoji) -->
<svg xmlns:dc="http://purl.org/dc/elements/1.1/" xmlns:cc="http://creativecommons.org/ns#" xmlns:rdf="http://www.w3.org/1999/02/22-rdf-syntax-ns#" xmlns:svg="http://www.w3.org/2000/svg" xmlns="http://www.w3.org/2000/svg" viewBox="0 0 42.5 63" style="enable-background: new 0 0 42.5 63" xml:space="preserve" version="1.1" id="clemoji3_1f605" width="19px" height="27.8333px">
  <g transform="matrix(1.25,0,0,-1.25,-2.5,62.5)" id="g10">
    <g transform="translate(36,19)" id="g20">
      <path id="path22" style="fill: rgb(250, 172, 44); fill-opacity: 1; fill-rule: nonzero; stroke: none;" d="m 0,0 c 0,-9.389 -7.611,-17 -17,-17 -9.388,0 -17,7.611 -17,17 0,9.388 7.612,17 17,17 C -7.611,17 0,9.388 0,0"></path>
    </g>
    <g transform="translate(29.457,19.2031)" id="g24">
      <path id="path26" style="fill: rgb(153, 37, 0); fill-opacity: 1; fill-rule: nonzero; stroke: none;" d="m 0,0 c -0.059,0.135 -1.499,3.297 -4.457,3.297 -2.957,0 -4.397,-3.162 -4.457,-3.297 -0.092,-0.207 -0.032,-0.449 0.144,-0.591 0.175,-0.142 0.426,-0.147 0.611,-0.014 0.012,0.009 1.262,0.902 3.702,0.902 2.426,0 3.674,-0.881 3.702,-0.901 0.088,-0.066 0.194,-0.099 0.298,-0.099 0.11,0 0.221,0.037 0.312,0.109 C 0.032,-0.452 0.093,-0.208 0,0"></path>
    </g>
    <g transform="translate(17.457,19.2031)" id="g28">
      <path id="path30" style="fill: rgb(153, 37, 0); fill-opacity: 1; fill-rule: nonzero; stroke: none;" d="m 0,0 c -0.06,0.135 -1.499,3.297 -4.457,3.297 -2.957,0 -4.397,-3.162 -4.457,-3.297 -0.092,-0.207 -0.032,-0.449 0.144,-0.591 0.176,-0.142 0.427,-0.147 0.61,-0.014 0.013,0.009 1.262,0.902 3.703,0.902 2.426,0 3.674,-0.881 3.702,-0.901 0.088,-0.066 0.194,-0.099 0.298,-0.099 0.11,0 0.221,0.037 0.312,0.109 C 0.033,-0.452 0.092,-0.208 0,0"></path>
    </g>
    <g transform="translate(19,15)" id="g32">
      <path id="path34" style="fill: rgb(153, 37, 0); fill-opacity: 1; fill-rule: nonzero; stroke: none;" d="m 0,0 c -3.623,0 -6.027,0.422 -9,1 -0.679,0.131 -2,0 -2,-2 0,-4 4.595,-9 11,-9 6.404,0 11,5 11,9 C 11,1 9.679,1.132 9,1 6.027,0.422 3.623,0 0,0"></path>
    </g>
    <g transform="translate(10,14)" id="g36">
      <path id="path38" style="fill:#ffffff;fill-opacity:1;fill-rule:nonzero;stroke:none" d="m 0,0 c 0,0 3,-1 9,-1 6,0 9,1 9,1 0,0 -2,-4 -9,-4 -7,0 -9,4 -9,4"></path>
    </g>
    <g transform="translate(36,26)" id="g40">
      <path id="path42" style="fill: rgb(61, 174, 255); fill-opacity: 0.64; fill-rule: nonzero; stroke: none;" d="m 0,0 c 0,-2.762 -2.238,-5 -5,-5 -2.762,0 -5,2.238 -5,5 0,2.762 4,10 5,10 1,0 5,-7.238 5,-10"></path>
    </g>
    <g id="gfeuille" transform="translate(113.91075,50.659)">
      <path id="path4138-2" fill="#479F00" d="M-80.758-0.674c-7.478-0.001-13.541-6.064-13.539-13.541c0.003-0.155,0.009-0.31,0.017-0.464c0.297-0.026,0.597-0.041,0.897-0.045c7.478-0.001,13.541,6.062,13.542,13.54c0,0.001,0,0.001,0,0.002c-0.005,0.154-0.009,0.308-0.017,0.462C-80.156-0.696-80.458-0.68-80.758-0.674L-80.758-0.674z"></path>
      <path id="path4138-2-5" fill="#479F00" d="M-106.123-3.933c5.744,0,10.4-4.658,10.4-10.402c-0.003-0.12-0.006-0.238-0.013-0.357c-0.23-0.02-0.461-0.03-0.691-0.034c-5.745-0.001-10.402,4.656-10.402,10.4c0,0.002,0,0.002,0,0.002c0.002,0.119,0.006,0.237,0.013,0.355C-106.584-3.949-106.355-3.937-106.123-3.933L-106.123-3.933z"></path>
    </g>
  </g>
</svg>