<?xml version="1.0" encoding="utf-8"?>
<!DOCTYPE svg PUBLIC "-//W3C//DTD SVG 1.1//EN" "http://www.w3.org/Graphics/SVG/1.1/DTD/svg11.dtd">
<!-- Clemoji 3.0: 1f601.svg (1f601 v2) - licence GPLv3 or later - Author A-312 - https://zestedesavoir.com/ -->
<!-- Clemoji is based on Twemoji v2 (CC BY 4.0 - https://github.com/twitter/twemoji) -->
<svg version="1.1" id="clemoji3_1f601" xmlns:dc="http://purl.org/dc/elements/1.1/" xmlns:cc="http://creativecommons.org/ns#" xmlns:rdf="http://www.w3.org/1999/02/22-rdf-syntax-ns#" xmlns:svg="http://www.w3.org/2000/svg" xmlns="http://www.w3.org/2000/svg" xmlns:xlink="http://www.w3.org/1999/xlink" x="0px" y="0px" width="19px" height="27.834px" viewBox="0 0 19 27.834" enable-background="new 0 0 19 27.834" xml:space="preserve">
<g id="g10" transform="matrix(1.25,0,0,-1.25,-2.5,62.5)">
  <g id="g20" transform="translate(36,19)">
    <path id="path22" fill="#FAAC2C" d="M-18.889,17.304c0-4.148-3.362-7.509-7.511-7.509c-4.148,0-7.511,3.362-7.511,7.509c0,4.148,3.363,7.511,7.511,7.511C-22.252,24.815-18.889,21.453-18.889,17.304"/>
  </g>
  <path id="g24_1_" fill="#992500" d="M8.766,36.305c-0.175,0-0.338,0.11-0.396,0.285c-0.085,0.25-0.424,0.967-0.856,0.967c-0.443,0-0.788-0.763-0.856-0.967c-0.073-0.218-0.308-0.337-0.528-0.263c-0.219,0.073-0.337,0.309-0.264,0.527c0.052,0.157,0.544,1.537,1.647,1.537s1.595-1.38,1.648-1.537c0.073-0.219-0.045-0.455-0.264-0.528C8.854,36.312,8.809,36.305,8.766,36.305z M12.938,36.305c-0.175,0-0.338,0.11-0.396,0.285c-0.084,0.25-0.425,0.967-0.855,0.967c-0.444,0-0.788-0.763-0.856-0.967c-0.073-0.218-0.308-0.337-0.528-0.263c-0.218,0.073-0.337,0.309-0.264,0.527c0.053,0.157,0.545,1.537,1.648,1.537c1.103,0,1.595-1.38,1.647-1.537c0.073-0.219-0.045-0.455-0.263-0.528C13.027,36.312,12.981,36.305,12.938,36.305z M9.6,34.636c-1.512,0-2.515,0.176-3.755,0.417c-0.283,0.055-0.834,0-0.834-0.834c0-1.67,1.917-3.755,4.59-3.755c2.672,0,4.59,2.086,4.59,3.755c0,0.834-0.551,0.889-0.834,0.834C12.115,34.812,11.112,34.636,9.6,34.636z"/>
  <path id="g26" fill="#FFFFFF" d="M5.845,34.219c0,0,1.252-0.418,3.755-0.418c2.504,0,3.755,0.418,3.755,0.418s-0.561-2.817-3.755-2.817C6.405,31.402,5.845,34.219,5.845,34.219z"/>
  <path id="g34" fill="#992500" d="M9.6,32.302c-1.5,0-2.617,0.155-3.312,0.311l-0.345,0.78c0.344-0.13,1.623-0.374,3.657-0.374c2.066,0,3.353,0.257,3.698,0.391l-0.293-0.769C12.325,32.483,11.163,32.302,9.6,32.302z"/>
  <g id="gfeuille" transform="translate(113.91075,50.659)">
    <path id="path41" fill="#479F00" d="M-98.058-0.666c-3.305,0-5.983-2.679-5.982-5.982c0.002-0.069,0.004-0.137,0.007-0.205c0.131-0.011,0.264-0.018,0.396-0.02c3.305-0.001,5.983,2.678,5.983,5.982c0,0,0,0,0,0.001c-0.002,0.068-0.003,0.136-0.008,0.204C-97.792-0.675-97.926-0.668-98.058-0.666L-98.058-0.666z"/>
    <path id="path41-2" fill="#479F00" d="M-109.264-2.106c2.538,0,4.595-2.058,4.595-4.595c-0.001-0.053-0.002-0.105-0.005-0.158c-0.102-0.009-0.204-0.013-0.305-0.015c-2.538-0.001-4.596,2.057-4.596,4.595c0,0.001,0,0.001,0,0.001c0.001,0.052,0.003,0.105,0.006,0.157C-109.468-2.113-109.367-2.107-109.264-2.106L-109.264-2.106z"/>
  </g>
</g>
</svg>
