<?xml version="1.0" encoding="utf-8"?>
<!DOCTYPE svg PUBLIC "-//W3C//DTD SVG 1.1//EN" "http://www.w3.org/Graphics/SVG/1.1/DTD/svg11.dtd">
<!-- Clemoji 3.0: 1f60c.svg - licence GPLv3 or later - Author A-312 - https://zestedesavoir.com/ -->
<!-- Clemoji is based on Twemoji (CC BY 4.0 - https://github.com/twitter/twemoji) -->
<svg xmlns:dc="http://purl.org/dc/elements/1.1/" xmlns:cc="http://creativecommons.org/ns#" xmlns:rdf="http://www.w3.org/1999/02/22-rdf-syntax-ns#" xmlns:svg="http://www.w3.org/2000/svg" xmlns="http://www.w3.org/2000/svg" viewBox="0 0 42.5 63" style="enable-background: new 0 0 42.5 63" xml:space="preserve" version="1.1" id="clemoji3_1f60c" width="19px" height="27.8333px">
  <g transform="matrix(1.25,0,0,-1.25,-2.5,62.5)" id="g10">
    <g transform="translate(36,19)" id="g20">
      <path id="path22" style="fill: rgb(250, 172, 44); fill-opacity: 1; fill-rule: nonzero; stroke: none;" d="m 0,0 c 0,-9.389 -7.611,-17 -17,-17 -9.389,0 -17,7.611 -17,17 0,9.389 7.611,17 17,17 C -7.611,17 0,9.389 0,0"></path>
    </g>
    <g transform="translate(29.3125,21.3882)" id="g24">
      <path id="path26" style="fill: rgb(153, 37, 0); fill-opacity: 1; fill-rule: nonzero; stroke: none;" d="m 0,0 c -0.175,0.142 -0.426,0.147 -0.61,0.014 -0.012,-0.01 -1.261,-0.902 -3.702,-0.902 -2.441,0 -3.691,0.892 -3.701,0.9 -0.182,0.137 -0.434,0.133 -0.611,-0.009 -0.178,-0.142 -0.238,-0.386 -0.146,-0.594 0.06,-0.135 1.5,-3.297 4.458,-3.297 2.958,0 4.397,3.162 4.457,3.297 C 0.236,-0.384 0.177,-0.142 0,0"></path>
    </g>
    <g transform="translate(16.7021,21.4019)" id="g28">
      <path id="path30" style="fill: rgb(153, 37, 0); fill-opacity: 1; fill-rule: nonzero; stroke: none;" d="m 0,0 c -0.012,-0.009 -1.26,-0.902 -3.702,-0.902 -2.441,0 -3.69,0.893 -3.7,0.9 -0.183,0.137 -0.434,0.133 -0.612,-0.009 -0.178,-0.142 -0.237,-0.386 -0.145,-0.594 0.06,-0.135 1.5,-3.297 4.457,-3.297 2.958,0 4.397,3.162 4.457,3.297 0.092,0.207 0.032,0.449 -0.145,0.591 C 0.434,0.129 0.182,0.133 0,0"></path>
    </g>
    <g transform="translate(30.001,24)" id="g32">
      <path id="path34" style="fill: rgb(153, 37, 0); fill-opacity: 1; fill-rule: nonzero; stroke: none;" d="M 0,0 C -0.305,0 -0.605,0.138 -0.801,0.4 -3.393,3.856 -7.762,3.028 -7.805,3.02 -8.352,2.912 -8.873,3.263 -8.982,3.804 -9.09,4.345 -8.738,4.872 -8.197,4.98 -7.967,5.028 -2.54,6.052 0.799,1.6 1.131,1.158 1.041,0.531 0.599,0.2 0.419,0.065 0.209,0 0,0"></path>
    </g>
    <g transform="translate(7.999,24)" id="g36">
      <path id="path38" style="fill: rgb(153, 37, 0); fill-opacity: 1; fill-rule: nonzero; stroke: none;" d="M 0,0 C -0.208,0 -0.419,0.065 -0.599,0.2 -1.041,0.531 -1.13,1.158 -0.799,1.6 2.541,6.054 7.967,5.026 8.197,4.98 8.739,4.872 9.09,4.345 8.981,3.804 8.873,3.264 8.347,2.913 7.808,3.019 7.621,3.053 3.371,3.826 0.801,0.4 0.604,0.138 0.304,0 0,0"></path>
    </g>
    <g transform="translate(24.2539,13.4229)" id="g40">
      <path id="path42" style="fill: rgb(153, 37, 0); fill-opacity: 1; fill-rule: nonzero; stroke: none;" d="m 0,0 c -0.187,0.111 -0.432,0.086 -0.597,-0.06 -0.009,-0.007 -1.013,-0.863 -4.657,-0.863 -3.641,0 -4.645,0.854 -4.646,0.854 -0.16,0.16 -0.405,0.19 -0.601,0.082 -0.195,-0.112 -0.293,-0.339 -0.238,-0.557 0.011,-0.044 1.145,-4.379 5.485,-4.379 4.34,0 5.474,4.335 5.485,4.379 C 0.284,-0.331 0.187,-0.113 0,0"></path>
    </g>
    <g id="gfeuille" transform="translate(113.91075,50.659)">
      <path id="path4138-2" fill="#479F00" d="M-80.758-0.674c-7.478-0.001-13.541-6.064-13.539-13.541c0.003-0.155,0.009-0.31,0.017-0.464c0.297-0.026,0.597-0.041,0.897-0.045c7.478-0.001,13.541,6.062,13.542,13.54c0,0.001,0,0.001,0,0.002c-0.005,0.154-0.009,0.308-0.017,0.462C-80.156-0.696-80.458-0.68-80.758-0.674L-80.758-0.674z"></path>
      <path id="path4138-2-5" fill="#479F00" d="M-106.123-3.933c5.744,0,10.4-4.658,10.4-10.402c-0.003-0.12-0.006-0.238-0.013-0.357c-0.23-0.02-0.461-0.03-0.691-0.034c-5.745-0.001-10.402,4.656-10.402,10.4c0,0.002,0,0.002,0,0.002c0.002,0.119,0.006,0.237,0.013,0.355C-106.584-3.949-106.355-3.937-106.123-3.933L-106.123-3.933z"></path>
    </g>
  </g>
</svg>