<?xml version="1.0" encoding="utf-8"?>
<!DOCTYPE svg PUBLIC "-//W3C//DTD SVG 1.1//EN" "http://www.w3.org/Graphics/SVG/1.1/DTD/svg11.dtd">
<!-- Clemoji 3.0: 1f60b.svg (1f60b v2) - licence GPLv3 or later - Author A-312 - https://zestedesavoir.com/ -->
<!-- Clemoji is based on Twemoji v2 (CC BY 4.0 - https://github.com/twitter/twemoji) -->
<svg version="1.1" id="clemoji3_1f60b" xmlns:dc="http://purl.org/dc/elements/1.1/" xmlns:cc="http://creativecommons.org/ns#" xmlns:rdf="http://www.w3.org/1999/02/22-rdf-syntax-ns#" xmlns:svg="http://www.w3.org/2000/svg" xmlns="http://www.w3.org/2000/svg" xmlns:xlink="http://www.w3.org/1999/xlink" x="0px" y="0px" width="19px" height="27.834px" viewBox="0 0 19 27.834" enable-background="new 0 0 19 27.834" xml:space="preserve">
  <g id="g10" transform="matrix(1.25,0,0,-1.25,-2.5,62.5)">
    <g id="g20" transform="translate(36,19)">
      <path id="path22" fill="#FAAC2C" d="M-18.889,17.304c0-4.148-3.362-7.509-7.511-7.509c-4.148,0-7.511,3.362-7.511,7.509c0,4.148,3.363,7.511,7.511,7.511C-22.252,24.815-18.889,21.453-18.889,17.304"/>
    </g>
    <path id="g38" fill="#E58628" d="M15.478,31.642c-0.091,0.263-0.234,0.508-0.436,0.71l-1.53,1.58c-0.34-0.786-1.191-2.226-2.998-2.834l1.538-1.538c0.089-0.088,0.188-0.169,0.295-0.238C13.586,29.809,14.663,30.616,15.478,31.642L15.478,31.642z"/>
    <path id="g34" fill="#E75A70" d="M15.93,32.422l-1.531,1.58c-0.34-0.786-1.192-2.227-2.998-2.834l1.537-1.538c0.72-0.72,2.086-0.834,2.92,0C16.691,30.466,16.65,31.701,15.93,32.422z"/>
    <path id="g28" fill="#9A2400" d="M5.011,36.722c-0.063,0-0.126,0.015-0.186,0.044c-0.206,0.102-0.289,0.354-0.187,0.56c0.022,0.044,0.55,1.064,2.042,1.064c1.491,0,2.019-1.021,2.041-1.064c0.103-0.206,0.019-0.458-0.187-0.56c-0.205-0.103-0.452-0.02-0.557,0.182c-0.018,0.033-0.346,0.609-1.297,0.609c-0.967,0-1.293-0.598-1.296-0.604C5.311,36.805,5.164,36.722,5.011,36.722z M14.188,36.722c0.063,0,0.127,0.015,0.187,0.044c0.206,0.102,0.288,0.354,0.187,0.56c-0.023,0.044-0.551,1.064-2.041,1.064c-1.494,0-2.02-1.021-2.041-1.064c-0.104-0.206-0.02-0.458,0.185-0.56c0.205-0.103,0.453-0.02,0.557,0.182c0.019,0.033,0.347,0.609,1.299,0.609c0.966,0,1.291-0.598,1.295-0.604C13.888,36.805,14.036,36.722,14.188,36.722z M14.398,34.002c0.134,0.313,0.192,0.524,0.194,0.533c0.055,0.223-0.078,0.448-0.302,0.505c-0.224,0.056-0.449-0.079-0.507-0.302c-0.031-0.123-0.813-3.022-4.184-3.022c-3.371,0-4.152,2.899-4.184,3.023c-0.057,0.222-0.284,0.357-0.507,0.301c-0.223-0.056-0.358-0.282-0.302-0.505c0.009-0.037,0.96-3.653,4.993-3.653c0.689,0,1.28,0.112,1.8,0.286C13.206,31.776,14.059,33.216,14.398,34.002z"/>
    <g id="gfeuille" transform="translate(113.91075,50.659)">
      <path id="path41" fill="#479F00" d="M-98.058-0.666c-3.305,0-5.983-2.679-5.982-5.982c0.002-0.069,0.004-0.137,0.007-0.205c0.131-0.011,0.264-0.018,0.396-0.02c3.304-0.001,5.983,2.678,5.983,5.982c0,0,0,0,0,0.001c-0.002,0.068-0.004,0.136-0.008,0.204C-97.792-0.675-97.926-0.668-98.058-0.666L-98.058-0.666z" />
      <path id="path41-2" fill="#479F00" d="M-109.264-2.106c2.538,0,4.595-2.058,4.595-4.595c-0.001-0.053-0.002-0.105-0.005-0.158c-0.102-0.009-0.204-0.013-0.305-0.015c-2.538-0.001-4.596,2.057-4.596,4.595c0,0.001,0,0.001,0,0.001c0.001,0.052,0.003,0.105,0.006,0.157C-109.468-2.113-109.367-2.107-109.264-2.106L-109.264-2.106z" />
    </g>
  </g>
</svg>
