<?xml version="1.0" encoding="utf-8"?>
<!DOCTYPE svg PUBLIC "-//W3C//DTD SVG 1.1//EN" "http://www.w3.org/Graphics/SVG/1.1/DTD/svg11.dtd">
<!-- Clemoji 3.0: 1f61e.svg - licence GPLv3 or later - Author A-312 - https://zestedesavoir.com/ -->
<!-- Clemoji is based on Twemoji (CC BY 4.0 - https://github.com/twitter/twemoji) -->
<svg xmlns:dc="http://purl.org/dc/elements/1.1/" xmlns:cc="http://creativecommons.org/ns#" xmlns:rdf="http://www.w3.org/1999/02/22-rdf-syntax-ns#" xmlns:svg="http://www.w3.org/2000/svg" xmlns="http://www.w3.org/2000/svg" viewBox="0 0 42.5 63" style="enable-background: new 0 0 42.5 63" xml:space="preserve" version="1.1" id="clemoji3_1f61e" width="19px" height="27.8333px">
  <g transform="matrix(1.25,0,0,-1.25,-2.5,62.5)" id="g10">
    <g id="gfeuille" transform="translate(0,1)">
      <path id="path4138-2" fill="#479F00" d="M35.842,42.028c-7.072,2.898-15.156-0.481-18.056-7.555c-0.056-0.147-0.112-0.295-0.166-0.445c0.273-0.141,0.552-0.27,0.833-0.391c7.072-2.902,15.156,0.48,18.056,7.552c0.002,0,0.002,0,0.002,0.002c0.058,0.147,0.112,0.295,0.164,0.444C36.402,41.775,36.123,41.906,35.842,42.028L35.842,42.028z"></path>
      <path id="path4138-2-5" fill="#479F00" d="M5.883,38.317c5.113,2.886,11.597,1.081,14.484-4.03c0.058-0.106,0.112-0.214,0.167-0.325c-0.195-0.131-0.394-0.258-0.597-0.377c-5.111-2.888-11.596-1.084-14.482,4.03c-0.002,0-0.002,0-0.002,0c-0.058,0.106-0.112,0.214-0.166,0.322C5.482,38.07,5.68,38.197,5.883,38.317z"></path>
    </g>
    <g transform="translate(36,19)" id="g20">
      <path id="path22" style="fill: rgb(250, 172, 44); fill-opacity: 1; fill-rule: nonzero; stroke: none;" d="m 0,0 c 0,-9.389 -7.611,-17 -17,-17 -9.389,0 -17,7.611 -17,17 0,9.389 7.611,17 17,17 C -7.611,17 0,9.389 0,0"></path>
    </g>
    <g transform="translate(24.4854,8.1211)" id="g24">
      <path id="path26" style="fill: rgb(153, 37, 0); fill-opacity: 1; fill-rule: nonzero; stroke: none;" d="m 0,0 c -0.012,0.044 -1.146,4.379 -5.485,4.379 -4.341,0 -5.475,-4.335 -5.485,-4.379 -0.053,-0.213 0.043,-0.431 0.231,-0.544 0.188,-0.112 0.433,-0.086 0.596,0.06 0.01,0.007 1.014,0.863 4.658,0.863 3.589,0 4.617,-0.83 4.656,-0.863 0.095,-0.09 0.219,-0.137 0.344,-0.137 0.084,0 0.169,0.021 0.246,0.064 C -0.043,-0.445 0.055,-0.218 0,0"></path>
    </g>
    <g transform="translate(26.7803,21.3594)" id="g28">
      <path id="path30" style="fill: rgb(153, 37, 0); fill-opacity: 1; fill-rule: nonzero; stroke: none;" d="m 0,0 c -0.341,0.093 -0.692,0.14 -1.043,0.14 -2.345,0 -4.053,-2.06 -4.125,-2.147 -0.143,-0.176 -0.148,-0.426 -0.017,-0.609 0.134,-0.184 0.374,-0.253 0.586,-0.174 0.005,0.002 0.573,0.215 1.565,0.215 0.714,0 1.468,-0.108 2.244,-0.32 2.342,-0.637 3.313,-1.818 3.334,-1.843 0.098,-0.124 0.243,-0.192 0.394,-0.192 0.066,0 0.133,0.014 0.197,0.041 0.209,0.09 0.331,0.31 0.297,0.534 C 3.409,-4.208 2.854,-0.778 0,0"></path>
    </g>
    <g transform="translate(12.2261,21.4878)" id="g32">
      <path id="path34" style="fill: rgb(153, 37, 0); fill-opacity: 1; fill-rule: nonzero; stroke: none;" d="m 0,0 c -0.317,0 -0.636,-0.039 -0.947,-0.116 -2.87,-0.707 -3.513,-4.121 -3.539,-4.266 -0.04,-0.223 0.076,-0.444 0.281,-0.54 0.068,-0.032 0.14,-0.047 0.211,-0.047 0.145,0 0.287,0.063 0.385,0.179 0.01,0.012 1.01,1.178 3.379,1.761 0.715,0.176 1.413,0.265 2.073,0.265 1.104,0 1.732,-0.253 1.735,-0.254 0.067,-0.028 0.131,-0.04 0.207,-0.04 0.272,-0.012 0.509,0.221 0.509,0.5 0,0.165 -0.08,0.311 -0.203,0.402 C 3.724,-1.721 2.138,0 0,0"></path>
    </g>
  </g>
</svg>