<?xml version="1.0" encoding="utf-8"?>
<!DOCTYPE svg PUBLIC "-//W3C//DTD SVG 1.1//EN" "http://www.w3.org/Graphics/SVG/1.1/DTD/svg11.dtd">
<!-- Clemoji 3.0: 1f612.svg - licence GPLv3 or later - Author A-312 - https://zestedesavoir.com/ -->
<!-- Clemoji is based on Twemoji (CC BY 4.0 - https://github.com/twitter/twemoji) -->
<svg xmlns:dc="http://purl.org/dc/elements/1.1/" xmlns:cc="http://creativecommons.org/ns#" xmlns:rdf="http://www.w3.org/1999/02/22-rdf-syntax-ns#" xmlns:svg="http://www.w3.org/2000/svg" xmlns="http://www.w3.org/2000/svg" viewBox="0 0 42.5 63" style="enable-background: new 0 0 42.5 63" xml:space="preserve" version="1.1" id="clemoji3_1f612" width="19px" height="27.8333px">
  <g transform="matrix(1.25,0,0,-1.25,-2.5,62.5)" id="g10">
    <g id="gfeuille" transform="translate(0,1)">
      <path id="path4138-2" fill="#479F00" d="M35.842,42.028c-7.072,2.898-15.156-0.481-18.056-7.555c-0.056-0.147-0.112-0.295-0.166-0.445c0.273-0.141,0.552-0.27,0.833-0.391c7.072-2.902,15.156,0.48,18.056,7.552c0.002,0,0.002,0,0.002,0.002c0.058,0.147,0.112,0.295,0.164,0.444C36.402,41.775,36.123,41.906,35.842,42.028L35.842,42.028z"></path>
      <path id="path4138-2-5" fill="#479F00" d="M5.883,38.317c5.113,2.886,11.597,1.081,14.484-4.03c0.058-0.106,0.112-0.214,0.167-0.325c-0.195-0.131-0.394-0.258-0.597-0.377c-5.111-2.888-11.596-1.084-14.482,4.03c-0.002,0-0.002,0-0.002,0c-0.058,0.106-0.112,0.214-0.166,0.322C5.482,38.07,5.68,38.197,5.883,38.317z"></path>
    </g>
    <g transform="translate(36,19)" id="g20">
      <path id="path22" style="fill: rgb(250, 172, 44); fill-opacity: 1; fill-rule: nonzero; stroke: none;" d="m 0,0 c 0,-9.389 -7.611,-17 -17,-17 -9.388,0 -17,7.611 -17,17 0,9.388 7.612,17 17,17 C -7.611,17 0,9.388 0,0"></path>
    </g>
    <g transform="translate(26.4854,9.1211)" id="g24">
      <path id="path26" style="fill: rgb(153, 37, 0); fill-opacity: 1; fill-rule: nonzero; stroke: none;" d="m 0,0 c -0.045,0.179 -1.168,4.379 -7.485,4.379 -6.318,0 -7.441,-4.2 -7.485,-4.379 -0.055,-0.217 0.043,-0.442 0.237,-0.554 0.195,-0.111 0.439,-0.078 0.599,0.077 0.019,0.019 1.954,1.856 6.649,1.856 4.694,0 6.63,-1.837 6.648,-1.856 0.096,-0.094 0.224,-0.144 0.352,-0.144 0.084,0 0.169,0.021 0.246,0.064 C -0.043,-0.445 0.055,-0.218 0,0"></path>
    </g>
    <g transform="translate(30.001,23)" id="g28">
      <path id="path30" style="fill: rgb(153, 37, 0); fill-opacity: 1; fill-rule: nonzero; stroke: none;" d="M 0,0 C -0.305,0 -0.604,0.138 -0.801,0.4 -3.232,3.644 -7.314,1.246 -7.486,1.143 -7.961,0.858 -8.575,1.013 -8.858,1.485 -9.143,1.959 -8.989,2.573 -8.516,2.857 -6.518,4.056 -2.002,5.334 0.799,1.6 1.131,1.158 1.041,0.531 0.599,0.2 0.419,0.065 0.209,0 0,0"></path>
    </g>
    <g transform="translate(7.999,23)" id="g32">
      <path id="path34" style="fill: rgb(153, 37, 0); fill-opacity: 1; fill-rule: nonzero; stroke: none;" d="M 0,0 C -0.208,0 -0.419,0.065 -0.599,0.2 -1.041,0.531 -1.13,1.158 -0.799,1.6 2.002,5.334 6.519,4.056 8.516,2.857 8.989,2.573 9.143,1.959 8.858,1.485 8.575,1.012 7.962,0.857 7.488,1.142 7.31,1.248 3.214,3.617 0.801,0.4 0.604,0.138 0.304,0 0,0"></path>
    </g>
    <g transform="translate(30,21)" id="g36">
      <path id="path38" style="fill: rgb(153, 37, 0); fill-opacity: 1; fill-rule: nonzero; stroke: none;" d="m 0,0 c 0,0.552 -0.447,1 -1,1 l -7,0 c -0.553,0 -1,-0.448 -1,-1 0,-0.552 0.447,-1 1,-1 l 5.092,0 c 0.207,-0.581 0.756,-1 1.408,-1 0.828,0 1.5,0.671 1.5,1.5 0,0.11 -0.014,0.217 -0.036,0.321 C -0.024,-0.119 0,-0.063 0,0"></path>
    </g>
    <g transform="translate(17,21)" id="g40">
      <path id="path42" style="fill: rgb(153, 37, 0); fill-opacity: 1; fill-rule: nonzero; stroke: none;" d="m 0,0 c 0,0.552 -0.448,1 -1,1 l -7,0 c -0.552,0 -1,-0.448 -1,-1 0,-0.552 0.448,-1 1,-1 l 5.092,0 c 0.207,-0.581 0.756,-1 1.408,-1 0.828,0 1.5,0.671 1.5,1.5 0,0.11 -0.014,0.217 -0.036,0.321 C -0.025,-0.119 0,-0.063 0,0"></path>
    </g>
  </g>
</svg>