<?xml version="1.0" encoding="utf-8"?>
<!DOCTYPE svg PUBLIC "-//W3C//DTD SVG 1.1//EN" "http://www.w3.org/Graphics/SVG/1.1/DTD/svg11.dtd">
<!-- Clemoji 3.0: 1f61a.svg - licence GPLv3 or later - Author A-312 - https://zestedesavoir.com/ -->
<!-- Clemoji is based on Twemoji (CC BY 4.0 - https://github.com/twitter/twemoji) -->
<svg xmlns:dc="http://purl.org/dc/elements/1.1/" xmlns:cc="http://creativecommons.org/ns#" xmlns:rdf="http://www.w3.org/1999/02/22-rdf-syntax-ns#" xmlns:svg="http://www.w3.org/2000/svg" xmlns="http://www.w3.org/2000/svg" viewBox="0 0 42.5 63" style="enable-background: new 0 0 42.5 63" xml:space="preserve" version="1.1" id="clemoji3_1f61a" width="19px" height="27.8333px">
  <g transform="matrix(1.25,0,0,-1.25,-2.5,62.5)" id="g10">
    <g transform="translate(36,19)" id="g20">
      <path id="path22" style="fill: rgb(250, 172, 44); fill-opacity: 1; fill-rule: nonzero; stroke: none;" d="m 0,0 c 0,-9.389 -7.611,-17 -17,-17 -9.389,0 -17,7.611 -17,17 0,9.389 7.611,17 17,17 C -7.611,17 0,9.389 0,0"></path>
    </g>
    <g transform="translate(13,16)" id="g24">
      <path id="path26" style="fill:#ff7892;fill-opacity:1;fill-rule:nonzero;stroke:none" d="m 0,0 c 0,-2.762 -2.239,-5 -5,-5 -2.761,0 -5,2.238 -5,5 0,2.762 2.239,5 5,5 2.761,0 5,-2.238 5,-5"></path>
    </g>
    <g transform="translate(35,16)" id="g28">
      <path id="path30" style="fill:#ff7892;fill-opacity:1;fill-rule:nonzero;stroke:none" d="m 0,0 c 0,-2.762 -2.238,-5 -5,-5 -2.762,0 -5,2.238 -5,5 0,2.762 2.238,5 5,5 2.762,0 5,-2.238 5,-5"></path>
    </g>
    <g transform="translate(29.416,19.2773)" id="g32">
      <path id="path34" style="fill: rgb(153, 37, 0); fill-opacity: 1; fill-rule: nonzero; stroke: none;" d="m 0,0 c -0.061,0.091 -1.515,2.223 -4.416,2.223 -2.9,0 -4.355,-2.132 -4.416,-2.223 -0.135,-0.202 -0.104,-0.47 0.071,-0.638 0.174,-0.167 0.447,-0.184 0.643,-0.041 0.012,0.009 1.262,0.902 3.702,0.902 2.426,0 3.674,-0.882 3.702,-0.902 0.089,-0.066 0.194,-0.098 0.298,-0.098 0.124,0 0.248,0.046 0.344,0.136 C 0.105,-0.473 0.135,-0.203 0,0"></path>
    </g>
    <g transform="translate(13,21.5)" id="g36">
      <path id="path38" style="fill: rgb(153, 37, 0); fill-opacity: 1; fill-rule: nonzero; stroke: none;" d="M 0,0 C -2.9,0 -4.355,-2.132 -4.416,-2.223 -4.55,-2.424 -4.52,-2.692 -4.345,-2.86 -4.169,-3.027 -3.898,-3.045 -3.703,-2.902 -3.69,-2.893 -2.441,-2 0,-2 2.426,-2 3.674,-2.881 3.702,-2.901 3.791,-2.967 3.896,-3 4,-3 c 0.124,0 0.248,0.046 0.344,0.137 0.177,0.167 0.207,0.438 0.072,0.64 C 4.355,-2.132 2.901,0 0,0"></path>
    </g>
    <g transform="translate(22.8711,10)" id="g40">
      <path id="path42" style="fill: rgb(153, 37, 0); fill-opacity: 1; fill-rule: nonzero; stroke: none;" d="m 0,0 c 1.335,0.412 2.629,1.156 2.629,2.5 0,2.619 -4.912,2.968 -5.473,2.999 C -3.121,5.535 -3.354,5.305 -3.37,5.031 -3.387,4.758 -3.18,4.521 -2.906,4.501 -2.871,4.499 0.629,4.202 0.629,2.5 0.629,0.798 -2.871,0.501 -2.906,0.499 -2.916,0.498 -2.923,0.493 -2.933,0.492 -3.057,0.484 -3.163,0.427 -3.242,0.333 -3.247,0.327 -3.251,0.319 -3.257,0.312 -3.286,0.273 -3.311,0.234 -3.33,0.187 -3.341,0.16 -3.346,0.131 -3.352,0.102 -3.356,0.078 -3.368,0.056 -3.37,0.031 -3.371,0.021 -3.366,0.011 -3.366,0 c 0,-0.011 -0.005,-0.021 -0.004,-0.031 0.002,-0.026 0.013,-0.046 0.018,-0.071 0.006,-0.029 0.011,-0.058 0.023,-0.086 0.013,-0.033 0.032,-0.06 0.051,-0.088 0.016,-0.024 0.03,-0.047 0.049,-0.068 0.024,-0.024 0.052,-0.043 0.082,-0.062 0.023,-0.017 0.045,-0.033 0.071,-0.046 0.031,-0.015 0.065,-0.021 0.1,-0.027 0.024,-0.006 0.044,-0.018 0.07,-0.02 0.035,-0.002 3.535,-0.299 3.535,-2.001 0,-1.702 -3.5,-1.999 -3.535,-2.001 -0.274,-0.02 -0.481,-0.257 -0.464,-0.53 0.016,-0.265 0.236,-0.469 0.499,-0.469 0.009,0 0.019,0 0.027,0.001 0.561,0.031 5.473,0.38 5.473,2.999 0,1.344 -1.294,2.088 -2.629,2.5"></path>
    </g>
    <g transform="translate(32.001,21)" id="g44">
      <path id="path46" style="fill: rgb(153, 37, 0); fill-opacity: 1; fill-rule: nonzero; stroke: none;" d="M 0,0 C -0.305,0 -0.605,0.138 -0.801,0.4 -3.441,3.921 -6.862,3.999 -7.007,4 -7.557,4.006 -8.001,4.456 -7.998,5.005 -7.995,5.556 -7.551,6 -7.001,6 -6.817,6 -2.464,5.95 0.799,1.6 1.131,1.158 1.041,0.531 0.599,0.2 0.419,0.065 0.209,0 0,0"></path>
    </g>
    <g transform="translate(5.999,21)" id="g48">
      <path id="path50" style="fill: rgb(153, 37, 0); fill-opacity: 1; fill-rule: nonzero; stroke: none;" d="m 0,0 c -0.208,0 -0.419,0.065 -0.599,0.2 -0.442,0.331 -0.531,0.958 -0.2,1.4 3.262,4.35 7.616,4.4 7.8,4.4 0.552,0 1,-0.448 1,-1 C 8.001,4.449 7.556,4.002 7.005,4 6.85,3.998 3.437,3.914 0.801,0.4 0.604,0.138 0.304,0 0,0"></path>
    </g>
    <g id="gfeuille" transform="translate(113.91075,50.659)">
      <path id="path4138-2" fill="#479F00" d="M-80.758-0.674c-7.478-0.001-13.541-6.064-13.539-13.541c0.003-0.155,0.009-0.31,0.017-0.464c0.297-0.026,0.597-0.041,0.897-0.045c7.478-0.001,13.541,6.062,13.542,13.54c0,0.001,0,0.001,0,0.002c-0.005,0.154-0.009,0.308-0.017,0.462C-80.156-0.696-80.458-0.68-80.758-0.674L-80.758-0.674z"></path>
      <path id="path4138-2-5" fill="#479F00" d="M-106.123-3.933c5.744,0,10.4-4.658,10.4-10.402c-0.003-0.12-0.006-0.238-0.013-0.357c-0.23-0.02-0.461-0.03-0.691-0.034c-5.745-0.001-10.402,4.656-10.402,10.4c0,0.002,0,0.002,0,0.002c0.002,0.119,0.006,0.237,0.013,0.355C-106.584-3.949-106.355-3.937-106.123-3.933L-106.123-3.933z"></path>
    </g>
  </g>
</svg>