<?xml version="1.0" encoding="utf-8"?>
<!DOCTYPE svg PUBLIC "-//W3C//DTD SVG 1.1//EN" "http://www.w3.org/Graphics/SVG/1.1/DTD/svg11.dtd">
<!-- Clemoji 3.0: 1f62c.svg (1f62c v2) - licence GPLv3 or later - Author A-312 - https://zestedesavoir.com/ -->
<!-- Clemoji is based on Twemoji v2 (CC BY 4.0 - https://github.com/twitter/twemoji) -->
<svg version="1.1" id="clemoji3_1f62c" xmlns:dc="http://purl.org/dc/elements/1.1/" xmlns:cc="http://creativecommons.org/ns#" xmlns:rdf="http://www.w3.org/1999/02/22-rdf-syntax-ns#" xmlns:svg="http://www.w3.org/2000/svg" xmlns="http://www.w3.org/2000/svg" xmlns:xlink="http://www.w3.org/1999/xlink" x="0px" y="0px" width="19px" height="27.834px" viewBox="0 0 19 27.834" enable-background="new 0 0 19 27.834" xml:space="preserve">
<g id="g10" transform="matrix(1.25,0,0,-1.25,-2.5,62.5)">
  <g id="g20" transform="translate(36,19)">
    <path id="path22" fill="#FAAC2C" d="M-18.889,17.304c0-4.148-3.362-7.509-7.511-7.509c-4.148,0-7.511,3.362-7.511,7.509c0,4.148,3.363,7.511,7.511,7.511C-22.252,24.815-18.889,21.453-18.889,17.304"/>
  </g>
  <path id="g26" fill="#FFFFFF" d="M12.521,35.052c0.922,0,1.669-0.747,1.669-1.669s-0.747-1.669-1.669-1.669H6.679c-0.922,0-1.669,0.747-1.669,1.669s0.747,1.669,1.669,1.669H12.521z"/>
  <path id="g24" fill="#992500" d="M12.521,35.47H6.679c-1.15,0-2.086-0.936-2.086-2.086c0-1.15,0.936-2.086,2.086-2.086h5.842c1.15,0,2.086,0.936,2.086,2.086C14.607,34.534,13.671,35.47,12.521,35.47z M12.521,34.635c0.619,0,1.13-0.452,1.23-1.044h-1.439v1.044H12.521z M11.895,34.635v-1.044h-1.252v1.044H11.895z M10.226,34.635v-1.044H8.974v1.044H10.226z M8.557,34.635v-1.044H7.305v1.044H8.557z M6.679,34.635h0.209v-1.044H5.448C5.548,34.184,6.06,34.635,6.679,34.635z M6.679,32.132c-0.619,0-1.131,0.452-1.231,1.042h1.439v-1.042H6.679z M7.305,32.132v1.042h1.252v-1.042H7.305z M8.974,32.132v1.042h1.252v-1.042H8.974z M10.643,32.132v1.042h1.252v-1.042H10.643z M12.521,32.132h-0.209v1.042h1.439C13.652,32.584,13.14,32.132,12.521,32.132z"/>
  <g id="g40" transform="translate(15,23)">
    <path id="path42" fill="#992500" d="M-7.167,15.071c0-0.732-0.424-1.325-0.947-1.325c-0.523,0-0.946,0.593-0.946,1.325c0,0.732,0.423,1.326,0.946,1.326C-7.591,16.397-7.167,15.803-7.167,15.071"/>
  </g>
  <g id="g44" transform="translate(27,23.2002)">
    <path id="path46" fill="#992500" d="M-13.866,14.959c0-0.683-0.395-1.237-0.884-1.237s-0.884,0.554-0.884,1.237c0,0.684,0.395,1.238,0.884,1.238S-13.866,15.643-13.866,14.959"/>
  </g>
  <g id="gfeuille" transform="translate(113.91075,50.659)">
    <path id="path41" fill="#479F00" d="M-98.058-0.666c-3.305,0-5.983-2.679-5.982-5.982c0.002-0.069,0.004-0.137,0.007-0.205c0.131-0.011,0.264-0.018,0.396-0.02c3.305-0.001,5.983,2.678,5.983,5.982c0,0,0,0,0,0.001c-0.002,0.068-0.003,0.136-0.008,0.204C-97.792-0.675-97.926-0.668-98.058-0.666L-98.058-0.666z"/>
    <path id="path41-2" fill="#479F00" d="M-109.264-2.106c2.538,0,4.595-2.058,4.595-4.595c-0.001-0.053-0.002-0.105-0.005-0.158c-0.102-0.009-0.204-0.013-0.305-0.015c-2.538-0.001-4.596,2.057-4.596,4.595c0,0.001,0,0.001,0,0.001c0.001,0.052,0.003,0.105,0.006,0.157C-109.468-2.113-109.367-2.107-109.264-2.106L-109.264-2.106z"/>
  </g>
</g>
</svg>
