<?xml version="1.0" encoding="utf-8"?>
<!DOCTYPE svg PUBLIC "-//W3C//DTD SVG 1.1//EN" "http://www.w3.org/Graphics/SVG/1.1/DTD/svg11.dtd">
<!-- Clemoji 3.0: 1f637.svg - licence GPLv3 or later - Author A-312 - https://zestedesavoir.com/ -->
<!-- Clemoji is based on Twemoji (CC BY 4.0 - https://github.com/twitter/twemoji) -->
<svg xmlns:dc="http://purl.org/dc/elements/1.1/" xmlns:cc="http://creativecommons.org/ns#" xmlns:rdf="http://www.w3.org/1999/02/22-rdf-syntax-ns#" xmlns:svg="http://www.w3.org/2000/svg" xmlns="http://www.w3.org/2000/svg" viewBox="0 0 42.5 63" style="enable-background: new 0 0 42.5 63" xml:space="preserve" version="1.1" id="clemoji3_1f637" width="19px" height="27.8333px">
  <g transform="matrix(1.25,0,0,-1.25,-2.5,62.5)" id="g10">
    <g transform="translate(36,19)" id="g20">
      <path id="path22" style="fill: rgb(250, 172, 44); fill-opacity: 1; fill-rule: nonzero; stroke: none;" d="m 0,0 c 0,-9.389 -7.611,-17 -17,-17 -9.388,0 -17,7.611 -17,17 0,9.388 7.612,17 17,17 C -7.611,17 0,9.388 0,0"></path>
    </g>
    <g transform="translate(8.001,22)" id="g24">
      <path id="path26" style="fill: rgb(153, 37, 0); fill-opacity: 1; fill-rule: nonzero; stroke: none;" d="M 0,0 C -0.323,0 -0.64,0.156 -0.833,0.445 -1.139,0.905 -1.015,1.526 -0.556,1.832 -0.423,1.92 2.745,4 6.999,4 c 0.552,0 1,-0.448 1,-1 0,-0.552 -0.448,-1 -1,-1 C 3.344,2 0.581,0.186 0.554,0.168 0.383,0.054 0.19,0 0,0"></path>
    </g>
    <g transform="translate(29.999,22)" id="g28">
      <path id="path30" style="fill: rgb(153, 37, 0); fill-opacity: 1; fill-rule: nonzero; stroke: none;" d="M 0,0 C -0.189,0 -0.382,0.054 -0.552,0.167 -0.58,0.185 -3.371,2 -6.999,2 c -0.553,0 -1,0.448 -1,1 0,0.552 0.447,1 1,1 C -2.745,4 0.423,1.92 0.556,1.832 1.016,1.526 1.14,0.905 0.833,0.445 0.641,0.156 0.323,0 0,0"></path>
    </g>
    <g transform="translate(2.0235,18.5348)" id="g32">
      <path id="path34" style="fill:#f5f8fa;fill-opacity:1;fill-rule:nonzero;stroke:none" d="m 0,0 7.977,-3.626 0,-4.546 -6.238,1.135 c 0.386,-0.782 0.822,-1.532 1.318,-2.24 l 4.92,-0.895 0,-1.363 c 0,-1.104 0.895,-2 2,-2 l 14,0 c 1.104,0 2,0.896 2,2 l 0,1.363 4.919,0.895 c 0.497,0.708 0.933,1.458 1.318,2.24 l -6.237,-1.135 0,4.546 L 33.953,0 c 0.004,0.156 0.024,0.308 0.024,0.465 0,0.51 -0.033,1.012 -0.077,1.511 l -7.923,-3.602 0,1.091 c 0,1.105 -0.896,2 -2,2 l -14,0 c -1.105,0 -2,-0.895 -2,-2 l 0,-1.091 -7.924,3.602 C 0.009,1.477 -0.023,0.975 -0.023,0.465 -0.023,0.308 -0.004,0.156 0,0"></path>
    </g>
    <g id="gfeuille" transform="translate(113.91075,50.659)">
      <path id="path4138-2" fill="#479F00" d="M-80.758-0.674c-7.478-0.001-13.541-6.064-13.539-13.541c0.003-0.155,0.009-0.31,0.017-0.464c0.297-0.026,0.597-0.041,0.897-0.045c7.478-0.001,13.541,6.062,13.542,13.54c0,0.001,0,0.001,0,0.002c-0.005,0.154-0.009,0.308-0.017,0.462C-80.156-0.696-80.458-0.68-80.758-0.674L-80.758-0.674z"></path>
      <path id="path4138-2-5" fill="#479F00" d="M-106.123-3.933c5.744,0,10.4-4.658,10.4-10.402c-0.003-0.12-0.006-0.238-0.013-0.357c-0.23-0.02-0.461-0.03-0.691-0.034c-5.745-0.001-10.402,4.656-10.402,10.4c0,0.002,0,0.002,0,0.002c0.002,0.119,0.006,0.237,0.013,0.355C-106.584-3.949-106.355-3.937-106.123-3.933L-106.123-3.933z"></path>
    </g>
  </g>
</svg>