<?xml version="1.0" encoding="utf-8"?>
<!DOCTYPE svg PUBLIC "-//W3C//DTD SVG 1.1//EN" "http://www.w3.org/Graphics/SVG/1.1/DTD/svg11.dtd">
<!-- Clemoji 3.0: 1f631.svg - licence GPLv3 or later - Author A-312 - https://zestedesavoir.com/ -->
<!-- Clemoji is based on Twemoji (CC BY 4.0 - https://github.com/twitter/twemoji) -->
<svg xmlns:dc="http://purl.org/dc/elements/1.1/" xmlns:cc="http://creativecommons.org/ns#" xmlns:rdf="http://www.w3.org/1999/02/22-rdf-syntax-ns#" xmlns:svg="http://www.w3.org/2000/svg" xmlns="http://www.w3.org/2000/svg" viewBox="0 0 42.5 63" style="enable-background: new 0 0 42.5 63" xml:space="preserve" version="1.1" id="clemoji3_1f631" width="19px" height="27.8333px">
  <g transform="matrix(1.25,0,0,-1.25,-2.5,62.5)" id="g10">
    <g transform="translate(19,36)" id="g20">
      <path id="path22" style="fill: rgb(250, 172, 44); fill-opacity: 1; fill-rule: nonzero; stroke: none;" d="m 0,0 c -9.388,0 -17,-7.612 -17,-17 0,-5.715 2.829,-10.759 7.153,-13.841 0.098,6.081 -2.112,12.897 -5.827,12.897 -0.438,0 -0.793,-0.063 -1.089,-0.173 0.286,0.714 0.907,1.117 2.068,1.117 4.032,0 6.295,-8.034 5.754,-14.439 C -6.341,-33.053 -3.285,-34 0,-34 c 3.285,0 6.343,0.948 8.944,2.562 -0.545,6.429 1.717,14.438 5.752,14.438 1.165,0 1.787,-0.402 2.071,-1.117 -0.296,0.11 -0.652,0.173 -1.093,0.173 -3.719,0 -5.93,-6.8 -5.827,-12.897 C 14.171,-27.759 17,-22.715 17,-17 17,-7.612 9.389,0 0,0"></path>
    </g>
    <g transform="translate(19,36)" id="g24">
      <path id="path26" style="fill:#bdddf4;fill-opacity:1;fill-rule:nonzero;stroke:none" d="m 0,0 c -9.388,0 -17,-7.612 -17,-17 0,-1.126 0.116,-2.225 0.325,-3.291 0.221,0.816 0.566,1.598 0.999,2.347 -0.437,0 -0.791,-0.063 -1.087,-0.173 0.25,0.623 0.777,0.99 1.67,1.078 2.826,3.947 8.516,6.65 15.093,6.65 6.577,0 12.267,-2.702 15.093,-6.649 0.897,-0.088 1.426,-0.455 1.674,-1.079 -0.296,0.11 -0.651,0.173 -1.091,0.173 0.433,-0.749 0.778,-1.531 0.999,-2.347 C 16.885,-19.225 17,-18.126 17,-17 17,-7.612 9.389,0 0,0"></path>
    </g>
    <g transform="translate(8.3472,25.0898)" id="g28">
      <path id="path30" style="fill:#f5f8fa;fill-opacity:1;fill-rule:nonzero;stroke:none" d="M 0,0 C -0.946,-3.176 0.107,-6.293 2.353,-6.962 4.599,-7.632 7.187,-5.6 8.132,-2.424 9.078,0.751 8.025,3.869 5.781,4.538 3.535,5.207 0.947,3.175 0,0"></path>
    </g>
    <g transform="translate(29.6523,25.0898)" id="g32">
      <path id="path34" style="fill:#f5f8fa;fill-opacity:1;fill-rule:nonzero;stroke:none" d="m 0,0 c 0.946,-3.176 -0.107,-6.293 -2.352,-6.962 -2.247,-0.67 -4.834,1.362 -5.78,4.538 -0.946,3.175 0.107,6.293 2.351,6.962 C -3.535,5.207 -0.947,3.175 0,0"></path>
    </g>
    <g transform="translate(19,19)" id="g36">
      <path id="path38" style="fill: rgb(153, 37, 0); fill-opacity: 1; fill-rule: nonzero; stroke: none;" d="m 0,0 c -2.757,0 -5,-2.243 -5,-5 l 0,-6 c 0,-2.757 2.243,-5 5,-5 2.757,0 5,2.243 5,5 l 0,6 C 5,-2.243 2.757,0 0,0"></path>
    </g>
    <g transform="translate(3.3263,18.0556)" id="g40">
      <path id="path42" style="fill: rgb(71, 159, 0); fill-opacity: 1; fill-rule: nonzero; stroke: none;" d="m 0,0 c -0.439,0 -0.793,-0.063 -1.089,-0.172 0.068,0.168 0.157,0.317 0.265,0.45 -1.758,-2.165 2.188,-9.288 0.271,-16.334 l 6.101,0 C 6.671,-9.482 4.381,0 0,0"></path>
    </g>
    <g transform="translate(35.7666,17.8831)" id="g44">
      <path id="path46" style="fill: rgb(71, 159, 0); fill-opacity: 1; fill-rule: nonzero; stroke: none;" d="m 0,0 c -0.296,0.11 -0.652,0.172 -1.093,0.172 -4.383,0 -6.673,-9.446 -5.547,-16.055 l 6.101,0 C -2.338,-9.23 1.026,-2.577 0,0"></path>
    </g>
    <g id="gfeuille" transform="translate(113.91075,50.659)">
      <path id="path4138-2" fill="#479F00" d="M-80.758-0.674c-7.478-0.001-13.541-6.064-13.539-13.541c0.003-0.155,0.009-0.31,0.017-0.464c0.297-0.026,0.597-0.041,0.897-0.045c7.478-0.001,13.541,6.062,13.542,13.54c0,0.001,0,0.001,0,0.002c-0.005,0.154-0.009,0.308-0.017,0.462C-80.156-0.696-80.458-0.68-80.758-0.674L-80.758-0.674z"></path>
      <path id="path4138-2-5" fill="#479F00" d="M-106.123-3.933c5.744,0,10.4-4.658,10.4-10.402c-0.003-0.12-0.006-0.238-0.013-0.357c-0.23-0.02-0.461-0.03-0.691-0.034c-5.745-0.001-10.402,4.656-10.402,10.4c0,0.002,0,0.002,0,0.002c0.002,0.119,0.006,0.237,0.013,0.355C-106.584-3.949-106.355-3.937-106.123-3.933L-106.123-3.933z"></path>
    </g>
  </g>
</svg>