<?xml version="1.0" encoding="utf-8"?>
<!DOCTYPE svg PUBLIC "-//W3C//DTD SVG 1.1//EN" "http://www.w3.org/Graphics/SVG/1.1/DTD/svg11.dtd">
<!-- Clemoji 3.0: 1f634.svg - licence GPLv3 or later - Author A-312 - https://zestedesavoir.com/ -->
<!-- Clemoji is based on Twemoji (CC BY 4.0 - https://github.com/twitter/twemoji) -->
<svg xmlns:dc="http://purl.org/dc/elements/1.1/" xmlns:cc="http://creativecommons.org/ns#" xmlns:rdf="http://www.w3.org/1999/02/22-rdf-syntax-ns#" xmlns:svg="http://www.w3.org/2000/svg" xmlns="http://www.w3.org/2000/svg" viewBox="0 0 42.5 63" style="enable-background: new 0 0 42.5 63" xml:space="preserve" version="1.1" id="clemoji3_1f634" width="19px" height="27.8333px">
  <g transform="matrix(1.25,0,0,-1.25,-2.5,62.5)" id="g10">
    <g transform="translate(36,19)" id="g20">
      <path id="path22" style="fill: rgb(250, 172, 44); fill-opacity: 1; fill-rule: nonzero; stroke: none;" d="m 0,0 c 0,-9.389 -7.611,-17 -17,-17 -9.388,0 -17,7.611 -17,17 0,9.388 7.612,17 17,17 C -7.611,17 0,9.388 0,0"></path>
    </g>
    <g transform="translate(22,11)" id="g24">
      <path id="path26" style="fill: rgb(153, 37, 0); fill-opacity: 1; fill-rule: nonzero; stroke: none;" d="m 0,0 c 0,-1.657 -1.343,-3 -3,-3 -1.657,0 -3,1.343 -3,3 0,1.656 1.343,3 3,3 1.657,0 3,-1.344 3,-3"></path>
    </g>
    <g transform="translate(18.3125,20.3882)" id="g28">
      <path id="path30" style="fill: rgb(153, 37, 0); fill-opacity: 1; fill-rule: nonzero; stroke: none;" d="m 0,0 c -0.176,0.143 -0.427,0.147 -0.61,0.014 -0.013,-0.01 -1.261,-0.902 -3.702,-0.902 -2.441,0 -3.69,0.892 -3.701,0.9 -0.182,0.136 -0.434,0.133 -0.611,-0.009 -0.178,-0.142 -0.238,-0.386 -0.146,-0.594 0.061,-0.135 1.5,-3.297 4.458,-3.297 2.958,0 4.397,3.162 4.457,3.297 C 0.236,-0.384 0.176,-0.142 0,0"></path>
    </g>
    <g transform="translate(28.3125,20.3882)" id="g32">
      <path id="path34" style="fill: rgb(153, 37, 0); fill-opacity: 1; fill-rule: nonzero; stroke: none;" d="m 0,0 c -0.176,0.143 -0.426,0.148 -0.61,0.014 -0.012,-0.01 -1.261,-0.902 -3.702,-0.902 -2.441,0 -3.691,0.892 -3.701,0.9 -0.182,0.136 -0.433,0.133 -0.611,-0.009 -0.178,-0.142 -0.238,-0.386 -0.146,-0.594 0.06,-0.135 1.5,-3.297 4.458,-3.297 2.958,0 4.397,3.162 4.457,3.297 C 0.236,-0.384 0.177,-0.142 0,0"></path>
    </g>
    <g transform="translate(16.9985,31.8691)" id="g36">
      <path id="path38" style="fill:#2a6797;fill-opacity:1;fill-rule:nonzero;stroke:none" d="m 0,0 -2.003,0 c -0.432,0 -0.78,0.276 -0.78,0.756 0,0.479 0.348,0.755 0.78,0.755 l 3.922,0 c 0.156,0 0.563,-0.071 0.563,-0.539 0,-0.228 -0.047,-0.336 -0.179,-0.516 l -2.723,-3.814 2.279,0 c 0.432,0 0.779,-0.276 0.779,-0.756 0,-0.479 -0.347,-0.755 -0.779,-0.755 l -4.018,0 c -0.384,0 -0.708,0.192 -0.708,0.588 0,0.192 0.096,0.371 0.156,0.468 L 0,0 Z"></path>
    </g>
    <g transform="translate(24.502,34.687)" id="g40">
      <path id="path42" style="fill:#2a6797;fill-opacity:1;fill-rule:nonzero;stroke:none" d="m 0,0 -2.34,0 c -0.504,0 -0.91,0.322 -0.91,0.882 0,0.561 0.406,0.883 0.91,0.883 l 4.58,0 C 2.424,1.765 2.9,1.681 2.9,1.135 2.9,0.869 2.844,0.743 2.689,0.532 l -3.179,-4.454 2.662,0 c 0.504,0 0.91,-0.322 0.91,-0.883 0,-0.56 -0.406,-0.882 -0.91,-0.882 l -4.693,0 c -0.449,0 -0.827,0.224 -0.827,0.687 0,0.224 0.112,0.434 0.182,0.545 L 0,0 Z"></path>
    </g>
    <g transform="translate(32.502,31.3101)" id="g44">
      <path id="path46" style="fill:#2a6797;fill-opacity:1;fill-rule:nonzero;stroke:none" d="m 0,0 -3.008,0 c -0.648,0 -1.17,0.414 -1.17,1.134 0,0.72 0.522,1.135 1.17,1.135 l 5.889,0 c 0.234,0 0.846,-0.108 0.846,-0.811 0,-0.341 -0.073,-0.504 -0.27,-0.774 l -4.088,-5.726 3.422,0 c 0.647,0 1.17,-0.414 1.17,-1.134 0,-0.72 -0.523,-1.134 -1.17,-1.134 l -6.033,0 c -0.576,0 -1.062,0.288 -1.062,0.882 0,0.288 0.144,0.558 0.234,0.702 L 0,0 Z"></path>
    </g>
    <g id="gfeuille" transform="translate(113.91075,50.659)">
      <path id="path4138-2" fill="#479F00" d="M-80.758-0.674c-7.478-0.001-13.541-6.064-13.539-13.541c0.003-0.155,0.009-0.31,0.017-0.464c0.297-0.026,0.597-0.041,0.897-0.045c7.478-0.001,13.541,6.062,13.542,13.54c0,0.001,0,0.001,0,0.002c-0.005,0.154-0.009,0.308-0.017,0.462C-80.156-0.696-80.458-0.68-80.758-0.674L-80.758-0.674z"></path>
      <path id="path4138-2-5" fill="#479F00" d="M-106.123-3.933c5.744,0,10.4-4.658,10.4-10.402c-0.003-0.12-0.006-0.238-0.013-0.357c-0.23-0.02-0.461-0.03-0.691-0.034c-5.745-0.001-10.402,4.656-10.402,10.4c0,0.002,0,0.002,0,0.002c0.002,0.119,0.006,0.237,0.013,0.355C-106.584-3.949-106.355-3.937-106.123-3.933L-106.123-3.933z"></path>
    </g>
  </g>
</svg>