<?xml version="1.0" encoding="utf-8"?>
<!DOCTYPE svg PUBLIC "-//W3C//DTD SVG 1.1//EN" "http://www.w3.org/Graphics/SVG/1.1/DTD/svg11.dtd">
<!-- Clemoji 3.0: 1f644.svg - licence GPLv3 or later - Author A-312 - https://zestedesavoir.com/ -->
<!-- Clemoji is based on Twemoji (CC BY 4.0 - https://github.com/twitter/twemoji) -->
<svg xmlns="http://www.w3.org/2000/svg" viewBox="0 0 33 47.25" id="clemoji3_1f644" style="enable-background: new 0 0 33 47.25" width="19px" height="27.05px">
  <g id="g10" transform="matrix(0.895,0,0,0.895,0,12.6)">
    <g id="gfeuille" transform="matrix(1.03,0,0,-1.03,-1.7,-20) translate(0,-54.049)">
      <path id="path4138-2" fill="#479F00" d="M35.842,42.028c-7.072,2.898-15.156-0.481-18.056-7.555c-0.056-0.147-0.112-0.295-0.166-0.445c0.273-0.141,0.552-0.27,0.833-0.391c7.072-2.902,15.156,0.48,18.056,7.552c0.002,0,0.002,0,0.002,0.002c0.058,0.147,0.112,0.295,0.164,0.444C36.402,41.775,36.123,41.906,35.842,42.028L35.842,42.028z"></path>
      <path id="path4138-2-5" fill="#479F00" d="M5.883,38.317c5.113,2.886,11.597,1.081,14.484-4.03c0.058-0.106,0.112-0.214,0.167-0.325c-0.195-0.131-0.394-0.258-0.597-0.377c-5.111-2.888-11.596-1.084-14.482,4.03c-0.002,0-0.002,0-0.002,0c-0.058,0.106-0.112,0.214-0.166,0.322C5.482,38.07,5.68,38.197,5.883,38.317z"></path>
    </g>
    <circle fill="#FAAC2C" cx="18" cy="18" r="18"></circle>
    <circle fill="#F4F7F9" cx="24.5" cy="13.5" r="5.5"></circle>
    <circle fill="#F4F7F9" cx="11.5" cy="13.5" r="5.5"></circle>
    <path fill="#992500" d="M23.109 23.424c-2.763-.667-8.873-.06-11.162 4.405-.082.158-.04.353.1.464.068.055.151.082.234.082.085 0 .171-.029.241-.087 3.084-2.58 7.436-2.58 10.036-2.58 1.635 0 2.536 0 2.536-.708s-.705-1.268-1.985-1.576zM10.5 13c1.381 0 2.5-1.119 2.5-2.5 0-1.252-.923-2.28-2.124-2.462-.79.089-1.526.348-2.178.736C8.268 9.223 8 9.829 8 10.5c0 1.381 1.119 2.5 2.5 2.5zm13 0c1.381 0 2.5-1.119 2.5-2.5 0-1.252-.923-2.28-2.124-2.462-.789.089-1.526.348-2.177.736C21.268 9.223 21 9.829 21 10.5c0 1.381 1.119 2.5 2.5 2.5z"></path>
  </g>
</svg>