<?xml version="1.0" encoding="utf-8"?>
<!DOCTYPE svg PUBLIC "-//W3C//DTD SVG 1.1//EN" "http://www.w3.org/Graphics/SVG/1.1/DTD/svg11.dtd">
<!-- Clemoji 3.0: 1f910.svg - licence GPLv3 or later - Author A-312 - https://zestedesavoir.com/ -->
<!-- Clemoji is based on Twemoji (CC BY 4.0 - https://github.com/twitter/twemoji) -->
<svg xmlns="http://www.w3.org/2000/svg" viewBox="0 0 33 47.25" id="clemoji3_1f910" style="enable-background: new 0 0 33 47.25" width="19px" height="27.05px">
  <g id="g10" transform="matrix(0.895,0,0,0.895,0,12.6)">
    <circle fill="#FAAC2C" cx="18" cy="18" r="18"></circle>
    <path fill="#992500" d="M14.034 14.499c0 1.934-1.119 3.5-2.5 3.5s-2.5-1.566-2.5-3.5c0-1.933 1.119-3.5 2.5-3.5s2.5 1.567 2.5 3.5m13 0c0 1.934-1.119 3.5-2.5 3.5s-2.5-1.566-2.5-3.5c0-1.933 1.119-3.5 2.5-3.5s2.5 1.567 2.5 3.5m-2.033 12.505H10c-1 0-1-1-1-1v-1s0-1.003 1-1.003l15.001.003v3z"></path>
    <path fill="#99AAB5" d="M35.255 26.084l-7.713-2.121c-.72-.197-1.049.287-1.171.547l-1.64-.784L24 25.255v-2.254h-2v2h-2v-2h-2.001v2H16v-2h-2v2h-2v-2h-2v3h2v2h2v-2h1.999v2h2v-2H20v2h2v-2h1.643l-.58 1.212 1.648.788-.099.207s-.248.737.373 1.275c.621.537 5.285 4.735 5.285 4.735s.899.866 1.769.079c.738-.67 3.649-6.02 3.914-6.983.266-.964-.698-1.23-.698-1.23zm-3.772 6.071l-2.644-2.248 1.614-3.069 3.338 1.132-2.308 4.185z"></path>
    <g id="gfeuille" transform="matrix(1,0,0,-1,-1.19,-18) translate(113.91075,-3.4)">
      <path id="path4138-2" fill="#479F00" d="M-80.758-0.674c-7.478-0.001-13.541-6.064-13.539-13.541c0.003-0.155,0.009-0.31,0.017-0.464c0.297-0.026,0.597-0.041,0.897-0.045c7.478-0.001,13.541,6.062,13.542,13.54c0,0.001,0,0.001,0,0.002c-0.005,0.154-0.009,0.308-0.017,0.462C-80.156-0.696-80.458-0.68-80.758-0.674L-80.758-0.674z"></path>
      <path id="path4138-2-5" fill="#479F00" d="M-106.123-3.933c5.744,0,10.4-4.658,10.4-10.402c-0.003-0.12-0.006-0.238-0.013-0.357c-0.23-0.02-0.461-0.03-0.691-0.034c-5.745-0.001-10.402,4.656-10.402,10.4c0,0.002,0,0.002,0,0.002c0.002,0.119,0.006,0.237,0.013,0.355C-106.584-3.949-106.355-3.937-106.123-3.933L-106.123-3.933z"></path>
    </g>
  </g>
</svg>