<?xml version="1.0" encoding="utf-8"?>
<!DOCTYPE svg PUBLIC "-//W3C//DTD SVG 1.1//EN" "http://www.w3.org/Graphics/SVG/1.1/DTD/svg11.dtd">
<!-- Clemoji 3.0: 1f92b.svg - licence GPLv3 or later - Author A-312 - https://zestedesavoir.com/ -->
<!-- Clemoji is based on Twemoji (CC BY 4.0 - https://github.com/twitter/twemoji) -->
<svg xmlns="http://www.w3.org/2000/svg" viewBox="0 0 33 47.25" id="clemoji3_1f92b" style="enable-background: new 0 0 33 47.25" width="19px" height="27.05px">
  <g id="g10" transform="matrix(0.895,0,0,0.895,0,12.6)">
    <path fill="#FAAC2C" d="M35 17c0 9.389-7.611 17-17 17S1 26.389 1 17 8.611 0 18 0s17 7.611 17 17"></path>
    <ellipse fill="#992500" cx="17.812" cy="23.125" rx="4.062" ry="1.93"></ellipse>
    <path fill="#479F00" d="M25.35 25.981l-.033-.02c-.839-.515-1.947-.25-2.462.589l-.151.245c-.542-.562-1.25-.974-2.068-1.141l-1.399-.286 1.272-6.224c.197-.965-.431-1.915-1.395-2.112l-.038-.008c-.965-.197-1.915.431-2.112 1.395l-1.673 8.183-.015.074-.313 1.531-.001.01-1.128 5.533c-.22 1.078.27 2.25 1.895 2.25H19c2.804 0 3.635-1.01 4.198-3.093l2.741-4.463c.514-.839.25-1.947-.589-2.463z"></path>
    <path fill="#992500" d="M22.409 30.743zm-3.259 4.73zm-4.928-22.251c0 1.391-.846 2.519-1.889 2.519-1.043 0-1.889-1.127-1.889-2.519 0-1.391.845-2.519 1.889-2.519 1.043.001 1.889 1.128 1.889 2.519zm15.664-2.951c.222 0 .445-.069.637-.213.47-.352.564-1.018.212-1.487-3.466-4.622-8.092-4.675-8.287-4.675-.587 0-1.062.476-1.062 1.063 0 .585.473 1.06 1.058 1.062.166.002 3.792.091 6.592 3.825.208.278.527.425.85.425zm-8.108 2.951c0 1.391.846 2.519 1.889 2.519 1.043 0 1.889-1.127 1.889-2.519 0-1.391-.845-2.519-1.889-2.519-1.044.001-1.889 1.128-1.889 2.519zM6.114 10.271c-.222 0-.445-.069-.637-.213-.469-.352-.564-1.018-.212-1.487 3.466-4.622 8.092-4.675 8.287-4.675.587 0 1.062.476 1.062 1.063 0 .585-.473 1.06-1.058 1.062-.166.002-3.792.091-6.592 3.825-.208.278-.527.425-.85.425z"></path>
    <g id="gfeuille" transform="matrix(1,0,0,-1,-1.19,-18) translate(113.91075,-3.4)">
      <path id="path4138-2" fill="#479F00" d="M-80.758-0.674c-7.478-0.001-13.541-6.064-13.539-13.541c0.003-0.155,0.009-0.31,0.017-0.464c0.297-0.026,0.597-0.041,0.897-0.045c7.478-0.001,13.541,6.062,13.542,13.54c0,0.001,0,0.001,0,0.002c-0.005,0.154-0.009,0.308-0.017,0.462C-80.156-0.696-80.458-0.68-80.758-0.674L-80.758-0.674z"></path>
      <path id="path4138-2-5" fill="#479F00" d="M-106.123-3.933c5.744,0,10.4-4.658,10.4-10.402c-0.003-0.12-0.006-0.238-0.013-0.357c-0.23-0.02-0.461-0.03-0.691-0.034c-5.745-0.001-10.402,4.656-10.402,10.4c0,0.002,0,0.002,0,0.002c0.002,0.119,0.006,0.237,0.013,0.355C-106.584-3.949-106.355-3.937-106.123-3.933L-106.123-3.933z"></path>
    </g>

    <path fill="#3E721D" d="M22.409 30.743c-.02 0-.042-.002-.064-.006-.184-.034-.305-.212-.269-.397.059-.312-.002-.587-.187-.839-.59-.808-2.289-1.175-2.894-1.248-.186-.022-.319-.192-.296-.377.022-.186.184-.321.377-.296.101.011 2.474.31 3.36 1.521.298.407.401.868.306 1.368-.031.161-.173.274-.333.274zm-3.259 4.73c-.253 0-.53-.031-.833-.102-.61-.144-1.04-.499-1.18-.975-.118-.401-.01-.825.289-1.135.388-.402 1.003-.534 1.695-.358.181.046.291.231.245.413-.046.18-.229.291-.413.245-.445-.114-.825-.05-1.038.171-.128.132-.175.309-.127.473.069.236.319.421.685.506 1.18.277 1.833-.186 2.174-.625.508-.653.568-1.538.387-1.885-.422-.812-2.049-.992-2.64-.993-.187 0-.339-.152-.339-.339 0-.187.152-.339.339-.339.103 0 2.542.015 3.242 1.359.305.585.218 1.751-.454 2.614-.308.394-.943.97-2.032.97z"></path>
  </g>
</svg>