<?xml version="1.0" encoding="utf-8"?>
<!DOCTYPE svg PUBLIC "-//W3C//DTD SVG 1.1//EN" "http://www.w3.org/Graphics/SVG/1.1/DTD/svg11.dtd">
<!-- Clemoji 3.0: 1f92d.svg - licence GPLv3 or later - Author A-312 - https://zestedesavoir.com/ -->
<!-- Clemoji is based on Twemoji (CC BY 4.0 - https://github.com/twitter/twemoji) -->
<svg xmlns="http://www.w3.org/2000/svg" viewBox="0 0 33 47.25" id="clemoji3_1f92d" style="enable-background: new 0 0 33 47.25" width="19px" height="27.05px">
  <g id="g10" transform="matrix(0.895,0,0,0.895,0,12.6)">
    <path fill="#FAAC2C" d="M35 17c0 9.389-7.611 17-17 17-9.388 0-17-7.611-17-17C1 7.612 8.612 0 18 0c9.389 0 17 7.612 17 17"></path>
    <path fill="#992500" d="M28.457 14.297C28.397 14.162 26.958 11 24 11c-2.957 0-4.397 3.162-4.457 3.297-.092.207-.032.449.145.591.175.142.426.147.61.014C20.31 14.893 21.56 14 24 14c2.426 0 3.674.881 3.702.901.088.066.194.099.298.099.11 0 .221-.037.312-.109.177-.142.238-.386.145-.594zm-12 0C16.397 14.162 14.958 11 12 11c-2.957 0-4.397 3.162-4.457 3.297-.092.207-.032.449.144.591.176.142.427.147.61.014C8.31 14.893 9.559 14 12 14c2.426 0 3.674.881 3.702.901.088.066.194.099.298.099.11 0 .221-.037.312-.109.178-.142.237-.386.145-.594z"></path>
    <path fill="#479F00" d="M26.503 27.371s.997-.721.165-1.614c-.832-.893-1.621.052-1.621.052L20.9 29.675c-.069-.205-.459-.743-.55-.947l5.755-5.366s.998-.721.164-1.615c-.832-.892-1.622.051-1.622.051l-5.413 5.046c-.125-.158-.461-.54-.594-.698l6.276-5.85s.997-.722.164-1.614c-.832-.893-1.621.051-1.621.051l-6.278 5.848c-.15-.145-.612-.609-.764-.746l5.866-5.468s.996-.722.164-1.614c-.833-.893-1.621.051-1.621.051l-6.203 5.781-.497.464-.222.207s-.538.744-1.087.179l1.842-4.158s.58-1.074-.493-1.655c-1.075-.581-1.655.493-1.655.493l-1.668 2.758c-.663 1.093-1.349 2.178-2.159 3.167-2.284 2.793-2.211 6.914.318 9.629 2.759 2.959 7.396 3.122 10.355.364l.447-.418 6.699-6.244z"></path>
    <g id="gfeuille" transform="matrix(1,0,0,-1,-1.19,-18) translate(113.91075,-3.4)">
      <path id="path4138-2" fill="#479F00" d="M-80.758-0.674c-7.478-0.001-13.541-6.064-13.539-13.541c0.003-0.155,0.009-0.31,0.017-0.464c0.297-0.026,0.597-0.041,0.897-0.045c7.478-0.001,13.541,6.062,13.542,13.54c0,0.001,0,0.001,0,0.002c-0.005,0.154-0.009,0.308-0.017,0.462C-80.156-0.696-80.458-0.68-80.758-0.674L-80.758-0.674z"></path>
      <path id="path4138-2-5" fill="#479F00" d="M-106.123-3.933c5.744,0,10.4-4.658,10.4-10.402c-0.003-0.12-0.006-0.238-0.013-0.357c-0.23-0.02-0.461-0.03-0.691-0.034c-5.745-0.001-10.402,4.656-10.402,10.4c0,0.002,0,0.002,0,0.002c0.002,0.119,0.006,0.237,0.013,0.355C-106.584-3.949-106.355-3.937-106.123-3.933L-106.123-3.933z"></path>
    </g>
  </g>
</svg>