<?xml version="1.0" encoding="utf-8"?>
<!DOCTYPE svg PUBLIC "-//W3C//DTD SVG 1.1//EN" "http://www.w3.org/Graphics/SVG/1.1/DTD/svg11.dtd">
<!-- Clemoji 3.0: 1f925.svg - licence GPLv3 or later - Author A-312 - https://zestedesavoir.com/ -->
<!-- Clemoji is based on Twemoji (CC BY 4.0 - https://github.com/twitter/twemoji) -->
<svg xmlns="http://www.w3.org/2000/svg" viewBox="0 0 33 47.25" id="clemoji3_1f925" style="enable-background: new 0 0 33 47.25" width="19px" height="27.05px">
  <g id="g10" transform="matrix(0.895,0,0,0.895,0,12.6)">
    <g id="gfeuille" transform="matrix(1,0,0,-1,-4,-17.5) translate(0,-54.049)">
      <path id="path4138-2" fill="#479F00" d="M35.842,42.028c-7.072,2.898-15.156-0.481-18.056-7.555c-0.056-0.147-0.112-0.295-0.166-0.445c0.273-0.141,0.552-0.27,0.833-0.391c7.072-2.902,15.156,0.48,18.056,7.552c0.002,0,0.002,0,0.002,0.002c0.058,0.147,0.112,0.295,0.164,0.444C36.402,41.775,36.123,41.906,35.842,42.028L35.842,42.028z"></path>
      <path id="path4138-2-5" fill="#479F00" d="M5.883,38.317c5.113,2.886,11.597,1.081,14.484-4.03c0.058-0.106,0.112-0.214,0.167-0.325c-0.195-0.131-0.394-0.258-0.597-0.377c-5.111-2.888-11.596-1.084-14.482,4.03c-0.002,0-0.002,0-0.002,0c-0.058,0.106-0.112,0.214-0.166,0.322C5.482,38.07,5.68,38.197,5.883,38.317z"></path>
    </g>
    <circle fill="#FAAC2C" cx="16" cy="18" r="16"></circle>
    <path fill="#992500" d="M11.471 13.529c0 1.706-.987 3.088-2.206 3.088-1.219 0-2.206-1.382-2.206-3.088 0-1.705.987-3.088 2.206-3.088 1.218 0 2.206 1.383 2.206 3.088zm11.529 0c0 1.706-.987 3.088-2.206 3.088-1.218 0-2.206-1.382-2.206-3.088 0-1.705.988-3.088 2.206-3.088 1.219 0 2.206 1.383 2.206 3.088zM10.118 29.382c1.765-4.412 11.471-4.412 11.471-2.647-.001.883-7.06-.882-11.471 2.647z"></path>
    <path fill="#F4900C" d="M32.262 17.5H17c-1.511 0-2.734 1.344-2.734 3 0 1.657 1.224 3 2.734 3h15.262c1.513 0 2.738-1.343 2.738-3 0-1.656-1.226-3-2.738-3z"></path>
  </g>
</svg>