<?xml version="1.0" encoding="utf-8"?>
<!DOCTYPE svg PUBLIC "-//W3C//DTD SVG 1.1//EN" "http://www.w3.org/Graphics/SVG/1.1/DTD/svg11.dtd">
<!-- Clemoji 3.0: 1f924.svg - licence GPLv3 or later - Author A-312 - https://zestedesavoir.com/ -->
<!-- Clemoji is based on Twemoji (CC BY 4.0 - https://github.com/twitter/twemoji) -->
<svg xmlns="http://www.w3.org/2000/svg" viewBox="0 0 33 47.25" id="clemoji3_1f924" style="enable-background: new 0 0 33 47.25" width="19px" height="27.05px">
  <g id="g10" transform="matrix(0.895,0,0,0.895,0,12.6)">
    <circle fill="#FAAC2C" cx="18" cy="18" r="18"></circle>
    <path fill="#992500" d="M22.5 25H18c-5.6 0-7-1-7-1s1.267 3.594 6.179 3.963c.104.023.211.037.321.037H22c.825 0 2-1.175 2-2s-.675-1-1.5-1zm-6.687-7.112c-.176.143-.427.147-.61.014-.013-.01-1.261-.902-3.703-.902-2.441 0-3.69.893-3.7.9-.183.137-.435.133-.611-.009-.178-.142-.238-.386-.146-.594.06-.135 1.5-3.297 4.457-3.297 2.958 0 4.397 3.162 4.457 3.297.092.207.032.449-.144.591zm12.999 0c-.176.143-.426.148-.61.014-.012-.01-1.261-.902-3.702-.902-2.44 0-3.69.893-3.7.9-.183.137-.434.133-.611-.009-.178-.142-.238-.386-.146-.594.059-.135 1.5-3.297 4.457-3.297 2.958 0 4.398 3.162 4.457 3.297.092.207.032.449-.145.591zM13.114 6.002c.552.021.982.486.961 1.038-.022.55-.484.979-1.034.96-.156-.004-3.57-.052-6.339 3.357-.348.427-.977.494-1.407.145-.429-.348-.494-.978-.145-1.407 3.428-4.219 7.78-4.1 7.964-4.093zm9.403 1.672c.181-.033 4.473-.763 8.461 2.933.406.375.43 1.008.053 1.413-.375.407-1.007.429-1.413.054-3.228-2.992-6.608-2.456-6.75-2.432-.542.093-1.06-.27-1.155-.812-.095-.541.263-1.057.804-1.156z"></path>
    <path fill="#88C9F9" d="M23 26h-3c-.55 0-1 .45-1 1v4c0 .55.45 1 1 1s1-.45 1-1v3.5c0 .825.675 1.5 1.5 1.5s1.5-.675 1.5-1.5V27c0-.55-.45-1-1-1z"></path>
    <g id="gfeuille" transform="matrix(1,0,0,-1,-1.19,-18) translate(113.91075,-3.4)">
      <path id="path4138-2" fill="#479F00" d="M-80.758-0.674c-7.478-0.001-13.541-6.064-13.539-13.541c0.003-0.155,0.009-0.31,0.017-0.464c0.297-0.026,0.597-0.041,0.897-0.045c7.478-0.001,13.541,6.062,13.542,13.54c0,0.001,0,0.001,0,0.002c-0.005,0.154-0.009,0.308-0.017,0.462C-80.156-0.696-80.458-0.68-80.758-0.674L-80.758-0.674z"></path>
      <path id="path4138-2-5" fill="#479F00" d="M-106.123-3.933c5.744,0,10.4-4.658,10.4-10.402c-0.003-0.12-0.006-0.238-0.013-0.357c-0.23-0.02-0.461-0.03-0.691-0.034c-5.745-0.001-10.402,4.656-10.402,10.4c0,0.002,0,0.002,0,0.002c0.002,0.119,0.006,0.237,0.013,0.355C-106.584-3.949-106.355-3.937-106.123-3.933L-106.123-3.933z"></path>
    </g>
  </g>
</svg>