<?xml version="1.0" encoding="utf-8"?>
<!DOCTYPE svg PUBLIC "-//W3C//DTD SVG 1.1//EN" "http://www.w3.org/Graphics/SVG/1.1/DTD/svg11.dtd">
<!-- Clemoji 3.0: 1f929.svg - licence GPLv3 or later - Author A-312 - https://zestedesavoir.com/ -->
<!-- Clemoji is based on Twemoji (CC BY 4.0 - https://github.com/twitter/twemoji) -->
<svg xmlns="http://www.w3.org/2000/svg" viewBox="0 0 33 47.25" id="clemoji3_1f929" style="enable-background: new 0 0 33 47.25" width="19px" height="27.05px">
  <g id="g10" transform="matrix(0.895,0,0,0.895,0,12.6)">
    <path fill="#FAAC2C" d="M36 18c0 9.941-8.059 18-18 18S0 27.941 0 18 8.059 0 18 0s18 8.059 18 18"></path>
    <path fill="#992500" d="M18 21c-3.623 0-6.027-.422-9-1-.679-.131-2 0-2 2 0 4 4.595 9 11 9 6.404 0 11-5 11-9 0-2-1.321-2.132-2-2-2.973.578-5.377 1-9 1z"></path>
    <path fill="#FFF" d="M9 22s3 1 9 1 9-1 9-1-2 4-9 4-9-4-9-4z"></path>
    <path fill="#E95F28" d="M15.682 4.413l-4.542.801L8.8.961C8.542.492 8.012.241 7.488.333c-.527.093-.937.511-1.019 1.039l-.745 4.797-4.542.801c-.535.094-.948.525-1.021 1.064s.211 1.063.703 1.297l4.07 1.932-.748 4.812c-.083.536.189 1.064.673 1.309.179.09.371.133.562.133.327 0 .65-.128.891-.372l3.512-3.561 4.518 2.145c.49.232 1.074.123 1.446-.272.372-.395.446-.984.185-1.459L13.625 9.73l3.165-3.208c.382-.387.469-.977.217-1.459-.254-.482-.793-.743-1.325-.65zm4.636 0l4.542.801L27.2.961c.258-.469.788-.72 1.312-.628.526.093.936.511 1.018 1.039l.745 4.797 4.542.801c.536.094.949.524 1.021 1.063s-.211 1.063-.703 1.297l-4.07 1.932.748 4.812c.083.536-.189 1.064-.673 1.309-.179.09-.371.133-.562.133-.327 0-.65-.128-.891-.372l-3.512-3.561-4.518 2.145c-.49.232-1.074.123-1.446-.272-.372-.395-.446-.984-.185-1.459l2.348-4.267-3.165-3.208c-.382-.387-.469-.977-.217-1.459.255-.482.794-.743 1.326-.65z"></path>
    <g id="gfeuille" transform="matrix(1,0,0,-1,-1.19,-18) translate(113.91075,-3.4)">
      <path id="path4138-2" fill="#479F00" d="M-80.758-0.674c-7.478-0.001-13.541-6.064-13.539-13.541c0.003-0.155,0.009-0.31,0.017-0.464c0.297-0.026,0.597-0.041,0.897-0.045c7.478-0.001,13.541,6.062,13.542,13.54c0,0.001,0,0.001,0,0.002c-0.005,0.154-0.009,0.308-0.017,0.462C-80.156-0.696-80.458-0.68-80.758-0.674L-80.758-0.674z"></path>
      <path id="path4138-2-5" fill="#479F00" d="M-106.123-3.933c5.744,0,10.4-4.658,10.4-10.402c-0.003-0.12-0.006-0.238-0.013-0.357c-0.23-0.02-0.461-0.03-0.691-0.034c-5.745-0.001-10.402,4.656-10.402,10.4c0,0.002,0,0.002,0,0.002c0.002,0.119,0.006,0.237,0.013,0.355C-106.584-3.949-106.355-3.937-106.123-3.933L-106.123-3.933z"></path>
    </g>
  </g>
</svg>