<?xml version="1.0" encoding="utf-8"?>
<!DOCTYPE svg PUBLIC "-//W3C//DTD SVG 1.1//EN" "http://www.w3.org/Graphics/SVG/1.1/DTD/svg11.dtd">
<!-- Clemoji 3.0: 1f922.svg - licence GPLv3 or later - Author A-312 - https://zestedesavoir.com/ -->
<!-- Clemoji is based on Twemoji (CC BY 4.0 - https://github.com/twitter/twemoji) -->
<svg xmlns="http://www.w3.org/2000/svg" viewBox="0 0 33 47.25" id="clemoji3_1f922" style="enable-background: new 0 0 33 47.25" width="19px" height="27.05px">
  <g id="g10" transform="matrix(0.895,0,0,0.895,0,12.6)">
    <path fill="#77B255" d="M35.99 18c0 9.941-8.059 18-18 18-9.94 0-18-8.059-18-18 0-9.94 8.06-18 18-18s18 8.06 18 18"></path>
    <path fill="#595959" d="M15.364 26.122l-1.515-2.295c1.154-.762 2.606-1.182 4.089-1.182 1.49 0 2.895.402 4.062 1.162l-1.502 2.305c-1.425-.928-3.721-.924-5.134.01zm12.664-13.086c-.244-.3-6.771-1.502-6.826-1.502-.118 0-.251.089-.275.205-.218 1.027-.052 2.071.466 2.941.521.876 1.337 1.47 2.296 1.673.232.049.471.074.707.074 1.746 0 3.296-1.336 3.686-3.177.014-.075-.006-.156-.054-.214zm-13.272-1.502c-.056 0-6.583 1.202-6.827 1.502-.048.059-.068.14-.052.213.389 1.84 1.939 3.176 3.686 3.176.236 0 .474-.025.707-.074 1.972-.417 3.211-2.486 2.762-4.613-.024-.115-.157-.204-.276-.204z"></path>
    <path fill="#3E721D" d="M11.647 29.647c-.444 0-.857-.28-1.005-.724-.185-.555.115-1.155.669-1.339.095-.033 2.453-.877 2.453-3.231s-2.358-3.198-2.458-3.232c-.55-.191-.846-.791-.659-1.342.187-.552.78-.852 1.334-.665.159.053 3.9 1.344 3.9 5.239s-3.741 5.187-3.9 5.239c-.11.037-.223.055-.334.055zm12.705 0c-.111 0-.223-.018-.334-.055-.159-.053-3.9-1.344-3.9-5.239s3.741-5.187 3.9-5.239c.559-.187 1.154.115 1.339.669.185.553-.113 1.151-.664 1.338-.1.034-2.458.878-2.458 3.232s2.358 3.198 2.458 3.232c.551.191.847.791.66 1.342-.15.442-.561.72-1.001.72z"></path>
    <g id="gfeuille" transform="matrix(1,0,0,-1,-1.19,-18) translate(113.91075,-3.4)">
      <path id="path4138-2" fill="#479F00" d="M-80.758-0.674c-7.478-0.001-13.541-6.064-13.539-13.541c0.003-0.155,0.009-0.31,0.017-0.464c0.297-0.026,0.597-0.041,0.897-0.045c7.478-0.001,13.541,6.062,13.542,13.54c0,0.001,0,0.001,0,0.002c-0.005,0.154-0.009,0.308-0.017,0.462C-80.156-0.696-80.458-0.68-80.758-0.674L-80.758-0.674z"></path>
      <path id="path4138-2-5" fill="#479F00" d="M-106.123-3.933c5.744,0,10.4-4.658,10.4-10.402c-0.003-0.12-0.006-0.238-0.013-0.357c-0.23-0.02-0.461-0.03-0.691-0.034c-5.745-0.001-10.402,4.656-10.402,10.4c0,0.002,0,0.002,0,0.002c0.002,0.119,0.006,0.237,0.013,0.355C-106.584-3.949-106.355-3.937-106.123-3.933L-106.123-3.933z"></path>
    </g>
  </g>
</svg>