<?xml version="1.0" encoding="utf-8"?>
<!DOCTYPE svg PUBLIC "-//W3C//DTD SVG 1.1//EN" "http://www.w3.org/Graphics/SVG/1.1/DTD/svg11.dtd">
<!-- Clemoji 3.0: 1f923.svg - licence GPLv3 or later - Author A-312 - https://zestedesavoir.com/ -->
<!-- Clemoji is based on Twemoji (CC BY 4.0 - https://github.com/twitter/twemoji) -->
<svg xmlns="http://www.w3.org/2000/svg" viewBox="0 0 42.5 48.3" id="clemoji3_1f923" style="enable-background: new 0 0 42.5 48.3" width="24.2833px" height="27.1px">
  <g id="g10" transform="matrix(0.895,0,0,0.895,10,13.6)">
    <path fill="#FAAC2C" d="M30.728 5.272c7.029 7.029 7.029 18.427 0 25.456s-18.426 7.029-25.456 0c-7.029-7.029-7.029-18.427 0-25.456s18.426-7.029 25.456 0"></path>
    <path fill="#992500" d="M19.279 19.28c-3.494 3.494-6.219 5.404-9.645 7.713-.781.529-1.928 1.929.001 3.859 3.857 3.857 13.111 4.247 19.287-1.929 6.177-6.177 5.788-15.43 1.929-19.288-1.929-1.93-3.33-.782-3.858-.001-2.308 3.425-4.219 6.151-7.714 9.646z"></path>
    <path fill="#FFF" d="M11.564 28.923s3.858-1.929 9.644-7.716c5.787-5.786 7.715-9.643 7.715-9.643s1.928 5.787-4.822 12.537c-6.75 6.751-12.537 4.822-12.537 4.822z"></path>
    <path fill="#992500" d="M24.299 6.655c-.141.02-2.373.357-4.943 1.628-.062-.101-.132-.198-.219-.285-.261-.261-.595-.399-.936-.427.907-1.643 1.978-2.737 1.998-2.756.388-.39.388-1.024-.003-1.413s-1.022-.39-1.412 0c-.156.156-3.828 3.881-3.828 8.485 0 .405.243.769.617.924.373.155.804.069 1.09-.217 3.245-3.245 7.874-3.953 7.921-3.96.222-.032.416-.135.563-.282.215-.215.33-.526.284-.85-.081-.547-.586-.925-1.132-.847zM11.712 15.13c-4.604 0-8.329 3.672-8.485 3.828-.39.39-.39 1.022 0 1.412.389.391 1.022.392 1.414.003.019-.019 1.113-1.091 2.756-1.997.029.341.166.675.427.936.087.087.184.157.285.219C6.837 22.1 6.5 24.333 6.48 24.474c-.078.547.302 1.053.848 1.131.325.047.634-.068.849-.283.147-.147.25-.342.282-.565.007-.046.698-4.657 3.96-7.919.286-.286.371-.716.217-1.09-.155-.375-.519-.618-.924-.618z"></path>
    <path fill="#3DAEFF" d="M30.101 12.055c2.741.334 5.234-1.618 5.567-4.36.334-2.741-1.617-5.234-4.359-5.568-2.741-.333-10.409 2.763-10.53 3.756-.121.992 6.581 5.837 9.322 6.172zM12.157 29.999c.334 2.741-1.618 5.234-4.36 5.567-2.741.334-5.234-1.617-5.568-4.359-.334-2.742 2.763-10.41 3.756-10.531.992-.12 5.837 6.582 6.172 9.323z" fill-opacity="0.64"></path>
    <g id="gfeuille" transform="rotate(-45 18 18)matrix(1,0,0,-1,-1.19,-18) translate(113.91075,-3.4)">
      <path id="path4138-2" fill="#479F00" d="M-80.758-0.674c-7.478-0.001-13.541-6.064-13.539-13.541c0.003-0.155,0.009-0.31,0.017-0.464c0.297-0.026,0.597-0.041,0.897-0.045c7.478-0.001,13.541,6.062,13.542,13.54c0,0.001,0,0.001,0,0.002c-0.005,0.154-0.009,0.308-0.017,0.462C-80.156-0.696-80.458-0.68-80.758-0.674L-80.758-0.674z"></path>
      <path id="path4138-2-5" fill="#479F00" d="M-106.123-3.933c5.744,0,10.4-4.658,10.4-10.402c-0.003-0.12-0.006-0.238-0.013-0.357c-0.23-0.02-0.461-0.03-0.691-0.034c-5.745-0.001-10.402,4.656-10.402,10.4c0,0.002,0,0.002,0,0.002c0.002,0.119,0.006,0.237,0.013,0.355C-106.584-3.949-106.355-3.937-106.123-3.933L-106.123-3.933z"></path>
    </g>
  </g>
</svg>