<?xml version="1.0" encoding="utf-8"?>
<!DOCTYPE svg PUBLIC "-//W3C//DTD SVG 1.1//EN" "http://www.w3.org/Graphics/SVG/1.1/DTD/svg11.dtd">
<!-- Clemoji 3.0: 1f92a.svg - licence GPLv3 or later - Author A-312 - https://zestedesavoir.com/ -->
<!-- Clemoji is based on Twemoji (CC BY 4.0 - https://github.com/twitter/twemoji) -->
<svg xmlns="http://www.w3.org/2000/svg" viewBox="0 0 35 49.875" id="clemoji3_1f92a" style="enable-background: new 0 0 35 49.875" width="20.15px" height="28.7833px">
  <g id="g10" transform="matrix(0.895,0,0,0.895,2.5,15.1)">
    <path fill="#FAAC2C" d="M35.597 14.232c2.083 9.72-4.108 19.289-13.828 21.372C12.049 37.687 2.48 31.496.397 21.776-1.686 12.056 4.506 2.487 14.225.404c9.72-2.084 19.289 4.108 21.372 13.828"></path>
    <path fill="#F4F7F9" d="M29.284 9.012c.779 3.636-1.537 7.216-5.173 7.995-3.636.779-7.216-1.537-7.996-5.173-.779-3.636 1.537-7.216 5.173-7.995s7.217 1.536 7.996 5.173z"></path>
    <circle fill="#992500" cx="22.306" cy="9.291" r="2.037"></circle>
    <path fill="#F4F7F9" d="M14.088 14.282c.456 2.126-.899 4.219-3.025 4.675s-4.219-.899-4.675-3.025c-.456-2.126.899-4.219 3.025-4.675s4.219.899 4.675 3.025z"></path>
    <ellipse transform="rotate(-12.095 10.236 15.853)" fill="#992500" cx="10.238" cy="15.857" rx="1.942" ry="1.942"></ellipse>
    <path fill="#992500" d="M18.625 20.937c-3.543.759-5.981.85-9.01.908-.691.015-1.955.419-1.536 2.375.838 3.911 6.379 7.837 12.642 6.495 6.262-1.342 9.708-7.194 8.87-11.105-.419-1.956-1.739-1.808-2.375-1.536-2.786 1.187-5.048 2.104-8.591 2.863z"></path>
    <path fill="#E8596E" d="M11 24.004v6c0 3 2 6 6 6s6-3 6-6v-6H11z"></path>
    <path fill="#DD2F45" d="M17 31.883c.301 0 .545-.244.545-.545v-6.295h-1.091v6.295c.001.301.245.545.546.545z"></path>
    <path fill="#FFF" d="M10.034 23.801s3.143.349 9.01-.908c5.867-1.257 8.591-2.864 8.591-2.864s-1.117 4.33-7.962 5.797c-6.845 1.467-9.639-2.025-9.639-2.025z"></path>
    <g id="gfeuille" transform="rotate(-18 18 18)matrix(1,0,0,-1,-1.19,-18) translate(113.91075,-3.4)">
      <path id="path4138-2" fill="#479F00" d="M-80.758-0.674c-7.478-0.001-13.541-6.064-13.539-13.541c0.003-0.155,0.009-0.31,0.017-0.464c0.297-0.026,0.597-0.041,0.897-0.045c7.478-0.001,13.541,6.062,13.542,13.54c0,0.001,0,0.001,0,0.002c-0.005,0.154-0.009,0.308-0.017,0.462C-80.156-0.696-80.458-0.68-80.758-0.674L-80.758-0.674z"></path>
      <path id="path4138-2-5" fill="#479F00" d="M-106.123-3.933c5.744,0,10.4-4.658,10.4-10.402c-0.003-0.12-0.006-0.238-0.013-0.357c-0.23-0.02-0.461-0.03-0.691-0.034c-5.745-0.001-10.402,4.656-10.402,10.4c0,0.002,0,0.002,0,0.002c0.002,0.119,0.006,0.237,0.013,0.355C-106.584-3.949-106.355-3.937-106.123-3.933L-106.123-3.933z"></path>
    </g>
  </g>
</svg>