<?xml version="1.0" encoding="utf-8"?>
<!DOCTYPE svg PUBLIC "-//W3C//DTD SVG 1.1//EN" "http://www.w3.org/Graphics/SVG/1.1/DTD/svg11.dtd">
<!-- Clemoji 3.0: 1f928.svg - licence GPLv3 or later - Author A-312 - https://zestedesavoir.com/ -->
<!-- Clemoji is based on Twemoji (CC BY 4.0 - https://github.com/twitter/twemoji) -->
<svg xmlns="http://www.w3.org/2000/svg" viewBox="0 0 33 47.25" id="clemoji3_1f928" style="enable-background: new 0 0 33 47.25" width="19px" height="27.05px">
  <g id="g10" transform="matrix(0.895,0,0,0.895,0,12.6)">
    <path fill="#FAAC2C" d="M36 18c0 9.941-8.059 18-18 18S0 27.941 0 18 8.059 0 18 0s18 8.059 18 18"></path>
    <ellipse fill="#992500" cx="12" cy="16.5" rx="2.5" ry="2.75"></ellipse>
    <ellipse fill="#992500" cx="24" cy="16.5" rx="2.5" ry="3.5"></ellipse>
    <path fill="#992500" d="M7.102 12.559c.249.176.574.236.885.135 4.187-1.355 7.027.554 7.146.636.453.312 1.075.201 1.39-.25.315-.451.208-1.071-.241-1.388-.15-.106-3.736-2.575-8.91-.901-.526.17-.814.734-.643 1.259.068.214.203.388.373.509zM25 26H11c-.552 0-1-.447-1-1s.448-1 1-1h14c.553 0 1 .447 1 1s-.447 1-1 1zm5.001-15.592c-.368 0-.731-.161-.979-.471-1.395-1.751-4.299-3.287-5.314-3.287-.642 0-1.925.911-2.604 1.568-.496.482-1.288.467-1.767-.028-.48-.495-.469-1.285.024-1.766.391-.38 2.436-2.275 4.347-2.275 2.005 0 5.538 2.056 7.27 4.229.431.54.341 1.326-.198 1.756-.231.185-.507.274-.779.274z"></path>
    <g id="gfeuille" transform="matrix(1,0,0,-1,-1.19,-18) translate(113.91075,-3.4)">
      <path id="path4138-2" fill="#479F00" d="M-80.758-0.674c-7.478-0.001-13.541-6.064-13.539-13.541c0.003-0.155,0.009-0.31,0.017-0.464c0.297-0.026,0.597-0.041,0.897-0.045c7.478-0.001,13.541,6.062,13.542,13.54c0,0.001,0,0.001,0,0.002c-0.005,0.154-0.009,0.308-0.017,0.462C-80.156-0.696-80.458-0.68-80.758-0.674L-80.758-0.674z"></path>
      <path id="path4138-2-5" fill="#479F00" d="M-106.123-3.933c5.744,0,10.4-4.658,10.4-10.402c-0.003-0.12-0.006-0.238-0.013-0.357c-0.23-0.02-0.461-0.03-0.691-0.034c-5.745-0.001-10.402,4.656-10.402,10.4c0,0.002,0,0.002,0,0.002c0.002,0.119,0.006,0.237,0.013,0.355C-106.584-3.949-106.355-3.937-106.123-3.933L-106.123-3.933z"></path>
    </g>
  </g>
</svg>