<?xml version="1.0" encoding="utf-8"?>
<!DOCTYPE svg PUBLIC "-//W3C//DTD SVG 1.1//EN" "http://www.w3.org/Graphics/SVG/1.1/DTD/svg11.dtd">
<!-- Clemoji 3.0: 1f927.svg - licence GPLv3 or later - Author A-312 - https://zestedesavoir.com/ -->
<!-- Clemoji is based on Twemoji (CC BY 4.0 - https://github.com/twitter/twemoji) -->
<svg xmlns="http://www.w3.org/2000/svg" viewBox="0 0 33 47.25" id="clemoji3_1f927" style="enable-background: new 0 0 33 47.25" width="19px" height="27.05px">
  <g id="g10" transform="matrix(0.895,0,0,0.895,0,12.6)">
    <g id="gfeuille" transform="matrix(1.03,0,0,-1.03,-1.7,-20) translate(0,-54.049)">
      <path id="path4138-2" fill="#479F00" d="M35.842,42.028c-7.072,2.898-15.156-0.481-18.056-7.555c-0.056-0.147-0.112-0.295-0.166-0.445c0.273-0.141,0.552-0.27,0.833-0.391c7.072-2.902,15.156,0.48,18.056,7.552c0.002,0,0.002,0,0.002,0.002c0.058,0.147,0.112,0.295,0.164,0.444C36.402,41.775,36.123,41.906,35.842,42.028L35.842,42.028z"></path>
      <path id="path4138-2-5" fill="#479F00" d="M5.883,38.317c5.113,2.886,11.597,1.081,14.484-4.03c0.058-0.106,0.112-0.214,0.167-0.325c-0.195-0.131-0.394-0.258-0.597-0.377c-5.111-2.888-11.596-1.084-14.482,4.03c-0.002,0-0.002,0-0.002,0c-0.058,0.106-0.112,0.214-0.166,0.322C5.482,38.07,5.68,38.197,5.883,38.317z"></path>
    </g>
    <path fill="#FAAC2C" d="M36 18c0 9.941-8.059 18-18 18-9.94 0-18-8.059-18-18C0 8.06 8.06 0 18 0c9.941 0 18 8.06 18 18"></path>
    <path fill="#992500" d="M30.6 17.2c-.114-.085-1.931-1.426-4.646-2.344.026-.115.046-.233.046-.356 0-.369-.139-.703-.359-.964 1.802-.52 3.334-.536 3.361-.536.551-.002.998-.45.997-1.002-.001-.551-.447-.998-.999-.998-.221 0-5.451.038-8.707 3.293-.286.286-.372.716-.217 1.09.154.373.52.617.924.617 4.59 0 8.363 2.772 8.401 2.801.18.134.39.198.598.198.305 0 .605-.139.802-.4.33-.443.24-1.068-.201-1.399zm-14.893-2.907C12.452 11.038 7.221 11 7 11c-.552 0-.999.447-.999.998-.001.552.446 1 .998 1.002.026 0 1.558.016 3.361.536-.221.261-.36.595-.36.964 0 .123.019.241.047.356-2.716.918-4.533 2.259-4.647 2.344-.442.331-.531.958-.2 1.399.196.263.497.401.801.401.208 0 .419-.065.599-.2.037-.028 3.787-2.8 8.4-2.8.404 0 .769-.244.924-.617.155-.374.069-.804-.217-1.09zM16 29c2-5 13-5 13-3 0 1-8-1-13 3z"></path>
    <path fill="#CCD6DD" d="M18.406 18.033c2.678 2.676-3.974 15.524-5.25 16.8-1.05 1.05-4.2 1.05-5.25-1.05-1.05-2.1-4.2 0-5.25-1.05-2.1-2.1 1.05-3.15 0-5.25s-3.15-3.15-1.05-5.25 7.35-1.05 10.5-3.15c3.15-2.1 5.249-2.1 6.3-1.05z"></path>
    <path fill="#F5F8FA" d="M17.322 19.872c-.016-.062-.053-.113-.079-.17-.03-.066-.05-.135-.094-.194-.161-.218-.405-.374-.694-.415h-.001c-.137-.019-.274-.011-.406.022-.091.023-.169.071-.249.117-.038.021-.08.03-.115.056-.111.082-.206.185-.278.305-2.934 4.89-9.942 7.944-10.013 7.975-.533.229-.779.846-.55 1.379.171.398.558.636.965.636.138 0 .278-.027.413-.085.223-.096 4.055-1.77 7.425-4.712-2.068 3.825-5.23 5.995-5.273 6.025-.481.323-.61.974-.288 1.456.203.302.535.467.874.467.2 0 .402-.057.581-.176.273-.183 6.703-4.549 7.807-12.274.018-.14.009-.279-.025-.412z"></path>
  </g>
</svg>