<?xml version="1.0" encoding="utf-8"?>
<!DOCTYPE svg PUBLIC "-//W3C//DTD SVG 1.1//EN" "http://www.w3.org/Graphics/SVG/1.1/DTD/svg11.dtd">
<!-- Clemoji 3.0: 1f9d0.svg - licence GPLv3 or later - Author A-312 - https://zestedesavoir.com/ -->
<!-- Clemoji is based on Twemoji (CC BY 4.0 - https://github.com/twitter/twemoji) -->
<svg version="1.1" id="clemoji3_1f9d0" xmlns:dc="http://purl.org/dc/elements/1.1/" xmlns:cc="http://creativecommons.org/ns#" xmlns:rdf="http://www.w3.org/1999/02/22-rdf-syntax-ns#" xmlns:svg="http://www.w3.org/2000/svg" xmlns="http://www.w3.org/2000/svg" xmlns:xlink="http://www.w3.org/1999/xlink" x="0px" y="0px" width="19px" height="27.834px" viewBox="0 0 19 27.834" enable-background="new 0 0 19 27.834" xml:space="preserve">
<g id="g10" transform="matrix(1.25,0,0,-1.25,-2.5,62.5)">
  <g id="g20" transform="translate(36,19)">
    <path id="path22" fill="#FAAC2C" d="M-18.889,17.304c0-4.148-3.362-7.51-7.511-7.51c-4.148,0-7.511,3.362-7.511,7.51 c0,4.148,3.362,7.511,7.511,7.511C-22.252,24.815-18.889,21.453-18.889,17.304"/>
  </g>
  <path fill="#992500" d="M7.17,39.225c0.61,0,1.104-0.693,1.104-1.546s-0.48-1.516-1.09-1.516 c-0.61,0-1.119,0.662-1.119,1.516S6.56,39.225,7.17,39.225z"/>
  <circle fill="#F4F7F9" cx="12.472" cy="37.852" r="2.871"/>
  <path fill="#992500" d="M8.275,39.666c-0.134,0-0.267,0.061-0.354,0.177c-0.414,0.551-0.846,0.846-1.287,0.878 c-0.58,0.04-1.053-0.395-1.141-0.483c-0.173-0.173-0.452-0.173-0.625,0c-0.173,0.173-0.173,0.452,0,0.625 c0.191,0.191,0.888,0.808,1.828,0.74c0.707-0.05,1.357-0.464,1.931-1.229c0.146-0.195,0.106-0.472-0.089-0.618 C8.46,39.695,8.367,39.666,8.275,39.666z"/>
  <path fill="#292F33" d="M15.786,28.795c-0.244,0-0.441,0.198-0.441,0.441v8.395c0,0.244,0.198,0.442,0.441,0.442 s0.441-0.198,0.441-0.442v-8.395C16.227,28.992,16.03,28.795,15.786,28.795z"/>
  <path fill="#67757F" d="M15.786,38.514c-0.023,0-0.043-0.005-0.066-0.006c-0.305,1.514-1.645,2.657-3.248,2.657 c-1.828,0-3.314-1.486-3.314-3.314s1.486-3.313,3.314-3.313c1.447,0,2.678,0.934,3.127,2.23c0.06-0.013,0.122-0.021,0.187-0.021 c0.488,0,0.884,0.395,0.884,0.884C16.67,38.119,16.274,38.514,15.786,38.514L15.786,38.514z M12.472,35.422 c-1.34,0-2.43,1.09-2.43,2.43c0,1.341,1.091,2.43,2.43,2.43c1.339,0,2.43-1.09,2.43-2.43 C14.902,36.512,13.811,35.422,12.472,35.422z"/>
  <path fill="#992500" d="M10.925,31.888c-0.066,0-0.134,0.015-0.198,0.046c-0.759,0.38-1.497,0.38-2.256,0 c-0.218-0.109-0.484-0.02-0.593,0.198c-0.109,0.219-0.021,0.484,0.198,0.593c1.01,0.505,2.034,0.505,3.046,0 c0.218-0.109,0.307-0.374,0.198-0.593C11.243,31.978,11.087,31.888,10.925,31.888z"/>
  <path fill="#BDDDF4" d="M13.794,39.89c-0.381,0.247-0.834,0.392-1.322,0.392c-1.341,0-2.43-1.088-2.43-2.431 c0-0.487,0.145-0.94,0.392-1.321L13.794,39.89z M11.434,35.657c0.315-0.15,0.666-0.235,1.037-0.235c1.342,0,2.43,1.087,2.43,2.43 c0,0.372-0.086,0.723-0.236,1.037L11.434,35.657z"/>
  <g id="gfeuille" transform="translate(113.91075,50.659)">
    <path id="path4138-2" fill="#479F00" d="M-98.058-0.666c-3.305,0-5.983-2.679-5.982-5.982c0.002-0.069,0.004-0.137,0.007-0.205 c0.131-0.011,0.264-0.018,0.396-0.02c3.304-0.001,5.983,2.678,5.983,5.982c0,0,0,0,0,0.001c-0.002,0.068-0.004,0.136-0.008,0.204 C-97.792-0.675-97.926-0.668-98.058-0.666L-98.058-0.666z"/>
    <path id="path4138-2-5" fill="#479F00" d="M-109.264-2.106c2.538,0,4.595-2.058,4.595-4.595c-0.001-0.053-0.002-0.105-0.005-0.158 c-0.102-0.009-0.204-0.013-0.305-0.015c-2.538-0.001-4.596,2.057-4.596,4.595c0,0.001,0,0.001,0,0.001 c0.001,0.052,0.003,0.105,0.006,0.157C-109.468-2.113-109.367-2.107-109.264-2.106L-109.264-2.106z"/>
  </g>
</g>
</svg>