<?xml version="1.0" encoding="utf-8"?>
<!DOCTYPE svg PUBLIC "-//W3C//DTD SVG 1.1//EN" "http://www.w3.org/Graphics/SVG/1.1/DTD/svg11.dtd">
<!-- Clemoji 3.0: b.svg (:B) - licence GPLv3 or later - Author A-312 - https://zestedesavoir.com/ -->
<svg xmlns:dc="http://purl.org/dc/elements/1.1/" xmlns:cc="http://creativecommons.org/ns#" xmlns:rdf="http://www.w3.org/1999/02/22-rdf-syntax-ns#" xmlns:svg="http://www.w3.org/2000/svg" xmlns="http://www.w3.org/2000/svg" xmlns:xlink="http://www.w3.org/1999/xlink" xml:space="preserve" version="1.1" id="clemoji3_b" x="0px" y="0px" width="19px" height="27.834px" viewBox="0 0 19 27.834" enable-background="new 0 0 19 27.834">
  <g id="g10" transform="matrix(1.25,0,0,-1.25,-2.5,62.5)">
    <g id="g20" transform="translate(36,19)">
      <path id="path22" fill="#FAAC2C" d="M-18.889,17.304c0-4.148-3.362-7.51-7.511-7.51c-4.148,0-7.511,3.363-7.511,7.51c0,4.148,3.363,7.511,7.511,7.511C-22.252,24.815-18.889,21.453-18.889,17.304" />
    </g>
    <g id="g24" transform="translate(25,10)">
      <g>
        <path fill="#992500" d="M-11.795,24.898v-1.447c0-0.582-0.069-1.028-0.207-1.341c-0.138-0.312-0.349-0.559-0.636-0.74c-0.286-0.182-0.603-0.273-0.952-0.273c-0.327,0-0.623,0.08-0.891,0.24c-0.268,0.159-0.485,0.392-0.651,0.699c-0.13-0.381-0.282-0.675-0.456-0.88c-0.175-0.205-0.386-0.366-0.633-0.48c-0.248-0.115-0.516-0.172-0.806-0.172c-0.589,0-1.086,0.216-1.494,0.645c-0.407,0.431-0.611,1.01-0.611,1.734v2.015H-11.795L-11.795,24.898z" />
        <path fill="#FFFFFF" d="M-12.513,24.18h-2.349v-0.42c0-0.51,0.047-0.885,0.142-1.124c0.095-0.241,0.244-0.431,0.448-0.572c0.205-0.138,0.431-0.208,0.681-0.208c0.335,0,0.599,0.117,0.79,0.352c0.192,0.235,0.288,0.609,0.288,1.123V24.18L-12.513,24.18z" />
        <path fill="#FFFFFF" d="M-15.601,24.177h-2.813v-0.909c0-0.536,0.052-0.93,0.157-1.178c0.105-0.25,0.269-0.451,0.491-0.602c0.223-0.151,0.464-0.227,0.723-0.227c0.326,0,0.61,0.106,0.854,0.32c0.243,0.213,0.409,0.506,0.499,0.878c0.059,0.251,0.089,0.684,0.089,1.305V24.177L-15.601,24.177z" />
      </g>
      <path id="path34" fill="#992500" d="M-11.171,24.085h-8.472c-0.334,0-0.605,0.227-0.605,0.506c0,0.28,0.271,0.506,0.605,0.506h8.472c0.334,0,0.605-0.227,0.605-0.506C-10.566,24.311-10.837,24.085-11.171,24.085" />
    </g>
    <g id="g32" transform="translate(14.5,22.5)">
      <path id="path34" fill="#992500" d="M-6.345,15.674c0-0.808-0.468-1.461-1.043-1.461c-0.577,0-1.044,0.653-1.044,1.461c0,0.805,0.467,1.46,1.044,1.46C-6.813,17.133-6.345,16.479-6.345,15.674" />
    </g>
    <g id="g36" transform="translate(26.5,22.5)">
      <path id="path38" fill="#992500" d="M-13.338,15.674c0-0.808-0.467-1.461-1.043-1.461c-0.577,0-1.043,0.653-1.043,1.461c0,0.805,0.466,1.46,1.043,1.46C-13.805,17.133-13.338,16.479-13.338,15.674" />
    </g>
    <g id="gfeuille" transform="translate(113.91075,50.659)">
      <path id="path41" fill="#479F00" d="M-98.058-0.666c-3.305,0-5.983-2.679-5.982-5.982c0.002-0.069,0.004-0.137,0.007-0.205c0.131-0.011,0.264-0.018,0.396-0.02c3.304-0.001,5.983,2.678,5.983,5.982c0,0,0,0,0,0.001c-0.002,0.068-0.004,0.136-0.008,0.204C-97.792-0.675-97.926-0.668-98.058-0.666L-98.058-0.666z" />
      <path id="path41-2" fill="#479F00" d="M-109.264-2.106c2.538,0,4.595-2.058,4.595-4.595c-0.001-0.053-0.002-0.105-0.005-0.158c-0.102-0.009-0.204-0.013-0.305-0.015c-2.538-0.001-4.596,2.057-4.596,4.595c0,0.001,0,0.001,0,0.001c0.001,0.052,0.003,0.105,0.006,0.157C-109.468-2.113-109.367-2.107-109.264-2.106L-109.264-2.106z" />
    </g>
  </g>
</svg>