<?xml version="1.0" encoding="utf-8"?>
<!DOCTYPE svg PUBLIC "-//W3C//DTD SVG 1.1//EN" "http://www.w3.org/Graphics/SVG/1.1/DTD/svg11.dtd">
<!-- Clemoji 3.0: blink.svg (o_O) - licence GPLv3 or later - Author Buddy - https://zestedesavoir.com/ -->
<svg version="1.1" id="clemoji3_blink" xmlns:dc="http://purl.org/dc/elements/1.1/" xmlns:cc="http://creativecommons.org/ns#" xmlns:rdf="http://www.w3.org/1999/02/22-rdf-syntax-ns#" xmlns:svg="http://www.w3.org/2000/svg" xmlns="http://www.w3.org/2000/svg" xmlns:xlink="http://www.w3.org/1999/xlink" x="0px" y="0px" width="19px" height="27.834px" viewBox="0 0 19 27.834" enable-background="new 0 0 19 27.834" xml:space="preserve">
<circle id="g20" fill="#FAAC2C" cx="9.501" cy="17.119" r="9.389"/>
<g id="step1" transform="translate(-48.874825,89.016137)">
  <animate id="frame" attributeName="visibility" from="hidden" to="hidden" dur="600ms" begin="3s;frame.end+3s"
    values="hidden; hidden; visible; hidden; hidden; hidden; visible; hidden"
    keyTimes="0; .087; 0.304; 0.391; 0.609; 0.696; 0.913; 1"
  />
  <g>
    <ellipse id="path4957-6_1_" fill="#FFFFFF" cx="62.211" cy="-72.92" rx="2.55" ry="0.514"/>
    <path fill="#FFFFFF" d="M62.211-72.356c-1.26,0-2.599-0.197-2.599-0.564c0-0.366,1.339-0.563,2.599-0.563c1.261,0,2.6,0.197,2.6,0.563C64.81-72.553,63.471-72.356,62.211-72.356z M62.211-73.384c-1.548,0-2.499,0.271-2.499,0.464c0,0.189,0.89,0.465,2.499,0.465s2.5-0.275,2.5-0.465C64.711-73.114,63.76-73.384,62.211-73.384z"/>
  </g>
  <g>
    <ellipse id="path4957-6-5_1_" fill="#FFFFFF" cx="54.54" cy="-72.92" rx="2.549" ry="0.514"/>
    <path fill="#FFFFFF" d="M54.54-72.356c-1.26,0-2.599-0.197-2.599-0.564c0-0.366,1.339-0.563,2.599-0.563s2.599,0.197,2.599,0.563C57.139-72.553,55.8-72.356,54.54-72.356z M54.54-73.384c-1.548,0-2.499,0.271-2.499,0.464c0,0.189,0.89,0.465,2.499,0.465s2.499-0.275,2.499-0.465C57.039-73.114,56.089-73.384,54.54-73.384z"/>
  </g>
</g>
<g id="step2" transform="translate(-8.0126227,36.374002)">
  <animate attributeName="visibility" from="hidden" to="hidden" dur="600ms" begin="3s;frame.end+3s"
    values="hidden; visible; hidden; visible; hidden; visible; hidden; visible"
    keyTimes="0; .087; 0.304; 0.391; 0.609; 0.696; 0.913; 1"
  />
  <path id="path4853" fill="#FFFFFF" d="M13.822-22.498c-0.931,0.001-1.824,0.196-2.481,0.544c-0.193,0.391-0.293,0.82-0.294,1.258c0.001,0.482,0.125,0.959,0.361,1.383c0.65,0.326,1.516,0.51,2.415,0.512c1.013-0.002,1.977-0.232,2.643-0.635c0.194-0.393,0.296-0.824,0.297-1.26c-0.001-0.389-0.081-0.773-0.236-1.129C15.86-22.249,14.869-22.497,13.822-22.498L13.822-22.498z"/>
  <g>
    <circle id="path4213-6-3-5-8-8_1_" fill="#992500" cx="13.903" cy="-20.696" r="0.817"/>
    <path fill="#9A2400" d="M13.903-19.669c-0.566,0-1.027-0.461-1.027-1.028c0-0.566,0.461-1.026,1.027-1.026c0.567,0,1.028,0.46,1.028,1.026C14.931-20.13,14.47-19.669,13.903-19.669z M13.903-21.304c-0.335,0-0.607,0.272-0.607,0.606c0,0.335,0.272,0.608,0.607,0.608s0.608-0.273,0.608-0.608C14.511-21.031,14.238-21.304,13.903-21.304z"/>
  </g>
  <path id="path4853-0" fill="#FFFFFF" d="M20.369-23.382c-1.638,0.001-3.182,0.352-4.191,0.951c-0.135,0.427-0.204,0.873-0.205,1.322c0.002,0.639,0.144,1.271,0.417,1.852c1.01,0.529,2.458,0.832,3.979,0.834c1.515-0.002,2.956-0.301,3.966-0.826c0.273-0.582,0.417-1.217,0.42-1.859c-0.003-0.455-0.074-0.906-0.215-1.337C23.528-23.038,21.993-23.382,20.369-23.382z"/>
  <g>
    <path id="path4213-6-6-7-8-8-5_1_" fill="#992500" d="M20.183-21.389c-0.252,0.008-0.498,0.041-0.74,0.084c-0.014,0.064-0.021,0.129-0.021,0.195c0,0.52,0.423,0.941,0.943,0.941c0.52,0,0.942-0.422,0.942-0.941c0-0.057-0.005-0.113-0.016-0.168C20.909-21.365,20.54-21.402,20.183-21.389L20.183-21.389z"/>
    <path fill="#9A2400" d="M20.364-19.918c-0.658,0-1.193-0.534-1.193-1.191c0-0.081,0.009-0.162,0.027-0.247c0.021-0.1,0.101-0.177,0.2-0.194c0.297-0.053,0.543-0.08,0.776-0.088l0.152-0.003c0.33,0,0.673,0.041,1.02,0.121c0.097,0.021,0.171,0.099,0.189,0.195c0.014,0.07,0.021,0.143,0.021,0.216C21.557-20.452,21.021-19.918,20.364-19.918z M19.671-21.089c0.011,0.372,0.318,0.671,0.693,0.671c0.369,0,0.672-0.29,0.691-0.653c-0.249-0.047-0.493-0.07-0.729-0.07l-0.135,0.003C20.031-21.134,19.863-21.118,19.671-21.089z"/>
  </g>
</g>
<g id="step3" transform="translate(-110.76957,98.25231)">
  <animate attributeName="visibility" from="hidden" to="hidden" dur="600ms" begin="3s;frame.end+3s"
    values="visible; hidden; hidden; hidden; visible; hidden; hidden; hidden"
    keyTimes="0; .087; 0.304; 0.391; 0.609; 0.696; 0.913; 1"
  />
  <circle id="path4853-9" fill="#FFFFFF" cx="116.661" cy="-82.575" r="2.857"/>
  <g>
    <circle id="path4213-6-3-5-8-8-3_1_" fill="#992500" cx="116.661" cy="-82.575" r="0.817"/>
    <path fill="#9A2400" d="M116.661-81.547c-0.566,0-1.027-0.461-1.027-1.028c0-0.566,0.461-1.026,1.027-1.026c0.567,0,1.028,0.46,1.028,1.026C117.689-82.008,117.228-81.547,116.661-81.547z M116.661-83.182c-0.335,0-0.607,0.272-0.607,0.606c0,0.335,0.272,0.608,0.607,0.608s0.608-0.273,0.608-0.608C117.269-82.91,116.996-83.182,116.661-83.182z"/>
  </g>
  <circle id="path4853-0-4" fill="#FFFFFF" cx="123.122" cy="-82.989" r="4.39"/>
  <g>
    <circle id="path4213-6-6-7-8-8-5-2_1_" fill="#992500" cx="123.122" cy="-82.989" r="0.943"/>
    <path fill="#9A2400" d="M123.122-81.796c-0.658,0-1.193-0.535-1.193-1.193c0-0.657,0.535-1.192,1.193-1.192s1.193,0.535,1.193,1.192C124.315-82.331,123.78-81.796,123.122-81.796z M123.122-83.681c-0.382,0-0.693,0.31-0.693,0.691s0.312,0.693,0.693,0.693s0.693-0.312,0.693-0.693S123.504-83.681,123.122-83.681z"/>
  </g>
</g>
<g id="g24">
  <circle id="g24_1_" fill="#9A2400" cx="9.5" cy="23.008" r="0.607"/>
  <path fill="#9A2400" d="M9.5,23.766c-0.417,0-0.757-0.34-0.757-0.758c0-0.417,0.34-0.757,0.757-0.757s0.758,0.34,0.758,0.757C10.258,23.426,9.917,23.766,9.5,23.766z M9.5,22.552c-0.252,0-0.458,0.204-0.458,0.456s0.205,0.457,0.458,0.457s0.458-0.205,0.458-0.457S9.752,22.552,9.5,22.552z"/>
</g>
<g id="gfeuille" transform="translate(-1029.8311,74.628399)">
  <path id="path4138-2-28-0-4-8-9" fill="#479F00" d="M1047.146-74.6c-4.13,0.001-7.477,3.349-7.477,7.478c0.002,0.086,0.004,0.171,0.01,0.256c0.164,0.014,0.33,0.022,0.496,0.025c4.129,0,7.477-3.348,7.477-7.477c0,0,0,0,0-0.001c-0.002-0.085-0.004-0.17-0.01-0.255C1047.479-74.588,1047.313-74.597,1047.146-74.6z"/>
  <path id="path4138-2-5-2-4-7-0-2" fill="#479F00" d="M1033.14-72.8c3.172,0,5.743,2.57,5.743,5.742c-0.001,0.066-0.004,0.132-0.007,0.197c-0.127,0.012-0.254,0.018-0.381,0.02c-3.172,0-5.743-2.571-5.744-5.743c0,0,0,0,0-0.001c0.001-0.064,0.004-0.131,0.008-0.195C1032.885-72.792,1033.012-72.798,1033.14-72.8z"/>
</g>
</svg>
