<?xml version="1.0" encoding="utf-8"?>
<!DOCTYPE svg PUBLIC "-//W3C//DTD SVG 1.1//EN" "http://www.w3.org/Graphics/SVG/1.1/DTD/svg11.dtd">
<!-- Clemoji 3.0: bounce.svg (:bounce:) - licence GPLv3 or later - Author A-312 - https://zestedesavoir.com/ -->
<svg version="1.1" id="clemoji3_bounce" xmlns="http://www.w3.org/2000/svg" xmlns:xlink="http://www.w3.org/1999/xlink" x="0px" y="0px" width="19px" height="27.834px" viewBox="0 0 19 27.834" enable-background="new 0 0 19 27.834" xml:space="preserve">
<g id="g10_frame1" transform="matrix(1.25,0,0,-1.25,-2.5,62.5)">
	<animate attributeName="visibility" from="hidden" to="hidden" dur="440ms" begin="0ms" values="visible;hidden;hidden;hidden;hidden;hidden" keyTimes="0;0.2;0.4;0.6;0.8;1" repeatCount="indefinite"> </animate>
	<g id="gfeuille" transform="translate(113.91075,50.659)">
		<path id="path41" fill="#479F00" d="M-101.165-5.16c-3.139-1.035-4.918-4.192-3.975-7.052c0.022-0.059,0.043-0.117,0.065-0.175c0.127,0.031,0.256,0.067,0.381,0.106c3.14,1.033,4.918,4.192,3.975,7.051c0,0,0,0,0,0.002c-0.02,0.058-0.041,0.117-0.066,0.174C-100.911-5.084-101.04-5.121-101.165-5.16L-101.165-5.16z"/>
		<path id="path41-2" fill="#479F00" d="M-106.872-6.182c2.053-1.492,2.614-4.22,1.255-6.09c-0.029-0.038-0.057-0.077-0.089-0.114c-0.087,0.053-0.172,0.111-0.255,0.169c-2.053,1.492-2.616,4.219-1.255,6.09c0,0.001,0,0.001,0,0.001c0.029,0.038,0.059,0.075,0.089,0.112C-107.041-6.068-106.956-6.123-106.872-6.182L-106.872-6.182z"/>
	</g>
	<g id="g20" transform="translate(36,19)">
		<path id="path22" fill="#FAAC2C" d="M-18.889,15.027c0-2.89-3.362-5.232-7.511-5.232c-4.148,0-7.511,2.343-7.511,5.232c0,2.891,3.363,5.234,7.511,5.234C-22.252,20.261-18.889,17.918-18.889,15.027"/>
	</g>
	<path id="g24" display="none" fill="#FFFFFF" d="M9.82,33.929c0.116-2.061,2.266-3.633,3.437-3.634c0.802,0,2.195,0.372,3.05,3.732L9.82,33.929z"/>
	<path id="g24_1_" fill="#FFFFFF" d="M9.306,33.756c0.101-1.78,1.97-3.137,2.988-3.138c0.698,0,1.908,0.321,2.652,3.222L9.306,33.756z"/>
	<path fill="#992500" d="M7.429,34.96c-0.024,0-0.047,0.002-0.071,0.005c-0.267,0.03-0.452,0.228-0.413,0.441c0.115,0.638,0.809,1.119,1.615,1.12c0.809-0.003,1.503-0.484,1.618-1.12c0.038-0.212-0.147-0.411-0.414-0.441c-0.265-0.025-0.515,0.117-0.554,0.33c-0.046,0.256-0.325,0.45-0.65,0.45c-0.322,0-0.601-0.194-0.647-0.45C7.876,35.101,7.666,34.96,7.429,34.96z"/>
	<path fill="#992500" d="M16.598,35.929c-0.484-0.182-0.591-0.37-0.637-0.627c-0.036-0.194-0.245-0.334-0.484-0.334c-0.023,0-0.047,0.002-0.07,0.005c-0.267,0.03-0.452,0.228-0.413,0.441c0.206,0.516,0.557,0.98,1.208,1.113"/>
</g>
<g id="g10_frame2" visibility="hidden" transform="matrix(1.25,0,0,-1.25,-2.5,62.5)">
	<animate attributeName="visibility" from="hidden" to="hidden" dur="440ms" begin="0ms" values="hidden;visible;hidden;hidden;hidden;hidden" keyTimes="0;0.2;0.4;0.6;0.8;1" repeatCount="indefinite"> </animate>
	<g id="gfeuille" transform="translate(113.91075,50.659)">
		<path id="path41" fill="#479F00" d="M-99.009,0.645c-3.278,0.426-6.248-1.65-6.636-4.636c-0.006-0.063-0.013-0.124-0.017-0.186c0.128-0.027,0.26-0.05,0.39-0.069c3.278-0.428,6.248,1.65,6.636,4.635c0,0,0,0,0.001,0.002c0.007,0.061,0.014,0.123,0.016,0.185C-98.747,0.603-98.879,0.626-99.009,0.645L-99.009,0.645z"/>
		<path id="path41-2" fill="#479F00" d="M-108.635,0.236c2.538-0.031,4.572-1.933,4.544-4.245c-0.002-0.048-0.003-0.096-0.007-0.145c-0.102-0.007-0.204-0.009-0.305-0.009c-2.538,0.031-4.573,1.931-4.545,4.245c0,0.001,0,0.001,0,0.001c0.001,0.048,0.004,0.096,0.008,0.143C-108.839,0.231-108.738,0.236-108.635,0.236L-108.635,0.236z"/>
	</g>
	<g id="g20" transform="translate(36,19)">
		<path id="path22" fill="#FAAC2C" d="M-18.889,20.396c0-4.19-3.362-7.587-7.511-7.587c-4.148,0-7.511,3.398-7.511,7.587c0,4.192,3.363,7.59,7.511,7.59C-22.252,27.986-18.889,24.589-18.889,20.396"/>
	</g>
	<path id="g24" fill="#FFFFFF" d="M9.82,37.743c0.084-2.061,1.645-3.633,2.495-3.634c0.583,0,1.594,0.372,2.214,3.732L9.82,37.743z"/>
	<path fill="#992500" d="M7.429,38.961c-0.024,0-0.047,0.002-0.071,0.004c-0.267,0.03-0.452,0.228-0.413,0.441c0.115,0.637,0.809,1.118,1.615,1.12c0.809-0.003,1.503-0.484,1.618-1.12c0.038-0.213-0.147-0.411-0.414-0.441c-0.265-0.025-0.515,0.118-0.554,0.33c-0.046,0.256-0.325,0.449-0.65,0.45c-0.322-0.001-0.601-0.194-0.647-0.45C7.876,39.102,7.666,38.961,7.429,38.961z"/>
    <path fill="#992500" d="M18.878,12.821c-0.712,0-0.991,0.24-1.049,0.56c-0.045,0.242-0.307,0.418-0.604,0.418c-0.029,0-0.059-0.002-0.088-0.005c-0.334-0.038-0.564-0.285-0.517-0.552c0.144-0.797,1.131-1.399,2.269-1.399"/>
</g>
<g id="g10_frame3" visibility="hidden"  transform="matrix(1.25,0,0,-1.25,-2.5,62.5)">
	<animate attributeName="visibility" from="hidden" to="hidden" dur="440ms" begin="0ms" values="hidden;hidden;visible;hidden;hidden;hidden" keyTimes="0;0.2;0.4;0.6;0.8;1" repeatCount="indefinite"> </animate>
	<g id="gfeuille" transform="translate(113.91075,50.659)">
		<path id="path41" fill="#479F00" d="M-96.276-3.122c-2.484,2.181-6.106,2.113-8.093-0.15c-0.04-0.048-0.079-0.096-0.118-0.145c0.091-0.093,0.188-0.186,0.285-0.274c2.483-2.182,6.107-2.113,8.094,0.149c0,0,0,0,0.002,0.001c0.04,0.046,0.08,0.095,0.116,0.144C-96.083-3.303-96.179-3.211-96.276-3.122L-96.276-3.122z"/>
		<path id="path41-2" fill="#479F00" d="M-109.411-1.992c2.267,1.141,4.948,0.39,5.987-1.675c0.021-0.044,0.042-0.087,0.062-0.132c-0.088-0.053-0.177-0.102-0.266-0.149c-2.268-1.141-4.95-0.391-5.989,1.675c-0.001,0.001-0.001,0.001-0.001,0.001c-0.021,0.043-0.04,0.087-0.058,0.13C-109.59-2.09-109.503-2.039-109.411-1.992L-109.411-1.992z"/>
	</g>
	<g id="g20" transform="translate(36,19)">
		<path id="path22" fill="#FAAC2C" d="M-18.889,20.396c0-4.19-3.362-7.587-7.511-7.587c-4.148,0-7.511,3.398-7.511,7.587c0,4.192,3.363,7.59,7.511,7.59C-22.252,27.986-18.889,24.589-18.889,20.396"/>
	</g>
	<path id="g24" fill="#FFFFFF" d="M9.82,38.543c0.084-2.061,1.645-3.633,2.495-3.634c0.583,0,1.594,0.372,2.214,3.732L9.82,38.543z"/>
	<path fill="#992500" d="M7.429,40.561c-0.024,0-0.047,0.002-0.071,0.004c-0.267,0.03-0.452,0.228-0.413,0.441c0.115,0.637,0.809,1.118,1.615,1.12c0.809-0.003,1.503-0.484,1.618-1.12c0.038-0.213-0.147-0.411-0.414-0.441c-0.265-0.025-0.515,0.118-0.554,0.33c-0.046,0.256-0.325,0.449-0.65,0.45c-0.322-0.001-0.601-0.194-0.647-0.45C7.876,40.702,7.666,40.561,7.429,40.561z"/>
	<path fill="#992500" d="M16.864,41.329c-0.399-0.148-0.34-0.036-0.601-0.433c-0.036-0.194-0.245-0.334-0.484-0.334c-0.023,0-0.047,0.002-0.07,0.004c-0.267,0.03-0.452,0.228-0.413,0.441c-0.005,0.494,0.781,1.018,1.325,1.09"/>
</g>
<g id="g10_frame4" visibility="hidden"  transform="matrix(1.25,0,0,-1.25,-2.5,62.5)">
	<animate attributeName="visibility" from="hidden" to="hidden" dur="440ms" begin="0ms" values="hidden;hidden;hidden;visible;hidden;hidden" keyTimes="0;0.2;0.4;0.6;0.8;1" repeatCount="indefinite"> </animate>
	<g id="gfeuille" transform="translate(113.91075,50.659)">
		<path id="path41" fill="#479F00" d="M-96.272-4.431c-2.185,2.48-5.787,2.876-8.046,0.885c-0.045-0.043-0.091-0.085-0.136-0.129c0.079-0.104,0.163-0.209,0.248-0.309c2.184-2.482,5.788-2.876,8.047-0.886c0,0,0,0,0.001,0.001c0.046,0.041,0.091,0.084,0.134,0.128C-96.103-4.635-96.187-4.531-96.272-4.431L-96.272-4.431z"/>
		<path id="path41-2" fill="#479F00" d="M-109.484-2.836c2.162,1.33,4.897,0.81,6.108-1.159c0.025-0.042,0.05-0.083,0.073-0.126c-0.083-0.061-0.168-0.117-0.252-0.171c-2.163-1.33-4.898-0.812-6.11,1.159c0,0.001,0,0.001,0,0.001c-0.025,0.041-0.047,0.083-0.069,0.125C-109.653-2.948-109.571-2.891-109.484-2.836L-109.484-2.836z"/>
	</g>
	<g id="g20" transform="translate(36,19)">
		<path id="path22" fill="#FAAC2C" d="M-18.889,20.396c0-4.19-3.362-7.587-7.511-7.587c-4.148,0-7.511,3.398-7.511,7.587c0,4.192,3.363,7.59,7.511,7.59C-22.252,27.986-18.889,24.589-18.889,20.396"/>
	</g>
	<path id="g24" fill="#FFFFFF" d="M9.82,39.343c0.084-2.061,1.645-3.633,2.495-3.634c0.583,0,1.594,0.372,2.214,3.732L9.82,39.343z"/>
	<path fill="#992500" d="M7.429,41.361c-0.024,0-0.047,0.002-0.071,0.004c-0.267,0.03-0.452,0.228-0.413,0.441c0.115,0.638,0.809,1.118,1.615,1.12c0.809-0.003,1.503-0.484,1.618-1.12c0.038-0.213-0.147-0.411-0.414-0.441c-0.265-0.025-0.515,0.118-0.554,0.33c-0.046,0.256-0.325,0.449-0.65,0.45c-0.322-0.001-0.601-0.194-0.647-0.45C7.876,41.502,7.666,41.361,7.429,41.361z"/>
	<path fill="#992500" d="M16.628,42.078c-0.154-0.063-0.319-0.126-0.365-0.382c-0.036-0.194-0.245-0.334-0.484-0.334c-0.023,0-0.047,0.002-0.07,0.004c-0.267,0.03-0.452,0.228-0.413,0.441c0.13,0.466,0.438,1.03,0.999,1.03"/>
</g>
<g id="g10_frame5" visibility="hidden"  transform="matrix(1.25,0,0,-1.25,-2.5,62.5)">
	<animate attributeName="visibility" from="hidden" to="hidden" dur="440ms" begin="0ms" values="hidden;hidden;hidden;hidden;visible;hidden" keyTimes="0;0.2;0.4;0.6;0.8;1" repeatCount="indefinite"> </animate>
	<g id="gfeuille" transform="translate(113.91075,50.659)">
		<path id="path41" fill="#479F00" d="M-96.394-4.804c-2.841,1.691-6.39,0.964-7.93-1.625c-0.03-0.055-0.061-0.108-0.09-0.164c0.107-0.075,0.219-0.149,0.331-0.218c2.839-1.693,6.39-0.963,7.93,1.624c0,0,0,0,0.001,0.001c0.03,0.053,0.062,0.108,0.087,0.163C-96.171-4.947-96.283-4.873-96.394-4.804L-96.394-4.804z"/>
		<path id="path41-2" fill="#479F00" d="M-109.504-3.585c2.331,1.004,4.962,0.095,5.878-2.028c0.017-0.045,0.038-0.089,0.053-0.135c-0.091-0.048-0.183-0.091-0.275-0.133c-2.332-1.004-4.964-0.096-5.879,2.028c0,0.001,0,0.001,0,0.001c-0.019,0.044-0.035,0.089-0.051,0.134C-109.688-3.672-109.599-3.626-109.504-3.585L-109.504-3.585z"/>
	</g>
	<g id="g20" transform="translate(36,19)">
		<path id="path22" fill="#FAAC2C" d="M-18.889,18.796c0-4.191-3.362-7.587-7.511-7.587c-4.148,0-7.511,3.398-7.511,7.587c0,4.192,3.363,7.59,7.511,7.59C-22.252,26.386-18.889,22.989-18.889,18.796"/>
	</g>
	<path id="g24" fill="#FFFFFF" d="M9.82,38.543c0.084-2.061,1.645-3.633,2.495-3.634c0.583,0,1.594,0.372,2.214,3.732L9.82,38.543z"/>
	<path fill="#992500" d="M7.429,40.561c-0.024,0-0.047,0.002-0.071,0.004c-0.267,0.03-0.452,0.228-0.413,0.441c0.115,0.637,0.809,1.118,1.615,1.12c0.809-0.003,1.503-0.484,1.618-1.12c0.038-0.213-0.147-0.411-0.414-0.441c-0.265-0.025-0.515,0.118-0.554,0.33c-0.046,0.256-0.325,0.449-0.65,0.45c-0.322-0.001-0.601-0.194-0.647-0.45C7.876,40.702,7.666,40.561,7.429,40.561z"/>
	<path fill="#992500" d="M16.4,41.023c-0.231-0.136-0.382-0.462-0.62-0.462c-0.023,0-0.047,0.002-0.07,0.004c-0.267,0.03-0.452,0.228-0.413,0.441c-0.005,0.494,0.306,0.572,0.657,0.838"/>
</g>
<g id="g10_frame6" visibility="hidden"  transform="matrix(1.25,0,0,-1.25,-2.5,62.5)">
	<animate attributeName="visibility" from="hidden" to="hidden" dur="440ms" begin="0ms" values="hidden;hidden;hidden;hidden;hidden;visible" keyTimes="0;0.2;0.4;0.6;0.8;1" repeatCount="indefinite"> </animate>
	<g id="gfeuille" transform="translate(113.91075,50.659)">
		<path id="path41" fill="#479F00" d="M-97.822-1.536c-3.262,0.543-6.303-1.425-6.798-4.396c-0.009-0.062-0.017-0.123-0.024-0.185c0.127-0.031,0.258-0.059,0.388-0.082c3.26-0.545,6.303,1.425,6.798,4.396c0,0,0,0,0.001,0.001c0.009,0.061,0.018,0.123,0.022,0.184C-97.562-1.587-97.693-1.559-97.822-1.536L-97.822-1.536z"/>
		<path id="path41-2" fill="#479F00" d="M-108.754-1.633c2.537-0.074,4.538-2.01,4.471-4.321c-0.004-0.048-0.004-0.096-0.009-0.145c-0.102-0.005-0.204-0.006-0.305-0.004c-2.538,0.074-4.54,2.009-4.472,4.321c0,0.001,0,0.001,0,0.001c0.002,0.048,0.006,0.095,0.011,0.143C-108.958-1.634-108.858-1.631-108.754-1.633L-108.754-1.633z"/>
	</g>
	<g id="g20" transform="translate(36,19)">
		<path id="path22" fill="#FAAC2C" d="M-18.889,18.796c0-4.191-3.362-7.587-7.511-7.587c-4.148,0-7.511,3.398-7.511,7.587c0,4.192,3.363,7.59,7.511,7.59C-22.252,26.386-18.889,22.989-18.889,18.796"/>
	</g>
	<path id="g24" fill="#FFFFFF" d="M9.82,38.543c0.084-2.061,1.645-3.633,2.495-3.634c0.583,0,1.594,0.372,2.214,3.732L9.82,38.543z"/>
	<path fill="#992500" d="M7.429,40.561c-0.024,0-0.047,0.002-0.071,0.004c-0.267,0.03-0.452,0.228-0.413,0.441c0.115,0.637,0.809,1.118,1.615,1.12c0.809-0.003,1.503-0.484,1.618-1.12c0.038-0.213-0.147-0.411-0.414-0.441c-0.265-0.025-0.515,0.118-0.554,0.33c-0.046,0.256-0.325,0.449-0.65,0.45c-0.322-0.001-0.601-0.194-0.647-0.45C7.876,40.702,7.666,40.561,7.429,40.561z"/>
	<path fill="#992500" d="M16.4,41.023c-0.231-0.136-0.382-0.462-0.62-0.462c-0.023,0-0.047,0.002-0.07,0.004c-0.267,0.03-0.452,0.228-0.413,0.441c-0.005,0.494,0.306,0.572,0.657,0.838"/>
</g>
</svg>