<?xml version="1.0" encoding="utf-8"?>
<!DOCTYPE svg PUBLIC "-//W3C//DTD SVG 1.1//EN" "http://www.w3.org/Graphics/SVG/1.1/DTD/svg11.dtd">
<!-- Clemoji 3.0: clin.svg (;)) - licence GPLv3 or later - Author Buddy - https://zestedesavoir.com/ -->
<svg xmlns:dc="http://purl.org/dc/elements/1.1/" xmlns:cc="http://creativecommons.org/ns#" xmlns:rdf="http://www.w3.org/1999/02/22-rdf-syntax-ns#" xmlns:svg="http://www.w3.org/2000/svg" xmlns="http://www.w3.org/2000/svg" xmlns:xlink="http://www.w3.org/1999/xlink" xml:space="preserve" version="1.1" id="clemoji3_clin" x="0px" y="0px" width="19px" height="27.834px" viewBox="0 0 19 27.834" enable-background="new 0 0 19 27.834">
  <g id="g10" transform="matrix(1.25,0,0,-1.25,-2.5,62.5)">
    <g id="g20" transform="translate(36,19)">
      <path id="path22" fill="#FAAC2C" d="M-18.889,17.304c0-4.148-3.362-7.51-7.511-7.51c-4.148,0-7.511,3.363-7.511,7.51c0,4.148,3.363,7.511,7.511,7.511C-22.252,24.815-18.889,21.453-18.889,17.304" />
    </g>
    <path id="g24" fill="#992500" d="M9.878,31.798c-1.818,0-3.776,0.559-4.407,1.909c-0.099,0.212-0.007,0.464,0.204,0.564c0.213,0.098,0.464,0.006,0.563-0.205c0.529-1.133,2.602-1.555,4.377-1.388c0.231,0.023,0.439-0.148,0.461-0.381c0.022-0.233-0.148-0.439-0.381-0.461C10.429,31.812,10.155,31.798,9.878,31.798z"/>
    <path id="g32" fill="#992500" d="M8.369,37.196c-0.207,0-0.388,0.152-0.418,0.363c-0.063,0.436-0.443,0.766-0.884,0.766c-0.44,0-0.82-0.33-0.883-0.766c-0.033-0.233-0.25-0.391-0.479-0.359c-0.232,0.034-0.392,0.248-0.359,0.48c0.123,0.85,0.862,1.492,1.721,1.493c0.86-0.002,1.6-0.643,1.722-1.493c0.034-0.231-0.127-0.445-0.358-0.48C8.41,37.196,8.389,37.196,8.369,37.196z"/>
    <g id="g36" transform="translate(26.5,22.5)">
      <path id="path38" fill="#992500" d="M-13.337,15.638c0-0.808-0.467-1.461-1.044-1.461s-1.042,0.653-1.042,1.461c0,0.805,0.466,1.459,1.042,1.459S-13.337,16.443-13.337,15.638"/>
    </g>
    <g id="gfeuille" transform="translate(113.91075,50.659)">
      <path id="path41" fill="#479F00" d="M-98.058-0.666c-3.305,0-5.983-2.679-5.982-5.982c0.002-0.069,0.004-0.137,0.007-0.205c0.131-0.011,0.264-0.018,0.396-0.02c3.304-0.001,5.983,2.678,5.983,5.982c0,0,0,0,0,0.001c-0.002,0.068-0.004,0.136-0.008,0.204C-97.792-0.675-97.926-0.668-98.058-0.666L-98.058-0.666z" />
      <path id="path41-2" fill="#479F00" d="M-109.264-2.106c2.538,0,4.595-2.058,4.595-4.595c-0.001-0.053-0.002-0.105-0.005-0.158c-0.102-0.009-0.204-0.013-0.305-0.015c-2.538-0.001-4.596,2.057-4.596,4.595c0,0.001,0,0.001,0,0.001c0.001,0.052,0.003,0.105,0.006,0.157C-109.468-2.113-109.367-2.107-109.264-2.106L-109.264-2.106z" />
    </g>
  </g>
</svg>