<?xml version="1.0" encoding="utf-8"?>
<!DOCTYPE svg PUBLIC "-//W3C//DTD SVG 1.1//EN" "http://www.w3.org/Graphics/SVG/1.1/DTD/svg11.dtd">
<!-- Clemoji 3.0: cthulhu.svg (^(;,;)^) - licence GPLv3 or later - Author Buddy - https://zestedesavoir.com/ -->
<svg version="1.1"
   id="clemoji3_cthulhu" xmlns:dc="http://purl.org/dc/elements/1.1/" xmlns:cc="http://creativecommons.org/ns#" xmlns:rdf="http://www.w3.org/1999/02/22-rdf-syntax-ns#" xmlns:svg="http://www.w3.org/2000/svg"
   xmlns="http://www.w3.org/2000/svg" xmlns:xlink="http://www.w3.org/1999/xlink" x="0px" y="0px" width="30px" height="27.834px"
   viewBox="-5.5 0 30 27.834" enable-background="new -5.5 0 30 27.834" xml:space="preserve">
<g id="g4657" transform="matrix(0.17648675,0,0,0.17648675,45.532698,56.480245)">
  <circle id="path4136" fill="#479F00" cx="-202.249" cy="-278.724" r="39.992"/>
  <path id="path4214" fill="#F8AD32" d="M-220.919-286.172c-3.27,0-5.921,2.651-5.921,5.918c0,3.27,2.651,5.915,5.918,5.915c0,0,0,0,0.003,0c3.268,0,5.918-2.645,5.918-5.915l0,0C-215.004-283.521-217.657-286.172-220.919-286.172z M-183.583-286.172c-3.265,0-5.91,2.651-5.91,5.918c0,3.27,2.645,5.915,5.91,5.915l0,0c3.275,0,5.92-2.645,5.92-5.915l0,0C-177.662-283.521-180.307-286.172-183.583-286.172z"/>
  <path id="path4235" fill="#479F00" d="M-251.43-267.09l-6.12,4.9l-2.448,6.529l-5.716,2.446l-10.201-1.223l13.062,4.49l6.527-2.451l4.078-5.304l9.797,1.632l5.713,4.897l-13.056-1.635l-8.164,5.309l-3.265,11.017l-4.49,8.156l-11.423,2.451l-8.165-2.036l13.062,6.939l12.242-2.855l8.978-8.981l4.897-6.941l9.794,2.858l16.738-1.63l-12.655,3.671l-9.794,8.571l0.813,15.095l2.045,10.204l-6.942,6.939l-12.649-2.036l11.432,6.524l11.011-1.632l8.98-9.385l-0.816-12.245l1.226-9.379l10.607-2.861l4.831-2.302l-1.073,6.994l4.391,8.466l-8.676,7.448l-1.123,10.613l13.695,12.24l1.223,12.859l5.052-12.81l-1.815-4.82l-6.3-10.939l9.719-5.511l3.873-8.366l-2.656-9.385l1.107-5.306l5.91,0.819l10.613,2.861l1.229,9.379l-0.819,12.245l8.986,9.385l11.022,1.632l11.421-6.524l-12.649,2.036l-6.939-6.939l2.036-10.204l0.819-15.095l-9.794-8.571l-12.66-3.671l16.744,1.63l9.794-2.858l4.891,6.941l8.986,8.981l12.24,2.855l13.059-6.939l-8.167,2.036l-11.432-2.451l-4.482-8.156l-3.265-11.017l-8.156-5.309l-13.064,1.635l5.716-4.897l9.794-1.632l4.083,5.304l6.529,2.451l13.059-4.49l-10.215,1.223l-5.699-2.446l-2.457-6.529l-6.12-4.9l-12.649,4.081l-12.649,12.652l-23.876,7.578l-23.876-7.578l-12.646-12.652L-251.43-267.09z"/>
  <path id="path4256" fill="#479F00" d="M-214.049-260.453l-7.758,2.036l-9.385,4.083l-7.755,9.797l-8.654,15.463l-7.589,4.117l9.224-0.033l8.082-6.9l10.773-11.424l6.941-2.039l10.61-0.822l7.31-5.384l7.307,5.384l10.613,0.822l6.939,2.039l10.768,11.424l8.084,6.9l9.224,0.033l-7.592-4.117l-8.649-15.463l-7.758-9.797l-9.39-4.083l-7.752-2.036l-11.797,8.256L-214.049-260.453z"/>
  <path id="path4391" fill="#873A03" d="M-220.869-282.672c-1.408,0-2.551,1.14-2.551,2.548c0,1.411,1.143,2.551,2.551,2.551l0,0c1.408,0,2.548-1.14,2.548-2.551C-218.321-281.532-219.461-282.672-220.869-282.672z M-183.627-282.672c-1.417,0-2.556,1.14-2.556,2.548c0,1.411,1.14,2.551,2.556,2.551c1.406,0,2.545-1.14,2.545-2.551l0,0C-181.082-281.532-182.221-282.672-183.627-282.672z"/>
  <path id="path4138-8" fill="#81D43F" d="M-200.006-315.042l-15.51,2.039l-10.61,6.939l-3.267,8.162l3.267-2.858l5.713,5.716l-0.407-5.716l2.451-4.081l3.666,6.123l6.942,2.451l-5.716-6.123v-3.674l8.165,1.223l0.407,3.268l6.123-2.446l-7.348-4.086l6.944-0.811l8.156,4.897l-1.627-5.306l11.432,2.446l-3.685-3.671L-200.006-315.042z M-235.438-289.149l-2.759,6.405l6.892,8.051l19.53,0.719l5.702,1.666l-4.872-3.591l-18.697-2.639l-5.755-4.435L-235.438-289.149z M-169.063-289.149l-0.039,6.175l-5.754,4.435l-18.697,2.639l-4.88,3.591l5.705-1.666l19.532-0.719l6.889-8.051L-169.063-289.149z M-206.123-268.925l-5.713,7.345l-6.941,1.226l-12.649,5.713l-6.532,7.346l-1.632,6.941l3.674-5.306l4.905-6.123l5.708-1.632l15.1-5.713L-206.123-268.925z M-198.379-268.925l4.084,9.797l15.095,5.713l5.716,1.632l4.903,6.12l3.674,5.309l-1.638-6.941l-6.524-7.351l-12.655-5.708l-6.944-1.226L-198.379-268.925z M-240.194-261.953l4.903,3.749l3.464,1.444l6.632-3.173l-6.632,0.86l-4.905-2.595L-240.194-261.953z
     M-164.305-261.953l-3.464,0.285l-4.902,2.595l-6.64-0.86l6.64,3.173l3.464-1.447L-164.305-261.953z M-202.252-256.203l-4.543,3.882l-8.743,4.122l-0.775,4.493l0.407,1.217l3.674,3.303l-1.469,3.041l-5.345,5.378l6.12-3.32l2.839-6.839l-2.266-2.825l1.707-5.265l4.703-2.227h7.387l4.698,2.227l1.71,5.265l-2.263,2.825l2.839,6.839l6.12,3.32l-5.345-5.378l-1.472-3.041l3.674-3.303l0.41-1.217l-0.775-4.493l-8.743-4.122L-202.252-256.203z M-204.809-232.565l-2.542,3.63l3.339-1.035l-0.434,6.458l-1.01,3.287l1.92-0.454l3.121,5.212l0.05,4.488l-5.694,2.236l-4.219,5.279l-2.329,5.168l6.477,5.688l-4.222-5.766l1.276-4.748l4.631-4.084l4.297-0.963l3.674-3.331l-1.682-5.279l-2.446-3.442l-1.441-4.227l3.644-0.885l-3.597-1.704l0.719-3.674l3.265,1.229l-1.948-2.811L-204.809-232.565z M-232.337-229.35l-5.478,5.196l2.305,14.431l0.291-13.85L-232.337-229.35z M-172.167-229.35l2.889,5.777l0.293,13.85l2.308-14.431L-172.167-229.35z"/>
  <path id="path4138" fill="#356B09" d="M-238.426-294.179l5.536,2.161l4.407,10.201l3.547-4.523l7.949,5.68l3.148-0.268l0.044,3.541l7.182-5.434l1.729-6.762l-3.801,4.866h-7.26l-16.426-9.324L-238.426-294.179z M-166.081-294.179l-6.048,0.135l-16.423,9.326h-7.26l-3.807-4.866l1.732,6.762l7.287,4.617l0.343-2.725l2.739,0.268l7.951-5.683l3.829,4.086l4.117-9.764L-166.081-294.179z
     M-238.321-278.043l3.461,8.947l3.464,2.307l-1.732-3.467l4.62,2.313l8.654-2.022l-10.386-1.732l-4.62-2.017L-238.321-278.043z
     M-166.175-278.043l-3.464,4.33l-4.62,2.017l-10.386,1.732l8.654,2.022l4.615-2.31l-1.727,3.464l3.464-2.304L-166.175-278.043z
     M-187.445-248.891l0.874,3.035l2.733-0.722l6.12,3.912l4.432,3.32l-3.281-4.617l-6.396-4.49L-187.445-248.891z M-217.059-248.792l-4.479,0.434l-6.399,4.49l-3.284,4.62l4.435-3.325l6.12-3.906l2.739,0.719L-217.059-248.792z M-244.22-247.793l-4.903,0.291l0.288,3.464l-1.441,2.304l-2.888-1.154l-2.302,3.757l2.593,2.299l-2.02,3.464l-2.595,0.282l-1.156,3.464l5.196-2.883l4.042-5.478l2.598-4.33l4.324,2.02l1.154-3.171l-3.171-0.869L-244.22-247.793z M-160.282-247.793l0.288,3.461l-3.176,0.869l1.156,3.171l4.321-2.02l2.606,4.33l4.034,5.478l5.196,2.883l-1.156-3.464l-2.59-0.282l-2.02-3.464l2.59-2.299l-2.308-3.757l-2.888,1.154l-1.439-2.302l0.288-3.467L-160.282-247.793z M-204.399-246.479l-3.361,4.891l0.412,3.622l2.435-5.03l2.847-1.419l2.664,1.621l2.197,5.42l0.465-3.799l-3.165-5.306H-204.399z M-207.664-235.813l-4.474,4.914l-8.798,2.739l-2.022,3.176l3.035-2.739l8.22-1.881L-207.664-235.813z M-196.841-235.813l4.039,6.208l8.223,1.881l3.032,2.733l-2.014-3.17l-8.803-2.739L-196.841-235.813z
     M-230.137-215.046l-1.427,7.188l-0.114,5.771l-7.229,9.733l5.273-3.945l4.18-4.421l0.044-8.023L-230.137-215.046z
     M-174.364-215.046l-0.725,6.302l0.039,8.023l4.189,4.421l5.273,3.945l-7.232-9.733l-0.111-5.771L-174.364-215.046z"/>
</g>
</svg>
