<?xml version="1.0" encoding="utf-8"?>
<!DOCTYPE svg PUBLIC "-//W3C//DTD SVG 1.1//EN" "http://www.w3.org/Graphics/SVG/1.1/DTD/svg11.dtd">
<!-- Clemoji 3.0: diable.svg (:diable:) - licence GPLv3 or later - Author Buddy - https://zestedesavoir.com/ -->
<svg version="1.1" id="clemoji3_diable" xmlns:dc="http://purl.org/dc/elements/1.1/" xmlns:cc="http://creativecommons.org/ns#" xmlns:rdf="http://www.w3.org/1999/02/22-rdf-syntax-ns#" xmlns:svg="http://www.w3.org/2000/svg" xmlns="http://www.w3.org/2000/svg" xmlns:xlink="http://www.w3.org/1999/xlink" x="0px" y="0px" width="26.972px" height="27.688px" viewBox="0 0.146 26.972 27.688" enable-background="new 0 0.146 26.972 27.688" xml:space="preserve">
<g id="g10" transform="translate(-716.18606,-6.555118)">
  <path id="gcorne" fill="#479F00" d="M717.225,11.149c-0.298,0.787-0.452,1.611-0.455,2.441c0,4.311,3.991,7.807,8.915,7.807c4.925,0,8.915-3.495,8.917-7.807l0,0c-0.004-0.826-0.158-1.646-0.455-2.429c-1.203,3.199-4.615,5.362-8.462,5.364C721.835,16.521,718.423,14.353,717.225,11.149L717.225,11.149z"/>
  <g id="gqueue" transform="translate(57.917999,-0.62614057)">
      <path id="path4687-4" fill="none" stroke="#48A000" stroke-width="1.7" stroke-linecap="round" stroke-linejoin="round" d="M675.292,26.952c2.861-0.489,2.395,3.069,5.963,0.662"/>
    <path id="path4138-2-5" fill="#479F00" d="M684.778,23.885c-3.168-0.157-4.754,1.278-4.912,4.447c-0.006,0.065,0,0.131,0,0.196c0.127,0.018,0.254,0.029,0.381,0.038c3.168,0.158,4.754-1.278,4.912-4.446c0.006-0.065,0-0.132,0-0.196C685.032,23.907,684.905,23.894,684.778,23.885L684.778,23.885z
      "/>
  </g>
  <circle id="g20" fill="#F98634" cx="725.686" cy="23.643" r="9.388"/>
  <g id="g32" transform="translate(57.998669,-0.62614057)">
    <path id="path4614-8" fill="#FFFFFF" d="M664.764,20.676c-1.43,0-2.61,1.179-2.61,2.609c0,1.432,1.179,2.611,2.61,2.611s2.61-1.182,2.61-2.611S666.194,20.676,664.764,20.676z"/>
    <path id="path4610-8" fill="#FFFFFF" d="M670.706,20.676c-1.431,0-2.61,1.18-2.61,2.609s1.179,2.611,2.61,2.611c1.431,0,2.61-1.182,2.61-2.611S672.136,20.676,670.706,20.676z"/>
  </g>
  <g id="g30" transform="translate(57.998321,-0.62614057)">
    <g>
      <circle id="g36" fill="#BC310C" cx="664.764" cy="23.318" r="0.972"/>
      <path fill="#BC310C" d="M664.764,24.604c-0.709,0-1.287-0.576-1.287-1.285c0-0.711,0.577-1.287,1.287-1.287s1.287,0.576,1.287,1.287C666.051,24.028,665.474,24.604,664.764,24.604z M664.764,22.661c-0.362,0-0.657,0.295-0.657,0.658c0,0.361,0.295,0.656,0.657,0.656c0.363,0,0.658-0.295,0.658-0.656C665.421,22.956,665.127,22.661,664.764,22.661z"/>
    </g>
    <g>
      <circle id="g38" fill="#BC310C" cx="670.707" cy="23.318" r="0.972"/>
      <path fill="#BC310C" d="M670.707,24.604c-0.71,0-1.288-0.576-1.288-1.285c0-0.711,0.578-1.287,1.288-1.287c0.709,0,1.287,0.576,1.287,1.287C671.994,24.028,671.417,24.604,670.707,24.604z M670.707,22.661c-0.363,0-0.658,0.295-0.658,0.658c0,0.361,0.295,0.656,0.658,0.656c0.361,0,0.658-0.295,0.658-0.656C671.365,22.956,671.068,22.661,670.707,22.661z"/>
    </g>
  </g>
  <g id="g40" transform="translate(58.028669,-0.62614057)">
    <path fill="#BC310C" d="M666.415,22.167c-0.192,0-0.386-0.062-0.55-0.188l-2.577-1.991c-0.393-0.304-0.466-0.869-0.162-1.263c0.305-0.393,0.869-0.465,1.263-0.162l2.577,1.991c0.393,0.304,0.466,0.869,0.162,1.262C666.95,22.046,666.684,22.167,666.415,22.167z"/>
    <path fill="#BC310C" d="M668.994,22.167c-0.27,0-0.536-0.12-0.713-0.35c-0.304-0.394-0.232-0.959,0.161-1.263l2.576-1.991c0.395-0.306,0.961-0.23,1.263,0.162c0.304,0.393,0.231,0.958-0.161,1.262l-2.576,1.991C669.38,22.105,669.186,22.167,668.994,22.167z"/>
  </g>
  <path id="g24" fill="#FFFFFF" d="M719.789,25.471c1.666,1.159,3.378,1.71,5.944,1.71c2.566,0,4.278-0.552,5.943-1.71c0.357,1.237,0.373,2.071,0.164,2.576c-0.232,0.558-0.691,0.851-1.243,1.116c-1.015,0.489-2.94,0.881-4.864,0.881c-1.925,0-3.851-0.392-4.865-0.881c-0.551-0.267-1.008-0.559-1.241-1.116C719.417,27.542,719.432,26.708,719.789,25.471L719.789,25.471z"/>
</g>
</svg>
