<?xml version="1.0" encoding="utf-8"?>
<!DOCTYPE svg PUBLIC "-//W3C//DTD SVG 1.1//EN" "http://www.w3.org/Graphics/SVG/1.1/DTD/svg11.dtd">
<!-- Clemoji 3.0: heureux.svg (:D) - licence GPLv3 or later - Author Buddy - https://zestedesavoir.com/ -->
<svg xmlns:dc="http://purl.org/dc/elements/1.1/" xmlns:cc="http://creativecommons.org/ns#" xmlns:rdf="http://www.w3.org/1999/02/22-rdf-syntax-ns#" xmlns:svg="http://www.w3.org/2000/svg" xmlns="http://www.w3.org/2000/svg" xmlns:xlink="http://www.w3.org/1999/xlink" xml:space="preserve" version="1.1" id="clemoji3_heureux" x="0px" y="0px" width="19px" height="27.834px" viewBox="0 0 19 27.834" enable-background="new 0 0 19 27.834">
<g id="g10" transform="matrix(1.25,0,0,-1.25,-2.5,62.5)">
  <g id="gfeuille" transform="translate(534.89964,38.181717)">
    <path id="path41" fill="#479F00" d="M-519.048,10.95c-3.303,0-5.981-2.679-5.981-5.982c0.001-0.069,0.004-0.138,0.007-0.205c0.133-0.011,0.266-0.018,0.397-0.02c3.305-0.001,5.983,2.677,5.983,5.981c0,0,0,0,0,0.001c-0.002,0.068-0.005,0.136-0.008,0.204C-518.782,10.94-518.915,10.947-519.048,10.95L-519.048,10.95z"/>
    <path id="path41-2" fill="#479F00" d="M-530.254,9.51c2.537,0,4.595-2.058,4.594-4.595c-0.001-0.052-0.003-0.105-0.006-0.157c-0.101-0.009-0.203-0.013-0.305-0.015c-2.537-0.001-4.594,2.056-4.595,4.594c0,0,0,0,0,0c0.001,0.053,0.003,0.105,0.006,0.157C-530.457,9.503-530.355,9.509-530.254,9.51L-530.254,9.51z"/>
  </g>
  <g id="g20" transform="translate(36,19)">
    <path id="path22" fill="#FAAC2C" d="M-18.889,17.304c0-4.148-3.362-7.509-7.511-7.509c-4.148,0-7.511,3.362-7.511,7.509c0,4.148,3.363,7.511,7.511,7.511C-22.252,24.815-18.889,21.453-18.889,17.304"/>
  </g>
  <path id="g24" fill="#FFFFFF" d="M3.844,36.163c0.294-2.958,2.781-5.212,5.754-5.216c2.976,0,5.467,2.255,5.761,5.216H3.844z"/>
  <path id="g32" fill="#9A2400" d="M5.547,38.296c-0.025,0-0.051,0.003-0.077,0.009c-0.194,0.042-0.317,0.234-0.275,0.428c0.155,0.709,0.706,1.479,1.282,1.791c0.376,0.204,0.953,0.341,1.397,0.187c0.245-0.085,0.425-0.249,0.522-0.473c0.078-0.183-0.005-0.395-0.188-0.473c-0.183-0.079-0.394,0.005-0.473,0.188c-0.007,0.017-0.022,0.052-0.097,0.077c-0.192,0.067-0.551,0.005-0.818-0.138c-0.347-0.189-0.801-0.761-0.921-1.312C5.861,38.411,5.712,38.296,5.547,38.296z"/>
  <path id="g36" fill="#9A2400" d="M13.655,38.296c-0.166,0-0.314,0.115-0.352,0.284c-0.12,0.551-0.573,1.123-0.922,1.312c-0.266,0.144-0.625,0.205-0.817,0.138c-0.075-0.026-0.091-0.06-0.097-0.077c-0.08-0.182-0.291-0.266-0.473-0.188c-0.183,0.078-0.267,0.29-0.188,0.473c0.095,0.223,0.277,0.387,0.522,0.473c0.444,0.154,1.02,0.017,1.395-0.186c0.577-0.313,1.128-1.083,1.283-1.791c0.042-0.194-0.08-0.386-0.275-0.428C13.706,38.299,13.68,38.296,13.655,38.296z"/>
</g>
</svg>