<?xml version="1.0" encoding="utf-8"?>
<!DOCTYPE svg PUBLIC "-//W3C//DTD SVG 1.1//EN" "http://www.w3.org/Graphics/SVG/1.1/DTD/svg11.dtd">
<!-- Clemoji 3.0: hihi.svg (^^) - licence GPLv3 or later - Author Buddy - https://zestedesavoir.com/ -->
<svg xmlns:dc="http://purl.org/dc/elements/1.1/" xmlns:cc="http://creativecommons.org/ns#" xmlns:rdf="http://www.w3.org/1999/02/22-rdf-syntax-ns#" xmlns:svg="http://www.w3.org/2000/svg" xmlns="http://www.w3.org/2000/svg" xmlns:xlink="http://www.w3.org/1999/xlink" xml:space="preserve" version="1.1" id="clemoji3_hihi" x="0px" y="0px" width="19px" height="27.834px" viewBox="0 0 19 27.834" enable-background="new 0 0 19 27.834">
  <g id="g10" transform="matrix(1.25,0,0,-1.25,-2.5,62.5)">
    <g id="g20" transform="translate(36,19)">
      <path id="path22" fill="#FAAC2C" d="M-18.889,17.304c0-4.148-3.362-7.51-7.511-7.51c-4.148,0-7.511,3.363-7.511,7.51c0,4.148,3.363,7.511,7.511,7.511C-22.252,24.815-18.889,21.453-18.889,17.304" />
    </g>
    <path id="g24" fill="#992500" d="M7.959,31.165c-0.461,0-1.28,0.327-1.92,0.95c-0.421,0.409-0.915,1.085-1.029,2.08H4.986c-0.234,0-0.423,0.189-0.423,0.423c0,0.233,0.189,0.423,0.423,0.423h0.423c0.234,0,0.423-0.189,0.423-0.423c0.002-0.747,0.27-1.385,0.796-1.897c0.522-0.506,1.152-0.723,1.334-0.709c0.235,0.005,0.428-0.178,0.434-0.412c0.005-0.234-0.179-0.427-0.413-0.434C7.977,31.165,7.968,31.165,7.959,31.165z"/>
    <path id="g32" fill="#992500" d="M8.09,37.196c-0.207,0-0.388,0.152-0.418,0.363c-0.063,0.436-0.443,0.766-0.884,0.766c-0.44,0-0.82-0.33-0.883-0.766c-0.033-0.233-0.25-0.391-0.479-0.359c-0.232,0.034-0.392,0.248-0.359,0.48c0.123,0.85,0.862,1.491,1.721,1.493c0.86-0.002,1.6-0.643,1.722-1.493c0.034-0.231-0.127-0.445-0.358-0.48C8.131,37.196,8.11,37.196,8.09,37.196z"/>
    <path id="g36" fill="#992500" d="M13.567,37.196c-0.206,0-0.388,0.152-0.417,0.363c-0.064,0.436-0.444,0.766-0.884,0.766c-0.44,0-0.82-0.33-0.883-0.766c-0.033-0.233-0.25-0.391-0.479-0.359c-0.232,0.034-0.392,0.248-0.359,0.48c0.123,0.85,0.861,1.491,1.72,1.493c0.859-0.002,1.6-0.643,1.722-1.493c0.034-0.231-0.127-0.445-0.358-0.48C13.609,37.196,13.587,37.196,13.567,37.196z"/>
    <g id="gfeuille" transform="translate(113.91075,50.659)">
      <path id="path41" fill="#479F00" d="M-98.058-0.666c-3.305,0-5.983-2.679-5.982-5.982c0.002-0.069,0.004-0.137,0.007-0.205c0.131-0.011,0.264-0.018,0.396-0.02c3.304-0.001,5.983,2.678,5.983,5.982c0,0,0,0,0,0.001c-0.002,0.068-0.004,0.136-0.008,0.204C-97.792-0.675-97.926-0.668-98.058-0.666L-98.058-0.666z" />
      <path id="path41-2" fill="#479F00" d="M-109.264-2.106c2.538,0,4.595-2.058,4.595-4.595c-0.001-0.053-0.002-0.105-0.005-0.158c-0.102-0.009-0.204-0.013-0.305-0.015c-2.538-0.001-4.596,2.057-4.596,4.595c0,0.001,0,0.001,0,0.001c0.001,0.052,0.003,0.105,0.006,0.157C-109.468-2.113-109.367-2.107-109.264-2.106L-109.264-2.106z" />
    </g>
  </g>
</svg>