<?xml version="1.0" encoding="utf-8"?>
<!DOCTYPE svg PUBLIC "-//W3C//DTD SVG 1.1//EN" "http://www.w3.org/Graphics/SVG/1.1/DTD/svg11.dtd">
<!-- Clemoji 3.0: huh.svg (^^) - licence GPLv3 or later - Author Buddy - https://zestedesavoir.com/ -->
<svg version="1.1"
   id="clemoji3_huh" xmlns:dc="http://purl.org/dc/elements/1.1/" xmlns:cc="http://creativecommons.org/ns#" xmlns:rdf="http://www.w3.org/1999/02/22-rdf-syntax-ns#" xmlns:svg="http://www.w3.org/2000/svg"
   xmlns="http://www.w3.org/2000/svg" xmlns:xlink="http://www.w3.org/1999/xlink" x="0px" y="0px" width="20.313px"
   height="27.834px" viewBox="0 0 20.313 27.834" enable-background="new 0 0 20.313 27.834" xml:space="preserve">
<g id="g10" transform="translate(428.24117,-224.83092)">
  <path id="path4138-2-28-0-4-5-2" fill="#479F00" d="M-408.326,229.728c-3.408-2.041-7.824-0.933-9.865,2.475c-0.041,0.071-0.082,0.144-0.119,0.217c0.129,0.093,0.262,0.182,0.397,0.266c3.407,2.041,7.824,0.934,9.865-2.475l0,0c0.041-0.071,0.08-0.144,0.119-0.216C-408.058,229.903-408.19,229.813-408.326,229.728z"/>
  <circle id="path4138-0-0-4-1-7" fill="#F8AD32" cx="-418.742" cy="241.949" r="9.389"/>
  <g>
    <circle id="path4213-6-3-5-8-9-4_1_" fill="#992500" cx="-421.323" cy="240.518" r="0.817"/>
    <path fill="#9A2400" d="M-421.323,241.6c-0.597,0-1.082-0.485-1.082-1.082s0.485-1.082,1.082-1.082c0.598,0,1.082,0.485,1.082,1.082S-420.726,241.6-421.323,241.6z M-421.323,239.967c-0.305,0-0.553,0.248-0.553,0.553s0.248,0.553,0.553,0.553c0.306,0,0.553-0.248,0.553-0.553S-421.017,239.967-421.323,239.967z"/>
  </g>
  <g>
    <circle id="path4213-6-6-7-8-8-3-2_1_" fill="#992500" cx="-415.232" cy="241.643" r="0.817"/>
    <path fill="#9A2400" d="M-415.232,242.724c-0.596,0-1.082-0.484-1.082-1.082s0.486-1.082,1.082-1.082c0.598,0,1.082,0.484,1.082,1.082S-414.636,242.724-415.232,242.724z M-415.232,241.09c-0.305,0-0.553,0.248-0.553,0.554s0.248,0.554,0.553,0.554c0.306,0,0.554-0.248,0.554-0.554S-414.927,241.09-415.232,241.09z"/>
  </g>
  <path id="path4138-2-5-1" fill="#479F00" d="M-423.926,226.657c3.172,0,5.744,2.572,5.744,5.744c-0.001,0.065-0.004,0.131-0.008,0.197c-0.127,0.01-0.254,0.017-0.382,0.019c-3.171,0-5.743-2.571-5.743-5.743l0,0c0.001-0.065,0.004-0.13,0.008-0.196C-424.181,226.665-424.053,226.659-423.926,226.657L-423.926,226.657z"/>
  <g>
    <ellipse id="path4213-6-6-7-8-8-3-2-1_1_" transform="matrix(-0.9565 -0.2919 0.2919 -0.9565 -893.6536 362.3086)" fill="#992500" cx="-419.803" cy="247.809" rx="0.954" ry="1.071"/>
    <path fill="#9A2400" d="M-419.862,249.197c-0.117,0-0.232-0.018-0.346-0.052c-0.675-0.205-1.041-0.974-0.817-1.71c0.221-0.719,0.971-1.164,1.634-0.963c0.675,0.205,1.042,0.973,0.817,1.71C-418.757,248.781-419.287,249.197-419.862,249.197z
       M-419.739,247.076c-0.29,0-0.563,0.227-0.662,0.551c-0.119,0.393,0.054,0.793,0.384,0.895c0.327,0.1,0.698-0.146,0.816-0.527c0.119-0.394-0.053-0.795-0.383-0.896C-419.633,247.084-419.685,247.076-419.739,247.076z"/>
  </g>
  <path fill="#9A2400" d="M-424.066,239.613c-0.165,0-0.304-0.129-0.315-0.295c-0.084-1.159,0.293-2.16,1.06-2.819c0.743-0.638,1.785-0.883,2.786-0.654c0.171,0.038,0.278,0.209,0.239,0.38s-0.209,0.278-0.38,0.239c-0.809-0.184-1.642,0.01-2.231,0.518c-0.61,0.524-0.909,1.338-0.84,2.29c0.012,0.175-0.119,0.327-0.294,0.341C-424.049,239.611-424.057,239.613-424.066,239.613z"/>
  <path fill="#9A2400" d="M-413.881,239.51c-0.153,0-0.288-0.111-0.313-0.268c-0.113-0.701-0.813-1.111-1.786-1.047c-0.177,0.015-0.325-0.12-0.338-0.295c-0.012-0.175,0.121-0.326,0.295-0.338c1.302-0.087,2.287,0.547,2.455,1.578c0.028,0.173-0.089,0.337-0.262,0.364C-413.847,239.508-413.864,239.51-413.881,239.51z"/>
</g>
</svg>
