<?xml version="1.0" encoding="utf-8"?>
<!DOCTYPE svg PUBLIC "-//W3C//DTD SVG 1.1//EN" "http://www.w3.org/Graphics/SVG/1.1/DTD/svg11.dtd">
<!-- Clemoji 3.0: langue.svg (:p) - licence GPLv3 or later - Author Buddy - https://zestedesavoir.com/ -->
<svg version="1.1"
   id="clemoji3_langue" xmlns:dc="http://purl.org/dc/elements/1.1/" xmlns:cc="http://creativecommons.org/ns#" xmlns:rdf="http://www.w3.org/1999/02/22-rdf-syntax-ns#" xmlns:svg="http://www.w3.org/2000/svg"
   xmlns="http://www.w3.org/2000/svg" xmlns:xlink="http://www.w3.org/1999/xlink" x="0px" y="0px" width="19px" height="27.834px"
   viewBox="0 0 19 27.834" enable-background="new 0 0 19 27.834" xml:space="preserve">
<g id="g10_1_" transform="translate(-777.7796,-6.548008)">
  <g id="gfeuille_1_" transform="translate(1074.5543,38.41794)">
    <path id="path4138-2-28-0" fill="#479F00" d="M-279.46-30.785c-4.129,0-7.477,3.348-7.477,7.477c0.002,0.086,0.005,0.172,0.009,0.257c0.166,0.014,0.332,0.022,0.496,0.024c4.131,0.001,7.479-3.347,7.479-7.476c0,0,0,0,0-0.001c-0.002-0.085-0.004-0.17-0.01-0.255C-279.128-30.773-279.294-30.782-279.46-30.785z"/>
    <path id="path4138-2-5-2-4" fill="#479F00" d="M-293.469-28.986c3.173,0,5.743,2.571,5.743,5.744c-0.001,0.065-0.004,0.131-0.007,0.196c-0.127,0.011-0.254,0.017-0.381,0.019c-3.172,0.001-5.743-2.57-5.743-5.742l0,0c0.001-0.066,0.003-0.131,0.007-0.197C-293.722-28.978-293.596-28.984-293.469-28.986z"/>
  </g>
  <circle id="g20_1_" fill="#F8AD32" cx="787.28" cy="23.666" r="9.389"/>
  <path id="g24_1_" fill="#9A2400" d="M782.578,26.504c-0.065,0-0.13-0.013-0.191-0.035c-0.847-0.328-1.365-0.871-1.544-1.615c-0.067-0.284,0.107-0.57,0.393-0.639c0.286-0.065,0.569,0.107,0.638,0.392c0.057,0.239,0.204,0.581,0.811,0.84h9.008c0.549-0.217,0.711-0.478,0.801-0.843c0.07-0.283,0.359-0.455,0.641-0.389c0.283,0.07,0.457,0.357,0.389,0.642c-0.197,0.8-0.678,1.299-1.555,1.616c-0.059,0.021-0.119,0.031-0.18,0.031H782.578z"/>
  <path id="gfond" fill="#EA495F" d="M785.191,28.645c0.029,0.777,0.96,1.669,1.947,1.591c1.02-0.062,1.92-0.709,1.989-1.431v-2.744l-4.055-0.078L785.191,28.645z"/>
  <path id="gbarre" fill="#9A2400" d="M787.181,28.12c-0.292,0-0.528-0.235-0.528-0.528v-1.617c0-0.291,0.236-0.528,0.528-0.528l0,0c0.292,0,0.529,0.235,0.529,0.528v1.617C787.711,27.885,787.473,28.12,787.181,28.12L787.181,28.12z"/>
  <path id="glangue_1_" fill="#9A2400" d="M787.18,30.567c-1.306,0-2.367-1.063-2.367-2.369v-2.223c0-0.219,0.178-0.396,0.396-0.396h3.943c0.219,0,0.396,0.179,0.396,0.396v2.224C789.549,29.504,788.487,30.567,787.18,30.567z M785.607,26.371v1.826c0,0.869,0.706,1.575,1.573,1.575c0.869,0,1.576-0.706,1.576-1.575v-1.826H785.607z"/>
  <g id="g30">
    <path fill="#9A2400" d="M782.115,21.176c-0.032,0-0.064-0.002-0.097-0.01c-0.243-0.054-0.396-0.293-0.344-0.536c0.193-0.886,0.882-1.849,1.603-2.238c0.47-0.255,1.19-0.426,1.746-0.233c0.307,0.106,0.531,0.312,0.652,0.591c0.099,0.229-0.007,0.493-0.234,0.591c-0.229,0.099-0.493-0.007-0.592-0.234c-0.009-0.021-0.026-0.064-0.121-0.097c-0.24-0.084-0.689-0.007-1.022,0.173c-0.434,0.236-1.001,0.951-1.151,1.641C782.508,21.032,782.322,21.176,782.115,21.176z"/>
    <path fill="#9A2400" d="M792.248,21.176c-0.207,0-0.393-0.144-0.439-0.354c-0.15-0.688-0.717-1.403-1.152-1.64c-0.332-0.18-0.781-0.257-1.021-0.173c-0.094,0.032-0.113,0.075-0.123,0.097c-0.098,0.228-0.361,0.333-0.59,0.234c-0.229-0.098-0.334-0.362-0.234-0.591c0.119-0.279,0.346-0.484,0.652-0.591c0.555-0.192,1.275-0.021,1.744,0.232c0.721,0.391,1.41,1.354,1.604,2.239c0.053,0.244-0.102,0.482-0.344,0.535C792.313,21.174,792.28,21.176,792.248,21.176z"/>
  </g>
</g>
</svg>
