<?xml version="1.0" encoding="utf-8"?>
<!DOCTYPE svg PUBLIC "-//W3C//DTD SVG 1.1//EN" "http://www.w3.org/Graphics/SVG/1.1/DTD/svg11.dtd">
<!-- Clemoji 3.0: magicien.svg (:magicien:) - licence GPLv3 or later - Author Buddy - https://zestedesavoir.com/ -->
<svg version="1.1" id="clemoji3_magicien" xmlns:dc="http://purl.org/dc/elements/1.1/" xmlns:cc="http://creativecommons.org/ns#" xmlns:rdf="http://www.w3.org/1999/02/22-rdf-syntax-ns#" xmlns:svg="http://www.w3.org/2000/svg" xmlns="http://www.w3.org/2000/svg" xmlns:xlink="http://www.w3.org/1999/xlink" x="0px" y="0px" width="27.05px" height="27.834px" viewBox="-7.846 0 27.05 27.834" enable-background="new -7.846 0 27.05 27.834" xml:space="preserve">
<g id="g4861" transform="translate(-66.821678,-182.04317)">
  <g id="g4649-2_1_" transform="translate(96.151789,-43.612459)">
    <path id="path4641-2_1_" fill="#FFC601" d="M-30.326,234.548l-2.485-1.862l-2.485,1.863l1.003-2.94l-2.541-1.789l3.106,0.046l0.916-2.969l0.917,2.969l3.105-0.047l-2.539,1.79L-30.326,234.548z"/>
    <path fill="#FFFFFF" d="M-32.813,233.817c-0.249,0-0.449-0.202-0.449-0.45v-2.679c0-0.248,0.2-0.45,0.449-0.45c0.248,0,0.449,0.202,0.449,0.45v2.679C-32.362,233.614-32.564,233.817-32.813,233.817z"/>
    <path fill="#515151" d="M-32.813,245.259c-0.249,0-0.449-0.201-0.449-0.449v-11.444c0-0.248,0.2-0.45,0.449-0.45c0.248,0,0.449,0.202,0.449,0.45v11.442C-32.362,245.058-32.564,245.259-32.813,245.259z"/>
  </g>
  <path id="path4138-2-5-2-4-7-8-3_1_" fill="#479F00" d="M61.214,194.717c3.172,0,5.742,2.572,5.742,5.744c-0.001,0.065-0.004,0.131-0.007,0.197c-0.128,0.01-0.255,0.018-0.383,0.02c-3.172,0-5.742-2.571-5.742-5.744l0,0c0.001-0.066,0.004-0.131,0.007-0.196C60.959,194.726,61.086,194.72,61.214,194.717z"/>
  <g id="g20" transform="translate(36,19)">
    <path id="path22" fill="#FAAC2C" d="M49.658,180.163c0,5.186-4.203,9.387-9.389,9.387c-5.185,0-9.389-4.203-9.389-9.387c0-5.185,4.204-9.389,9.389-9.389C45.455,170.775,49.658,174.977,49.658,180.163"/>
  </g>
  <path fill="#9a2400" d="M80.543 202.669a.529.529 0 01.356.913 6.836 6.836 0 01-4.83 1.887 6.834 6.834 0 01-4.77-2.034.53.53 0 01.752-.746 5.783 5.783 0 004.034 1.723 5.79 5.79 0 004.088-1.597.527.527 0 01.37-.146z"/>
  <g id="g32" transform="translate(14.5,22.5)">
    <path id="path34" fill="#992500" d="M59.963,174.325c0,1.01-0.585,1.826-1.304,1.826c-0.721,0-1.305-0.816-1.305-1.826c0-1.006,0.584-1.825,1.305-1.825C59.378,172.502,59.963,173.32,59.963,174.325"/>
  </g>
  <g id="g36" transform="translate(26.5,22.5)">
    <path id="path38" fill="#992500" d="M54.223,174.325c0,1.01-0.583,1.826-1.304,1.826s-1.303-0.816-1.303-1.826c0-1.006,0.582-1.825,1.303-1.825C53.639,172.502,54.223,173.32,54.223,174.325"/>
  </g>
  <path id="path4704_1_" fill="#1260EE" d="M72.632,187.751c-0.37,1.985-2.719,3.771-3.927,5.791c6.455-1.024,10.771-0.613,15.042-0.054c-1.43-2.487-2.014-5.772-4.521-8.097c-2.508-2.325-6.227-3.532-10.05-3.157C71.818,183.812,73.004,185.765,72.632,187.751z"/>
  <circle id="path4820_1_" fill="#FFFFFF" cx="74.635" cy="184.621" r="0.628"/>
  <circle id="path4820-2_1_" fill="#FFFFFF" cx="78.437" cy="187.432" r="0.628"/>
  <circle id="path4820-3_1_" fill="#FFFFFF" cx="74.867" cy="188.16" r="0.628"/>
  <circle id="path4820-36_1_" fill="#FFFFFF" cx="77.248" cy="190.409" r="0.628"/>
  <circle id="path4820-31_1_" fill="#FFFFFF" cx="80.621" cy="191.203" r="0.628"/>
  <circle id="path4820-4_1_" fill="#FFFFFF" cx="73.08" cy="191.268" r="0.628"/>
</g>
</svg>
