<?xml version="1.0" encoding="utf-8"?>
<!DOCTYPE svg PUBLIC "-//W3C//DTD SVG 1.1//EN" "http://www.w3.org/Graphics/SVG/1.1/DTD/svg11.dtd">
<!-- Clemoji 3.0: mechant.svg (:colere2:) - licence GPLv3 or later - Author Buddy - https://zestedesavoir.com/ -->
<svg version="1.1"
   id="clemoji3_smile" xmlns:dc="http://purl.org/dc/elements/1.1/" xmlns:cc="http://creativecommons.org/ns#" xmlns:rdf="http://www.w3.org/1999/02/22-rdf-syntax-ns#" xmlns:svg="http://www.w3.org/2000/svg"
   xmlns="http://www.w3.org/2000/svg" xmlns:xlink="http://www.w3.org/1999/xlink" x="0px" y="0px" width="19.773px"
   height="27.834px" viewBox="-0.372 0 19.773 27.834" enable-background="new -0.372 0 19.773 27.834" xml:space="preserve">
<g id="g10" transform="translate(214.30637,-225.58092)">
  <g id="g4278-9-9" transform="translate(-238.60751,218.32621)">
    <path id="path4138-2-28-0-4-5-4-2" fill="#479F00" d="M43.289,12.259c-3.543-2.121-8.135-0.969-10.256,2.573c-0.043,0.074-0.084,0.149-0.124,0.225c0.135,0.097,0.271,0.189,0.413,0.276c3.543,2.122,8.135,0.971,10.256-2.572h0.001c0.042-0.074,0.083-0.148,0.123-0.225C43.569,12.439,43.43,12.347,43.289,12.259L43.289,12.259z"/>
    <path id="path4138-2-5-2-4-7-3-73-4" fill="#479F00" d="M24.209,14.265c2.422-2.048,6.046-1.744,8.094,0.679c0.042,0.051,0.082,0.103,0.122,0.154c-0.09,0.091-0.184,0.177-0.278,0.261c-2.423,2.048-6.047,1.745-8.095-0.678l0,0c-0.042-0.051-0.082-0.102-0.122-0.154C24.02,14.437,24.114,14.349,24.209,14.265z"/>
  </g>
  <circle id="path4138-0-0-4-1-9-6" fill="#F8AD32" cx="-204.806" cy="242.699" r="9.389"/>
  <g id="g4245-4-6-5-6-7-2" transform="translate(319.89776,220.39168)">
    <g>
      <circle id="path4213-6-3-5-8-9-48-0_1_" fill="#992500" cx="-527.22" cy="20.944" r="0.817"/>
      <path fill="#9A2400" d="M-527.22,22.026c-0.597,0-1.082-0.486-1.082-1.082c0-0.598,0.485-1.082,1.082-1.082c0.599,0,1.082,0.484,1.082,1.082C-526.138,21.54-526.622,22.026-527.22,22.026z M-527.22,20.39c-0.305,0-0.553,0.248-0.553,0.554c0,0.305,0.248,0.553,0.553,0.553c0.307,0,0.555-0.248,0.555-0.553C-526.666,20.638-526.914,20.39-527.22,20.39z"/>
    </g>
    <g>
      <circle id="path4213-6-6-7-8-8-3-21-8_1_" fill="#992500" cx="-522.188" cy="20.944" r="0.817"/>
      <path fill="#9A2400" d="M-522.188,22.026c-0.597,0-1.082-0.486-1.082-1.082c0-0.598,0.485-1.082,1.082-1.082s1.082,0.484,1.082,1.082C-521.105,21.54-521.591,22.026-522.188,22.026z M-522.188,20.39c-0.305,0-0.553,0.248-0.553,0.554c0,0.305,0.248,0.553,0.553,0.553s0.553-0.248,0.553-0.553C-521.635,20.638-521.883,20.39-522.188,20.39z"/>
    </g>
  </g>
  <path fill="#9A2400" d="M-208.611,248.062c-0.161,0-0.319-0.072-0.424-0.211c-0.177-0.232-0.13-0.564,0.104-0.74c1.204-0.908,2.63-1.389,4.125-1.389c1.495,0,2.92,0.479,4.125,1.389c0.232,0.176,0.279,0.508,0.104,0.74c-0.175,0.232-0.508,0.279-0.74,0.104c-1.02-0.769-2.225-1.174-3.487-1.174c-1.262,0-2.47,0.405-3.487,1.174C-208.388,248.027-208.501,248.062-208.611,248.062z"/>
  <g id="g4762" transform="translate(41.389808,-0.125)">
    <path fill="#9A2400" d="M-247.079,240.299c-0.092,0-0.184-0.031-0.259-0.096l-2.246-1.925c-0.167-0.143-0.186-0.394-0.043-0.56c0.144-0.167,0.394-0.186,0.561-0.043l2.246,1.925c0.166,0.143,0.186,0.394,0.043,0.561C-246.856,240.253-246.968,240.299-247.079,240.299z"/>
    <path fill="#9A2400" d="M-245.31,240.299c-0.112,0-0.223-0.047-0.302-0.139c-0.143-0.167-0.123-0.417,0.043-0.561l2.246-1.925c0.167-0.143,0.417-0.124,0.56,0.043c0.143,0.166,0.124,0.417-0.043,0.56l-2.246,1.925C-245.128,240.267-245.221,240.299-245.31,240.299z"/>
  </g>
</g>
<g id="g10_1_" transform="matrix(1.25,0,0,-1.25,-2.5,62.5)" display="none">
  <g id="gfeuille" transform="translate(0,1)" display="inline">
    <path id="path4138-2" fill="#479F00" d="M17.041,45.92c-3.124,1.28-6.695-0.212-7.977-3.337c-0.025-0.065-0.05-0.13-0.073-0.197c0.121-0.063,0.244-0.12,0.368-0.173c3.125-1.282,6.696,0.212,7.978,3.337c0,0,0,0,0,0.001c0.027,0.065,0.05,0.13,0.073,0.196C17.288,45.808,17.165,45.866,17.041,45.92L17.041,45.92z"/>
    <path id="path4138-2-5" fill="#479F00" d="M3.805,44.28c2.259,1.275,5.123,0.478,6.399-1.78c0.026-0.046,0.049-0.095,0.074-0.143c-0.087-0.058-0.175-0.114-0.264-0.167c-2.258-1.276-5.123-0.479-6.398,1.78c-0.001,0-0.001,0-0.001,0c-0.025,0.047-0.049,0.095-0.073,0.143C3.628,44.171,3.715,44.228,3.805,44.28z"/>
  </g>
  <g id="g20" transform="translate(36,19)" display="inline">
    <path id="path22" fill="#FAAC2C" d="M-18.889,17.304c0-4.148-3.362-7.51-7.511-7.51c-4.148,0-7.511,3.362-7.511,7.51c0,4.148,3.363,7.511,7.511,7.511C-22.252,24.815-18.889,21.452-18.889,17.304"/>
  </g>
  <g id="g24" transform="translate(15,20.5)" display="inline">
    <path id="path26" fill="#992500" d="M-7.167,16.466c0-0.854-0.495-1.546-1.104-1.546c-0.61,0-1.105,0.692-1.105,1.546c0,0.855,0.495,1.547,1.105,1.547C-7.662,18.014-7.167,17.321-7.167,16.466"/>
  </g>
  <g id="g28" transform="translate(28,20.5)" display="inline">
    <path id="path30" fill="#992500" d="M-14.423,16.466c0-0.854-0.495-1.546-1.105-1.546c-0.61,0-1.105,0.692-1.105,1.546c0,0.855,0.495,1.547,1.105,1.547C-14.919,18.014-14.423,17.321-14.423,16.466"/>
  </g>
  <g id="g32" transform="translate(6.999,24)" display="inline">
    <path id="path34" fill="#992500" d="M-2.701,14.514c-0.092,0-0.185,0.028-0.265,0.088c-0.195,0.146-0.234,0.423-0.088,0.618c1.441,1.922,3.365,1.945,3.446,1.945c0.244,0,0.442-0.198,0.442-0.442c0-0.243-0.196-0.441-0.44-0.441c-0.068-0.001-1.577-0.038-2.741-1.591C-2.434,14.575-2.567,14.514-2.701,14.514"/>
  </g>
  <g id="g36" transform="translate(31.001,24)" display="inline">
    <path id="path38" fill="#992500" d="M-16.099,14.514c-0.134,0-0.267,0.061-0.353,0.177c-1.167,1.555-2.678,1.59-2.742,1.591c-0.243,0.002-0.439,0.202-0.438,0.444c0.002,0.244,0.197,0.44,0.441,0.44c0.081,0,2.004-0.023,3.445-1.945c0.147-0.195,0.108-0.472-0.088-0.618C-15.913,14.542-16.006,14.514-16.099,14.514"/>
  </g>
  <g id="g40" transform="translate(24.4854,9.1211)" display="inline">
    <path id="path42" fill="#992500" d="M-12.462,22.819c-0.005,0.019-0.506,1.934-2.423,1.934c-1.918,0-2.419-1.916-2.423-1.934c-0.023-0.095,0.019-0.191,0.102-0.241c0.083-0.049,0.191-0.038,0.263,0.027c0.005,0.003,0.448,0.381,2.058,0.381c1.586,0,2.04-0.366,2.057-0.381c0.042-0.04,0.097-0.061,0.152-0.061c0.037,0,0.075,0.009,0.109,0.029C-12.481,22.622-12.438,22.722-12.462,22.819"/>
  </g>
  <g id="g44" transform="translate(17,5)" display="inline">
    <path id="path46" fill="#3DAEFF" fill-opacity="0.64" d="M-8.284,25.119c0-1.22-0.989-2.209-2.209-2.209c-1.22,0-2.209,0.988-2.209,2.209s1.767,4.418,2.209,4.418C-10.051,29.537-8.284,26.339-8.284,25.119"/>
  </g>
</g>
</svg>
