<?xml version="1.0" encoding="utf-8"?>
<!-- Clemoji 3.0: ninja.svg (:ninja:) - licence GPLv3 or later - Author Buddy - https://zestedesavoir.com/ -->
<!DOCTYPE svg PUBLIC "-//W3C//DTD SVG 1.1//EN" "http://www.w3.org/Graphics/SVG/1.1/DTD/svg11.dtd">
<svg version="1.1" id="clemoji3_ninja" xmlns:dc="http://purl.org/dc/elements/1.1/" xmlns:cc="http://creativecommons.org/ns#" xmlns:rdf="http://www.w3.org/1999/02/22-rdf-syntax-ns#" xmlns:svg="http://www.w3.org/2000/svg" xmlns="http://www.w3.org/2000/svg" xmlns:xlink="http://www.w3.org/1999/xlink" x="0px" y="0px" width="41px" height="27.834px" viewBox="-3 0 41 27.834" enable-background="new -3 0 41 27.834" xml:space="preserve">
<g id="g10_frame1" transform="translate(-377.76908,-421.39295)">
  <animate id="animation1" attributeName="visibility" from="hidden" to="hidden" dur="690ms" begin="5s;animation1.end+5s"
    values="visible;hidden;hidden;hidden;hidden;hidden;hidden;hidden;hidden;hidden"
    keyTimes="0;0.043;0.087;0.116;0.145;0.189;0.232;0.942;0.971;1" />

  <g id="g5104">
    <path id="path4138-2-28-0-4-9-6" fill="#404040" d="M415.26,426.497c-2.823-0.757-5.726,0.919-6.481,3.742c-0.015,0.059-0.028,0.117-0.041,0.177c0.11,0.04,0.222,0.075,0.335,0.107c2.823,0.757,5.726-0.918,6.481-3.741c0,0,0,0,0-0.001c0.015-0.058,0.026-0.117,0.041-0.176C415.485,426.565,415.373,426.529,415.26,426.497L415.26,426.497z"/>
    <path id="path4138-2-5-2-4-7-2-6-6" fill="#404040" d="M405.057,425.084c2.33,0.302,3.796,2.417,3.273,4.726c-0.012,0.048-0.023,0.096-0.038,0.143c-0.095-0.005-0.189-0.012-0.282-0.021c-2.331-0.302-3.796-2.417-3.275-4.726v-0.001c0.012-0.047,0.024-0.094,0.038-0.142C404.868,425.065,404.963,425.072,405.057,425.084L405.057,425.084z"/>
  </g>
  <circle id="path4138-0-0-4-56-8" fill="#404040" cx="406.269" cy="438.511" r="9.389"/>
  <path id="rect5014-7" fill="#FAAC2C" d="M402.73,433.206h7.078c1.57,0,2.844,1.273,2.844,2.844l0,0c0,1.571-1.273,2.845-2.844,2.845h-7.078c-1.571,0-2.844-1.272-2.844-2.845l0,0C399.886,434.479,401.159,433.206,402.73,433.206z"/>
  <g id="g4245-4-6-5-0-8" transform="translate(420.426,481.98665)">
    <g>
      <circle id="path4213-6-3-5-8-2-2_1_" fill="#992500" cx="-16.674" cy="-45.897" r="0.818"/>
      <path fill="#9A2400" d="M-16.674-44.814c-0.596,0-1.081-0.485-1.081-1.082s0.485-1.083,1.081-1.083c0.598,0,1.083,0.486,1.083,1.083C-15.591-45.301-16.077-44.814-16.674-44.814z M-16.674-46.45c-0.305,0-0.553,0.248-0.553,0.554s0.248,0.554,0.553,0.554c0.306,0,0.554-0.248,0.554-0.554C-16.12-46.202-16.368-46.45-16.674-46.45z"/>
    </g>
    <g>
      <circle id="path4213-6-6-7-8-8-1-3_1_" fill="#992500" cx="-11.642" cy="-45.897" r="0.818"/>
      <path fill="#9A2400" d="M-11.642-44.814c-0.597,0-1.082-0.485-1.082-1.082s0.485-1.083,1.082-1.083c0.598,0,1.082,0.486,1.082,1.083C-10.56-45.301-11.045-44.814-11.642-44.814z M-11.642-46.45c-0.305,0-0.553,0.248-0.553,0.554s0.248,0.554,0.553,0.554c0.306,0,0.554-0.248,0.554-0.554S-11.337-46.45-11.642-46.45z"/>
    </g>
  </g>
</g>
<g id="g10_frame2_et_10" transform="translate(-468.75235,-227.74329)" visibility="hidden">
  <animate attributeName="visibility" from="hidden" to="hidden" dur="690ms" begin="5s;animation1.end+5s"
    values="hidden;visible;hidden;hidden;hidden;hidden;hidden;hidden;hidden;visible"
    keyTimes="0;0.043;0.087;0.116;0.145;0.189;0.232;0.942;0.971;1" />

  <path id="path4138-2-5-2-4-7-2-4" fill="#404040" d="M498.446,235.383c1.854,1.563,2.168,4.846,0.543,6.763c-0.035,0.04-0.068,0.078-0.105,0.116c-0.08-0.057-0.156-0.116-0.232-0.178c-1.852-1.563-2.168-4.846-0.541-6.763c0.035-0.039,0.068-0.077,0.105-0.115C498.293,235.263,498.371,235.322,498.446,235.383L498.446,235.383z"/>
  <ellipse id="path4138-0-0-4-56-2" fill="#404040" cx="497.252" cy="246.966" rx="9.389" ry="7.284"/>
  <path id="rect5014-3" fill="#FAAC2C" d="M493.362,243.433h7.779c1.377,0,2.494,1.115,2.494,2.492l0,0c0,1.378-1.117,2.493-2.494,2.493h-7.779c-1.377,0-2.493-1.115-2.493-2.493l0,0C490.869,244.548,491.985,243.433,493.362,243.433z"/>
  <path id="path4138-2-5-2-4-7-2-1-6" fill="#404040" d="M502.858,235.914c1.307,2.143,0.5,5.554-1.637,7.048c-0.045,0.03-0.09,0.061-0.135,0.088c-0.061-0.08-0.117-0.162-0.17-0.247c-1.309-2.144-0.502-5.556,1.635-7.05c0.045-0.03,0.09-0.06,0.137-0.088C502.746,235.746,502.805,235.829,502.858,235.914L502.858,235.914z"/>
  <g>
    <path id="path5189_1_" fill="#992500" d="M494.282,245.404c-0.435,0.172-0.491,0.744,0,0.936c0.493,0.192,1.092-0.241,1.614-0.468C495.307,245.539,494.717,245.233,494.282,245.404z"/>
    <path fill="#9A2400" d="M494.547,246.52L494.547,246.52c-0.111,0-0.216-0.02-0.313-0.058c-0.27-0.104-0.432-0.32-0.433-0.579c0-0.262,0.169-0.498,0.432-0.603c0.099-0.039,0.208-0.059,0.324-0.059c0.423,0,0.905,0.253,1.403,0.533c0.043,0.025,0.068,0.072,0.066,0.122c-0.003,0.052-0.034,0.096-0.08,0.114c-0.117,0.051-0.238,0.112-0.361,0.175C495.244,246.34,494.891,246.52,494.547,246.52z M494.558,245.487c-0.084,0-0.159,0.014-0.227,0.04c-0.161,0.063-0.266,0.203-0.266,0.354c0,0.147,0.097,0.27,0.264,0.334c0.067,0.026,0.139,0.038,0.218,0.038l0,0c0.28,0,0.604-0.164,0.919-0.321c0.047-0.024,0.093-0.048,0.139-0.07C495.221,245.653,494.858,245.487,494.558,245.487z"/>
  </g>
  <g>
    <path id="path5189-4_1_" fill="#992500" d="M499.075,245.404c-0.434,0.172-0.492,0.744,0,0.936c0.494,0.192,1.092-0.241,1.615-0.468C500.1,245.539,499.51,245.233,499.075,245.404z"/>
    <path fill="#9A2400" d="M499.34,246.52L499.34,246.52c-0.111,0-0.217-0.02-0.314-0.058c-0.27-0.104-0.432-0.32-0.432-0.579c0-0.262,0.168-0.498,0.432-0.603c0.098-0.039,0.207-0.059,0.324-0.059c0.422,0,0.904,0.253,1.402,0.533c0.045,0.025,0.07,0.072,0.066,0.122c-0.002,0.052-0.033,0.096-0.078,0.114c-0.117,0.051-0.238,0.112-0.361,0.175C500.038,246.34,499.684,246.52,499.34,246.52z M499.35,245.487c-0.084,0-0.158,0.014-0.229,0.04c-0.16,0.063-0.264,0.203-0.264,0.354c0,0.147,0.096,0.27,0.264,0.334c0.068,0.026,0.139,0.038,0.219,0.038l0,0c0.281,0,0.605-0.164,0.92-0.321c0.045-0.024,0.092-0.048,0.139-0.07C500.014,245.653,499.651,245.487,499.35,245.487z"/>
  </g>
</g>
<g id="g10_frame3_et_9" transform="translate(-332.96874,-218.1838)" visibility="hidden">
  <animate attributeName="visibility" from="hidden" to="hidden" dur="690ms" begin="5s;animation1.end+5s"
    values="hidden;hidden;visible;hidden;hidden;hidden;hidden;hidden;visible;hidden"
    keyTimes="0;0.043;0.087;0.116;0.145;0.189;0.232;0.942;0.971;1" />

  <path id="path4138-2-5-2-4-7-2-4-4-9" fill="#404040" d="M362.987,226.026c0.691,2.421-0.809,5.377-3.374,5.897c-0.053,0.01-0.106,0.019-0.161,0.026c-0.036-0.095-0.068-0.191-0.098-0.287c-0.692-2.422,0.809-5.378,3.373-5.898c0.053-0.01,0.107-0.019,0.16-0.026C362.925,225.833,362.958,225.929,362.987,226.026z"/>
  <ellipse id="path4138-0-0-4-56-2-1-5" fill="#404040" cx="359.808" cy="237.407" rx="9.256" ry="7.284"/>
  <path id="rect5014-3-9-5" fill="#FAAC2C" d="M355.919,233.939h7.779c1.377,0,2.492,1.116,2.492,2.493l0,0c0,1.377-1.115,2.493-2.492,2.493h-7.779c-1.377,0-2.494-1.116-2.494-2.493l0,0C353.425,235.055,354.542,233.939,355.919,233.939z"/>
  <path id="path4138-2-5-2-4-7-2-1-6-2-2" fill="#404040" d="M369.198,227.664c-0.596,2.587-3.967,4.474-6.625,3.709c-0.055-0.017-0.109-0.034-0.164-0.053c0.016-0.106,0.033-0.212,0.057-0.316c0.596-2.587,3.967-4.474,6.625-3.709c0.055,0.017,0.109,0.034,0.164,0.054C369.239,227.454,369.222,227.56,369.198,227.664L369.198,227.664z"/>
  <g id="g4245-4-6-5-0-5-7" transform="matrix(1.0217173,0,0,0.51643211,371.08508,464.50448)">
    <g>
      <ellipse id="path4213-6-3-5-8-2-27-8_1_" fill="#992500" cx="-13.552" cy="-441.631" rx="0.834" ry="0.422"/>
      <path fill="#9A2400" d="M-13.552-440.302c-0.624,0-1.076-0.558-1.076-1.329c0-0.77,0.453-1.329,1.076-1.329c0.624,0,1.076,0.562,1.076,1.329C-12.476-440.86-12.929-440.302-13.552-440.302z M-13.552-441.936c-0.338,0-0.538,0.238-0.561,0.333c0.023,0.04,0.223,0.278,0.561,0.278c0.337,0,0.539-0.238,0.561-0.335C-13.014-441.698-13.216-441.936-13.552-441.936z"/>
    </g>
    <g>
      <ellipse id="path4213-6-6-7-8-8-1-1-9_1_" fill="#992500" cx="-8.522" cy="-441.631" rx="0.835" ry="0.422"/>
      <path fill="#9A2400" d="M-8.522-440.302c-0.623,0-1.076-0.558-1.076-1.329c0-0.77,0.453-1.329,1.076-1.329c0.625,0,1.076,0.562,1.076,1.329C-7.446-440.86-7.897-440.302-8.522-440.302z M-8.522-441.936c-0.336,0-0.537,0.238-0.562,0.333c0.025,0.04,0.224,0.278,0.562,0.278c0.338,0,0.539-0.238,0.562-0.335C-7.983-441.698-8.184-441.936-8.522-441.936z"/>
    </g>
  </g>
</g>
<g id="g10_frame4" transform="translate(-556.60457,-122.04827)" visibility="hidden">
  <animate attributeName="visibility" from="hidden" to="hidden" dur="690ms" begin="5s;animation1.end+5s"
    values="hidden;hidden;hidden;visible;hidden;hidden;hidden;hidden;hidden;hidden"
    keyTimes="0;0.043;0.087;0.116;0.145;0.189;0.232;0.942;0.971;1" />

  <path id="path4138-2-5-2-4-7-2-4-4-6" fill="#404040" d="M586.661,134.184c-1.572,1.857-4.84,2.408-6.739,0.822c-0.039-0.033-0.077-0.066-0.114-0.104c0.057-0.08,0.116-0.156,0.177-0.232c1.573-1.857,4.841-2.412,6.739-0.822c0.039,0.031,0.078,0.066,0.115,0.102C586.782,134.03,586.724,134.108,586.661,134.184L586.661,134.184z"/>
  <ellipse id="path4138-0-0-4-56-2-1-4" fill="#404040" cx="579.381" cy="141.602" rx="9.39" ry="6.953"/>
  <path id="rect5014-3-9-1" fill="#FAAC2C" d="M575.49,137.737h7.78c1.377,0,2.492,1.115,2.492,2.492l0,0c0,1.377-1.115,2.494-2.492,2.494h-7.78c-1.376,0-2.493-1.117-2.493-2.494l0,0C572.997,138.852,574.114,137.737,575.49,137.737z"/>
  <path id="path4138-2-5-2-4-7-2-1-6-2-3" fill="#404040" d="M590.345,137.118c-2.047,1.514-5.865,0.924-7.504-1.16c-0.033-0.043-0.066-0.088-0.098-0.133c0.076-0.068,0.154-0.133,0.236-0.195c2.047-1.516,5.863-0.926,7.504,1.158c0.033,0.045,0.066,0.088,0.098,0.133C590.503,136.989,590.425,137.053,590.345,137.118L590.345,137.118z"/>
  <g>
    <path id="path5189_2_" fill="#992500" d="M576.479,139.709c-0.435,0.172-0.491,0.744,0,0.936c0.493,0.192,1.092-0.241,1.614-0.468C577.504,139.844,576.914,139.538,576.479,139.709z"/>
    <path fill="#9A2400" d="M576.744,140.825L576.744,140.825c-0.111,0-0.216-0.02-0.313-0.058c-0.27-0.104-0.432-0.32-0.433-0.579c0-0.262,0.169-0.498,0.432-0.603c0.099-0.039,0.208-0.059,0.324-0.059c0.423,0,0.905,0.253,1.403,0.533c0.043,0.025,0.068,0.072,0.066,0.122c-0.003,0.052-0.034,0.096-0.08,0.114c-0.117,0.051-0.238,0.112-0.361,0.175C577.44,140.645,577.088,140.825,576.744,140.825z M576.755,139.792c-0.084,0-0.159,0.014-0.227,0.04c-0.161,0.063-0.266,0.203-0.266,0.354c0,0.147,0.097,0.27,0.264,0.334c0.067,0.026,0.139,0.038,0.218,0.038l0,0c0.28,0,0.604-0.164,0.919-0.321c0.047-0.024,0.093-0.048,0.139-0.07C577.418,139.958,577.055,139.792,576.755,139.792z"/>
  </g>
  <g>
    <path id="path5189-4_2_" fill="#992500" d="M581.272,139.709c-0.434,0.172-0.492,0.744,0,0.936c0.494,0.192,1.092-0.241,1.615-0.468C582.297,139.844,581.707,139.538,581.272,139.709z"/>
    <path fill="#9A2400" d="M581.537,140.825L581.537,140.825c-0.111,0-0.217-0.02-0.314-0.058c-0.27-0.104-0.432-0.32-0.432-0.579c0-0.262,0.168-0.498,0.432-0.603c0.098-0.039,0.207-0.059,0.324-0.059c0.422,0,0.904,0.253,1.402,0.533c0.045,0.025,0.07,0.072,0.066,0.122c-0.002,0.052-0.033,0.096-0.078,0.114c-0.117,0.051-0.238,0.112-0.361,0.175C582.234,140.645,581.881,140.825,581.537,140.825z M581.547,139.792c-0.084,0-0.158,0.014-0.229,0.04c-0.16,0.063-0.264,0.203-0.264,0.354c0,0.147,0.096,0.27,0.264,0.334c0.068,0.026,0.139,0.038,0.219,0.038l0,0c0.281,0,0.605-0.164,0.92-0.321c0.045-0.024,0.092-0.048,0.139-0.07C582.211,139.958,581.848,139.792,581.547,139.792z"/>
  </g>
</g>
<g id="g10_frame5" transform="translate(-556.60457,-122.04827)" visibility="hidden">
  <animate attributeName="visibility" from="hidden" to="hidden" dur="690ms" begin="5s;animation1.end+5s"
    values="hidden;hidden;hidden;hidden;visible;hidden;hidden;hidden;hidden;hidden"
    keyTimes="0;0.043;0.087;0.116;0.145;0.189;0.232;0.942;0.971;1" />

  <path id="path4138-2-5-2-4-7-2-4-4-6_1_" fill="#404040" d="M577.985,134.142c-1.572,1.857-4.84,2.408-6.739,0.822c-0.039-0.033-0.077-0.066-0.114-0.104c0.057-0.08,0.116-0.156,0.177-0.232c1.573-1.857,4.841-2.412,6.739-0.822c0.039,0.031,0.078,0.066,0.115,0.102C578.107,133.988,578.048,134.066,577.985,134.142L577.985,134.142z"/>
  <ellipse id="path4138-0-0-4-56-2-1-4_1_" fill="#404040" cx="570.705" cy="141.56" rx="9.39" ry="6.953"/>
  <path id="rect5014-3-9-1_1_" fill="#FAAC2C" d="M566.815,137.695h7.78c1.377,0,2.492,1.115,2.492,2.492l0,0c0,1.377-1.115,2.494-2.492,2.494h-7.78c-1.376,0-2.493-1.117-2.493-2.494l0,0C564.321,138.81,565.439,137.695,566.815,137.695z"/>
  <path id="path4138-2-5-2-4-7-2-1-6-2-3_1_" fill="#404040" d="M581.669,137.076c-2.047,1.514-5.865,0.924-7.504-1.16c-0.033-0.043-0.066-0.088-0.098-0.133c0.076-0.068,0.154-0.133,0.236-0.195c2.047-1.516,5.863-0.926,7.504,1.158c0.033,0.045,0.066,0.088,0.098,0.133C581.827,136.947,581.749,137.011,581.669,137.076L581.669,137.076z"/>
  <g>
    <path id="path5189_3_" fill="#992500" d="M567.803,139.667c-0.435,0.172-0.491,0.744,0,0.936c0.493,0.192,1.092-0.241,1.614-0.468C568.828,139.802,568.238,139.496,567.803,139.667z"/>
    <path fill="#9A2400" d="M568.068,140.783L568.068,140.783c-0.111,0-0.216-0.02-0.313-0.058c-0.27-0.104-0.432-0.32-0.433-0.579c0-0.262,0.169-0.498,0.432-0.603c0.099-0.039,0.208-0.059,0.324-0.059c0.423,0,0.905,0.253,1.403,0.533c0.043,0.025,0.068,0.072,0.066,0.122c-0.003,0.052-0.034,0.096-0.08,0.114c-0.117,0.051-0.238,0.112-0.361,0.175C568.765,140.603,568.412,140.783,568.068,140.783z M568.079,139.75c-0.084,0-0.159,0.014-0.227,0.04c-0.161,0.063-0.266,0.203-0.266,0.354c0,0.147,0.097,0.27,0.264,0.334c0.067,0.026,0.139,0.038,0.218,0.038l0,0c0.28,0,0.604-0.164,0.919-0.321c0.047-0.024,0.093-0.048,0.139-0.07C568.742,139.916,568.379,139.75,568.079,139.75z"/>
  </g>
  <g>
    <path id="path5189-4_3_" fill="#992500" d="M572.596,139.667c-0.434,0.172-0.492,0.744,0,0.936c0.494,0.192,1.092-0.241,1.615-0.468C573.621,139.802,573.031,139.496,572.596,139.667z"/>
    <path fill="#9A2400" d="M572.861,140.783L572.861,140.783c-0.111,0-0.217-0.02-0.314-0.058c-0.27-0.104-0.432-0.32-0.432-0.579c0-0.262,0.168-0.498,0.432-0.603c0.098-0.039,0.207-0.059,0.324-0.059c0.422,0,0.904,0.253,1.402,0.533c0.045,0.025,0.07,0.072,0.066,0.122c-0.002,0.052-0.033,0.096-0.078,0.114c-0.117,0.051-0.238,0.112-0.361,0.175C573.559,140.603,573.205,140.783,572.861,140.783z M572.871,139.75c-0.084,0-0.158,0.014-0.229,0.04c-0.16,0.063-0.264,0.203-0.264,0.354c0,0.147,0.096,0.27,0.264,0.334c0.068,0.026,0.139,0.038,0.219,0.038l0,0c0.281,0,0.605-0.164,0.92-0.321c0.045-0.024,0.092-0.048,0.139-0.07C573.535,139.916,573.172,139.75,572.871,139.75z"/>
  </g>
</g>
<g id="g10_frame6" transform="translate(-289.61906,-59.82766)" visibility="hidden">
  <animate attributeName="visibility" from="hidden" to="hidden" dur="690ms" begin="5s;animation1.end+5s"
    values="hidden;hidden;hidden;hidden;hidden;visible;hidden;hidden;hidden;hidden"
    keyTimes="0;0.043;0.087;0.116;0.145;0.189;0.232;0.942;0.971;1" />

  <path id="path4138-2-5-2-4-7-2-4-4-6-4" fill="#404040" d="M304.021,72.805c-1.572,1.857-4.84,2.408-6.739,0.822c-0.039-0.033-0.076-0.068-0.113-0.104c0.057-0.08,0.114-0.156,0.177-0.232c1.572-1.859,4.84-2.41,6.74-0.824c0.039,0.035,0.074,0.068,0.111,0.104C304.142,72.649,304.084,72.727,304.021,72.805L304.021,72.805z"/>
  <ellipse id="path4138-0-0-4-56-2-1-4-8" fill="#404040" cx="296.975" cy="79.912" rx="9.389" ry="6.345"/>
  <path id="rect5014-3-9-1-2" fill="#FAAC2C" d="M293.086,76.543h7.777c1.377,0,2.494,1.117,2.494,2.494l0,0c0,1.377-1.115,2.492-2.494,2.492h-7.777c-1.377,0-2.494-1.115-2.494-2.492l0,0C290.592,77.661,291.709,76.543,293.086,76.543z"/>
  <path id="path4138-2-5-2-4-7-2-1-6-2-3-7" fill="#404040" d="M307.703,75.737c-2.047,1.516-5.863,0.926-7.504-1.158c-0.031-0.045-0.064-0.088-0.096-0.133c0.076-0.068,0.154-0.135,0.236-0.195c2.047-1.518,5.863-0.926,7.504,1.158c0.033,0.045,0.064,0.088,0.098,0.133C307.863,75.608,307.785,75.674,307.703,75.737L307.703,75.737z"/>
  <g id="g4245-4-6-5-0-5-6-7" transform="matrix(1.0217173,0,0,0.51643211,326.42497,466.36174)">
    <g>
      <ellipse id="path4213-6-3-5-8-2-27-7-4_1_" fill="#992500" cx="-31.34" cy="-750.002" rx="0.836" ry="0.422"/>
      <path fill="#9A2400" d="M-31.34-748.673c-0.624,0-1.076-0.56-1.076-1.327c0-0.771,0.452-1.331,1.076-1.331c0.624,0,1.077,0.56,1.077,1.331C-30.263-749.233-30.716-748.673-31.34-748.673z M-31.34-750.307c-0.337,0-0.538,0.238-0.561,0.333c0.022,0.038,0.223,0.276,0.561,0.276c0.337,0,0.539-0.238,0.562-0.333C-30.801-750.068-31.003-750.307-31.34-750.307z"/>
    </g>
    <g>
      <ellipse id="path4213-6-6-7-8-8-1-1-4-3_1_" fill="#992500" cx="-26.307" cy="-750.002" rx="0.833" ry="0.422"/>
      <path fill="#9A2400" d="M-26.307-748.673c-0.625,0-1.076-0.56-1.076-1.327c0-0.771,0.453-1.331,1.076-1.331c0.623,0,1.074,0.56,1.074,1.331C-25.233-749.233-25.684-748.673-26.307-748.673z M-26.307-750.307c-0.338,0-0.539,0.238-0.562,0.333c0.023,0.038,0.224,0.276,0.562,0.276c0.336,0,0.537-0.238,0.56-0.333C-25.77-750.068-25.97-750.307-26.307-750.307z"/>
    </g>
  </g>
</g>
<g visibility="hidden">
  <animate attributeName="visibility" from="hidden" to="hidden" dur="690ms" begin="5s;animation1.end+5s"
    values="hidden;hidden;hidden;hidden;hidden;hidden;hidden;hidden;hidden;hidden"
    keyTimes="0;0.043;0.087;0.116;0.145;0.189;0.232;0.942;0.971;1" />
</g>
<g id="g10_frame8" transform="translate(-245.74442,-63.13411)" visibility="hidden">
  <animate attributeName="visibility" from="hidden" to="hidden" dur="690ms" begin="5s;animation1.end+5s"
    values="hidden;hidden;hidden;hidden;hidden;hidden;hidden;visible;hidden;hidden"
    keyTimes="0;0.043;0.087;0.116;0.145;0.189;0.232;0.942;0.971;1" />

  <ellipse id="path4138-0-0-4-56-2-1-4-8-5" fill="#404040" cx="274.244" cy="85.655" rx="6.346" ry="3.986"/>
  <path id="rect5014-3-9-1-2-3" fill="#FAAC2C" d="M271.987,84.006h4.514c0.691,0,1.25,0.561,1.25,1.25l0,0c0,0.691-0.561,1.25-1.25,1.25h-4.514c-0.69,0-1.251-0.559-1.251-1.25l0,0C270.736,84.567,271.297,84.006,271.987,84.006z"/>
  <path id="path4138-2-5-2-4-7-2-4-4-6-4-2" fill="#404040" d="M278.733,81.617c-0.84,0.924-2.355,1.199-3.371,0.41c-0.02-0.018-0.041-0.033-0.061-0.051c0.031-0.041,0.061-0.078,0.094-0.115c0.84-0.926,2.357-1.199,3.373-0.41c0.021,0.016,0.041,0.033,0.061,0.051C278.799,81.541,278.766,81.58,278.733,81.617L278.733,81.617z"/>
  <path id="path4138-2-5-2-4-7-2-1-6-2-3-7-0" fill="#404040" d="M279.36,82.731c-0.896,0.93-2.684,0.787-3.602-0.213c-0.02-0.021-0.037-0.043-0.055-0.064c0.037-0.035,0.078-0.068,0.121-0.102c1.064-0.797,2.916-0.92,3.604,0.213c0.018,0.02,0.037,0.041,0.055,0.063C279.442,82.662,279.403,82.698,279.36,82.731L279.36,82.731z"/>
</g>
</svg>
