<?xml version="1.0" encoding="utf-8"?>
<!DOCTYPE svg PUBLIC "-//W3C//DTD SVG 1.1//EN" "http://www.w3.org/Graphics/SVG/1.1/DTD/svg11.dtd">
<!-- Clemoji 3.0: pirate.svg (:pirate:) - licence GPLv3 or later - Author Buddy - https://zestedesavoir.com/ -->
<svg version="1.1"
   id="clemoji3_pirate" xmlns:dc="http://purl.org/dc/elements/1.1/" xmlns:cc="http://creativecommons.org/ns#" xmlns:rdf="http://www.w3.org/1999/02/22-rdf-syntax-ns#" xmlns:svg="http://www.w3.org/2000/svg"
   xmlns="http://www.w3.org/2000/svg" xmlns:xlink="http://www.w3.org/1999/xlink" x="0px" y="0px" width="24.121px"
   height="27.834px" viewBox="0 0 24.121 27.834" enable-background="new 0 0 24.121 27.834" xml:space="preserve">
<g id="g4531" transform="translate(857.50025,-443.65554)">
  <circle id="path4138-0-0-4-1-7-6-1-8" fill="#FAAC2C" cx="-848" cy="460.773" r="9.389"/>
  <g id="g4459" transform="translate(55.620144,-0.36834533)">
    <path fill="#515151" d="M-894.995,459.741c-0.002,0-0.004,0-0.007,0c-1.787-0.024-6.204-0.29-8.597-2.234c-0.229-0.185-0.263-0.519-0.077-0.745c0.185-0.226,0.518-0.261,0.744-0.077c2.136,1.735,6.267,1.976,7.943,1.999c0.293,0.004,0.525,0.244,0.521,0.537C-894.47,459.509-894.706,459.741-894.995,459.741z"/>
    <path id="path5032" fill="#515151" d="M-900.54,461.337c1.343,0.268,2.157-1.113,2.621-2.398c-1.287,0.02-2.868-0.54-3.826-0.922C-901.94,459.244-901.882,461.07-900.54,461.337z"/>
  </g>
  <g id="g4512">
    <path id="path4138-2-28-0-4-5-2-1-3-5" fill="#479F00" d="M-846.767,446.529c-2.856,0.386-4.86,3.014-4.476,5.871c0.01,0.059,0.02,0.117,0.03,0.176c0.115-0.006,0.23-0.016,0.346-0.028c2.856-0.386,4.86-3.014,4.477-5.871l0,0c-0.009-0.059-0.021-0.118-0.03-0.176C-846.536,446.507-846.651,446.516-846.767,446.529L-846.767,446.529z"/>
    <path id="path4138-2-5-1-6-8-0" fill="#479F00" d="M-857.088,450.567c2.175-0.756,4.55,0.395,5.306,2.569c0.016,0.045,0.028,0.091,0.042,0.136c-0.084,0.038-0.17,0.072-0.257,0.104c-2.174,0.756-4.55-0.396-5.306-2.569c-0.001,0-0.001,0-0.001,0c-0.014-0.045-0.028-0.091-0.042-0.136C-857.261,450.633-857.175,450.598-857.088,450.567z"/>
  </g>
  <path id="circle5009" fill="#479F00" d="M-848,451.385c-4.25,0.006-7.967,2.866-9.061,6.973c2.224,0.017,4.569-0.207,6.877-0.655c3.442-0.676,6.638-1.82,9.103-3.262C-842.858,452.496-845.367,451.388-848,451.385z"/>
  <path id="path5028" fill="#9A2400" d="M-852.363,459.372c0.384,0.447,2.772,1.476,3.678,1.615c-0.634,0.151-2.475,0.422-3.007,0.202C-852.226,460.971-852.452,459.955-852.363,459.372L-852.363,459.372z"/>
  <g id="g4526">
    <path id="path5032-4" fill="#479F00" d="M-839.61,466.803c1.679,0.512,2.759-0.933,2.939-2.094c-1.411,0.053-2.708-1.048-3.656-1.439C-840.725,464.338-841.291,466.289-839.61,466.803z"/>
    <path id="path4463" fill="#515151" d="M-839.977,462.913c-0.521-0.009-0.783,0.751-0.382,1.05c0.917,0.682,2.131,1.18,3.823,1.332c0.702,0.063,0.813-0.82,0.188-1.146C-837.532,463.528-838.832,462.932-839.977,462.913z"/>
    <path id="path4479" fill="#515151" d="M-839.386,463.768c2.516-6.042,3.453-12.259,4.023-18.065c4.265,6.57,0.696,13.459-1.81,18.849L-839.386,463.768z"/>
  </g>
  <path id="path4510" fill="#FFFFFF" d="M-842.366,462.666c-2.186-0.308-3.756,2.08-5.72,1.86s-4.491-0.524-5.36,0.036c0.719,0.259,0.44,2.328,1.641,2.72c1.25,0.332,2.695-0.785,4.341-0.826c1.646-0.04,2.731,0.354,3.308,0.966C-842.57,466.072-842.118,464.75-842.366,462.666L-842.366,462.666z"/>
</g>
</svg>
