<?xml version="1.0" encoding="utf-8"?>
<!DOCTYPE svg PUBLIC "-//W3C//DTD SVG 1.1//EN" "http://www.w3.org/Graphics/SVG/1.1/DTD/svg11.dtd">
<!-- Clemoji 3.0: pleure.svg (:'() - licence GPLv3 or later - Author Buddy - https://zestedesavoir.com/ -->
<svg version="1.1"
   id="clemoji3_pleure" xmlns:dc="http://purl.org/dc/elements/1.1/" xmlns:cc="http://creativecommons.org/ns#" xmlns:rdf="http://www.w3.org/1999/02/22-rdf-syntax-ns#" xmlns:svg="http://www.w3.org/2000/svg"
   xmlns="http://www.w3.org/2000/svg" xmlns:xlink="http://www.w3.org/1999/xlink" x="0px" y="0px" width="26px" height="29.83px"
   viewBox="0 0 26 29.83" enable-background="new 0 0 26 29.83" xml:space="preserve">
<g id="g4843" transform="translate(114.92246,-175.23627)">
  <path id="path4485-5-5" fill="#3DAEFF" fill-opacity="0.6135" d="M-114.387,200.903c0.038,2.048,8.36,0.576,9.821,1.966c1.461,1.387,5.521,1.101,6.644-0.422c1.119-1.521,8.512-0.604,8.465-2.433c-0.049-1.826-5.271,0.176-5.988-2.479c-4.127-1.654-12.357-1.858-14.169-0.326C-107.785,199.808-114.426,198.856-114.387,200.903L-114.387,200.903z"/>
  <g id="gfeuille" transform="translate(0,1)">
    <path id="path4138-2" fill="#479F00" d="M-92.809,178.089c-3.904-1.601-8.369,0.266-9.971,4.172c-0.031,0.081-0.062,0.163-0.092,0.246c0.151,0.078,0.305,0.149,0.46,0.216c3.906,1.603,8.371-0.265,9.972-4.171c0,0,0,0,0-0.001c0.033-0.081,0.063-0.163,0.092-0.245C-92.499,178.228-92.653,178.156-92.809,178.089L-92.809,178.089z"/>
    <path id="path4138-2-5" fill="#479F00" d="M-109.353,180.139c2.823-1.594,6.404-0.598,7.999,2.226c0.032,0.058,0.063,0.118,0.094,0.179c-0.109,0.072-0.22,0.143-0.331,0.209c-2.823,1.595-6.404,0.599-7.998-2.226c-0.001,0-0.001,0-0.001,0c-0.032-0.059-0.062-0.118-0.091-0.179C-109.575,180.274-109.465,180.204-109.353,180.139z"/>
  </g>
  <circle id="path4138-0-0-4-1-9-8-7" fill="#F8AD32" cx="-102.034" cy="192.353" r="9.389"/>
  <g id="g4245-4-6-5-6-7-9-6" transform="matrix(1.0243122,0,0,0.46980061,474.08291,242.6112)">
    <g>
      <ellipse id="path4213-6-3-5-8-9-48-65-7_1_" fill="#992500" cx="-564.958" cy="-109.383" rx="0.836" ry="0.386"/>
      <path fill="#9A2400" d="M-564.958-107.75c-0.702,0-1.192-0.669-1.192-1.632c0-0.958,0.49-1.631,1.192-1.631c0.7,0,1.189,0.67,1.189,1.631C-563.769-108.419-564.258-107.75-564.958-107.75z"/>
    </g>
    <g>
      <ellipse id="path4213-6-6-7-8-8-3-21-7-5_1_" fill="#992500" cx="-559.928" cy="-109.383" rx="0.838" ry="0.386"/>
      <path fill="#9A2400" d="M-559.928-107.75c-0.702,0-1.192-0.669-1.192-1.632c0-0.958,0.49-1.631,1.192-1.631c0.701,0,1.19,0.67,1.19,1.631C-558.738-108.419-559.228-107.75-559.928-107.75z"/>
    </g>
  </g>
  <path fill="#9A2400" d="M-106.465,198.518c-0.083,0-0.166-0.025-0.237-0.08c-0.176-0.131-0.211-0.381-0.079-0.555c0.675-0.9,1.267-1.355,1.862-1.437c0.668-0.093,1.178,0.307,1.631,0.655c0.403,0.313,0.785,0.607,1.256,0.607c0.469,0,0.859-0.305,1.275-0.629c0.467-0.365,0.989-0.777,1.668-0.676c0.594,0.09,1.168,0.561,1.811,1.482c0.127,0.182,0.082,0.428-0.098,0.553c-0.184,0.127-0.43,0.082-0.555-0.098c-0.494-0.714-0.926-1.103-1.277-1.154c-0.328-0.053-0.67,0.213-1.063,0.518c-0.479,0.375-1.021,0.799-1.763,0.799c-0.743,0-1.273-0.412-1.742-0.773c-0.377-0.293-0.703-0.547-1.038-0.5c-0.361,0.05-0.811,0.429-1.335,1.127C-106.225,198.463-106.344,198.518-106.465,198.518z"/>
  <g id="g4776" transform="translate(0.00706078,-2)">
    <path fill="#C4F3FF" d="M-103.774,194.897L-103.774,194.897l-1.729-0.002c-0.292,0-0.529-0.235-0.529-0.528c0-0.291,0.237-0.529,0.529-0.529l0,0l1.729,0.002c0.293,0,0.529,0.236,0.529,0.529C-103.245,194.66-103.482,194.897-103.774,194.897z"/>
    <path fill="#C4F3FF" d="M-98.58,194.897L-98.58,194.897l-1.73-0.002c-0.291,0-0.527-0.235-0.527-0.528c0-0.291,0.236-0.529,0.527-0.529l0,0l1.73,0.002c0.293,0,0.529,0.236,0.529,0.529C-98.051,194.66-98.288,194.897-98.58,194.897z"/>
  </g>
  <g id="g4818" transform="translate(0.15186578,0)">
    <path fill="#9A2400" d="M-107.012,189.747c-0.042,0-0.084-0.008-0.124-0.024c-0.161-0.069-0.236-0.256-0.168-0.417c0.757-1.771,1.748-2.227,2.447-2.298c0.172-0.022,0.33,0.109,0.348,0.284c0.018,0.174-0.109,0.33-0.283,0.348c-0.529,0.054-1.292,0.43-1.928,1.916C-106.771,189.675-106.889,189.747-107.012,189.747z"/>
    <path fill="#9A2400" d="M-97.362,189.747c-0.123,0-0.24-0.072-0.291-0.191c-0.637-1.486-1.398-1.862-1.928-1.916c-0.175-0.018-0.302-0.174-0.283-0.348c0.019-0.175,0.174-0.306,0.348-0.284c0.699,0.071,1.689,0.527,2.447,2.298c0.066,0.161-0.008,0.348-0.168,0.417C-97.276,189.739-97.319,189.747-97.362,189.747z"/>
  </g>
  <g id="g4839" transform="translate(0.04178078,0)">
    <path fill="#C4F3FF" d="M-108.885,198.713c-0.15,0-0.296-0.086-0.36-0.231c-1.146-2.543-0.422-4.146,0.112-4.871c0.799-1.088,2.169-1.656,3.575-1.488c0.217,0.025,0.373,0.223,0.347,0.439c-0.025,0.217-0.22,0.375-0.44,0.348c-1.123-0.135-2.212,0.314-2.84,1.172c-0.746,1.016-0.758,2.463-0.031,4.074c0.09,0.199,0.001,0.436-0.198,0.523C-108.775,198.703-108.83,198.713-108.885,198.713z"/>
    <path fill="#C4F3FF" d="M-95.269,198.713c-0.055,0-0.109-0.01-0.162-0.034c-0.201-0.091-0.289-0.324-0.199-0.523c0.729-1.611,0.717-3.059-0.029-4.074c-0.627-0.855-1.713-1.305-2.842-1.172c-0.219,0.027-0.414-0.129-0.439-0.348c-0.025-0.217,0.13-0.414,0.348-0.439c1.408-0.17,2.777,0.4,3.574,1.488c0.535,0.729,1.26,2.328,0.113,4.871C-94.974,198.627-95.117,198.713-95.269,198.713z"/>
  </g>
</g>
</svg>
