<?xml version="1.0" encoding="utf-8"?>
<!DOCTYPE svg PUBLIC "-//W3C//DTD SVG 1.1//EN" "http://www.w3.org/Graphics/SVG/1.1/DTD/svg11.dtd">
<!-- Clemoji 3.0: popcorn.svg (:popcorn:) - licence GPLv3 or later - Author Piwit - https://zestedesavoir.com/ -->
<svg version="1.1" id="clemoji3_popcorn" xmlns:dc="http://purl.org/dc/elements/1.1/" xmlns:cc="http://creativecommons.org/ns#" xmlns:rdf="http://www.w3.org/1999/02/22-rdf-syntax-ns#" xmlns:svg="http://www.w3.org/2000/svg" xmlns="http://www.w3.org/2000/svg" xmlns:xlink="http://www.w3.org/1999/xlink" x="0px" y="0px" width="45.241px" height="27.834px" viewBox="-1.291 0 45.241 27.834" enable-background="new -1.291 0 45.241 27.834" xml:space="preserve">
<g>
  <defs>
    <rect id="SVGID_1_" x="-1.291" y="-0.936" width="45.483" height="28.837"/>
  </defs>
  <clipPath id="SVGID_2_">
    <use xlink:href="#SVGID_1_"  overflow="visible"/>
  </clipPath>
  <g clip-path="url(#SVGID_2_)">
    <defs>
      <rect id="SVGID_3_" x="-1.291" y="-0.936" width="45.483" height="28.837"/>
    </defs>
    <clipPath id="SVGID_4_">
      <use xlink:href="#SVGID_3_"  overflow="visible"/>
    </clipPath>
    <g opacity="0.07" clip-path="url(#SVGID_4_)">
      <g>
        <defs>
          <rect id="SVGID_5_" x="2.61" y="24.354" width="40.913" height="3.131"/>
        </defs>
        <clipPath id="SVGID_6_">
          <use xlink:href="#SVGID_5_"  overflow="visible"/>
        </clipPath>
        <path clip-path="url(#SVGID_6_)" d="M10.509,24.741c-4.362,0-7.899,0.615-7.899,1.373s3.537,1.371,7.899,1.371c4.363,0,7.898-0.613,7.898-1.371S14.872,24.741,10.509,24.741"/>
        <path clip-path="url(#SVGID_6_)" d="M43.196,26.335c-0.479-0.309-0.842,0.061-1.717-0.053c-0.459-0.059-0.654-0.197-0.924-0.193c0.207-0.512-0.109-0.742-0.779-0.801c-0.953-0.082-3.586-0.418-7.65-0.492c-1.105-0.02,0.895-0.813-7.699-0.227c-0.316,0.021-1.006,0.078-1.252,0.521c-0.082,0.145-0.115,0.33-0.113,0.525c-0.113-0.131-0.381,0.258-0.504,0.199c-0.736-0.344-0.256-0.02-1.973-0.105c-0.414-0.021-0.682-0.119-0.844,0.105c-0.156,0.219-0.895,0.844-0.721,0.896c1.301,0.41,3.166,0.375,4.508,0.119c0.055,0.045,0.111,0.076,0.168,0.086c2.18,0.416,2.691,0.1,10.178,0.094c1.225,0,3.568,0.248,5.076,0.076c0.518-0.061,0.676,0.014,0.918-0.172c0.125-0.125,0.398-0.066,0.57-0.035c0.322,0.061,0.586,0.039,0.746,0.047c0.209,0.008,0.314-0.148,0.533-0.131c0.652,0.055,1.717,0.277,1.801-0.031C43.56,26.612,43.321,26.417,43.196,26.335"/>
      </g>
    </g>
  </g>
  <g clip-path="url(#SVGID_2_)">
    <defs>
      <rect id="SVGID_7_" x="-1.291" y="-0.936" width="45.483" height="28.837"/>
    </defs>
    <clipPath id="SVGID_8_">
      <use xlink:href="#SVGID_7_"  overflow="visible"/>
    </clipPath>
    <path clip-path="url(#SVGID_8_)" fill="#479F00" d="M9.418,8.34c0,0,1.604-8.122,10.167-6.757C18.142,8.956,9.418,8.34,9.418,8.34
      "/>
    <path clip-path="url(#SVGID_8_)" fill="#479F00" d="M2.947,1.656c0,0,6.242-0.472,6.242,6.478C2.594,7.544,2.947,1.656,2.947,1.656"/>
  </g>
  <g clip-path="url(#SVGID_2_)">
    <defs>
      <path id="SVGID_9_" d="M0.119,17.118c0,5.184,4.204,9.389,9.389,9.389c5.185,0,9.388-4.205,9.388-9.389c0-5.186-4.203-9.389-9.388-9.389C4.323,7.729,0.119,11.932,0.119,17.118"/>
    </defs>
    <clipPath id="SVGID_10_">
      <use xlink:href="#SVGID_9_"  overflow="visible"/>
    </clipPath>
    <rect x="-1.82" y="5.944" clip-path="url(#SVGID_10_)" fill="#FAAC2C" width="25.047" height="25.78"/>
    <g opacity="0.18" clip-path="url(#SVGID_10_)">
      <g>
        <defs>
          <rect id="SVGID_11_" x="-2.479" y="18.171" width="22.221" height="1.688"/>
        </defs>
        <clipPath id="SVGID_12_">
          <use xlink:href="#SVGID_11_"  overflow="visible"/>
        </clipPath>
        <rect x="-2.479" y="18.173" clip-path="url(#SVGID_12_)" width="22.221" height="1.688"/>
      </g>
    </g>
  </g>
  <g clip-path="url(#SVGID_2_)">
    <defs>
      <rect id="SVGID_13_" x="-1.291" y="-0.936" width="45.483" height="28.837"/>
    </defs>
    <clipPath id="SVGID_14_">
      <use xlink:href="#SVGID_13_"  overflow="visible"/>
    </clipPath>
    <path clip-path="url(#SVGID_14_)" fill="#FFFFFF" d="M7.979,16.698c0,0.953-0.773,1.727-1.726,1.727c-0.954,0-1.727-0.773-1.727-1.727s0.772-1.727,1.727-1.727C7.206,14.972,7.979,15.745,7.979,16.698"/>
    <path clip-path="url(#SVGID_14_)" d="M7.389,16.698c0,0.627-0.509,1.137-1.136,1.137c-0.628,0-1.137-0.51-1.137-1.137s0.509-1.137,1.137-1.137C6.88,15.562,7.389,16.071,7.389,16.698"/>
    <path clip-path="url(#SVGID_14_)" fill="#FFFFFF" d="M6.252,16.261c0,0.242-0.196,0.438-0.438,0.438c-0.241,0-0.438-0.195-0.438-0.438s0.196-0.438,0.438-0.438C6.056,15.823,6.252,16.019,6.252,16.261"/>
    <path clip-path="url(#SVGID_14_)" fill="#FFFFFF" d="M14.501,16.698c0,0.953-0.773,1.727-1.727,1.727s-1.727-0.773-1.727-1.727s0.773-1.727,1.727-1.727S14.501,15.745,14.501,16.698"/>
    <path clip-path="url(#SVGID_14_)" d="M13.911,16.698c0,0.627-0.51,1.137-1.137,1.137s-1.137-0.51-1.137-1.137s0.51-1.137,1.137-1.137S13.911,16.071,13.911,16.698"/>
    <path clip-path="url(#SVGID_14_)" fill="#FFFFFF" d="M12.774,16.261c0,0.242-0.195,0.438-0.438,0.438s-0.438-0.195-0.438-0.438s0.195-0.438,0.438-0.438S12.774,16.019,12.774,16.261"/>
    <path clip-path="url(#SVGID_14_)" fill="#A42F01" d="M8.861,22.786c1.871,0,4.234,0.322,4.992-1.902c0.229-0.668-0.828-0.955-1.053-0.291c-0.52,1.52-2.723,1.1-3.939,1.1C8.157,21.692,8.156,22.786,8.861,22.786"/>
    <g opacity="0.5" clip-path="url(#SVGID_14_)">
      <g>
        <defs>
          <rect id="SVGID_15_" x="1.036" y="13.706" width="7.825" height="4.368"/>
        </defs>
        <clipPath id="SVGID_16_">
          <use xlink:href="#SVGID_15_"  overflow="visible"/>
        </clipPath>
        <rect x="1.036" y="13.706" clip-path="url(#SVGID_16_)" fill="#FF0013" width="7.825" height="4.368"/>
      </g>
    </g>
    <g opacity="0.5" clip-path="url(#SVGID_14_)">
      <g>
        <defs>
          <rect id="SVGID_17_" x="9.999" y="13.804" width="7.824" height="4.367"/>
        </defs>
        <clipPath id="SVGID_18_">
          <use xlink:href="#SVGID_17_"  overflow="visible"/>
        </clipPath>
        <rect x="9.999" y="13.804" clip-path="url(#SVGID_18_)" fill="#004FED" width="7.824" height="4.367"/>
      </g>
    </g>
  </g>
  <g clip-path="url(#SVGID_2_)">
    <defs>
      <path id="SVGID_19_" d="M10.812,17.237v-2.771c0-0.276,0.225-0.501,0.5-0.501h5.768c0.275,0,0.5,0.226,0.5,0.501v2.771c0,0.275-0.225,0.5-0.5,0.5h-5.768C11.036,17.737,10.812,17.513,10.812,17.237 M1.474,17.229v-2.773c0-0.276,0.225-0.5,0.5-0.5h5.769c0.274,0,0.499,0.225,0.499,0.5v2.773c0,0.273-0.225,0.498-0.499,0.498H1.974C1.699,17.728,1.474,17.503,1.474,17.229M12.313,12.872H6.578h-7.305v5.403h0.742l0.487,0.555h6.39h5.101h6.5l0.494-0.555h0.754v-5.403H12.313z"/>
    </defs>
    <clipPath id="SVGID_20_">
      <use xlink:href="#SVGID_19_"  overflow="visible"/>
    </clipPath>
    <rect x="-2.931" y="11.347" clip-path="url(#SVGID_20_)" fill="#ECECEB" width="25.674" height="8.613"/>
    <g opacity="0.71" clip-path="url(#SVGID_20_)">
      <g>
        <defs>
          <rect id="SVGID_21_" x="-2.57" y="18.593" width="25.674" height="8.613"/>
        </defs>
        <clipPath id="SVGID_22_">
          <use xlink:href="#SVGID_21_"  overflow="visible"/>
        </clipPath>
        <rect x="-2.57" y="18.593" clip-path="url(#SVGID_22_)" fill="#CCCCCE" width="25.674" height="8.613"/>
      </g>
    </g>
    <g opacity="0.71" clip-path="url(#SVGID_20_)">
      <g>
        <defs>
          <rect id="SVGID_23_" x="17.38" y="12.572" width="3.9" height="6.792"/>
        </defs>
        <clipPath id="SVGID_24_">
          <use xlink:href="#SVGID_23_"  overflow="visible"/>
        </clipPath>
        <polygon clip-path="url(#SVGID_24_)" fill="#CCCCCE" points="18.896,12.572 18.896,17.538 17.38,19.364 21.28,19.093 21.28,12.872         "/>
      </g>
    </g>
    <g opacity="0.71" clip-path="url(#SVGID_20_)">
      <g>
        <defs>
          <rect id="SVGID_25_" x="-2.45" y="12.592" width="4.055" height="6.792"/>
        </defs>
        <clipPath id="SVGID_26_">
          <use xlink:href="#SVGID_25_"  overflow="visible"/>
        </clipPath>
        <polygon clip-path="url(#SVGID_26_)" fill="#CCCCCE" points="0.03,12.592 0.03,17.538 1.605,19.384 -2.449,19.112 
          -2.449,12.892         "/>
      </g>
    </g>
  </g>
  <g clip-path="url(#SVGID_2_)">
    <defs>
      <path id="SVGID_27_" d="M24.253,5.968c-1.135,0.939-1.766,2.794-0.971,3.987c0.668,1.006,2.029,1.061,2.352,1.074c1.746,0.071,3.094-1.196,3.682-2.301c0.23-0.436,0.611-1.152,0.357-1.892c-0.311-0.905-1.361-1.231-1.84-1.381c-0.156-0.048-0.717-0.223-1.42-0.223C25.745,5.234,24.948,5.392,24.253,5.968"/>
    </defs>
    <clipPath id="SVGID_28_">
      <use xlink:href="#SVGID_27_"  overflow="visible"/>
    </clipPath>
    <rect x="21.073" y="4.159" clip-path="url(#SVGID_28_)" fill="#FAAC2C" width="12.578" height="7.699"/>
    <g opacity="0.11" clip-path="url(#SVGID_28_)">
      <g>
        <defs>
          <rect id="SVGID_29_" x="23.655" y="6.612" width="9.002" height="5.875"/>
        </defs>
        <clipPath id="SVGID_30_">
          <use xlink:href="#SVGID_29_"  overflow="visible"/>
        </clipPath>
        <path clip-path="url(#SVGID_30_)" fill="#050303" d="M26.8,12.42c-1.73-0.314-3.314-1.18-3.129-2.181c0.074-0.398,0.688-0.584,1.127-0.876c0.412-0.274,0.063-1.132,1.205-1.372c0.506-0.106,0.986,0.045,1.549-0.682c0.816-1.055,2.4-0.595,3.363-0.616c0.918-0.021,1.73,0.587,1.742,1.837C32.677,10.7,29.442,12.901,26.8,12.42"/>
      </g>
    </g>
  </g>
  <g clip-path="url(#SVGID_2_)">
    <defs>
      <path id="SVGID_31_" d="M29.53,7.73L29.53,7.73c0-0.001-0.002,0.004-0.004,0.005c-0.088,0.09-0.16,0.195-0.221,0.307c-0.363,0.492-1.074,1.404-1.426,1.498c0-0.776-0.631-1.406-1.408-1.406c-0.775,0-1.406,0.63-1.406,1.406c0,0.002,0,0.003,0,0.005c-0.729,0.022-1.314,0.564-1.314,1.233c0,0.684,0.609,1.237,1.361,1.237c0.248,0,0.479-0.065,0.68-0.172l-0.1,0.172c0,0,9.645,0.372,10.34-0.568c0.494-0.669-0.336-1.031-0.336-1.031c0-0.692-0.709-1.254-1.582-1.254c-0.139,0-0.271,0.016-0.4,0.042c-0.215-0.289-0.674-0.49-1.213-0.49c-0.207,0-0.4,0.032-0.576,0.085c0.002-0.028,0.01-0.056,0.01-0.085c0-0.775-0.629-1.403-1.404-1.403C30.14,7.31,29.786,7.471,29.53,7.73"/>
    </defs>
    <clipPath id="SVGID_32_">
      <use xlink:href="#SVGID_31_"  overflow="visible"/>
    </clipPath>
    <rect x="21.271" y="5.46" clip-path="url(#SVGID_32_)" fill="#EDECB8" width="17.207" height="11.238"/>
    <g opacity="0.09" clip-path="url(#SVGID_32_)">
      <g>
        <defs>
          <rect id="SVGID_33_" x="22.929" y="6.756" width="13.469" height="7.046"/>
        </defs>
        <clipPath id="SVGID_34_">
          <use xlink:href="#SVGID_33_"  overflow="visible"/>
        </clipPath>
        <path clip-path="url(#SVGID_34_)" fill="#1D1D1B" d="M30.567,13.802c-0.002,0-0.002,0-0.002,0c-1.66,0-7.111-0.154-7.582-2.143c-0.117-0.488-0.051-1.535,0.213-2.204c0.078-0.197,0.24-0.608,0.699-0.608c0.117,0,0.242,0.029,0.393,0.092c0.064,0.026,0.156,0.037,0.182,0.034c-0.006-0.01,0.02-0.078,0.006-0.24c-0.021-0.282,0.078-0.958,1.473-1.147l0.037-0.008c0.076-0.018,0.205-0.047,0.375-0.047c0.328,0,0.678,0.107,1.07,0.331c0.404,0.229,0.621,0.505,0.734,0.765c0.035-0.059,0.07-0.116,0.102-0.169c0.266-0.438,0.568-0.934,0.977-1.246c0.293-0.225,0.65-0.455,1.076-0.455c0.203,0,0.4,0.055,0.59,0.161c0.342,0.192,0.553,0.546,0.74,0.858c0.145,0.244,0.297,0.496,0.445,0.561c0.168,0.071,0.254,0.053,0.346,0.048c0.145-0.008,0.275-0.004,0.396,0.026c0.299,0.075,0.502,0.246,0.682,0.396c0.098,0.082,0.189,0.16,0.293,0.218c0.133,0.075,0.182,0.079,0.182,0.079c0.01-0.003,0.023-0.008,0.037-0.013c0.064-0.021,0.164-0.053,0.295-0.053c0.139,0,0.285,0.037,0.449,0.113c0.168,0.077,0.287,0.152,0.387,0.242l0.021,0.02c0.184,0.166,0.434,0.391,0.541,0.979c0.025,0.023,0.064,0.055,0.094,0.077c0.178,0.143,0.449,0.357,0.48,0.713l0.008,0.086c0.018,0.214,0.016,0.214,0.029,0.284c0.006,0.038,0.016,0.094,0.033,0.201l0.027,0.182l-0.115,0.142l0,0c0.002,0-0.08,0.13-0.109,0.407C36.05,13.674,32.212,13.802,30.567,13.802z M23.983,9.7c-0.008,0.016-0.016,0.034-0.023,0.057c-0.209,0.53-0.252,1.405-0.18,1.714c0.174,0.733,2.611,1.512,6.785,1.512c0,0,0,0,0.002,0c2.934,0.001,4.533-0.403,4.795-0.636c0.033-0.279,0.107-0.479,0.172-0.609c-0.002-0.017-0.006-0.03-0.008-0.041c-0.016-0.088-0.016-0.088-0.039-0.358l-0.008-0.084c-0.014-0.015-0.113-0.095-0.174-0.143c-0.152-0.121-0.342-0.272-0.381-0.52c-0.055-0.354-0.148-0.44-0.293-0.569l-0.021-0.02c-0.023-0.022-0.066-0.055-0.182-0.107c-0.074-0.035-0.104-0.036-0.105-0.037c-0.012,0.003-0.023,0.009-0.039,0.014c-0.064,0.021-0.162,0.053-0.291,0.053c-0.176,0-0.361-0.059-0.584-0.185c-0.17-0.096-0.303-0.207-0.418-0.305c-0.148-0.124-0.244-0.201-0.355-0.229c-0.033-0.009-0.094-0.005-0.15-0.002c-0.047,0.002-0.096,0.005-0.146,0.005c-0.125,0-0.318-0.013-0.566-0.118c-0.395-0.169-0.625-0.554-0.828-0.894c-0.141-0.235-0.287-0.479-0.439-0.565c-0.064-0.037-0.125-0.055-0.186-0.055c-0.143,0-0.32,0.088-0.578,0.285c-0.285,0.22-0.545,0.646-0.773,1.021c-0.309,0.511-0.578,0.952-0.99,1.055L27.87,9.952h-0.186l-0.137-0.144c-0.137-0.154-0.115-0.333-0.102-0.451c0.027-0.227,0.059-0.509-0.422-0.782C26.765,8.425,26.54,8.35,26.36,8.35c-0.076,0-0.133,0.013-0.191,0.026c-0.043,0.01-0.08,0.018-0.111,0.021c-0.512,0.069-0.74,0.216-0.766,0.272c0.031,0.378-0.049,0.671-0.234,0.871c-0.152,0.165-0.363,0.253-0.611,0.253C24.247,9.794,24.073,9.737,23.983,9.7z"/>
      </g>
    </g>
    <g opacity="0.05" clip-path="url(#SVGID_32_)">
      <g>
        <defs>
          <rect id="SVGID_35_" x="29.784" y="9.5" width="1.508" height="0.963"/>
        </defs>
        <clipPath id="SVGID_36_">
          <use xlink:href="#SVGID_35_"  overflow="visible"/>
        </clipPath>
        <path clip-path="url(#SVGID_36_)" fill="#070404" d="M29.796,9.628c-0.07,0.42,0.186,0.779,0.615,0.828c0.447,0.051,0.848-0.226,0.881-0.688c0.016-0.228-0.34-0.227-0.355,0c0,0.004,0.006-0.022-0.004,0.022c-0.012,0.046-0.025,0.09-0.047,0.132c-0.084,0.152-0.246,0.199-0.412,0.185c-0.148-0.012-0.275-0.071-0.32-0.22C30.14,9.841,30.142,9.8,30.138,9.754c-0.002-0.023,0.012-0.097,0-0.031C30.175,9.5,29.833,9.403,29.796,9.628"/>
      </g>
    </g>
    <g opacity="0.05" clip-path="url(#SVGID_32_)">
      <g>
        <defs>
          <rect id="SVGID_37_" x="32.819" y="9.766" width="1.143" height="1.473"/>
        </defs>
        <clipPath id="SVGID_38_">
          <use xlink:href="#SVGID_37_"  overflow="visible"/>
        </clipPath>
        <path clip-path="url(#SVGID_38_)" fill="#070404" d="M33.323,9.775c-0.4,0.121-0.6,0.52-0.457,0.913c0.145,0.397,0.557,0.671,0.977,0.499c0.209-0.086,0.117-0.43-0.094-0.343c-0.488,0.199-0.803-0.583-0.332-0.728C33.636,10.05,33.542,9.708,33.323,9.775"/>
      </g>
    </g>
    <g opacity="0.05" clip-path="url(#SVGID_32_)">
      <g>
        <defs>
          <rect id="SVGID_39_" x="25.437" y="9.405" width="1.705" height="1.091"/>
        </defs>
        <clipPath id="SVGID_40_">
          <use xlink:href="#SVGID_39_"  overflow="visible"/>
        </clipPath>
        <path clip-path="url(#SVGID_40_)" fill="#070404" d="M25.437,9.884c0.104,1.048,1.893,0.627,1.689-0.352c-0.047-0.225-0.391-0.129-0.344,0.094c0.045,0.216-0.201,0.436-0.459,0.496c-0.156,0.037-0.354,0.052-0.465-0.088c-0.029-0.037-0.041-0.078-0.057-0.121c-0.01-0.026-0.014-0.077-0.01-0.029C25.771,9.659,25.415,9.657,25.437,9.884"/>
      </g>
    </g>
    <g opacity="0.05" clip-path="url(#SVGID_32_)">
      <g>
        <defs>
          <rect id="SVGID_41_" x="27.421" y="10.316" width="1.492" height="1.112"/>
        </defs>
        <clipPath id="SVGID_42_">
          <use xlink:href="#SVGID_41_"  overflow="visible"/>
        </clipPath>
        <path clip-path="url(#SVGID_42_)" fill="#070404" d="M28.845,11.335c0.184-0.416-0.012-0.836-0.445-0.978c-0.406-0.133-0.83,0.053-0.969,0.464c-0.072,0.217,0.271,0.311,0.344,0.094c0.01-0.032-0.01,0.016,0.008-0.018c0.02-0.039,0.041-0.076,0.07-0.109c0.102-0.118,0.244-0.142,0.393-0.105c0.152,0.036,0.303,0.123,0.316,0.293c0.004,0.051-0.006,0.095-0.016,0.143c-0.004,0.023-0.043,0.113-0.01,0.038C28.444,11.364,28.751,11.544,28.845,11.335"/>
      </g>
    </g>
  </g>
  <g clip-path="url(#SVGID_2_)">
    <defs>
      <path id="SVGID_43_" d="M22.987,11.218l1.201,15.289H35.28l1.086-13.329c0.055-0.653,0.107-1.307,0.16-1.96H22.987z"/>
    </defs>
    <clipPath id="SVGID_44_">
      <use xlink:href="#SVGID_43_"  overflow="visible"/>
    </clipPath>
    <rect x="21.88" y="10.627" clip-path="url(#SVGID_44_)" fill="#CCCCCC" width="16.934" height="18.375"/>
    <g opacity="0.22" clip-path="url(#SVGID_44_)">
      <g>
        <defs>
          <rect id="SVGID_45_" x="22.987" y="25.728" width="13.539" height="1.605"/>
        </defs>
        <clipPath id="SVGID_46_">
          <use xlink:href="#SVGID_45_"  overflow="visible"/>
        </clipPath>
        <rect x="22.987" y="25.728" clip-path="url(#SVGID_46_)" width="13.539" height="1.605"/>
      </g>
    </g>
    <rect x="22.714" y="12.015" clip-path="url(#SVGID_44_)" fill="#EF1122" width="14.1" height="13.158"/>
    <polygon clip-path="url(#SVGID_44_)" fill="#F2F2F2" points="26.226,25.173 25.692,12.015 27.897,12.015 27.997,25.173     "/>
    <polygon clip-path="url(#SVGID_44_)" fill="#F2F2F2" points="31.743,12.015 31.259,25.173 33.187,25.173 33.956,12.015     "/>
    <g opacity="0.11" clip-path="url(#SVGID_44_)">
      <g>
        <defs>
          <rect id="SVGID_47_" x="30.37" y="9.703" width="7.729" height="17.484"/>
        </defs>
        <clipPath id="SVGID_48_">
          <use xlink:href="#SVGID_47_"  overflow="visible"/>
        </clipPath>
        <polygon clip-path="url(#SVGID_48_)" points="30.583,9.703 30.368,26.802 36.526,27.187 38.099,10.21         "/>
      </g>
    </g>
  </g>
  <g clip-path="url(#SVGID_2_)">
    <defs>
      <path id="SVGID_49_" d="M20.347,25.278c-0.078-0.043-0.166-0.07-0.264-0.07c-0.219,0-0.408,0.131-0.494,0.32c-0.018-0.002-0.033-0.006-0.051-0.006c-0.355,0-0.643,0.289-0.643,0.645c0,0.354,0.287,0.643,0.643,0.643l2.834-0.053c0.34,0,0.615-0.277,0.615-0.617s-0.275-0.617-0.615-0.617c-0.146,0-0.279,0.053-0.385,0.139c-0.158-0.063-0.25-0.176-0.299-0.275c-0.012-0.057-0.031-0.111-0.057-0.162v-0.002l0,0c-0.113-0.236-0.352-0.398-0.631-0.398C20.7,24.823,20.446,25.013,20.347,25.278"/>
    </defs>
    <clipPath id="SVGID_50_">
      <use xlink:href="#SVGID_49_"  overflow="visible"/>
    </clipPath>
    <rect x="18.104" y="23.901" clip-path="url(#SVGID_50_)" fill="#EDECB8" width="39.734" height="7.34"/>
    <g opacity="0.11" clip-path="url(#SVGID_50_)">
      <g>
        <defs>
          <rect id="SVGID_51_" x="16.962" y="25.302" width="27.463" height="2.23"/>
        </defs>
        <clipPath id="SVGID_52_">
          <use xlink:href="#SVGID_51_"  overflow="visible"/>
        </clipPath>
        <path clip-path="url(#SVGID_52_)" d="M17.964,27.532c-0.033,0-0.064-0.006-0.092-0.012l-0.211-0.049l-0.092-0.223c-0.035-0.09-0.213-0.287-0.607-0.568l0.477-0.668c0.373,0.268,0.59,0.477,0.719,0.639c0.023-0.002,0.047-0.004,0.072-0.004c0.256-0.018,0.682-0.047,1.17-0.225c0.111-0.041,0.186-0.102,0.27-0.172c0.145-0.121,0.363-0.305,0.713-0.234c0.119,0.023,0.199,0.061,0.266,0.09c0.109,0.049,0.258,0.115,0.992,0.088c0.125-0.004,0.24,0,0.35,0.002c0.445,0.014,0.689,0.021,1.42-0.719c0.275-0.279,0.75-0.246,3.182,0.221c0.717,0.139,1.697,0.326,1.902,0.307c0.523-0.068,0.895,0.043,1.287,0.162c0.137,0.039,0.279,0.082,0.441,0.121c0.875,0.209,1.588,0.117,2.162,0.043c0.674-0.088,1.125-0.262,1.521-0.416c0.535-0.207,1.039-0.402,1.797-0.258c0.314,0.059,0.879,0.217,1.107,0.281c0.428,0.123,0.639,0.201,0.811,0.264c0.133,0.049,0.23,0.084,0.391,0.127c0.912,0.246,1.734,0.172,2.143,0.104c0.354-0.057,0.52-0.125,0.666-0.184c0.186-0.076,0.377-0.152,0.764-0.148c0.387,0.01,0.666,0.092,0.914,0.164c0.262,0.076,0.451,0.131,0.729,0.092c0.246-0.035,0.49-0.137,0.721-0.303l0.479,0.666c-0.34,0.244-0.705,0.395-1.084,0.449c-0.451,0.063-0.783-0.033-1.074-0.117c-0.217-0.064-0.424-0.125-0.699-0.131c-0.219-0.004-0.287,0.025-0.439,0.088c-0.168,0.068-0.396,0.162-0.842,0.234c-0.475,0.076-1.428,0.164-2.488-0.121c-0.195-0.053-0.318-0.098-0.459-0.15c-0.168-0.061-0.357-0.129-0.748-0.242c-0.176-0.051-0.752-0.213-1.041-0.268c-0.529-0.1-0.854,0.027-1.348,0.219c-0.42,0.162-0.941,0.363-1.713,0.463c-0.605,0.08-1.436,0.186-2.457-0.057c-0.18-0.043-0.338-0.09-0.486-0.135c-0.348-0.105-0.598-0.18-0.947-0.135c-0.305,0.041-0.986-0.086-2.164-0.313c-0.811-0.156-2.145-0.418-2.508-0.385c-0.871,0.861-1.346,0.914-1.961,0.896c-0.092-0.002-0.191-0.006-0.297-0.002c-0.855,0.031-1.119-0.055-1.354-0.158c-0.027-0.012-0.045-0.02-0.061-0.025c-0.02,0.014-0.041,0.033-0.061,0.049c-0.105,0.09-0.268,0.225-0.516,0.314c-0.596,0.215-1.113,0.252-1.393,0.27c-0.043,0.004-0.08,0.006-0.109,0.008C18.099,27.517,18.026,27.532,17.964,27.532z"/>
      </g>
    </g>
  </g>
  <g clip-path="url(#SVGID_2_)">
    <defs>
      <path id="SVGID_53_" d="M28.804,25.587c-0.053-0.021-0.109-0.035-0.168-0.035c-0.242,0-0.439,0.197-0.439,0.439c0,0.121,0.051,0.232,0.131,0.313c-0.002,0.02-0.006,0.041-0.006,0.063c0,0.207,0.168,0.375,0.377,0.375c0.133,0,0.25-0.07,0.316-0.176c0.012,0.002,0.023,0.004,0.035,0.004c0.229,0,0.414-0.186,0.414-0.414c0-0.047-0.01-0.092-0.023-0.133c0.014-0.041,0.023-0.084,0.023-0.131c0-0.223-0.18-0.402-0.402-0.402C28.964,25.489,28.874,25.526,28.804,25.587"/>
    </defs>
    <clipPath id="SVGID_54_">
      <use xlink:href="#SVGID_53_"  overflow="visible"/>
    </clipPath>
    <rect x="18.104" y="23.901" clip-path="url(#SVGID_54_)" fill="#EDECB8" width="39.734" height="7.34"/>
    <g opacity="0.11" clip-path="url(#SVGID_54_)">
      <g>
        <defs>
          <rect id="SVGID_55_" x="24.308" y="25.3" width="6.092" height="1.832"/>
        </defs>
        <clipPath id="SVGID_56_">
          <use xlink:href="#SVGID_55_"  overflow="visible"/>
        </clipPath>
        <path clip-path="url(#SVGID_56_)" d="M26.63,27.132c-0.93,0-1.793-0.164-2.322-0.293l0.129-0.531c1.258,0.305,2.514,0.359,3.447,0.152c0.191-0.043,0.357-0.08,0.5-0.109c0.824-0.178,0.824-0.178,1.172-0.566c0.111-0.123,0.252-0.281,0.451-0.484l0.391,0.381c-0.191,0.197-0.328,0.35-0.436,0.469c-0.465,0.52-0.541,0.537-1.463,0.734c-0.141,0.031-0.305,0.066-0.496,0.109C27.55,27.093,27.083,27.132,26.63,27.132z"/>
      </g>
    </g>
  </g>
  <g clip-path="url(#SVGID_2_)">
    <defs>
      <path id="SVGID_57_" d="M32.759,25.007c-0.008,0-0.014-0.002-0.021-0.002c-0.262,0-0.473,0.211-0.473,0.473c0,0.033,0.004,0.064,0.01,0.096c-0.092,0.1-0.15,0.23-0.15,0.379c0,0.305,0.248,0.555,0.555,0.555c0.025,0,0.051-0.006,0.074-0.008c0.094,0.109,0.23,0.18,0.385,0.18c0.217,0,0.398-0.137,0.471-0.328c0.076,0.049,0.164,0.078,0.262,0.078c0.197,0,0.367-0.121,0.438-0.291c0.139-0.039,0.24-0.148,0.24-0.283c0-0.121-0.08-0.225-0.197-0.273c0.002-0.016,0.01-0.031,0.01-0.049c0-0.199-0.16-0.359-0.359-0.359c-0.086,0-0.164,0.033-0.227,0.086c-0.016-0.289-0.252-0.52-0.545-0.52C33.028,24.739,32.854,24.847,32.759,25.007"/>
    </defs>
    <clipPath id="SVGID_58_">
      <use xlink:href="#SVGID_57_"  overflow="visible"/>
    </clipPath>
    <rect x="18.104" y="23.901" clip-path="url(#SVGID_58_)" fill="#EDECB8" width="39.734" height="7.34"/>
    <g opacity="0.11" clip-path="url(#SVGID_58_)">
      <g>
        <defs>
          <rect id="SVGID_59_" x="31.446" y="24.911" width="3.514" height="2.238"/>
        </defs>
        <clipPath id="SVGID_60_">
          <use xlink:href="#SVGID_59_"  overflow="visible"/>
        </clipPath>
        <path clip-path="url(#SVGID_60_)" d="M31.987,27.149c-0.148,0-0.324-0.023-0.541-0.074l0.129-0.531c0.523,0.125,0.643,0.037,0.836-0.109c0.188-0.139,0.418-0.311,0.91-0.338c0.043-0.004,0.102,0,0.168,0.006c0.348,0.025,0.826,0.063,0.926-1.191l0.545,0.043c-0.143,1.799-1.139,1.721-1.512,1.693c-0.039-0.004-0.07-0.006-0.096-0.006c-0.328,0.02-0.461,0.117-0.613,0.232C32.534,27.026,32.335,27.149,31.987,27.149z"/>
      </g>
    </g>
  </g>
  <g clip-path="url(#SVGID_2_)">
    <defs>
      <path id="SVGID_61_" d="M38.024,25.565c-0.039-0.008-0.078-0.014-0.119-0.014c-0.324,0-0.588,0.264-0.588,0.588s0.264,0.586,0.588,0.586c0.102,0,0.195-0.027,0.279-0.074c0.102,0.047,0.217,0.074,0.338,0.074c0.086,0,0.168-0.012,0.244-0.035c0,0,0.186,0.057,0.689,0.035c0.209-0.008,0.541-0.07,0.809-0.125h0.002c0.104,0.049,0.219,0.078,0.346,0.078c0.076,0,0.148-0.01,0.217-0.029c0.287-0.078,0.494-0.303,0.494-0.57c0-0.135-0.053-0.256-0.141-0.355c0.059-0.076,0.094-0.17,0.094-0.273c0-0.246-0.199-0.445-0.445-0.445s-0.445,0.199-0.445,0.445c0,0.021,0.002,0.041,0.004,0.061c-0.039,0.01-0.076,0.025-0.113,0.041c-0.109-0.158-0.293-0.264-0.5-0.264c-0.082,0-0.158,0.018-0.227,0.045c-0.107-0.309-0.396-0.531-0.742-0.531C38.382,24.802,38.036,25.142,38.024,25.565"/>
    </defs>
    <clipPath id="SVGID_62_">
      <use xlink:href="#SVGID_61_"  overflow="visible"/>
    </clipPath>
    <rect x="18.104" y="23.901" clip-path="url(#SVGID_62_)" fill="#EDECB8" width="39.734" height="7.34"/>
    <g opacity="0.11" clip-path="url(#SVGID_62_)">
      <g>
        <defs>
          <rect id="SVGID_63_" x="37.55" y="25.694" width="4.16" height="1.406"/>
        </defs>
        <clipPath id="SVGID_64_">
          <use xlink:href="#SVGID_63_"  overflow="visible"/>
        </clipPath>
        <path clip-path="url(#SVGID_64_)" d="M37.815,27.101l-0.266-0.479c0.793-0.439,1.039-0.486,1.314-0.248c0.043,0.035,0.102,0.086,0.445,0.018c0.219-0.045,0.473-0.049,0.719-0.055c0.4-0.008,0.854-0.016,1.031-0.207c0.078-0.086,0.113-0.219,0.104-0.406l0.545-0.029c0.018,0.34-0.064,0.611-0.248,0.809c-0.336,0.359-0.912,0.371-1.422,0.381c-0.23,0.006-0.449,0.01-0.621,0.043c-0.504,0.102-0.723,0.021-0.908-0.139c-0.004-0.002-0.006-0.004-0.008-0.006C38.446,26.79,38.28,26.843,37.815,27.101z"/>
      </g>
    </g>
  </g>
  <g clip-path="url(#SVGID_2_)">
    <defs>
      <path id="SVGID_65_" d="M42.138,25.772c0,0.078,0.018,0.152,0.047,0.219c-0.156,0.063-0.268,0.193-0.268,0.348c0,0.213,0.211,0.387,0.471,0.387c0.146,0,0.277-0.057,0.363-0.145c0.059,0.021,0.121,0.035,0.186,0.035c0.285,0,0.514-0.23,0.514-0.514c0-0.275-0.215-0.498-0.484-0.512c-0.064-0.178-0.219-0.303-0.398-0.303C42.329,25.288,42.138,25.505,42.138,25.772"/>
    </defs>
    <clipPath id="SVGID_66_">
      <use xlink:href="#SVGID_65_"  overflow="visible"/>
    </clipPath>
    <rect x="18.104" y="23.901" clip-path="url(#SVGID_66_)" fill="#EDECB8" width="39.734" height="7.34"/>
    <g opacity="0.11" clip-path="url(#SVGID_66_)">
      <g>
        <defs>
          <rect id="SVGID_67_" x="37.558" y="25.575" width="6.303" height="1.406"/>
        </defs>
        <clipPath id="SVGID_68_">
          <use xlink:href="#SVGID_67_"  overflow="visible"/>
        </clipPath>
        <path clip-path="url(#SVGID_68_)" d="M39.612,26.981c-0.689,0-1.396-0.041-2.055-0.201l0.127-0.531c0.965,0.234,2.082,0.193,3.068,0.16l0.432-0.016c0.291-0.008,0.525-0.01,0.719-0.01c0.789-0.004,0.789-0.004,1.404-0.643l0.16-0.166l0.393,0.381L43.7,26.12c-0.746,0.773-0.813,0.805-1.795,0.811c-0.189,0-0.42,0.002-0.705,0.01l-0.428,0.016C40.399,26.968,40.009,26.981,39.612,26.981z"/>
      </g>
    </g>
  </g>
  <g clip-path="url(#SVGID_2_)">
    <defs>
      <rect id="SVGID_69_" x="-1.291" y="-0.936" width="45.483" height="28.269"/>
    </defs>
    <clipPath id="SVGID_70_">
      <use xlink:href="#SVGID_69_"  overflow="visible"/>
    </clipPath>
  </g>
</g>
</svg>
