<?xml version="1.0" encoding="utf-8"?>
<!DOCTYPE svg PUBLIC "-//W3C//DTD SVG 1.1//EN" "http://www.w3.org/Graphics/SVG/1.1/DTD/svg11.dtd">
<!-- Clemoji 3.0: siffle.svg (:-°) - licence GPLv3 or later - Author Buddy - https://zestedesavoir.com/ -->
<svg version="1.1"
   id="clemoji3_siffle" xmlns:dc="http://purl.org/dc/elements/1.1/" xmlns:cc="http://creativecommons.org/ns#" xmlns:rdf="http://www.w3.org/1999/02/22-rdf-syntax-ns#" xmlns:svg="http://www.w3.org/2000/svg"
   xmlns="http://www.w3.org/2000/svg" xmlns:xlink="http://www.w3.org/1999/xlink" x="0px" y="0px" width="19px" height="27.979px"
   viewBox="0 -0.145 19 27.979" enable-background="new 0 -0.145 19 27.979" xml:space="preserve">
<g id="g10" transform="translate(-811.37338,-6.933929)">
  <path id="path4138-2-28-0-0" fill="#479F00" d="M820.36,7.039c-3.459,2.254-4.438,6.886-2.183,10.346c0.048,0.07,0.099,0.141,0.148,0.209c0.146-0.078,0.289-0.161,0.429-0.25c3.46-2.254,4.438-6.886,2.183-10.346c0,0,0,0,0-0.001c-0.048-0.07-0.097-0.14-0.146-0.208C820.643,6.868,820.5,6.952,820.36,7.039z"/>
  <path id="path4138-2-5-2-4-1" fill="#479F00" d="M821.227,14.643c2.233-2.252,5.87-2.268,8.122-0.034c0.046,0.047,0.091,0.095,0.135,0.145c-0.082,0.097-0.167,0.191-0.255,0.283c-2.232,2.253-5.87,2.269-8.123,0.035l0,0c-0.045-0.048-0.09-0.096-0.134-0.145C821.054,14.829,821.139,14.735,821.227,14.643z"/>
  <circle id="path4138-0-0-0" fill="#FAAC2C" cx="820.873" cy="24.052" r="9.389"/>
  <circle id="path4138-0-0-0-3" fill="#FAAC2C" cx="826.518" cy="29.661" r="2.631"/>
  <g id="g4679">
    <g>
      <circle id="path4213-6-3-5-6_1_" fill="#992500" cx="820.474" cy="21.629" r="0.817"/>
      <path fill="#9A2400" d="M820.474,22.712c-0.597,0-1.082-0.486-1.082-1.082c0-0.598,0.485-1.082,1.082-1.082c0.598,0,1.082,0.484,1.082,1.082C821.556,22.226,821.071,22.712,820.474,22.712z M820.474,21.077c-0.305,0-0.553,0.248-0.553,0.554c0,0.305,0.248,0.553,0.553,0.553c0.306,0,0.554-0.248,0.554-0.553C821.028,21.325,820.779,21.077,820.474,21.077z"/>
    </g>
    <g>
      <circle id="path4213-6-6-7-8-6_1_" fill="#992500" cx="825.505" cy="21.629" r="0.817"/>
      <path fill="#9A2400" d="M825.505,22.712c-0.597,0-1.082-0.486-1.082-1.082c0-0.598,0.485-1.082,1.082-1.082s1.082,0.484,1.082,1.082C826.587,22.226,826.102,22.712,825.505,22.712z M825.505,21.077c-0.305,0-0.553,0.248-0.553,0.554c0,0.305,0.248,0.553,0.553,0.553s0.553-0.248,0.553-0.553C826.058,21.325,825.81,21.077,825.505,21.077z"/>
    </g>
  </g>
  <g>
    <circle id="path4213-6-6-7-8-6-6_1_" fill="#9A2400" cx="826.518" cy="29.661" r="0.607"/>
    <path fill="#9A2400" d="M826.518,30.466c-0.442,0-0.804-0.361-0.804-0.805s0.361-0.805,0.804-0.805c0.443,0,0.805,0.361,0.805,0.805C827.322,30.105,826.96,30.466,826.518,30.466z M826.518,29.25c-0.227,0-0.411,0.185-0.411,0.411s0.185,0.41,0.411,0.41s0.411-0.186,0.411-0.41C826.928,29.435,826.744,29.25,826.518,29.25z"/>
  </g>
  <path fill="#9A2400" d="M817.732,20.796c-0.165,0-0.304-0.128-0.315-0.295c-0.084-1.158,0.292-2.159,1.06-2.818c0.743-0.638,1.784-0.884,2.786-0.654c0.171,0.039,0.278,0.209,0.239,0.38s-0.207,0.279-0.38,0.239c-0.808-0.183-1.642,0.01-2.231,0.518c-0.61,0.524-0.909,1.338-0.84,2.29c0.013,0.176-0.119,0.327-0.293,0.34C817.748,20.796,817.741,20.796,817.732,20.796z"/>
  <path fill="#9A2400" d="M826.792,19.691c-0.009,0-0.02,0-0.028-0.001c-0.175-0.016-0.304-0.169-0.289-0.344c0.048-0.529-0.089-0.973-0.393-1.283c-0.337-0.344-0.867-0.521-1.457-0.479c-0.177,0.011-0.326-0.121-0.338-0.295c-0.011-0.175,0.121-0.327,0.296-0.338c0.77-0.054,1.485,0.191,1.953,0.668c0.437,0.447,0.635,1.063,0.572,1.783C827.094,19.567,826.956,19.691,826.792,19.691z"/>
</g>
</svg>
