<?xml version="1.0" encoding="utf-8"?>
<!DOCTYPE svg PUBLIC "-//W3C//DTD SVG 1.1//EN" "http://www.w3.org/Graphics/SVG/1.1/DTD/svg11.dtd">
<!-- Clemoji 3.0: smile.svg (:)) - licence GPLv3 or later - Author Buddy - https://zestedesavoir.com/ -->
<svg xmlns:dc="http://purl.org/dc/elements/1.1/" xmlns:cc="http://creativecommons.org/ns#" xmlns:rdf="http://www.w3.org/1999/02/22-rdf-syntax-ns#" xmlns:svg="http://www.w3.org/2000/svg" xmlns="http://www.w3.org/2000/svg" xmlns:xlink="http://www.w3.org/1999/xlink" xml:space="preserve" version="1.1" id="clemoji3_smile" x="0px" y="0px" width="19px" height="27.834px" viewBox="0 0 19 27.834" enable-background="new 0 0 19 27.834">
  <g id="g10" transform="matrix(1.25,0,0,-1.25,-2.5,62.5)">
    <g id="g20" transform="translate(36,19)">
      <path id="path22" fill="#FAAC2C" d="M-18.889,17.304c0-4.148-3.362-7.51-7.511-7.51c-4.148,0-7.511,3.363-7.511,7.51c0,4.148,3.363,7.511,7.511,7.511C-22.252,24.815-18.889,21.453-18.889,17.304" />
    </g>
    <g id="g24">
      <path id="g32_4_" fill="#9A2400" d="M9.601,30.842c-2.618,0-4.874,1.867-5.395,4.4H4.139c-0.234,0-0.423,0.19-0.423,0.423c0,0.234,0.19,0.423,0.423,0.423h0.423c0.212,0,0.391-0.156,0.419-0.366c0.313-2.3,2.298-4.034,4.619-4.034s4.305,1.734,4.617,4.034c0.029,0.209,0.208,0.366,0.42,0.366h0.423c0.234,0,0.423-0.189,0.423-0.423c0-0.233-0.189-0.423-0.423-0.423h-0.066C14.473,32.709,12.217,30.842,9.601,30.842z"/>
    </g>
    <g id="g32" transform="translate(14.5,22.5)">
      <path id="path34" fill="#992500" d="M-6.345,15.674c0-0.808-0.468-1.461-1.043-1.461c-0.577,0-1.044,0.653-1.044,1.461c0,0.805,0.467,1.46,1.044,1.46C-6.813,17.133-6.345,16.479-6.345,15.674" />
    </g>
    <g id="g36" transform="translate(26.5,22.5)">
      <path id="path38" fill="#992500" d="M-13.338,15.674c0-0.808-0.467-1.461-1.043-1.461c-0.577,0-1.043,0.653-1.043,1.461c0,0.805,0.466,1.46,1.043,1.46C-13.805,17.133-13.338,16.479-13.338,15.674" />
    </g>
    <g id="gfeuille" transform="translate(113.91075,50.659)">
      <path id="path41" fill="#479F00" d="M-98.058-0.666c-3.305,0-5.983-2.679-5.982-5.982c0.002-0.069,0.004-0.137,0.007-0.205c0.131-0.011,0.264-0.018,0.396-0.02c3.304-0.001,5.983,2.678,5.983,5.982c0,0,0,0,0,0.001c-0.002,0.068-0.004,0.136-0.008,0.204C-97.792-0.675-97.926-0.668-98.058-0.666L-98.058-0.666z" />
      <path id="path41-2" fill="#479F00" d="M-109.264-2.106c2.538,0,4.595-2.058,4.595-4.595c-0.001-0.053-0.002-0.105-0.005-0.158c-0.102-0.009-0.204-0.013-0.305-0.015c-2.538-0.001-4.596,2.057-4.596,4.595c0,0.001,0,0.001,0,0.001c0.001,0.052,0.003,0.105,0.006,0.157C-109.468-2.113-109.367-2.107-109.264-2.106L-109.264-2.106z" />
    </g>
  </g>
</svg>