<?xml version="1.0" encoding="utf-8"?>
<!DOCTYPE svg PUBLIC "-//W3C//DTD SVG 1.1//EN" "http://www.w3.org/Graphics/SVG/1.1/DTD/svg11.dtd">
<!-- Clemoji 3.0: soleil.svg (:soleil:) - licence GPLv3 or later - Author Buddy - https://zestedesavoir.com/ -->
<svg version="1.1"
   id="clemoji3_soleil" xmlns:dc="http://purl.org/dc/elements/1.1/" xmlns:cc="http://creativecommons.org/ns#" xmlns:rdf="http://www.w3.org/1999/02/22-rdf-syntax-ns#" xmlns:svg="http://www.w3.org/2000/svg"
   xmlns="http://www.w3.org/2000/svg" xmlns:xlink="http://www.w3.org/1999/xlink" x="0px" y="0px" width="22px" height="27.834px"
   viewBox="-1.5 0 22 27.834" enable-background="new -1.5 0 22 27.834" xml:space="preserve">
<g id="g10" transform="translate(300.26142,-225.70574)">
  <circle id="path4138-0-0-4-1-7-6" fill="#F8AD32" cx="-290.762" cy="242.824" r="9.389"/>
  <g id="g4675">
    <path id="path4138-2-28-0-4-5-2-1" fill="#479F00" d="M-280.347,230.604c-3.408-2.041-7.824-0.933-9.863,2.475c-0.041,0.071-0.082,0.144-0.12,0.217c0.129,0.093,0.262,0.182,0.396,0.266c3.407,2.041,7.823,0.934,9.864-2.475l0,0c0.041-0.071,0.082-0.144,0.119-0.216C-280.08,230.778-280.211,230.689-280.347,230.604z"/>
    <path id="path4138-2-5-1-6" fill="#479F00" d="M-295.946,227.531c3.171,0,5.743,2.572,5.743,5.744c-0.001,0.065-0.004,0.131-0.007,0.197c-0.128,0.01-0.255,0.017-0.382,0.019c-3.172,0-5.742-2.571-5.743-5.743l0,0c0.002-0.065,0.004-0.13,0.007-0.196C-296.201,227.54-296.074,227.533-295.946,227.531L-295.946,227.531z"/>
  </g>
  <g id="g5373" transform="matrix(-1,0,0,1,756.28918,-1.875)">
    <path fill="#9A2400" d="M1042.201,241.303c0.008,0,0.016,0,0.023-0.001c0.174-0.013,0.305-0.165,0.293-0.34c-0.068-0.952,0.229-1.765,0.84-2.29c0.59-0.507,1.424-0.7,2.232-0.518c0.168,0.038,0.339-0.067,0.378-0.239c0.039-0.171-0.068-0.341-0.239-0.38c-1-0.228-2.043,0.018-2.785,0.655c-0.766,0.659-1.143,1.66-1.059,2.817C1041.898,241.175,1042.035,241.303,1042.201,241.303z"/>
    <path fill="#9A2400" d="M1052.385,241.2c0.017,0,0.033-0.001,0.052-0.004c0.173-0.028,0.29-0.191,0.262-0.365c-0.168-1.031-1.158-1.67-2.454-1.578c-0.176,0.012-0.308,0.163-0.296,0.338c0.012,0.175,0.171,0.304,0.338,0.296c0.97-0.063,1.672,0.346,1.786,1.047C1052.098,241.09,1052.232,241.2,1052.385,241.2z"/>
  </g>
  <path id="path5205-9-8" fill="#FFFFFF" d="M-286.025,244.836c-2.883-0.029-3.702,0.373-4.833,0.732c-1.112,0.354-2.489,0.644-6.137,0.371c1.297,2.191,3.652,3.551,6.214,3.553c2.979-0.002,5.637-1.834,6.719-4.59C-284.781,244.869-285.457,244.841-286.025,244.836z"/>
  <g id="g4718">
    <path fill="#595959" d="M-281.914,241.248h-17.696c-0.175,0-0.316-0.143-0.316-0.317s0.143-0.316,0.316-0.316h17.694c0.176,0,0.316,0.143,0.316,0.316C-281.597,241.105-281.74,241.248-281.914,241.248z"/>
    <g id="g4665">
      <path id="rect4575" fill="#595959" d="M-289.224,239.673h3.836c0.479,0,0.859,0.384,0.859,0.86v1.652c0,1.436-1.441,1.918-1.918,1.918h-1.719c-0.479,0-1.918-0.613-1.918-1.918v-1.652C-290.083,240.056-289.7,239.673-289.224,239.673z"/>
      <path id="rect4575-8" fill="#595959" d="M-296.137,239.673h3.837c0.478,0,0.859,0.384,0.859,0.86v1.652c0,1.436-1.441,1.918-1.918,1.918h-1.72c-0.478,0-1.918-0.613-1.918-1.918v-1.652C-296.995,240.056-296.612,239.673-296.137,239.673z"/>
    </g>
    <g id="g4710">
      <path id="rect4575-2" fill="#FFFFFF" d="M-288.562,240.433c-0.404,0-0.729,0.291-0.729,0.652v0.174c0.174,0.033,0.352,0.051,0.531,0.051c0.824,0,1.566-0.346,1.887-0.877H-288.562z"/>
      <path id="rect4575-2-1" fill="#FFFFFF" d="M-295.475,240.433c-0.402,0-0.728,0.291-0.728,0.652v0.174c0.173,0.033,0.353,0.051,0.532,0.051c0.823,0,1.566-0.346,1.885-0.877H-295.475z"/>
    </g>
  </g>
</g>
</svg>
