<?xml version="1.0" encoding="utf-8"?>
<!DOCTYPE svg PUBLIC "-//W3C//DTD SVG 1.1//EN" "http://www.w3.org/Graphics/SVG/1.1/DTD/svg11.dtd">
<!-- Clemoji 3.0: triste.svg (:() - licence GPLv3 or later - Author Buddy - https://zestedesavoir.com/ -->
<svg id="clemoji3_triste" xmlns:dc="http://purl.org/dc/elements/1.1/" xmlns:cc="http://creativecommons.org/ns#" xmlns:rdf="http://www.w3.org/1999/02/22-rdf-syntax-ns#" xmlns:svg="http://www.w3.org/2000/svg" xmlns="http://www.w3.org/2000/svg" xmlns:xlink="http://www.w3.org/1999/xlink" xml:space="preserve" version="1.1" x="0px" y="0px" width="19px" height="27.834px" viewBox="0 0 19 27.834" enable-background="new 0 0 19 27.834">
  <g id="g10" transform="matrix(1.25,0,0,-1.25,-2.5,62.5)">
    <g id="gfeuille" transform="translate(0,1)">
      <path id="path4138-2" fill="#479F00" d="M17.052,45.92c-3.125,1.28-6.695-0.213-7.977-3.338c-0.025-0.065-0.05-0.13-0.073-0.197c0.12-0.063,0.244-0.12,0.367-0.173c3.125-1.282,6.697,0.212,7.978,3.337c0,0,0,0,0,0.001c0.027,0.065,0.05,0.13,0.073,0.196C17.298,45.809,17.175,45.866,17.052,45.92L17.052,45.92z"/>
      <path id="path4138-2-5" fill="#479F00" d="M3.816,44.28c2.259,1.275,5.123,0.478,6.398-1.78c0.027-0.046,0.05-0.095,0.075-0.143c-0.087-0.058-0.175-0.114-0.264-0.167c-2.258-1.276-5.123-0.479-6.398,1.78c-0.001,0-0.001,0-0.001,0c-0.026,0.047-0.049,0.095-0.073,0.143C3.638,44.172,3.726,44.228,3.816,44.28z"/>
    </g>
    <g id="g20" transform="translate(36,19)">
      <path id="path22" fill="#FAAC2C" d="M-18.889,17.304c0-4.148-3.362-7.51-7.511-7.51c-4.148,0-7.511,3.363-7.511,7.51c0,4.148,3.363,7.511,7.511,7.511C-22.252,24.815-18.889,21.453-18.889,17.304" />
    </g>
    <path id="g24" fill="#9A2500" d="M6.043,31.591c-0.111,0-0.22,0.044-0.303,0.128c-0.163,0.167-0.16,0.435,0.007,0.598c1.036,1.012,2.4,1.569,3.841,1.569c1.44,0,2.804-0.556,3.84-1.567c0.167-0.163,0.17-0.431,0.006-0.598c-0.163-0.168-0.431-0.17-0.598-0.008c-0.877,0.856-2.03,1.327-3.248,1.327c-1.219,0-2.373-0.472-3.25-1.328C6.256,31.632,6.15,31.591,6.043,31.591z"/>
    <g id="g32" transform="translate(14.5,22.5)">
      <path id="path34" fill="#992500" d="M-6.345,15.674c0-0.808-0.468-1.461-1.043-1.461c-0.577,0-1.044,0.653-1.044,1.461c0,0.805,0.467,1.46,1.044,1.46C-6.813,17.133-6.345,16.479-6.345,15.674" />
    </g>
    <g id="g36" transform="translate(26.5,22.5)">
      <path id="path38" fill="#992500" d="M-13.338,15.674c0-0.808-0.467-1.461-1.043-1.461c-0.577,0-1.043,0.653-1.043,1.461c0,0.805,0.466,1.46,1.043,1.46C-13.805,17.133-13.338,16.479-13.338,15.674" />
    </g>
  </g>
</svg>