<?xml version="1.0" encoding="utf-8"?>
<!DOCTYPE svg PUBLIC "-//W3C//DTD SVG 1.1//EN" "http://www.w3.org/Graphics/SVG/1.1/DTD/svg11.dtd">
<!-- Clemoji 3.0: zorro.svg (:zorro:) - licence GPLv3 or later - Author Buddy - https://zestedesavoir.com/ -->
<svg version="1.1"
   id="clemoji3_zorro" xmlns:dc="http://purl.org/dc/elements/1.1/" xmlns:cc="http://creativecommons.org/ns#" xmlns:rdf="http://www.w3.org/1999/02/22-rdf-syntax-ns#" xmlns:svg="http://www.w3.org/2000/svg"
   xmlns="http://www.w3.org/2000/svg" xmlns:xlink="http://www.w3.org/1999/xlink" x="0px" y="0px" width="33.125px" height="28px"
   viewBox="-10.125 -0.083 33.125 28" enable-background="new -10.125 -0.083 33.125 28" xml:space="preserve">
<g id="g10" transform="translate(-125.04141,-171.12743)">
  <g>
    <path id="path4670_1_" fill="#555555" d="M122.099,190.63l-6.734-19.363l7.669,19.27L122.099,190.63z"/>
    <path fill="#555555" d="M122.099,190.763c-0.056,0-0.106-0.035-0.125-0.09l-6.735-19.363c-0.022-0.068,0.012-0.142,0.079-0.167s0.143,0.008,0.168,0.075l7.671,19.27c0.017,0.039,0.013,0.082-0.01,0.117c-0.022,0.037-0.06,0.06-0.101,0.063l-0.937,0.093C122.108,190.763,122.103,190.763,122.099,190.763z M117.461,176.891l4.729,13.597l0.658-0.064L117.461,176.891z"/>
  </g>
  <path id="path4678" fill="#479F00" d="M121.819,192.126c0.461,2.084,2.004,2.777,4.209,2.619c0.331-1.342,0.368-2.682-1.028-4.021L121.819,192.126z"/>
  <g>
    <path id="path4673_1_" fill="#555555" d="M123.689,189.921c-1.683,0-3.047,1.364-3.047,3.047c0.001,0.448,0.102,0.893,0.294,1.297l5.354-2.879C125.738,190.478,124.752,189.922,123.689,189.921z"/>
    <path fill="#555555" d="M120.936,194.437c-0.02,0-0.036-0.002-0.054-0.008c-0.046-0.016-0.082-0.048-0.103-0.091c-0.202-0.425-0.31-0.897-0.311-1.37c0-1.775,1.442-3.22,3.219-3.22c1.115,0.002,2.168,0.597,2.748,1.549c0.023,0.04,0.031,0.089,0.019,0.136c-0.012,0.045-0.043,0.084-0.085,0.105l-5.354,2.878C120.992,194.431,120.965,194.437,120.936,194.437z M123.689,190.093c-1.585,0-2.874,1.29-2.874,2.875c0.001,0.359,0.071,0.723,0.204,1.057l5.022-2.701C125.509,190.562,124.623,190.095,123.689,190.093z"/>
  </g>
  <path id="path4680" fill="#555555" d="M132.027,173.813c-0.729,0.682-1.93,1.498-2.164,2.117c-0.218,0.578,0.025,2.168,0.006,3.232c-2.672-0.139-4.4-0.339-5.812-0.335c-0.703,0.002-1.351,0.057-2.041,0.196c-0.48,0.082-0.711,0.638-0.428,1.035c0.718,1.681,7.108,1.643,12.539,1.624c0.343,0,0.718-0.001,1.067,0c5.433,0.019,11.823,0.057,12.541-1.624c0.282-0.397,0.053-0.953-0.428-1.035c-0.691-0.14-1.338-0.194-2.042-0.196c-1.409-0.004-3.139,0.196-5.812,0.335c-0.02-1.064,0.224-2.654,0.007-3.232c-0.234-0.619-1.437-1.435-2.165-2.117c-0.729-0.682-1.954-1.531-2.636-1.531C133.98,172.282,132.757,173.131,132.027,173.813L132.027,173.813z"/>
  <rect x="132.173" y="174.884" fill="#FFFFFF" width="4.928" height="1.058"/>
  <rect x="132.173" y="177.794" fill="#FFFFFF" width="4.928" height="1.058"/>
  <rect x="134.158" y="174.296" transform="matrix(-0.5332 -0.846 0.846 -0.5332 56.7436 385.0754)" fill="#FFFFFF" width="0.899" height="5.175"/>
  <path id="path4138-0-0-4-8-9" fill="#F8AD32" d="M128.638,180.948c-2.203,1.781-3.485,4.463-3.486,7.297c0,5.186,4.203,9.389,9.388,9.389c5.187,0,9.391-4.201,9.391-9.388c0,0,0,0,0-0.001c-0.003-2.834-1.287-5.517-3.492-7.297H128.638z
    "/>
  <path fill="#FFFFFF" d="M137.502,194.744h-5.924c-0.877,0-1.588-0.711-1.588-1.588s0.711-1.588,1.588-1.588h5.924c0.877,0,1.588,0.711,1.588,1.588S138.379,194.744,137.502,194.744z"/>
  <g id="g4808" transform="translate(10.5,-54.5)">
    <ellipse id="path4782" fill="#555555" cx="120.089" cy="240.394" rx="4.209" ry="2.502"/>
    <ellipse id="path4782-0" fill="#555555" cx="127.993" cy="240.394" rx="4.209" ry="2.502"/>
    <path id="path4803" fill="#555555" d="M115.774,238.299c-0.628,1.172-1.001,2.466-1.093,3.791h18.714c-0.092-1.325-0.465-2.619-1.094-3.791H115.774z"/>
  </g>
  <g>
    <circle id="path4213-6-6-7-8-8-6-8_1_" fill="#FFFFFF" cx="138.161" cy="185.823" r="0.817"/>
    <path fill="#F8AB32" d="M138.161,186.906c-0.598,0-1.082-0.485-1.082-1.082c0-0.597,0.484-1.083,1.082-1.083s1.082,0.485,1.082,1.083C139.244,186.42,138.758,186.906,138.161,186.906z M138.161,185.271c-0.306,0-0.554,0.249-0.554,0.553s0.248,0.553,0.554,0.553s0.554-0.248,0.554-0.553S138.466,185.271,138.161,185.271z"/>
  </g>
  <g>
    <circle id="path4213-6-3-5-8-59-1_1_" fill="#FFFFFF" cx="131.013" cy="185.823" r="0.817"/>
    <path fill="#F8AB32" d="M131.013,186.906c-0.597,0-1.082-0.485-1.082-1.082c0-0.597,0.485-1.083,1.082-1.083s1.082,0.485,1.082,1.083C132.095,186.42,131.61,186.906,131.013,186.906z M131.013,185.271c-0.306,0-0.554,0.249-0.554,0.553s0.248,0.553,0.554,0.553c0.305,0,0.553-0.248,0.553-0.553S131.318,185.271,131.013,185.271z"/>
  </g>
</g>
</svg>
